<mxfile host="app.diagrams.net" modified="2022-10-16T09:32:53.086Z" agent="5.0 (X11; Linux x86_64) AppleWebKit/537.36 (KHTML, like Gecko) Chrome/104.0.0.0 Safari/537.36" etag="1N6nbvkfkcmF2A3OO1mr" version="20.4.1" type="github">
  <diagram id="KyKhYNl1KCeoH-QK4lVU" name="Page-1">
    <mxGraphModel dx="2585" dy="1455" grid="1" gridSize="10" guides="1" tooltips="1" connect="1" arrows="1" fold="1" page="1" pageScale="1" pageWidth="1100" pageHeight="850" math="0" shadow="0">
      <root>
        <mxCell id="0" />
        <mxCell id="1" parent="0" />
        <mxCell id="VPC5jBnNboCeoQjzzpag-8" value="" style="shape=image;verticalLabelPosition=bottom;labelBackgroundColor=default;verticalAlign=top;aspect=fixed;imageAspect=0;image=data:image/png,iVBORw0KGgoAAAANSUhEUgAAAoAAAAHgCAYAAAA10dzkAAAAOXRFWHRTb2Z0d2FyZQBNYXRwbG90bGliIHZlcnNpb24zLjMuNCwgaHR0cHM6Ly9tYXRwbG90bGliLm9yZy8QVMy6AAAACXBIWXMAAA9hAAAPYQGoP6dpAAC65ElEQVR4nOzdfXRU1bn48e+Ql5nIJESGkSFAiAGqRgUFQgQaEiiYFFBcDahokUCaFFrEQgtxRkloUhullpei1eJFM9KK9kVDUKrhjuReLoMoYH65BZUKIjQxEQZCIoG8zu+PLM51ypwDDJOZQJ6P66wlZ++zzz57XrJnn/2crXO73W6EEEIIIUS30SPYFRBCCCGEEIElHUAhhBBCiG5GOoBCCCGEEN2MdACFEEIIIboZ6QAKIYQQQnQz0gEUQgghhOhmpAMohBBCCNHNSAdQCCGEEKKbkQ6gEEIIIUQ3Ix1AIYQQQohuRjqAQgghhBDdjHQAhRBCCCG6GekACiGEEEJ0M9IBFEIIIYToZqQDKIQQQgjRzUgHUAghhBDdwn//939zzz33EBMTg06no6Sk5KLHlJeXM2LECPR6PUOGDKG4uLjT6xkI0gEUQgghRLdw5swZhg8fzvPPP39J+b/44gumTp3KhAkTqKio4Gc/+xk/+tGPeO+99zq5pp1P53a73cGuhBBCCCFEIOl0Ot566y3uu+8+1Ty5ubm88847/OMf/1D2Pfjgg9TV1fHuu+8GoJadp0uNAB4/fpwFCxYQGxuLXq/HYrGQlpbGzp07AYiLi0On06HT6QgJCSEmJoasrCxOnTqllNHY2IjVamXw4MEYDAbMZjMpKSls3rxZyfPmm29y9913YzKZ0Ol0VFRUBPpShRBCCOEHTU1N1NfXe2xNTU1+KXvXrl1MmjTJY19aWhq7du3yS/nBFBrsCnxbRkYGzc3N2O124uPjqa2txeFw4HK5lDwFBQVkZ2fT1tbGwYMHycnJYdGiRWzcuBGA+fPns3v3btatW0dCQgIulwun0+lRxpkzZ/jud7/L/fffT3Z2tk91bTlx2Ov+J0c9oXrMGdpV02rcZ1XTJrdFed3foNF9/98e6uWFoPO6P0xlv9YxAHHucNW0RrwPMOs1ylNPAb3GePXf3Se87h8S4r39AAa3q9dd7VxHQ9pUj9Gqu5YfNHv/snKGXqd6TKiPY/eneng/8IZ29dqfvciFLT76R6/7fxv7Q9Vjfq5yTOGgh1WP+YRGr/tHunuqHqP1JRem0YZqH696jc9di8r7HbQ/Q2pFatVP67NwR6v6539XWIRqmtpr8vuB6q/jdSpfa40XGV74yTHv5wqkdRrX5Yvmi3xOvLXv04O06/D4l97bacMA7eOy/nXhcRe73kcD+Jqo/Q31RdFzr/LLX/7SY19+fj4rVqy44rJramro27evx76+fftSX1/P2bNniYhQ/zx1dV2mA1hXV8eOHTsoLy8nJSUFgEGDBjF69GiPfJGRkVgsFgD69+/PnDlz2LRpk5JeWlrK2rVrmTJlCtAxajhy5EiPMmbPng3AkSNHOutyhBCiy9Hq/AlxtbJarSxZssRjn16vD1Jtrh5d5haw0WjEaDRSUlJyyUO3VVVVbNmyhaSkJGWfxWJh69atNDQ0+K1unTm8LIQQQnQ77W1+2/R6PVFRUR6bvzqAFouF2tpaj321tbVERUVd1aN/0IU6gKGhoRQXF2O324mOjmbcuHHYbDYqKys98uXm5mI0GomIiGDAgAHodDpWrVqlpK9fvx6n04nJZCIxMZHFixcrcwh9VVRURK9evTy2Z9a+eEVlCiGEEKJrGzNmDA6Hw2Pftm3bGDNmTJBq5D9dpgMIHXMAq6urKS0tJT09XXn2zrefubN06VIqKiqorKxUXpSpU6fS1tYxL2v8+PEcPnwYh8PBjBkz2L9/P8nJyRQWFvpcL6vVyunTpz223MfmX9G1CiGEEN2Wu91/22X45ptvqKioUII/v/jiCyoqKjh69CjQ8ff+kUceUfLPnz+fw4cPs2zZMj799FN+//vf8+c//5nFixf7rSmCpUt1AAEMBgOTJ09m+fLlOJ1OMjMzyc/PV9L79OnDkCFDGDp0KBMnTmTNmjU4nU62b9+u5AkLCyM5OZnc3FzKysooKCigsLCQ5uZmn+rUmcPLQgghRLfT3u6/7TLs2bOHO++8kzvvvBOAJUuWcOedd5KXlwfAV199pXQGAW688Ubeeecdtm3bxvDhw/ntb3/Lf/zHf5CWlua/tgiSLhMEoiYhIUHzSd0hISEAnD2rHvWWkJBAa2sr586dIzxcPerzcqhF+/5qz1Oqx7x6R55qWosuTDXtn6Heo077t4eoHvMdt0E1rYcPsarqZ1KPAgRo7+H9XBE+RrCGaByXGNLb6/68t+eqHvPS9+2qaWqnukGj3X2lFu3bGb/QIt3eX5MWjWO0olG1+PIFY1SpH8DNOu/tFK5RP613u9afjiiVYO8zGgVqRbdrvXfPqRym1e5NGvV4Q6/2fdJKbPvlvypa7eRS+ThoRSl3FVqf5MvrVnTw5Zp9/S5s9OGRA/7/5rr6pKamovX4Y2+rfKSmpvLxxx93Yq2Co8t0AF0uFzNnzmTevHkMGzaMyMhI9uzZw8qVK5k+fbqSr6GhgZqaGtxuN8eOHWPZsmWYzWbGjh0LdLxQs2bNYtSoUZhMJg4cOIDNZmPChAlERXU8DuTkyZMcPXqU6upqAD777DOgY7Ln+QhjIYS41vjS+ROiM7gv89at8L8u821gNBpJSkpi9erVHDp0iJaWFgYOHEh2djY2m03Jl5eXpwzVms1mEhMTKSsrw2QyAR0PaLTb7dhsNhobG4mJiWHatGnKMdDxqJi5c/9vVOjBBx8E/PfcICGEEEJouMxbt8L/ukwHUK/XU1RURFFRkWqeS3lun9VqxWq1aubJzMwkMzPzMmsohBBCCHFt6DIdQCGEEEJ0E3ILOOikAyiEEEKIwGpXX1JTBIZ0AH2ktq6vVqTvIxUFqmlPj1yumlalsk5wf4yqx2hpV4lv1Vqr1NePqq/r1arRiopVq33p5GL1g0J9Xb3XO43ldLWPU9mvFVWoFfna4t/L8plW5Ks/DW1uVU37PNy3r7k6lZBJo8bAhdZasFq1uE6lnbReR63xk5Nu74+8OqlrJqldfX1pf/I1ujWQtN6fKg8wQP2d5huVpbkvSuvzr0a6XOLbpAMohBDdRKA6f0JclNwCDjrpAAohhBAisCQKOOi63EogQgghhBCic8kIoBBCCCECSh4EHXxdagTw+PHjLFiwgNjYWPR6PRaLhbS0NHbu3AlAXFwcOp0OnU5HSEgIMTExZGVlcerUKaWMxsZGrFYrgwcPxmAwYDabSUlJYfPmzV7POX/+fHQ6HWvWrAnEJQohhBAiSGsBi//TpUYAMzIyaG5uxm63Ex8fT21tLQ6HA5fLpeQpKCggOzubtrY2Dh48SE5ODosWLWLjxo1AR4du9+7drFu3joSEBFwuF06n06OM89566y0++OADYmJiLruuNSqRuVpr+mpF+j6+t1A17c/DvEcWn9RY2FFrTVJ/B4hqBaOpnaszokOTznkv9ESIb79z1Op+g0YoXY2Pn6hGlVbUWhfX10hftchira9RX38p+vIya0WOG3TeL/ozvXrD+7qOsZpzGo2h9b7WWmtZLXpcM0pVo7zIHt7b40BIM0PbL389dK1zqbW81lrFXYXWZ0jtmrvKqIkvn/+r4CURAdRlOoB1dXXs2LGD8vJyUlJSABg0aBCjR4/2yBcZGams19u/f3/mzJnDpk2blPTS0lLWrl3LlClTgI5Rw5EjR15wvqqqKh599FHee+89pk6d2lmXJYQQXYYvnT8hOoXcAg66rvJjBqPRiNFopKSkhKampks6pqqqii1btpCUlKTss1gsbN26lYaGBtXj2tvbmT17NkuXLuXWW2+96Hmampqor6/32Nrc8kQlIYQQwiftbf7bhE+6TAcwNDSU4uJi7HY70dHRjBs3DpvNRmVlpUe+3NxcjEYjERERDBgwAJ1Ox6pVq5T09evX43Q6MZlMJCYmsnjxYmUO4XnPPPMMoaGhLFq06JLqVlRURK9evTy2z05/fuUXLYQQQggRBF2mAwgdcwCrq6spLS0lPT2d8vJyRowYQXFxsZJn6dKlVFRUUFlZicPhAGDq1Km0tXX8Chg/fjyHDx/G4XAwY8YM9u/fT3JyMoWFHXPs9u7dy9q1aykuLkanMp/o31mtVk6fPu2x3dRriH8vXgghhOgu3O3+24RPuswcwPMMBgOTJ09m8uTJLF++nB/96Efk5+eTmZkJQJ8+fRgypKPzNXToUNasWcOYMWPYvn07kyZNAiAsLIzk5GSSk5PJzc3lV7/6FQUFBeTm5rJjxw6+/vprYmNjlXO2tbXx85//nDVr1nDkyJEL6qTX69Hr9R770tuv91r/f4aqD0erLekG6oEeAPdXel9Cbu0I9WM+0n2jmqbV6zfovEeW6DSmDye3GFTTXCqBKud06pOYtbrlWstL9Qv13r7bQ9Xrd2Ob+kdArR71PSCmxfuXzldhvn0Z3dWkFtHj5psQ7zX5RuOF1FpC7qzKhUVr3EnRWuJMiy9L453RuK779CdV0/7zbG+v+7Umy2st66Z2nN7tWxDTKY2grV4qbX9a45gYjaiSl2p3qqY9bZmgfqAKre8MtSZs0nWxEQYvtN4bap8hraCiNh8/J758vnw9l9Z7PqAkejfoulwH8N8lJCRQUlKimh4S0vENefaseucqISGB1tZWzp07x+zZs5WO4nlpaWnMnj2buXPn+qXOVyu1zl9n6Cpr1fpCrfPXGdQ6f8KTWuevMwRqfePO4Evnz1ddvfPXVfj648oXXabzJ7qELtMBdLlczJw5k3nz5jFs2DAiIyPZs2cPK1euZPr06Uq+hoYGampqcLvdHDt2jGXLlmE2mxk7diwAqampzJo1i1GjRmEymThw4AA2m40JEyYQFRUFgMlk8jh3WFgYFouFm266KXAXLIQQQnRXcus26LpMB9BoNJKUlMTq1as5dOgQLS0tDBw4kOzsbGw2m5IvLy+PvLyOW59ms5nExETKysqUTl1aWhp2ux2bzUZjYyMxMTFMmzZNOUYIIYQQQSa3gIOuy3QA9Xo9RUVFFBUVqebxNj/v31mtVqxW62Wd+1LKFUIIIYS4VnSZDqAQQgghuge3PEs36KQD6KMGlRnO/dvVAyn6Y1RN01rWTS3a97F93qODAV688/Jvefs6F1kratOk8hk/2wkzxHfpvLfvQI07DbPHV6umfbEj0ntCOOx0e08b2qZ+YVqX/C+VFQS1op7jm9W/QI+Fqb+h1KIbO+M1SWptvOxjojRer20qwR5a712tqE1flivr16pewaow9UbUuq6eKmlakZ51Gt8Zq/uqBHv4GMCidbNO7bquhqXgtKLl1fg7gC2lXf2JDVp8WeKwsStF5sgcwKDrSm8HIa4Kap0/IYQQ4mohI4BCCCGECCwJAgk66QAKIYQQIrDkFnDQyS1gIYQQQohuJmAdwOPHj7NgwQJiY2PR6/VYLBbS0tLYubNjyaK4uDh0Oh06nY6QkBBiYmLIysri1KlTShmNjY1YrVYGDx6MwWDAbDaTkpLC5s2blTzny/j37Te/+U2gLlUIIYQQWtrb/LcJnwTsFnBGRgbNzc3Y7Xbi4+Opra3F4XDgcrmUPAUFBWRnZ9PW1sbBgwfJyclh0aJFbNy4EYD58+eze/du1q1bR0JCAi6XC6fT6VHGV1995XHev//972RlZZGRkeHX6/nfHt6XnvuOW33dWS16jThGtXV9tSJ953+sHiHcXv1P7/tPVqkew6mvVZPWP/YP1TS1SEVfIthA+xeLWhSr1tfDa/8do5qmdYNCLTrznMYxWs7qvDeI3q3+vvhSI9JXq53U2kMruNHXX4p7Qq5TTbtLZb/W66W2bJbWF1kPPy/ddlQj0lerDbWuy6VyAQaNN6FWhPDhkFbVtLh2/37tN6rUI3ALS17d1J5ecN4olf2+3EDtUjdd5RZw0AWkA1hXV8eOHTsoLy8nJSUFgEGDBjF69GiPfJGRkVgsFgD69+/PnDlz2LRpk5JeWlrK2rVrmTJlCtAxajhy5EiPMs4ff97mzZuZMGEC8fHxyr7c3Fzeeust/vWvf2GxWHj44YfJy8sjLEzlWRxCfIuvi7ALEWz+7vwJIa5eAbkFbDQaMRqNlJSU0NTUdEnHVFVVsWXLFpKSkpR9FouFrVu30tDQcEll1NbW8s4775CVleWxPzIykuLiYg4cOMDatWt56aWXWL169aVfkBBCCCF8197uv034JCAdwNDQUIqLi7Hb7URHRzNu3DhsNhuVlZUe+XJzczEajURERDBgwAB0Oh2rVq1S0tevX4/T6cRkMpGYmMjixYuVOYTe2O12IiMj+cEPfuCx/8knn2Ts2LHExcVxzz338Itf/II///nPquU0NTVRX1/vsbXJU8yFEEII37jb/bcJnwQsCCQjI4Pq6mpKS0tJT0+nvLycESNGUFxcrORZunQpFRUVVFZW4nA4AJg6dSptbR2drfHjx3P48GEcDgczZsxg//79JCcnU1hY6PWcL7/8Mg8//DAGg+e8vDfeeINx48ZhsVgwGo08+eSTHD16VLXuRUVF9OrVy2P739OfXWGLCCGEEEIER0AfA2MwGJg8eTLLly/H6XSSmZlJfn6+kt6nTx+GDBnC0KFDmThxImvWrMHpdLJ9+3YlT1hYGMnJyeTm5lJWVkZBQQGFhYU0Nzd7nGvHjh189tln/OhHP/LYv2vXLh5++GGmTJnC22+/zccff8wTTzxxwfHfZrVaOX36tMd2e6+b/NQqQgghRDcjt4CDLqgzghMSEigpKVFNDwnpiCM7e9Z7xO35MlpbWzl37hzh4eHK/g0bNjBy5EiGDx/ukd/pdDJo0CCeeOIJZd+XX36pWU+9Xo9er/fYF67z3nQ9NOIA2zUW4vR3BKZapC9Aj5ih3o85rtEOIepvFa0oy3YJmOg0vv56k5ckOHxpd60vaPWfrBCicrZjPdoYqLFeuRABIx23oAtIB9DlcjFz5kzmzZvHsGHDiIyMZM+ePaxcuZLp06cr+RoaGqipqcHtdnPs2DGWLVuG2Wxm7NixAKSmpjJr1ixGjRqFyWTiwIED2Gw2JkyYQFRUlFJOfX09f/nLX/jtb397QV2GDh3K0aNHef3110lMTOSdd97hrbfe6vxGEEKIIJPOnxDivIB0AI1GI0lJSaxevZpDhw7R0tLCwIEDyc7OxmazKfny8vLIy+t4tp3ZbCYxMZGysjJMJhMAaWlp2O12bDYbjY2NxMTEMG3aNOWY815//XXcbjezZs26oC733nsvixcvZuHChTQ1NTF16lSWL1/OihUrOq8BhBBCCKFwSyBl0AWkA6jX6ykqKqKoqEg1z5EjRy5ajtVqxWq1XjRfTk4OOTk5qukrV65k5cqVHvt+9rOfXbRcIYQQQvhBkG8BP//88/zmN7+hpqaG4cOHs27dugueTfxta9as4YUXXuDo0aP06dOHGTNmUFRUdEGQ6dVE1gIWQgghRLfxxhtvsGTJEvLz89m3bx/Dhw8nLS2Nr7/2vuLVa6+9xuOPP05+fj6ffPIJGzZs4I033vC4g3k1kg6gEEIIIQIriM8BXLVqFdnZ2cydO5eEhARefPFFrrvuOl5++WWv+Z1OJ+PGjeOhhx4iLi6Ou+++m1mzZvHhhx9eaSsElawL5KMwH2L61CLzLsag8z5xW6s0rXV91aJ9Q4dPUj2mteQ5jbOpC+QvDLVoZH9HImtFPet8PFdX+CXWFeoAvkXL+nu930BTfe/6Wp7K/qoebfSXQJAupdtG5fvxFnBTU9MFq4x5e3oHQHNzM3v37vWYTtajRw8mTZrErl27vJY/duxY/vjHP/Lhhx8yevRoDh8+zNatW5k9e7bfriEYusp3vhBCiE4mnT9xLfK2WINazMGJEydoa2ujb9++Hvv79u1LTU2N12MeeughCgoK+O53v0tYWBiDBw8mNTVVbgELIYQQQlwWP94C9rZYw6UEjF6q8vJyfv3rX/P73/+effv28eabb/LOO++orkJ2tZBbwEIIIYQILD/eAla73etNnz59CAkJoba21mN/bW0tFovF6zHLly9n9uzZyspit99+O2fOnCEnJ4cnnniCHj2uzrG0q7PWfnbkyBF0Oh0VFRXBrooQQgghOkl4eDgjR47E4XAo+9rb23E4HIwZM8brMY2NjRd08s6vVOZ2X70TkAPWATx+/DgLFiwgNjYWvV6PxWIhLS2NnTt3AhAXF4dOp0On0xESEkJMTAxZWVmcOnVKKaOxsRGr1crgwYMxGAyYzWZSUlLYvHmzkud8Gf++/eY3vwnUpQohhBBCSxCjgJcsWcJLL72E3W7nk08+YcGCBZw5c4a5c+cC8Mgjj3jcQr7nnnt44YUXeP311/niiy/Ytm0by5cv55577lE6glejgN0CzsjIoLm5GbvdTnx8PLW1tTgcDlwul5KnoKCA7Oxs2traOHjwIDk5OSxatIiNGzcCMH/+fHbv3s26detISEjA5XLhdDo9yvjqq688zvv3v/+drKwsMjIy/Ho9ahG9Wm8FX597rvMlTuyU9+cZAarr+mpF+obet1C9vF/mqaeJq4bW12ggbxVcvb+n/e/6NvXW+CpU/XshXOU743iPdsztcuNHdAFBfBD0Aw88wPHjx8nLy6OmpoY77riDd999VwkMOXr0qMeI35NPPolOp+PJJ5+kqqoKs9nMPffcw1NPPRWsS/CLgHQA6+rq2LFjB+Xl5aSkpAAwaNCgC566HRkZqdyD79+/P3PmzGHTpk1KemlpKWvXrmXKlClAx6jhyJEjPcr493v4mzdvZsKECcTHxyv7PvzwQ3784x/zySefcNttt/HEE0/472KFEKKLks6fEB0WLlzIwoXeBzbKy8s9/h0aGkp+fj75+fkBqFngBOTbwGg0YjQaKSkpueBZPWqqqqrYsmULSUlJyj6LxcLWrVtpaGi4pDJqa2t55513yMrKUvZ98803TJs2jYSEBPbu3cuKFSv4xS9+oVlOU1MT9fX1HlubrGMohBBC+Ka93X+b8ElAOoChoaEUFxdjt9uJjo5m3Lhx2Gw2KisrPfLl5uZiNBqJiIhgwIAB6HQ6Vq1apaSvX78ep9OJyWQiMTGRxYsXK3MIvbHb7URGRvKDH/xA2ffaa6/R3t7Ohg0buPXWW5k2bRpLly7VrL+3ZwztO/2pj60hhBBCdHNBnAMoOgTsfkBGRgbV1dWUlpaSnp5OeXk5I0aMoLi4WMmzdOlSKioqqKysVCJ0pk6dSltbx2jb+PHjOXz4MA6HgxkzZrB//36Sk5NVn8Xz8ssv8/DDD3ss1vzJJ58wbNgwj31qkT/neXvG0IheN/vaFEIIIYQQQRXQCSEGg4HJkyezfPlynE4nmZmZHvfU+/Tpw5AhQxg6dCgTJ05kzZo1OJ1Otm/fruQJCwsjOTmZ3NxcysrKKCgooLCwkObmZo9z7dixg88++0x5bs+V0Ov1REVFeWwhKsuzCSGEEOIi5BZw0AX1QdAJCQmUlJSopp8Prz579qxmGa2trZw7d47w8HBl/4YNGxg5ciTDhw/3yH/LLbewceNGzp07p4wCfvDBB5dd9zh3uNf91/n4XtSKfExuMXjdf0aj+77+sX+opvm0bqpGpO/8jwtU01680/txnfHLQ61L7utrolZHreJ8/UCprS0d0LWUA3guLVox72rtG6nxojT6+cK06qd1Kq20VpX9X2tE+t7Qqv5Bruvh/bh6nRuznxfH7rZr2QaZL2/rrvIZB+TWbRcQkPeDy+Vi4sSJ/PGPf6SyspIvvviCv/zlL6xcuZLp06cr+RoaGqipqeGrr77iww8/ZOnSpZjNZsaOHQtAamoqf/jDH9i7dy9Hjhxh69at2Gw2JkyYQFRUlFJOfX09f/nLX7yO/j300EPodDqys7M5cOAAW7du5dlnn+38RhBCiCDzd+dPCHH1CsgIoNFoJCkpidWrV3Po0CFaWloYOHAg2dnZHosp5+XlkZfXMWJkNptJTEykrKwMk8kEQFpaGna7HZvNRmNjIzExMUybNk055rzXX38dt9vNrFmzvNZly5YtzJ8/nzvvvJOEhASeeeYZvz8nUAghhBAq5NZt0AWkA6jX6ykqKqKoqEg1z5EjRy5ajtVqvaQFnnNycsjJyVFNv+uuuy5Y9u1qXs5FCCGEuKrILeCg61JTAoQQQgghROcLahCIEEIIIbohuQUcdNIB9FGjStxuu0r0HUCoxl1mranZLpXwVpPGYiR1Gk+pUZsH7utwsFqkL6hHCP9B4xgtWnVUa456jYOiNL6D1JK0JguEaCRq1f0bncr7SeOd4e/h+66yFrAWtWjZBo0K+vuBTX01om9rNaJ2td4baoepXS+AS+NcepX99T1A78Nsl14a3zUn5YlYV8Ss8X7S4kv3qUt1uaQDGHRd5XtdCCFEJ/Ol8yeEuDbJCKAQQgghAksCL4NOOoBCCCGECCy5BRx0frkFfPz4cRYsWEBsbCx6vR6LxUJaWho7d+4EIC4uDp1Oh06nIyQkhJiYGLKysjh16pRSRmNjI1arlcGDB2MwGDCbzaSkpLB582Ylz5tvvsndd9+NyWRCp9Nd8CgXgHPnzvHTn/4Uk8mE0WgkIyOD2tpaf1ymEEIIIcQ1wS8jgBkZGTQ3N2O324mPj6e2thaHw4HL5VLyFBQUkJ2dTVtbGwcPHiQnJ4dFixaxceNGAObPn8/u3btZt24dCQkJuFwunE6nRxlnzpzhu9/9Lvfffz/Z2dle67J48WLeeecd/vKXv9CrVy8WLlzID37wA6Uz6i96lcn5ET6OamtNEFeb4H5Wo/seFsDRda1fEWrBHj/WWD6u7Z+7VdNevv8d1TS1+U1hqkdo8+XXkcZcec00oztwS8F19eXlstaPVk3bkPOh75Xxk+MawReaQUoakV5qyxX6exm7Jp1vSyOe1gj0kBiQK6cV0KPmql8KTkYAg+6KO4B1dXXs2LGD8vJyUlJSABg0aBCjR3t+iUdGRmKxWADo378/c+bMYdOmTUp6aWkpa9euZcqUKUDHqOHIkSM9ypg9ezag/tDo06dPs2HDBl577TUmTpwIwCuvvMItt9zCBx98wF133UVbWxs5OTm8//771NTUEBsby09+8hMee+yxK20KIYTo0nxdF1t0Hl86f9cEeRB00F3xDwKj0YjRaKSkpISmpqZLOqaqqootW7aQlJSk7LNYLGzdupWGhgaf67J3715aWlqYNGmSsu/mm28mNjaWXbt2AdDe3s6AAQP4y1/+woEDB8jLy8Nms/HnP//Z5/MKIYQQQlxNrrgDGBoaSnFxMXa7nejoaMaNG4fNZqOystIjX25uLkajkYiICAYMGIBOp2PVqlVK+vr163E6nZhMJhITE1m8ePFl37atqakhPDyc6Ohoj/19+/alpqYGgLCwMH75y18yatQobrzxRh5++GHmzp2r2QFsamqivr7eY2t1a93QE0IIIYSq9nb/bcInfpkSkJGRQXV1NaWlpaSnp1NeXs6IESMoLi5W8ixdupSKigoqKytxOBwATJ06lba2jo7U+PHjOXz4MA6HgxkzZrB//36Sk5MpLCz0RxU9PP/884wcORKz2YzRaGT9+vUcPXpUNX9RURG9evXy2MpP7/d7vYQQQohuwe323yZ84rc5oQaDgcmTJ7N8+XKcTieZmZnk5+cr6X369GHIkCEMHTqUiRMnsmbNGpxOJ9u3b1fyhIWFkZycTG5uLmVlZRQUFFBYWEhzc/Ml1cFisdDc3ExdXZ3H/traWmX+4euvv84vfvELsrKyKCsro6Kigrlz52qew2q1cvr0aY8ttdetl9E6QgghhFDICGDQddpzABMSEigpKVFNDwnpiB07e/asZhmtra2cO3eO8PDwi55z5MiRhIWF4XA4yMjIAOCzzz7j6NGjjBkzBoCdO3cyduxYfvKTnyjHHTp0SLNcvV6PXu+5uFKYLnCxb9fiFGGtSN+QoUmqaaAeBaymRwB/IF6Lr1WguT//9LKP6VLRjT5o8fMbR+09f04HBhkwEULghw6gy+Vi5syZzJs3j2HDhhEZGcmePXtYuXIl06dPV/I1NDRQU1OD2+3m2LFjLFu2DLPZzNixYwFITU1l1qxZjBo1CpPJxIEDB7DZbEyYMIGoqCgATp48ydGjR6murgY6OnfQMfJnsVjo1asXWVlZLFmyhN69exMVFcWjjz7KmDFjuOuuuwAYOnQor776Ku+99x433ngjGzdu5KOPPuLGG2+80qYQQoguTTp/osuQkbugu+IOoNFoJCkpidWrV3Po0CFaWloYOHAg2dnZ2Gw2JV9eXh55eR3PhDObzSQmJlJWVobJZAIgLS0Nu92OzWajsbGRmJgYpk2bphwDHY+KmTt3rvLvBx98EID8/HxWrFgBwOrVq+nRowcZGRk0NTWRlpbG73//e+WYH//4x3z88cc88MAD6HQ6Zs2axU9+8hP+/ve/X2lTCCGEEOJSyGNggu6KO4B6vZ6ioiKKiopU86g9t+/brFYrVqtVM09mZiaZmZmaeQwGA88//zzPP/+813S9Xs8rr7zCK6+84rFfq/5CCCGEENcSWQtYCCGEEAHlbpf5CMEmHUAhhBBCBJbMAQw66QD6SG3dWa01fX2NVPRlfeGuEhWpVg+tNX21In2zNdYQfkll3eFAfs343O7yY1hRvLJeNa2rvK/9zd9RwGrrX7fpArtOuBCi65IOoBBCdBPS+RNdhgSBBJ10AIUQQggRWDIHMOiu1TsqQgghhBBChYwACiGEECKwJAgk6AI2Anj8+HEWLFhAbGwser0ei8VCWloaO3fuBCAuLg6dTodOpyMkJISYmBiysrI4deqUUkZjYyNWq5XBgwdjMBgwm82kpKSwefNmJc+bb77J3XffjclkQqfTUVFR4VGPkydP8uijj3LTTTcRERFBbGwsixYt4vTp0wFpByGEEKLbk7WAgy5gI4AZGRk0Nzdjt9uJj4+ntrYWh8OBy+VS8hQUFJCdnU1bWxsHDx4kJyeHRYsWsXHjRgDmz5/P7t27WbduHQkJCbhcLpxOp0cZZ86c4bvf/S73338/2dnZF9Sjurqa6upqnn32WRISEvjyyy+ZP38+1dXV/PWvf73k6/m7+4TX/YkhvVWP0Qr0SzqnPh+iX6j39ZJ36Yyqx5z1oWvv65q5Wqsit6nsV4uivhi1SF9QjxD+5agnVY+xtKk3lFoVE5pbVI/50KAWf6mtTue9pW5uUW/dMz7+fOup8n2pVZ6vr5fa669FKyL2B32/8rr/r7X9VI/RqrsvfzraNOqX2KK+tvlHYRGXXY9Qrbpr1OOfPdTfo3Htvr1H1ai9XlpPROgqtF5/Xz5evryffI0A9+WzJV0l8W0B6QDW1dWxY8cOysvLSUlJAWDQoEGMHj3aI19kZCQWiwWA/v37M2fOHDZt2qSkl5aWsnbtWqZMmQJ0jBqOHDnSo4zZs2cD6quP3Hbbbfztb39T/j148GCeeuopfvjDH9La2kpoqNwVF0Jcm/zd+RPCZ+6r4BfCNS4gt4CNRiNGo5GSkhKampou6Ziqqiq2bNlCUlKSss9isbB161YaGhr8Wr/Tp08TFRWl2vlramqivr7eY2uXEHYhhBDCN3ILOOgC0gEMDQ2luLgYu91OdHQ048aNw2azUVlZ6ZEvNzcXo9FIREQEAwYMQKfTsWrVKiV9/fr1OJ1OTCYTiYmJLF68WJlD6KsTJ05QWFhITk6Oap6ioiJ69erlsX1Rf/iKziuEEEKI4Hj++eeJi4vDYDCQlJTEhx9+qJm/rq6On/70p/Tr1w+9Xs93vvMdtm7dGqDado6ABYFkZGRQXV1NaWkp6enplJeXM2LECIqLi5U8S5cupaKigsrKShwOBwBTp06lra1jtsP48eM5fPgwDoeDGTNmsH//fpKTkyksLPSpTvX19UydOpWEhARWrFihms9qtXL69GmP7caoeJ/OKYQQQnR77W7/bZfpjTfeYMmSJeTn57Nv3z6GDx9OWloaX3/9tdf8zc3NTJ48mSNHjvDXv/6Vzz77jJdeeon+/ftfaSsEVUCfA2gwGJg8eTLLly/H6XSSmZlJfn6+kt6nTx+GDBnC0KFDmThxImvWrMHpdLJ9+3YlT1hYGMnJyeTm5lJWVkZBQQGFhYU0NzdfVl0aGhpIT08nMjKSt956i7Aw9bkxer2eqKgoj62HTh6hKIQQQvjE3e6/7TKtWrWK7Oxs5s6dS0JCAi+++CLXXXcdL7/8stf8L7/8MidPnqSkpIRx48YRFxdHSkoKw4cPv9JWCKqgRjwkJCRQUlKimh4S0hEBefasemRdQkICra2tnDt3jvDw8Es6b319PWlpaej1ekpLSzEYDJdVb4AhIVFe9+e9PVf1mNLJxappJ0LUO5TbQ73Xb6DG+96nCDEfo9Gu06hHvcplaU1F14pG1vqoq0X75u/5leoxf9CIKlZToVevvVZEtFbdr3d7P7Jeo0BfoyzrVMrUijht8vG94ct7Squdir+2eN1/nY/laVFbg7te45r2hqpH+mq9r1tVyvTzEsEc6dHCjT4Egmi9186qRQFf9lm6lmtxZpmEXXSM5u3duxer1ars69GjB5MmTWLXrl1ejyktLWXMmDH89Kc/ZfPmzZjNZh566CFyc3OVfsrVKCAdQJfLxcyZM5k3bx7Dhg0jMjKSPXv2sHLlSqZPn67ka2hooKamBrfbzbFjx1i2bBlms5mxY8cCkJqayqxZsxg1ahQmk4kDBw5gs9mYMGECUVEdHbKTJ09y9OhRqqurAfjss8+AjgASi8VCfX09d999N42Njfzxj39UgjoAzGbzVf1iCiGEFl86f0J0Cj8uBdfU1HRBgKler0ev11+Q98SJE7S1tdG3b1+P/X379uXTTz/1Wv7hw4d5//33efjhh9m6dSuff/45P/nJT2hpafG4i3m1CVgUcFJSEqtXr2b8+PHcdtttLF++nOzsbJ577jklX15eHv369SMmJoZp06bRs2dPysrKMJlMAKSlpWG327n77ru55ZZbePTRR0lLS+PPf/6zUkZpaSl33nknU6dOBeDBBx/kzjvv5MUXXwRg37597N69m//93/9lyJAh9OvXT9mOHTsWiOYQQgghujV3e7vfNm+BmkVFRX6ra3t7OzfccAPr169n5MiRPPDAAzzxxBNKv+JqFZARQL1eT1FRkeYLovbcvm+zWq0ew7beZGZmkpmZqZqempqKW54/JIQQQlwTrFYrS5Ys8djnbfQPOmINQkJCqK2t9dhfW1urPIf43/Xr14+wsDCPO4S33HILNTU1NDc3X/L0s65GIhmEEEIIEVh+jAL2Fqip1gEMDw9n5MiRypNGoGOEz+FwMGbMGK/HjBs3js8//5z2bz1z8ODBg/Tr1++q7fyBdACFEEIIEWhBjAJesmQJL730Ena7nU8++YQFCxZw5swZ5s7tCOJ85JFHPO42LliwgJMnT/LYY49x8OBB3nnnHX7961/z05/+1G/NEQyy7pmPBrd77/W/9H27+kGhvsX03djm/WWaPb5a9ZjX/jvGp3P5W1QAQ+nU1vXVivT9scr6waC+7rBadCj4Pq9Z7bDOCEnydV1fX8Q3X348ulb9wtzeP0Nav2SNGu/BbzQOVIt87oz203pPqdGKKh6sEezhS/211j++sdl7A9eEdf3xha5Qw7BOWIPdn8dcix544AGOHz9OXl4eNTU13HHHHbz77rtKYMjRo0fp0eP/3h0DBw7kvffeY/HixQwbNoz+/fvz2GOPkZubG6xL8AvpAAohRDcRyM6/EJr8GAXsi4ULF7Jw4UKvaeXl5RfsGzNmDB988EEn1yqwpAMohBBCiMCSNXyDriuMgAshhBBCiACSEUAhhBBCBFaQbwGLAI4AHj9+nAULFhAbG4ter8disZCWlsbOnTsBiIuLQ6fTodPpCAkJISYmhqysLE6dOqWU0djYiNVqZfDgwRgMBsxmMykpKWzevFnJ8+abb3L33XdjMpnQ6XRUVFRcUJfU1FTlXOe3+fPnd3obCCGEEIKgRgGLDgEbAczIyKC5uRm73U58fDy1tbU4HA5cLpeSp6CggOzsbNra2jh48CA5OTksWrSIjRs3AjB//nx2797NunXrSEhIwOVy4XQ6Pco4c+YM3/3ud7n//vvJzs5WrU92djYFBf8XAXrddVqriV5IbTK1r79ptOKD1dK+2BGpekwgPxJavyLU6tEZvzx8aXu1SF+AbJUIYa1jfL2uFrX1VDUuamCLeoRtiMbDzo+EB27gX98FHrquFel7rVJ7ZzTqwODnlyTa3ep1fw1X7/PRhOgOAvKXoK6ujh07dlBeXk5KSgoAgwYNYvTo0R75IiMjlSdx9+/fnzlz5rBp0yYlvbS0lLVr1zJlyhSgY9Rw5MiRHmXMnj0buPjKItddd53qU7+FEOJa5O/OnxA+k1vAQRewtYCNRiMlJSUXLNispqqqii1btpCUlKTss1gsbN26lYaGhiuu05/+9Cf69OnDbbfdhtVqpbGxUTVvU1MT9fX1HluL+/KfbyaEEEII/64FLHwTkA5gaGgoxcXF2O12oqOjGTduHDabjcrKSo98ubm5GI1GIiIiGDBgADqdjlWrVinp69evx+l0YjKZSExMZPHixcocwsvx0EMP8cc//pHt27djtVrZuHEjP/zhD1Xze1toelv9/ss+rxBCCCFEVxCw2TEZGRlUV1dTWlpKeno65eXljBgxguLiYiXP0qVLqaiooLKyUlmnb+rUqbS1dYy2jR8/nsOHD+NwOJgxYwb79+8nOTmZwsLCy6pLTk4OaWlp3H777Tz88MO8+uqrvPXWWxw6dMhrfqvVyunTpz22yVG3+tYQQgghRHfnx7WAhW8C+hgYg8HA5MmTmTx5MsuXL+dHP/oR+fn5ZGZmAtCnTx+GDBkCwNChQ1mzZg1jxoxh+/btTJo0CYCwsDCSk5NJTk4mNzeXX/3qVxQUFJCbm+vzosznbzN//vnnDB48+IJ0vV5/wcLSX4WC2lTrG9ovf8GdGzTuKBvbvA9xf0FPqlWWW9JaukmL1vJSarQG4NWKa8P/yxIlNLeoplXovS+NpbUEly8BIgDPjVA/To1aEEiTTn0ps2NhvrWgL0E7vjqoEXBytw91MLeqv2Bfayy16O/3mlode2pU/oxGw2t97NTqrtVO7SpN0aiDCD+/yAc0vne7W/yNVmCW1ue1W97ElI5b0AX185mQkMCZM2dU00NCOj4wZ8+e1SyjtbWVc+fO+VyP84+K6devn89lnOdL589Xap0/X/nS+fNVINekVOv8+crfnT8tWuvY+tvV/EeoK3T+OoO/6+7vzp+W7tb5uxi1zuHV/LkTV7eAjAC6XC5mzpzJvHnzGDZsGJGRkezZs4eVK1cyffp0JV9DQwM1NTW43W6OHTvGsmXLMJvNjB07Fuh4ft+sWbMYNWoUJpOJAwcOYLPZmDBhAlFRUQCcPHmSo0ePUl1dDcBnn30GdASQWCwWDh06xGuvvcaUKVMwmUxUVlayePFixo8fz7BhwwLRHEIIIUT3Js/vC7qAdACNRiNJSUmsXr2aQ4cO0dLSwsCBA8nOzsZmsyn58vLyyMvrGEExm80kJiZSVlaGyWQCIC0tDbvdjs1mo7GxkZiYGKZNm6YcAx2Pipk7d67y7wcffBCA/Px8VqxYQXh4OP/5n//JmjVrOHPmDAMHDiQjI4Mnn3wyEE0hhBBCCLkFHHQB6QDq9XqKioooKipSzXOx5/ZBRzCG1WrVzJOZmanMKfRm4MCB/Nd//ddFzyWEEEIIca2StYCFEEIIEVBuGQEMOukA+siXIFu1yDyAGo1X4qsw73MlhrapT7P2JSRG52PksNabSG0pM63HaGtVQ2ti+YcG78EeWhPptb6D1M710p15NKlUcuE+9QAR9zcnVdPeGrPa6/7jGsENvn541WKlfW13Lb4cd5NGNPfHKq9xmMbrqLWcni+0zqW17JxW+/oS6asV6a9Wx1YdXO/nZ9hfzX/GtdrXl/dulQ+R+b5+jn2ZQdelZt1JBzDoJFBLiMuk1vkToqvzd+dPCHH1khFAIYQQQgSWLOEWdNIBFEIIIURgyS3goOt2t4DLy8vR6XTU1dUFuypCCCGEEEHhlw7g8ePHWbBgAbGxsej1eiwWC2lpaezcuROAuLg4dDodOp2OkJAQYmJiyMrK4tSpU0oZjY2NWK1WBg8ejMFgwGw2k5KSwubNm5U8b775JnfffTcmkwmdTqes4HHekSNHlPP8+/aXv/zFH5cqhBBCiCslawEHnV9uAWdkZNDc3Izdbic+Pp7a2locDgcul0vJU1BQQHZ2Nm1tbRw8eJCcnBwWLVrExo0bAZg/fz67d+9m3bp1JCQk4HK5cDqdHmWcOXOG7373u9x///1kZ2dfUI+BAwfy1Vdfeexbv349v/nNb/j+97/vj0vtUq6G4Vu1OgZyLrq/Z5ro3eqBIFqRvjpjb9W0FpUQbF+/2q7m2TXndIF7Z/vSTr4uz6b1WqpdsVZL+PIZOhUC5lYfDvTB1fweDCRdN+2/uN3d9MK7kCvuANbV1bFjxw7Ky8tJSUkBYNCgQYwePdojX2RkJBaLBYD+/fszZ84cNm3apKSXlpaydu1apkyZAnSMGo4cOdKjjNmzZwPqD40OCQlRznHeW2+9xf3334/RaPTYv3PnTqxWKwcPHuSOO+7gP/7jP7jtttsu8+pFdyRRwOJqFajOnxCi67vin9pGoxGj0UhJSQlNTU2XdExVVRVbtmwhKSlJ2WexWNi6dSsNDQ1XWiXF3r17qaioICsr64K0pUuX8tvf/paPPvoIs9nMPffcQ0uL+vPHhBBCCOEncgs46K64AxgaGkpxcTF2u53o6GjGjRuHzWajsrLSI19ubi5Go5GIiAgGDBiATqdj1apVSvr69etxOp2YTCYSExNZvHixMofQVxs2bOCWW25h7NixF6Tl5+czefJkbr/9dux2O7W1tbz11ltey2lqaqK+vt5ja3XLA7WEEEIIn0gHMOj8MtkmIyOD6upqSktLSU9Pp7y8nBEjRlBcXKzkWbp0KRUVFVRWVuJwOACYOnUqbW0dHanx48dz+PBhHA4HM2bMYP/+/SQnJ1NYWOhTnc6ePctrr73mdfQPYMyYMcr/9+7dm5tuuolPPvnEa96ioiJ69erlsX1w+oBP9RJCCCGECDa/zbY2GAxMnjyZ5cuX43Q6yczMJD8/X0nv06cPQ4YMYejQoUycOJE1a9bgdDrZvn27kicsLIzk5GRyc3MpKyujoKCAwsJCmpubL7s+f/3rX2lsbOSRRx654muzWq2cPn3aY7urV8IVlyuEEEJ0R+52t9824ZtOexB0QkICJSUlqukhIR2xdGfPntUso7W1lXPnzhEeHn5Z59+wYQP33nsvZrPZa/oHH3xAbGwsAKdOneLgwYPccsstXvPq9Xr0er3HvvtbWoELZ1Q7Q69TrZNWVFyjRozgXU3e4w7/5X1ZVADO+hBa5uuvgTCNVU6/UamH0e1jJIXGZdXpvN+Wv96tHrep1UotKlVU2w/qa/p2HKd+4AOV3tcQ/v2IPPWTaVRea4JCq0o1QjXK8zWi05eAmc/D1V8vtfdTL433k7+jURs0PigaH0nNevhSR0uL+gu2Va+yGng4TD+n956mQat+zSpNr78K/i5rfecFaq1drfWjr2nScQu6K+4AulwuZs6cybx58xg2bBiRkZHs2bOHlStXMn36dCVfQ0MDNTU1uN1ujh07xrJlyzCbzcr8vNTUVGbNmsWoUaMwmUwcOHAAm83GhAkTiIqKAuDkyZMcPXqU6upqAD777DOgI4Dk29G/n3/+Of/93//N1q1bVetdUFCAyWSib9++PPHEE/Tp04f77rvvSptDCCG6LF86f0KIa9MVdwCNRiNJSUmsXr2aQ4cO0dLSwsCBA8nOzsZmsyn58vLyyMvrGM0wm80kJiZSVlaGyWQCIC0tDbvdjs1mo7GxkZiYGKZNm6YcAx2Pipk7d67y7wcffBDoCOhYsWKFsv/ll19mwIAB3H333ar1fvrpp3nsscf45z//yR133MGWLVsue5RRCCGEED6QB0UG3RV3APV6PUVFRRQVFanmUXtu37dZrVasVqtmnszMTDIzMy9a1q9//Wt+/etfe01LTU1VHkA5bdq0i5YlhBBCCP+SuXvB111nHwghhBBCdFudFgQihBBCCOGVjAAGnXQAfaQW7as1pKoVFacVFfuNSlBkhEZ5el+jbH2gHUnnvR6dMfR8c4v3hqrXWLxVa13XEJX2DdNo9+Oh6u2u9XWnFu37k33eo4MBXrpTPUJY67rU6n9Xj3rVY5ztURolqvMlElTrmBvaAvd+UnNdF/m75dJ4r93qjvC6/3M9XOfD3Cut9tX6HrqaBeo95Wv7+VK/LnXLT+YABl2Xej8IIYToPL50/oQQ1yYZARRCCCFEQEkQSPBJB1AIIYQQgSWj0UEnt4CFEEII0a08//zzxMXFYTAYSEpK4sMPP7yk415//XV0Ot01sXBEwDqAx48fZ8GCBcTGxqLX67FYLKSlpbFz504A4uLi0Ol06HQ6QkJCiImJISsri1OnTillNDY2YrVaGTx4MAaDAbPZTEpKCps3bwagpaWF3Nxcbr/9dnr27ElMTAyPPPKIsnLIeSdPnuThhx8mKiqK6OhosrKy+OabbwLVFEIIIUS3Fsy1gN944w2WLFlCfn4++/btY/jw4aSlpfH1119rHnfkyBF+8YtfkJyc7OtldykBuwWckZFBc3Mzdrud+Ph4amtrcTgcuFwuJU9BQQHZ2dm0tbVx8OBBcnJyWLRoERs3bgRg/vz57N69m3Xr1pGQkIDL5cLpdCplNDY2sm/fPpYvX87w4cM5deoUjz32GPfeey979uxRzvPwww/z1VdfsW3bNlpaWpg7dy45OTm89tprl3w9WuumqgnXOEZrfVm1tSLjm9VXfP0yTD0ONJDDvoE81xmVk6lF817MwBbv7XtMo219/kCp1FEr0jf7Y/UI4a/Ss1XT3q7t53W/r5G+Wu5POOb3MsXFqUV6t+iujjV6RTcQxFvAq1atIjs7W1lZ7MUXX+Sdd97h5Zdf5vHHH/d6TFtbGw8//DC//OUv2bFjB3V1dQGscecISAewrq6OHTt2UF5eTkpKCgCDBg1i9OjRHvkiIyOVNX379+/PnDlz2LRpk5JeWlrK2rVrmTJlCtAxajhy5EglvVevXmzbts2jzOeee47Ro0dz9OhRYmNj+eSTT3j33Xf56KOPGDVqFADr1q1jypQpPPvss8TExPi/AYQQoguQzp/o7pqbm9m7d6/HymM9evRg0qRJ7Nq1S/W4goICbrjhBrKystixY0cgqtrpAjJAYzQaMRqNlJSU0NTUdEnHVFVVsWXLFpKSkpR9FouFrVu30tDQcMnnPn36NDqdjujoaAB27dpFdHS00vkDmDRpEj169GD37t1ey2hqaqK+vt5ja3Grj74JIYQQQp273X+bt7/Ran2NEydO0NbWRt++fT329+3bl5qaGq/H/M///A8bNmzgpZde8ns7BFNAOoChoaEUFxdjt9uJjo5m3Lhx2Gw2KisrPfLl5uZiNBqJiIhgwIAB6HQ6Vq1apaSvX78ep9OJyWQiMTGRxYsXK3MIvTl37hy5ubnMmjWLqKiO21s1NTXccMMNF9Svd+/eqi9+UVERvXr18ti21e/3tTmEEEKI7q3df5u3v9FFRUV+qWZDQwOzZ8/mpZdeok+fPn4ps6sI2BStjIwMqqurKS0tJT09nfLyckaMGEFxcbGSZ+nSpVRUVFBZWYnD4QBg6tSptLV1jLaNHz+ew4cP43A4mDFjBvv37yc5OZnCwsILztfS0sL999+P2+3mhRdeuKK6W61WTp8+7bFNjrr1isoUQgghxJXz9jf627d4v61Pnz6EhIRQW1vrsb+2tlaZgvZthw4d4siRI9xzzz2EhoYSGhrKq6++SmlpKaGhoRw6dKhTrikQAvoYGIPBwOTJk1m+fDlOp5PMzEzy8/OV9D59+jBkyBCGDh3KxIkTWbNmDU6nk+3btyt5wsLCSE5OJjc3l7KyMgoKCigsLKS5uVnJc77z9+WXX7Jt2zZl9A86biP/e6RPa2srJ0+e9PriA+j1eqKiojy2MJ3WYltCCCGEUOPPW8De/kbr9Xqv5w0PD2fkyJHKIBNAe3s7DoeDMWPGXJD/5ptv5n//93+pqKhQtnvvvZcJEyZQUVHBwIEDO62NOltQHwSdkJBASUmJanpISEcn6+zZs5pltLa2cu7cOcLDw5XO3z//+U+2b9+OyWTyyD9mzBjq6urYu3evEkDy/vvv097e7jHfsDNoRfpqUZu4rRWNKg94vHIhbv/OmNcKelObUar1M0Mr0rffuxpzVTQii/3tzwfUvxx/ErBaiPOaOiEKeHjLOa/7/1+Ywb8nEteWIEYBL1myhDlz5jBq1ChGjx7NmjVrOHPmjBIV/Mgjj9C/f3+KioowGAzcdtttHsefjyn49/1Xm4B0AF0uFzNnzmTevHkMGzaMyMhI9uzZw8qVK5k+fbqSr6GhgZqaGtxuN8eOHWPZsmWYzWbGjh0LQGpqKrNmzWLUqFGYTCYOHDiAzWZjwoQJREVF0dLSwowZM9i3bx9vv/02bW1tyry+3r17Ex4ezi233EJ6ejrZ2dm8+OKLtLS0sHDhQh588EGJABZCXNMkClh0Fe4gdgAfeOABjh8/Tl5eHjU1Ndxxxx28++67SmDI0aNH6dHj2h9GCUgH0Gg0kpSUxOrVqzl06BAtLS0MHDiQ7OxsbDabki8vL4+8vI7RCbPZTGJiImVlZcooXlpaGna7HZvNRmNjIzExMUybNk05pqqqitLSUgDuuOMOjzps376d1NRUAP70pz+xcOFCvve979GjRw8yMjL43e9+18mtIIQQQoiuYOHChSxcuNBrWnl5ueax345duJoFpAOo1+spKirSjMo5cuTIRcuxWq2qEzuh47mA7ku4bde7d+/LeuizEEIIIfwnmCOAokNQ5wAKIYQQovuRDmDwXfs3uYUQQgghhAcZAfTRqR7ebzVHun0L9dWanH1WpUitY7TWKfExGNmvOuOXR0+VX5R1GqG0Wm14JNz7x0Or7i0aaVpaVV4UtTVdQX1NX0Az0ldtDWGtdYe7igiV9lD7jID/32taAxda7yetpwColelr3dXWKm8DwnwsU83HKtG+MrogNPn4t1L4j3QAhRCim/B3508IX8kt4OCTH2lCCCGEEN2MjAAKIYQQIqDc7XILONgCNgJ4/PhxFixYQGxsLHq9HovFQlpaGjt37gQ6HuGi0+nQ6XSEhIQQExNDVlYWp06dUspobGzEarUyePBgDAYDZrOZlJQUNm/eDHQsAZebm8vtt99Oz549iYmJ4ZFHHqG6utqjLvfeey+xsbEYDAb69evH7NmzL8gjhBBCiM7hz6XghG8CNgKYkZFBc3Mzdrud+Ph4amtrcTgcuFwuJU9BQQHZ2dm0tbVx8OBBcnJyWLRoERs3bgRg/vz57N69m3Xr1pGQkIDL5cLpdCplNDY2sm/fPpYvX87w4cM5deoUjz32GPfeey979uxRzjNhwgRsNhv9+vWjqqqKX/ziF8yYMQOn03nJ13ODyq8XX4MAtN7D0SoRHWc1uu++/rZSK1Krflq/IgL52TyjUhG1CfG+0romX9tdrY539ahXPcbZHqWapkUt2EMtOETrmEALZLCHL+fxdblHf9e9WaUezagH0vhK5hEJcXUKSAewrq6OHTt2UF5eTkpKCgCDBg1i9OjRHvkiIyOxWCwA9O/fnzlz5rBp0yYlvbS0lLVr1zJlyhSgY9Tw/Hq+AL169WLbtm0eZT733HOMHj2ao0ePEhsbC8DixYuV9EGDBvH4449z33330dLSQlhY950mLV/k4mol791L4+/OnxC+cksUcNAF5HvTaDRiNBopKSmhqanpko6pqqpiy5YtJCUlKfssFgtbt26loaHhks99+vRpdDqdsnjzvzt58iR/+tOfGDt2bLfu/AkhhBCBIreAgy8gHcDQ0FCKi4ux2+1ER0czbtw4bDYblZWVHvlyc3MxGo1EREQwYMAAdDodq1atUtLXr1+P0+nEZDKRmJjI4sWLlTmE3pw7d47c3FxmzZpFVJTn7bLc3Fx69uyJyWTi6NGjyjxCb5qamqivr/fYWtxaT9oTQgghhOi6AnbnJCMjg+rqakpLS0lPT6e8vJwRI0Z4LKq8dOlSKioqqKysxOFwADB16lTa2jo6W+PHj+fw4cM4HA5mzJjB/v37SU5OprCw8ILztbS0cP/99+N2u3nhhRcuSF+6dCkff/wxZWVlhISE8Mgjj6iuI1xUVESvXr08tvfq9/uhVYQQQojux92u89smfBPQqTMGg4HJkyezfPlynE4nmZmZ5OfnK+l9+vRhyJAhDB06lIkTJ7JmzRqcTifbt29X8oSFhZGcnExubi5lZWUUFBRQWFhIc3Ozkud85+/LL79k27ZtF4z+nT/Xd77zHSZPnszrr7/O1q1b+eCDD7zW22q1cvr0aY8tLepWP7aMEEII0X243f7bhG+C+hzAhIQESkpKVNNDQjrW8Dp79qxmGa2trZw7d47w8HCl8/fPf/6T7du3YzKZLlqP9vaOSQRq8xP1ej16vd5jX2uPEFq95NVaukuLVk9cLaLP1/J84Wt5gfyFobYMV1MAfyD6er1q01h8jfT1hVakr1aEcCCpRcTXayz31x2pfbG36Hz/jhJCXFsC0gF0uVzMnDmTefPmMWzYMCIjI9mzZw8rV65k+vTpSr6GhgZqampwu90cO3aMZcuWYTabGTt2LACpqanMmjWLUaNGYTKZOHDgADabjQkTJhAVFUVLSwszZsxg3759vP3227S1tVFTUwNA7969CQ8PZ/fu3Xz00Ud897vf5frrr+fQoUMsX76cwYMHM2bMmEA0hxBCBIV0/kRXIbdugy8gHUCj0UhSUhKrV6/m0KFDtLS0MHDgQLKzs7HZbEq+vLw88vI6RiHMZjOJiYmUlZUpo3hpaWnY7XZsNhuNjY3ExMQwbdo05ZiqqipKS0sBuOOOOzzqsH37dlJTU7nuuut48803yc/P58yZM/Tr14/09HSefPLJC0b5hBBCCOF/0gEMvoB0APV6PUVFRRQVFanmOXLkyEXLsVqtWK1W1fS4uDjVQI7zbr/9dt5///2LnksIIYQQ4lolawELIYQQIqAkeCP4pAMohBBCiICSW8DBJysoCSFEN+HrWsVCiGuPzn2xSXNCCCGEEH506LY0v5U1+B/v+a2s7kRuAQshhBAioGQN3+CTW8BCCCGEEN2MjAAKIYQQIqDa3TIhNdgCNgJ4/PhxFixYQGxsLHq9HovFQlpaGjt37gQ6nuGn0+nQ6XSEhIQQExNDVlYWp06dUspobGzEarUyePBgDAYDZrOZlJQUNm/eDHSsAZybm8vtt99Oz549iYmJ4ZFHHqG6uvqC+rzzzjskJSURERHB9ddfz3333ReQdhBCCCG6O7db57dN+CZgI4AZGRk0Nzdjt9uJj4+ntrYWh8OBy+VS8hQUFJCdnU1bWxsHDx4kJyeHRYsWsXHjRgDmz5/P7t27WbduHQkJCbhcLpxOp1JGY2Mj+/btY/ny5QwfPpxTp07x2GOPce+997Jnzx7lPH/729/Izs7m17/+NRMnTqS1tZV//OMfl3U9v439odf9Wg0aohFuoxWJoxYtn9TaqHrMnpDrNEoMvs745aGyTKxq+wHEN6sdBXqV+KiD4eqvsq/XpbZesdr6xgD3JxxTTfvzgYE+1sQ3Pzn2R6/7W04cVj0mrE+81/2/H+j9swXqr7HWn4CrYZ6L2nQoX+v+jcaBg5rV31QPfPUnr/u1XhNLi/fa14Rp117tPRNIWtfVGbxd88XqoNZOvhzn67nEtSkgHcC6ujp27NhBeXk5KSkpAAwaNIjRo0d75IuMjMRisQDQv39/5syZw6ZNm5T00tJS1q5dy5QpU4COUcORI0cq6b169WLbtm0eZT733HOMHj2ao0ePEhsbS2trK4899hi/+c1vyMrKUvIlJCT496KFEKKL0er8CRFI8hzA4AvIj2Oj0YjRaKSkpISmpqZLOqaqqootW7aQlJSk7LNYLGzdupWGhoZLPvfp06fR6XRER0cDsG/fPqqqqujRowd33nkn/fr14/vf/77mCGBTUxP19fUeW6tbfeRICCGEEOrcbv9twjcB6QCGhoZSXFyM3W4nOjqacePGYbPZqKys9MiXm5uL0WgkIiKCAQMGoNPpWLVqlZK+fv16nE4nJpOJxMREFi9erMwh9ObcuXPk5uYya9YsoqKiADh8uOOW1IoVK3jyySd5++23uf7660lNTeXkyZNeyykqKqJXr14em6N+/5U2ixBCCCFEUARsekxGRgbV1dWUlpaSnp5OeXk5I0aMoLi4WMmzdOlSKioqqKysxOFwADB16lTa2jpG28aPH8/hw4dxOBzMmDGD/fv3k5ycTGFh4QXna2lp4f7778ftdvPCCy8o+9vbO+arPPHEE2RkZDBy5EheeeUVdDodf/nLX7zW3Wq1cvr0aY/te1G3+qtphBBCiG7F3a7z2yZ8E9D50QaDgcmTJ7N8+XKcTieZmZnk5+cr6X369GHIkCEMHTqUiRMnsmbNGpxOJ9u3b1fyhIWFkZycTG5uLmVlZRQUFFBYWEhzc7OS53zn78svv2Tbtm3K6B9Av379AM85f3q9nvj4eI4ePeq13nq9nqioKI8tVBfit3YRQgghupN2t85vm/BNUAPkEhISOHPmjGp6SEhHJ+vs2bOaZbS2tnLu3Dng/zp///znP/nP//xPTCaTR/6RI0ei1+v57LPPlH0tLS0cOXKEQYMGXcnlCCFEl/ZluPyxFEJ0CMhawC6Xi5kzZzJv3jyGDRtGZGQke/bs4dFHH2Xq1Kls2LCBuLg4srKyyM7Oxu12c+zYMZYtW8aBAwf45JNPMJlMpKamMmvWLEaNGoXJZOLAgQMsWbKE/v3743A4aGlpYcaMGezbt4+3336bvn37KnXo3bs34eHhAPzsZz/jr3/9Ky+//DKDBg3iN7/5DVu2bOHTTz/l+uuv7+zmEEIIIbq1/73xHr+VdfsXW/xWVncSkA5gU1MTK1asoKysjEOHDtHS0sLAgQOZOXMmNpuNiIgI4uLi+PLLL5VjzGYziYmJPPXUU9xxxx1ARzDGli1b+Oyzz2hsbCQmJoZp06aRl5eHyWTiyJEj3HjjjV7rsH37dlJTU4GOET+r1crGjRs5e/YsSUlJrFmzhltvlXl9QgghRGerjPNfB3DYEekA+iIgHUAhhBBCiPOkAxh8shawEEIIIQJKgjeC72pYJUkIIYQQ15BgrwX8/PPPExcXh8FgICkpiQ8//FA170svvURycjLXX389119/PZMmTdLMf7WQEUAfFQ562Ot+o49vxlCNG/FnVLrpUWoLiKK+ZqoWrZprzRPw5Yqz1o9WTXN//qlqWvHKetW0FpWKaDST5lq7arTKu6m5RTXtnE7999bn4d4fK+RL/YLBl/VKfVk/+MU787zuD+RawFqvv6/nMqoUqrWmr1Y9GjWOu07jwIU+vI6+rmPcFdad9fdawNe3aX9gZ1VfuNayrAUceG+88QZLlizhxRdfVGIA0tLS+Oyzz7jhhhsuyF9eXs6sWbMYO3YsBoOBZ555hrvvvpv9+/fTv3//IFyBf8gIoBBCdBNanT8hAimYS8GtWrWK7Oxs5s6dS0JCAi+++CLXXXcdL7/8stf8f/rTn/jJT37CHXfcwc0338x//Md/0N7erixYcbWSEUAhhBBCBJQ/5wA2NTXR1NTksU+v16PX6y/I29zczN69e7Farcq+Hj16MGnSJHbt2nVJ52tsbKSlpYXevXtfWcWDTEYAhRBCCHHVKioqolevXh5bUVGR17wnTpygra3N4znBAH379qWmpuaSzpebm0tMTAyTJk264roHk4wACiGEECKgfA3e8MZqtbJkyRKPfd5G//zh6aef5vXXX6e8vByDwdAp5wiUgI0AHj9+nAULFhAbG4ter8disZCWlsbOnTsBiIuLQ6fTodPpCAkJISYmhqysLE6dOqWU0djYiNVqZfDgwRgMBsxmMykpKWzevBnoeMBzbm4ut99+Oz179iQmJoZHHnmE6upqj7rs27ePyZMnEx0djclkIicnh2+++SZQTSGEEEJ0a/5cC1iv1xMVFeWxqXUA+/TpQ0hICLW1tR77a2trsVgsmnV+9tlnefrppykrK2PYsGF+a4tgCdgIYEZGBs3NzdjtduLj46mtrcXhcOByuZQ8BQUFZGdn09bWxsGDB8nJyWHRokVs3LgRgPnz57N7927WrVtHQkICLpcLp9OplNHY2Mi+fftYvnw5w4cP59SpUzz22GPce++97NmzB4Dq6momTZrEAw88wHPPPUd9fT0/+9nPyMzM5K9//eslX88nNHrdf7PuOp/ax6BT/zV0n/6k1/3bzqrPP2gO4COWtN5ErSr7N+T4FkKv9YvlB32/8rq/+Gv1D3WYD79Cza3qs44/NoRddnkA3+i8l3lDm/9fyAiV6p/VOFW0L2Hl+BaNrhbpCzD/4wKv+38/Qv2YHn6OpNZ8STTOpVWNU96DwAnxsbwqnconLwTi2v37ta/WHv5u987g74juUyGX/3kN87GdfInnkRggCA8PZ+TIkTgcDu677z4AJaBj4cKFqsetXLmSp556ivfee49Ro0YFqLadKyAdwLq6Onbs2EF5eTkpKSkADBo0iNGjPR8FEhkZqfTA+/fvz5w5c9i0aZOSXlpaytq1a5kyZQrQMWo4cuRIJb1Xr15s27bNo8znnnuO0aNHc/ToUWJjY3n77bcJCwvj+eefp0ePjo/4iy++yLBhw/j8888ZMmSI/xtACCG6AH93/oTwVTB/HyxZsoQ5c+YwatQoRo8ezZo1azhz5gxz584F4JFHHqF///7KPMJnnnmGvLw8XnvtNeLi4pS5gkajEaPRGLTruFIBuQV8vpFKSkouiNRRU1VVxZYtW0hKSlL2WSwWtm7dSkNDwyWf+/Tp0+h0OqKjo4GOaKHw8HCl8wcQEREBwP/8z/94LaOpqYn6+nqPrc3t45CIEEII0c358xbw5XrggQd49tlnycvL44477qCiooJ3331XCQw5evQoX331f3eUXnjhBZqbm5kxYwb9+vVTtmeffdZv7REMAekAhoaGUlxcjN1uJzo6mnHjxmGz2aisrPTIl5ubi9FoJCIiggEDBqDT6Vi1apWSvn79epxOJyaTicTERBYvXqzMIfTm3Llz5ObmMmvWLKKiogCYOHEiNTU1/OY3v6G5uZlTp07x+OOPA3i84N/mLcLowOmDV9osQgghhAiChQsX8uWXX9LU1MTu3bs9BpvKy8spLi5W/n3kyBHcbvcF24oVKwJfcT8KWBBIRkYG1dXVlJaWkp6eTnl5OSNGjPBo5KVLl1JRUUFlZaXygMWpU6fS1tYx2jZ+/HgOHz6Mw+FgxowZ7N+/n+TkZAoLCy84X0tLC/fffz9ut5sXXnhB2X/rrbdit9v57W9/y3XXXYfFYuHGG2+kb9++HqOC32a1Wjl9+rTHltDrO35sHSGEEKL7CPZScCLAzwE0GAxMnjyZ5cuX43Q6yczMJD8/X0nv06cPQ4YMYejQoUycOJE1a9bgdDrZvn27kicsLIzk5GRyc3MpKyujoKCAwsJCmpublTznO39ffvkl27ZtU0b/znvooYeoqamhqqoKl8vFihUrOH78OPHx8V7r7S3CKESnMmtbCCGEEJra/bgJ3wR1RnBCQgIlJSWq6SEhHZ2ss2fPapbR2trKuXPnCA8PVzp///znP9m+fTsmk0n12PP3+19++WWlc3qpRrp7et0frjGzdWizWkwsfKZXfyn+UyXaV+t3jy8vrK9Re5Ean8AGH35i+Pqr5K+1/bzu14rL9uVcX4eqt7yvEX29VH7FdsYvNLVoX61z1fv4e8eX3+Zax6hF+/5kn/foYICXNKKKfaEVmault8a04ZMq7av1mmj94evn9v4N0KSDnn7+i+lre3QFXWElhCYfB7B8qXtXuF7RdQSkA+hyuZg5cybz5s1j2LBhREZGsmfPHlauXMn06dOVfA0NDdTU1OB2uzl27BjLli3DbDYzduxYAFJTU5k1axajRo3CZDJx4MABbDYbEyZMICoqipaWFmbMmMG+fft4++23aWtrU6J1evfuTXh4ONARGTx27FiMRiPbtm1j6dKlPP3000qgiBBCXIv83fkTwldun34eCn8KSAfQaDSSlJTE6tWrOXToEC0tLQwcOJDs7GxsNpuSLy8vj7y8jl/rZrOZxMREysrKlFG8tLQ07HY7NpuNxsZGYmJimDZtmnJMVVUVpaWlANxxxx0eddi+fTupqakAfPjhh+Tn5/PNN99w880384c//IHZs2d3cisIIYQQAqD9Kh45vlYEpAOo1+spKipSXZsPOqJsLsZqtXos4Pzv4uLicLsv/q569dVXL5pHCCGEEOJaJU8FFUIIIURAtcst4KCTDqCP1BpO6y39ebh6c2sFD7SoFKp1TCCXYWrUmFkcyFhpvco1a017MmokfqNyXVrX5OuE+EBOzQrkRHB/T1RXe19rBXpkqywfd7HjVOtw2Ud0OK3xxvHlc6JVD7Xl/tp1vgcq+VIPcXHdtf1kDmDwddf3nhBCdDv+7vwJIa5eMgIohBBCiICSgPTgkw6gEEIIIQJKbgEHn9wCFkIIIYToZgLWATx+/DgLFiwgNjYWvV6PxWIhLS2NnTt3Ah2PcNHpdOh0OkJCQoiJiSErK4tTp04pZTQ2NmK1Whk8eDAGgwGz2UxKSgqbN29W8qxYsYKbb76Znj17cv311zNp0iR2796tpB85coSsrCxuvPFGIiIiGDx4MPn5+R5LyQkhhBCi88hScMEXsFvAGRkZNDc3Y7fbiY+Pp7a2FofDgcvlUvIUFBSQnZ1NW1sbBw8eJCcnh0WLFrFx40YA5s+fz+7du1m3bh0JCQm4XC6cTqdHGd/5znd47rnniI+P5+zZs6xevZq7776bzz//HLPZzKeffkp7ezt/+MMfGDJkCP/4xz/Izs7mzJkzPPvss5d8PWqTqTvjzagWqerrEkLXKl/aXi3StzPIF1VwBDJCuKtr6YQoYCF8Id+HwReQDmBdXR07duygvLyclJQUAAYNGsTo0aM98kVGRmKxWADo378/c+bMYdOmTUp6aWkpa9euZcqUKUDHqOHIkSM9ynjooYc8/r1q1So2bNhAZWUl3/ve90hPTyc9PV1Jj4+P57PPPuOFF164rA6gEEJcbaTzJ4Q4LyDjH0ajEaPRSElJCU1NTZd0TFVVFVu2bCEpKUnZZ7FY2Lp1Kw0NDZdURnNzM+vXr6dXr14MHz5cNd/p06fp3bv3JZUphBBCiCvjRue3TfgmIB3A0NBQiouLsdvtREdHM27cOGw2G5WVlR75cnNzMRqNREREMGDAAHQ6HatWrVLS169fj9PpxGQykZiYyOLFi5U5hN/29ttvYzQaMRgMrF69mm3bttGnTx+vdfv8889Zt24dP/7xj1Xr39TURH19vcfW4m7zsTWEEEKI7q1d579N+CZgM6AyMjKorq6mtLSU9PR0ysvLGTFiBMXFxUqepUuXUlFRQWVlJQ6HA4CpU6fS1tbR2Ro/fjyHDx/G4XAwY8YM9u/fT3JyMoWFhR7nmjBhAhUVFTidTtLT07n//vv5+uuvL6hTVVUV6enpzJw5k+zsbNW6FxUV0atXL4+trH6/H1pFCCGEECLwAvoYGIPBwOTJk1m+fDlOp5PMzEzy8/OV9D59+jBkyBCGDh3KxIkTWbNmDU6nk+3btyt5wsLCSE5OJjc3l7KyMgoKCigsLPSI4u3ZsydDhgzhrrvuYsOGDYSGhrJhwwaPulRXVzNhwgTGjh3L+vXrNetttVo5ffq0x3Z31K1+ahUhhBCie2lH57dN+CaoD4JOSEigpKRENT0kpGOFzLNnz2qW0drayrlz5wgPD/eap7293WPuYVVVFRMmTGDkyJG88sor9Oih3Q/W6/Xo9XrPfTrvq3dGadwZrvNxYVy1tYDFpVFbFxUkkrq78yVC+GqODpYoYNFVyNsw+ALSAXS5XMycOZN58+YxbNgwIiMj2bNnDytXrmT69OlKvoaGBmpqanC73Rw7doxly5ZhNpsZO3YsAKmpqcyaNYtRo0ZhMpk4cOAANpuNCRMmEBUVxZkzZ3jqqae499576devHydOnOD555+nqqqKmTNnAh2dv9TUVAYNGsSzzz7L8ePHlfOfj0AWQohrkXT+hBDnBaQDaDQaSUpKYvXq1Rw6dIiWlhYGDhxIdnY2NptNyZeXl0deXseva7PZTGJiImVlZZhMJgDS0tKw2+3YbDYaGxuJiYlh2rRpyjEhISF8+umn2O12Tpw4oQSL7Nixg1tv7bhlu23bNj7//HM+//xzBgwY4FFPt1u+HYUQQojOJs8BDL6AdAD1ej1FRUUUFRWp5jly5MhFy7FarVitVtV0g8HAm2++qVlGZmYmmZmZFz2XEEIIITpHu07m3wRbUOcACiGEEKL7kfttwRfQKGAhhBBCCBF8MgLoo3qVrvMZjVFttTV9Ac5pdMWvUzmuX6t6gUfDAte31xrI79vq/Xfe8VD/D/+3qRRZr3EqvQ8/Q7XmrmhNstcKAm9Qebmu64SfyWr17yq/BrXaV+01DtFoJ1+vSy3a19f1g7XeazO/f+FzSgH++O4NqsdotVOL2n6db+95LV39/dTVZQz+V7CrEBQyBzD4pAMohBDdhL87f0L4SlbwCD75kSaEEEII0c3ICKAQQgghAkpW8Ag+6QAKIYQQIqBkNkLwBewW8PHjx1mwYAGxsbHo9XosFgtpaWns3LkTgLi4OHQ6HTqdjpCQEGJiYsjKyuLUqVNKGY2NjVitVgYPHozBYMBsNpOSksLmzZuVPCtWrODmm2+mZ8+eXH/99UyaNIndu3d71OXb5zq/Pf3004FpCCGEEEKIIAvYCGBGRgbNzc3Y7Xbi4+Opra3F4XDgcrmUPAUFBWRnZ9PW1sbBgwfJyclh0aJFbNy4EYD58+eze/du1q1bR0JCAi6XC6fT6VHGd77zHZ577jni4+M5e/Ysq1ev5u677+bzzz/HbDZfcK7zIiMjL+t6WlR+v+g1hrWbNUa8taIY1VRpRPoGcnBd61dErUq0b2f88khs8b5m9N7QCL+ep6dG+No3Pl5YmG+H+UQtEKCrrDmt2YRdYNjAl/WDL3bcqyrRvlpt4ctbrUkHBj+3oUwkvzJ/OzRAM/0nAapHoEkQSPAFpANYV1fHjh07KC8vJyUlBYBBgwYxevRoj3yRkZHKerz9+/dnzpw5bNq0SUkvLS1l7dq1TJkyBegYyRs5cqRHGQ899JDHv1etWsWGDRuorKzke9/7ntdzCSFEd+Dvzp8QvpLHwARfQH68GY1GjEYjJSUlNDU1XdIxVVVVbNmyhaSkJGWfxWJh69atNDQ0XFIZzc3NrF+/nl69ejF8+HCPtKeffhqTycSdd97Jb37zG1pbW1XLaWpqor6+3mNrdbddUh2EEEIIIbqagHQAQ0NDKS4uxm63Ex0dzbhx47DZbFRWVnrky83NxWg0EhERwYABA9DpdKxatUpJX79+PU6nE5PJRGJiIosXL1bmEH7b22+/jdFoxGAwsHr1arZt20afPn2U9EWLFvH666+zfft2fvzjH/PrX/+aZcuWqda/qKiIXr16eWz/dXq/H1pGCCGE6H7cftyEbwI2fSMjI4Pq6mpKS0tJT0+nvLycESNGUFxcrORZunQpFRUVVFZW4nA4AJg6dSptbR2jbePHj+fw4cM4HA5mzJjB/v37SU5OprCw0ONcEyZMoKKiAqfTSXp6Ovfffz9ff/1/T9pfsmQJqampDBs2jPnz5/Pb3/6WdevWqY5OWq1WTp8+7bGl9LrVzy0khBBCdA/tOv9twjcBnb9rMBiYPHkyy5cvx+l0kpmZSX5+vpLep08fhgwZwtChQ5k4cSJr1qzB6XSyfft2JU9YWBjJycnk5uZSVlZGQUEBhYWFNDc3K3l69uzJkCFDuOuuu9iwYQOhoaFs2LBBtV5JSUm0trZy5MgRr+l6vZ6oqCiPLVSntbCXEEIIIbqq559/nri4OAwGA0lJSXz44Yea+f/yl79w8803YzAYuP3229m6dWuAatp5gvocwISEBEpKSlTTQ0I6Ollnz3qP7jxfRmtrK+fOnSM8PNxrnvb2ds25hxUVFfTo0YMbblBfd/OCuqnE2WpF82o1ttranQCnVPqaURqzaLVmKPr7B5PWrwi19lBb0/VKfBTmPdq3h5/vEZzRuGCty9KqRiAnRHeVaF9fqLVhb403/Gk//1bTWk6tMyKEfaE2KtKoU19b3OdzqeyX6GChJZhBIG+88QZLlizhxRdfJCkpiTVr1pCWlsZnn33mtR/gdDqZNWsWRUVFTJs2jddee4377ruPffv2cdtttwXhCvwjIB1Al8vFzJkzmTdvHsOGDSMyMpI9e/awcuVKpk+fruRraGigpqYGt9vNsWPHWLZsGWazmbFjxwKQmprKrFmzGDVqFCaTiQMHDmCz2ZgwYQJRUVGcOXOGp556invvvZd+/fpx4sQJnn/+eaqqqpg5cyYAu3btYvfu3UyYMIHIyEh27drF4sWL+eEPf8j1118fiOYQQoig8HfnTwhfBfOtuGrVKrKzs5k7dy4AL774Iu+88w4vv/wyjz/++AX5165dS3p6OkuXLgWgsLCQbdu28dxzz/Hiiy8GtO7+FJAOoNFoJCkpidWrV3Po0CFaWloYOHAg2dnZ2Gw2JV9eXh55eR2/hM1mM4mJiZSVlWEymQBIS0vDbrdjs9lobGwkJiaGadOmKceEhITw6aefYrfbOXHihBIssmPHDm69tWPOnl6v5/XXX2fFihU0NTVx4403snjxYpYsWRKIphBCCCFEkDQ3N7N3716sVquyr0ePHkyaNIldu3Z5PWbXrl0X9BHS0tI072BeDQLSAdTr9RQVFVFUVKSaR23+3bdZrVaPF+3fGQwG3nzzTc0yRowYwQcffHDRcwkhhBCic7j9OBWlqanpgmleer0evV5/Qd4TJ07Q1tZG3759Pfb37duXTz/91Gv5NTU1XvPX1NRcYc2DS6ZpCCGEECKg2v24eXtUm9aAk+gQ1CAQIYQQQogrYbVaL7hF6230DzqeNhISEkJtba3H/traWtXVwSwWy2Xlv1pIB9BHakOn5zSGta/TiB7UepZRL5UIR601aV0+vLK+Rsuqr6ECKksBa05G14pS1UpTK7JV45gIH65Z6xCtgFOt4fZATogOZNSmL9dl1DhILSL+pEbD+/uBTTO//7VqmtqavuBbhLDWMVptqxap3Kbzf1S82meo6SqONg+k0e5vgl2FoPDnd57a7V5vwsPDGTlyJA6Hg/vuu6+jLu3tOBwOFi5c6PWYMWPG4HA4+NnPfqbs27ZtG2PGjLnSqgeVdACFEKKb8HfnTwhfBfOtuGTJEubMmcOoUaMYPXo0a9as4cyZM0pU8COPPEL//v2V28iPPfYYKSkp/Pa3v2Xq1Km8/vrr7Nmzh/Xr1wfxKq6cdACFEEII0W088MADHD9+nLy8PGpqarjjjjt49913lUCPo0eP0qPH/90TGTt2LK+99hpPPvkkNpuNoUOHUlJSclU/AxCkAyiEEEKIAAv2Em4LFy5UveVbXl5+wb6ZM2cqzxO+VgQsCvj48eMsWLCA2NhY9Ho9FouFtLQ0du7cCUBcXBw6nQ6dTkdISAgxMTFkZWVx6tQppYzGxkasViuDBw/GYDBgNptJSUlh8+bNSp4VK1Zw880307NnT66//nomTZrE7t27Pepy8OBBpk+fTp8+fYiKiuK73/2ux3JzQgghhOg8/owCFr4J2AhgRkYGzc3N2O124uPjqa2txeFw4HK5lDwFBQVkZ2fT1tbGwYMHycnJYdGiRWzcuBGA+fPns3v3btatW0dCQgIulwun0+lRxne+8x2ee+454uPjOXv2LKtXr+buu+/m888/x2w2AzBt2jSGDh3K+++/T0REBGvWrGHatGkcOnTokqN6wlQmMKjtB+0ABq0l5NSWstJaTs2g8anQetHVDru+Tb2CX6tFeqAeINLYCT89QlWq6O8fmlpBBVpfRl3lmUuBrIcv5/pG4yCtz0mgruuPGoEevtZBLdjD1+XjojSWxqv3c0NJsMeV+1BnVE0bpbJf67MgxKUISAewrq6OHTt2UF5eTkpKCgCDBg1i9OjRHvkiIyOVDlj//v2ZM2cOmzZtUtJLS0tZu3YtU6ZMATpGDUeOHOlRxkMPPeTx71WrVrFhwwYqKyv53ve+x4kTJ/jnP//Jhg0bGDZsGABPP/00v//97/nHP/5x1Yd1Xwn5JSWuVl2lc93V+bvzJ66cVufvWiZ/b4IvIF8HRqMRo9FISUnJBU/rVlNVVcWWLVtISkpS9lksFrZu3UpDQ8MlldHc3Mz69evp1asXw4cPB8BkMnHTTTfx6quvcubMGVpbW/nDH/7ADTfccEFnUgghhBD+5/bjJnwTkA5gaGgoxcXF2O12oqOjGTduHDabjcrKSo98ubm5GI1GIiIiGDBgADqdjlWrVinp69evx+l0Kmv8Ll68WJlD+G1vv/02RqMRg8HA6tWr2bZtG3369AFAp9Pxn//5n3z88cdERkZiMBhYtWoV7777Ltdff73X+jc1NVFfX++xtbo17rEIIYQQQnRhAbshkJGRQXV1NaWlpaSnp1NeXs6IESMoLi5W8ixdupSKigoqKytxOBwATJ06lba2js7W+PHjOXz4MA6HgxkzZrB//36Sk5MpLCz0ONeECROoqKjA6XSSnp7O/fffz9dfdzy81e1289Of/pQbbriBHTt28OGHH3Lfffdxzz338NVXX3mtu7dlZv6zfn8ntJIQQghx7WvX+W8TvgnojBCDwcDkyZNZvnw5TqeTzMxM8vPzlfQ+ffowZMgQhg4dysSJE1mzZg1Op9MjQjcsLIzk5GRyc3MpKyujoKCAwsJCmpublTw9e/ZkyJAh3HXXXWzYsIHQ0FA2bNgAwPvvv8/bb7/N66+/zrhx4xgxYgS///3viYiIwG63e6231Wrl9OnTHtukqFs7qZWEEEKIa5tEAQdfUJ8DmJCQQElJiWp6SEhHvOXZs2c1y2htbeXcuXOEh4d7zdPe3q7MPWxsbATweMjj+X+3t3t/K3lbZqYnIV4nH2hFxPkaIRrT4n1/nUY4qlaEcLN6kqqvNCJ9b2hVn4Xh0jjO33z5Jejryghqr6VWu2tNGrC0eK9IINuvq9D6nKi9XIGMvu6Mc6mV6cvycQBPj1yumna9n4dMArm04LXI1w6M1neNEJciIB1Al8vFzJkzmTdvHsOGDSMyMpI9e/awcuVKpk+fruRraGigpqYGt9vNsWPHWLZsGWazmbFjxwKQmprKrFmzGDVqFCaTiQMHDmCz2ZgwYQJRUVGcOXOGp556invvvZd+/fpx4sQJnn/+eaqqqpQHOI4ZM4brr7+eOXPmkJeXR0REBC+99BJffPEFU6dODURziKuc/OIUVyt/d/6E8JUEbwRfQDqARqORpKQkVq9ezaFDh2hpaWHgwIFkZ2djs9mUfHl5eeTldfziNZvNJCYmUlZWhslkAiAtLQ273Y7NZqOxsZGYmBimTZumHBMSEsKnn36K3W7nxIkTSrDIjh07uPXWjlu2ffr04d133+WJJ55g4sSJtLS0cOutt7J582YlUlgIIYQQnadduoBBF5AOoF6vp6ioSFlY2ZsjR45ctByr1YrValVNNxgMvPnmmxctZ9SoUbz33nsXzSeEEEIIcS2StYCFEEIIEVAylSb4pAMohBBCiICSG8DBJx1AH93R6j0y+Q19mOoxJ93q8beRPdRfipdqL3zYNcDqvhNUjzkcorYKL4SorI6rFbUXrrGibl0P9TS9aoo6rchc9daFf/ZQCZfWMLhdvUStqF21ufRaa0Fr2ao/53X/re4I1WN8PZfamsnNGvEBvn5RaK3rq0Zrnegqnff3dT+3eg0j/PyX5vLfZR204i/0KnXUWtNXK9L38b2Fqmkv36EeWaxG67NQr/KBvRoCTrTWZ1ej9f1k8OG91tPHoTBfliKQdZvFt0kHUIjLdBX8XRPCK186f0J0BrkFHHzSARRCCCFEQMkP6eCTZ3UKIYQQQnQzMgIohBBCiICS5wAGX8BGAI8fP86CBQuIjY1Fr9djsVhIS0tj586OAIe4uDh0Oh06nY6QkBBiYmLIysri1KlTShmNjY1YrVYGDx6MwWDAbDaTkpLC5s2bvZ5z/vz56HQ61qxZ47H/qaeeYuzYsVx33XVER0d31iULIYQQwgu3Hzfhm4CNAGZkZNDc3Izdbic+Pp7a2locDgcul0vJU1BQQHZ2Nm1tbRw8eJCcnBwWLVrExo0bgY4O3e7du1m3bh0JCQm4XC6cTqdHGee99dZbfPDBB8TExFyQ1tzczMyZMxkzZgwbNmzw6Xp2hXmPzozVmNk6VCNSUSsa7WmLSrSvxjs/rj1wg7tqEYygHnUW4uOnVusXS5xKRK/WVBOtuqu9lG6NYyI1Xn+16FuA6e3e46WrNcKeff31pnacr6+JlkHNl1/odRptGKfz/r7WaluNJbN9otXumtOaNOqollSvcTKtKFutYI95FeprCKvRasOoq3gyl6+R9Gp8iSo+4+MH2ZdW9/f1iqtbQHoJdXV17Nixg/LyclJSUgAYNGgQo0eP9sgXGRmJxWIBoH///syZM4dNmzYp6aWlpaxdu5YpU6YAHaOGI0eOvOB8VVVVPProo7z33nte1/f95S9/CUBxcbFfrk8IIa4GvnT+hOgMEgUcfAG5BWw0GjEajZSUlNDU1HRJx1RVVbFlyxaSkpKUfRaLha1bt9LQ0KB6XHt7O7Nnz2bp0qXK+r9Xqqmpifr6eo+t1e3LU5iEEEII0Y7bb5vwTUA6gKGhoRQXF2O324mOjmbcuHHYbDYqKys98uXm5mI0GomIiGDAgAHodDpWrVqlpK9fvx6n04nJZCIxMZHFixcrcwjPe+aZZwgNDWXRokV+q39RURG9evXy2Bz1+/1WvhBCCCFEIAUsCCQjI4Pq6mpKS0tJT0+nvLycESNGeNyGXbp0KRUVFVRWVuJwOACYOnUqbW0do23jx4/n8OHDOBwOZsyYwf79+0lOTqawsOOp93v37mXt2rUUFxej0/lvXorVauX06dMe2/ei/DO6KIQQQnQ3EgQSfAF9DqDBYGDy5MksX74cp9NJZmYm+fn5SnqfPn0YMmQIQ4cOZeLEiaxZswan08n27duVPGFhYSQnJ5Obm0tZWRkFBQUUFhbS3NzMjh07+Prrr4mNjSU0NJTQ0FC+/PJLfv7znxMXF+dzvfV6PVFRUR5bqM7fU8uFEEKI7qHdj5vwTVAfBJ2QkMCZM2dU00NCOjpZZ896X3f3fBmtra2cO3eO2bNnU1lZSUVFhbLFxMSwdOlS3nvvPb/XXwghriayFJwQ4ryARAG7XC5mzpzJvHnzGDZsGJGRkezZs4eVK1cyffp0JV9DQwM1NTW43W6OHTvGsmXLMJvNjB07FoDU1FRmzZrFqFGjMJlMHDhwAJvNxoQJE4iKigLAZDJ5nDssLAyLxcJNN92k7Dt69CgnT57k6NGjtLW1UVFRAcCQIUMwGo2XdE0/P/rHK2kSIbqFB77602Ufs/CYfLa6mp9co69JV7guX9/vvhzXlT5bErwRfAHpABqNRpKSkli9ejWHDh2ipaWFgQMHkp2djc1mU/Ll5eWRl9fxC9VsNpOYmEhZWZnSqUtLS8Nut2Oz2WhsbCQmJoZp06Ypx1yqvLw87Ha78u8777wTgO3bt5OamnqFVyuEEEIILdL9Cz6d2631WFshhBBCCP9aHPeg38pafeR1v5XVnchawEIIIYQIKAneCD7pAAohhBAioNxyEzjopAPoo98P/KHX/b7+qtEKx1ZLuxp+QfVSWTDldACfoqO1xm1bF1nGVO21DGqY/mVQm0yv9jnx9RhxabTWKdL66Km9Ji0nDqse89KdvkUWd4UAjEC/17xd88Xq4OvnxJ/nEtcm6QAKIUQ3IU8vFV3F1TCAca2TDqAQQgghAkoeAxN8V8sdJiGEEEII4ScyAiiEEEKIgJLxv+AL2Ajg8ePHWbBgAbGxsej1eiwWC2lpaezcuROAuLg4dDodOp2OkJAQYmJiyMrK4tSpU0oZjY2NWK1WBg8ejMFgwGw2k5KSwubNm72ec/78+eh0OtasWeM1vampiTvuuAOdTqesBiKEEEKIztWO22+b8E3ARgAzMjJobm7GbrcTHx9PbW0tDocDl8ul5CkoKCA7O5u2tjYOHjxITk4OixYtYuPGjUBHh2737t2sW7eOhIQEXC4XTqfTo4zz3nrrLT744ANiYmJU67Rs2TJiYmL4f//v/1329VynMoPV5eMsa60XQm2ybJTGLNrGAEa3ap3qpEp7dMZk9BaVipzVqOCNzeqNGO1u9br/QHi46jG+fhU1q9QxwscCh7ecU037OMzgdX9n/Bq0tFz+VG+tI9SitrUivf19XVr10zqX1nFqr3OTxntXq7z6HuoNEtV++V8OWpG+2R8XXPYx4v9IMETXdfLkSR599FG2bNlCjx49yMjIYO3atapLxp48eZL8/HzKyso4evQoZrOZ++67j8LCQnr16hXg2l9cQDqAdXV17Nixg/LyclJSUgAYNGgQo0eP9sgXGRmJxWIBoH///syZM4dNmzYp6aWlpaxdu5YpU6YAHaOGI0eOvOB8VVVVPProo7z33ntMnTrVa53+/ve/U1ZWxt/+9jf+/ve/++U6hRCiK/Ol8ydEZ7gaOr4PP/wwX331Fdu2baOlpYW5c+eSk5PDa6+95jV/dXU11dXVPPvssyQkJPDll18yf/58qqur+etf/xrg2l9cwNYCNhqNlJSUcNddd6HX6y96TFVVFVu2bCEpKUnZZ7FY2Lp1Kz/4wQ+IjIz0elx7ezuzZ89m6dKl3HrrrV7z1NbWkp2dTUlJCdddd91F69LU1ERTU5PHvhZ3G2E6eaiCEEIIcbm6+oOgP/nkE959910++ugjRo0aBcC6deuYMmUKzz77rNe7i7fddht/+9vflH8PHjyYp556ih/+8Ie0trYSGtq1wi4CMgcwNDSU4uJi7HY70dHRjBs3DpvNRmVlpUe+3NxcjEYjERERDBgwAJ1Ox6pVq5T09evX43Q6MZlMJCYmsnjxYmUO4XnPPPMMoaGhLFq0yGtd3G43mZmZzJ8/X3lRL6aoqIhevXp5bO807L/MVhBCCCHE1WDXrl1ER0d79BMmTZpEjx492L179yWXc/r0aaKiorpc5w8CGASSkZFBdXU1paWlpKenU15ezogRIyguLlbyLF26lIqKCiorK3E4HABMnTqVtraO59qPHz+ew4cP43A4mDFjBvv37yc5OZnCwkIA9u7dy9q1aykuLkan836rY926dTQ0NGC1Wi+57larldOnT3tsUyO9jy4KIYQQQlu7H7empibq6+s9tn+/a3e5ampquOGGGzz2hYaG0rt3b2pqai6pjBMnTlBYWEhOTs4V1aWzBPQ5gAaDgcmTJ7N8+XKcTieZmZnk5+cr6X369GHIkCEMHTqUiRMnsmbNGpxOJ9u3b1fyhIWFkZycTG5uLmVlZRQUFFBYWEhzczM7duzg66+/JjY2ltDQUEJDQ/nyyy/5+c9/TlxcHADvv/8+u3btQq/XExoaypAhQwAYNWoUc+bM8VpvvV5PVFSUxya3f4UQQgjfuP34n7e7dEVFRV7P+/jjjytPHFHbPv300yu+vvr6eqZOnUpCQgIrVqy44vI6Q1DHJBMSEigpKVFNDwnp6GSdPXtWs4zW1lbOnTvH7NmzmTRpkkd6Wloas2fPZu7cuQD87ne/41e/+pWSXl1dTVpaGm+88YbHfMOLaVTpOus1pjVoRXRqRfupRbdqHdMdu6dqkaBabVETpv4bqAbv0b6+/mrSmvSs9b7xxf9TifSFwP7q02pfNZrrYneBaUO+tp/WcVqfZV/Kuz6AwR5q0b5q0cFXi9tavI8g/SPs4nPYL4esxnDlrFYrS5Ys8dinFmvw85//nMzMTM3y4uPjsVgsfP311x77W1tbOXnypBKsqqahoYH09HQiIyN56623CAsLu/hFBEFAOoAul4uZM2cyb948hg0bRmRkJHv27GHlypVMnz5dydfQ0EBNTQ1ut5tjx46xbNkyzGYzY8eOBSA1NZVZs2YxatQoTCYTBw4cwGazMWHCBKKiogAwmUwe5w4LC8NisXDTTTcBEBsb65F+Ppx78ODBDBgwoNPaQAghhBAd/BkFrNfrLym4FMBsNmM2my+ab8yYMdTV1bF3717laSPvv/8+7e3tmoNF9fX1pKWlodfrKS0txWBQ/zEebAGLAk5KSmL16tUcOnSIlpYWBg4cSHZ2NjabTcmXl5dHXl7Hr0mz2UxiYiJlZWVKpy4tLQ273Y7NZqOxsZGYmBimTZumHCOEEEKIrq/d3QWG8zXccsstpKenk52dzYsvvkhLSwsLFy7kwQcfVCKAq6qq+N73vserr77K6NGjqa+v5+6776axsZE//vGPynxE6OjTnL+r2VUEpAOo1+spKipSvScPcOTIkYuWY7VaLyt441LKjYuLw93F34hCCCGECKw//elPLFy4kO9973vKg6B/97vfKektLS189tlnNDY2ArBv3z4lQvh8fMF5X3zxhRKL0FV0vbhkIYQQQlzTroZhl969e6s+9BkuHEBKTU29qgaUpAMohBBCiICSNXyDT+e+mrqrQgghhLjqzRp0n9/K2vRlid/K6k4kAl0IIYQQopuRW8BCCCGECCh/PgZG+EY6gEIIIYQIKJkDGHwBuwV8/PhxFixYQGxsLHq9HovFQlpaGjt37gQ6omnOL8MSEhJCTEwMWVlZnDp1SimjsbERq9XK4MGDMRgMmM1mUlJS2Lx5s9dzzp8/H51Ox5o1a5R95eXlqsu/fPTRR53aBkIIIYQQXUHARgAzMjJobm7GbrcTHx9PbW0tDocDl8ul5CkoKCA7O5u2tjYOHjxITk4OixYtYuPGjUBHh2737t2sW7eOhIQEXC4XTqfTo4zz3nrrLT744APlgY3njR07lq+++spj3/Lly3E4HIwaNaoTrlwIIYQQ3+aWEcCgC0gHsK6ujh07dlBeXk5KSgoAgwYNYvTo0R75IiMjlTX2+vfvz5w5c9i0aZOSXlpaytq1a5kyZQrQMWp4fomWb6uqquLRRx/lvffeY+rUqR5p4eHhHuv4tbS0sHnzZh599FF0usCtnymEEEJ0VzIHMPgCcgvYaDRiNBopKSmhqcn7Atv/rqqqii1btnisuWexWNi6dSsNDQ2qx7W3tzN79myWLl3KrbfeetHzlJaW4nK5mDt37iXVSwghhBDiaheQDmBoaCjFxcXY7Xaio6MZN24cNpuNyspKj3y5ubkYjUYiIiIYMGAAOp2OVatWKenr16/H6XRiMplITExk8eLFyhzC85555hlCQ0NZtGjRJdVtw4YNpKWlMWDAANU8TU1Nypp+57dL7cgKIYQQwpPb7fbbJnwTsCCQjIwMqqurKS0tJT09nfLyckaMGEFxcbGSZ+nSpVRUVFBZWYnD4QBg6tSptLW1ATB+/HgOHz6Mw+FgxowZ7N+/n+TkZAoLCwHYu3cva9eupbi4+JJu5/7rX//ivffeIysrSzNfUVERvXr18ti01jUWQgghhLp23H7bhG+CuhLIj370I7Zt28aXX35JXFwcP/vZz/jZz36mpH/wwQeMGTOGbdu2MWnSJK9l/OpXv6KgoIBvvvmG3//+9yxZsoQePf6vX9vW1kaPHj0YOHAgR44c8Ti2sLCQdevWUVVVRVhYmGo9m5qaLhjx0+v16PX6y79oIYQQopubHjvNb2VtPvq238rqToL6HMCEhARKSkpU00NCQgA4e/asZhmtra2cO3eO2bNnX9BRTEtLY/bs2RfM8XO73bzyyis88sgjmp0/kM6eEEII4U8SBBJ8AekAulwuZs6cybx58xg2bBiRkZHs2bOHlStXMn36dCVfQ0MDNTU1uN1ujh07xrJlyzCbzYwdOxaA1NRUZs2axahRozCZTBw4cACbzcaECROIiooCwGQyeZw7LCwMi8XCTTfd5LH//fff54svvuBHP/pRJ1+9EEIIIb5NHgMTfAHpABqNRpKSkli9ejWHDh2ipaWFgQMHkp2djc1mU/Ll5eWRl5cHgNlsJjExkbKyMqVTl5aWht1ux2az0djYSExMDNOmTVOOuRwbNmxg7Nix3Hzzzf65SCGEEEKIq0RQ5wAKIYQQovuZEjvFb2VtPbrVb2V1J7IWsBBCCCECSsaegi9gj4ERQgghhBBdg4wACiGEECKgJAo4+KQDKIQQQoiAkijg4JNbwEIIIYQQ3YyMAAohhBAioGQJt+CTDqAQQgghAkqigIMvYLeAjx8/zoIFC4iNjUWv12OxWEhLS2Pnzp0AxMXFodPp0Ol0hISEEBMTQ1ZWFqdOnVLKaGxsxGq1MnjwYAwGA2azmZSUFDZv3qzkyczMVMo5v6Wnp3vU5eTJkzz88MNERUURHR1NVlYW33zzTWAaQgghhBAiyAI2ApiRkUFzczN2u534+Hhqa2txOBy4XC4lT0FBAdnZ2bS1tXHw4EFycnJYtGgRGzduBGD+/Pns3r2bdevWkZCQgMvlwul0epQBkJ6eziuvvKL8+9/X8X344Yf56quv2LZtGy0tLcydO5ecnBxee+21TmwBIYQQQoDcAu4KAtIBrKurY8eOHZSXl5OSkgLAoEGDGD16tEe+yMhILBYLAP3792fOnDls2rRJSS8tLWXt2rVMmdLxBPG4uDhGjhx5wfnOjzB688knn/Duu+/y0UcfMWrUKADWrVvHlClTePbZZ4mJibnyCxZCCCGEKokCDr6A3AI2Go0YjUZKSkpoamq6pGOqqqrYsmULSUlJyj6LxcLWrVtpaGjQPLa8vJwbbriBm266iQULFniMEO7atYvo6Gil8wcwadIkevTowe7du72W19TURH19vcd2qdchhBBCCNHVBKQDGBoaSnFxMXa7nejoaMaNG4fNZqOystIjX25uLkajkYiICAYMGIBOp2PVqlVK+vr163E6nZhMJhITE1m8eLEyh/C89PR0Xn31VRwOB8888wz/9V//xfe//33a2toAqKmp4YYbbrigfr1796ampsZr/YuKiujVq5fHVlRU5I+mEUIIIbqddrfbb5vwTcCCQDIyMqiurqa0tJT09HTKy8sZMWIExcXFSp6lS5dSUVFBZWUlDocDgKlTpyqdt/Hjx3P48GEcDgczZsxg//79JCcnU1hYqJTx4IMPcu+993L77bdz33338fbbb/PRRx9RXl7uc92tViunT5/22KxWq8/lCSGEEN2Z24+b8E1AHwRtMBiYPHkyy5cvx+l0kpmZSX5+vpLep08fhgwZwtChQ5k4cSJr1qzB6XSyfft2JU9YWBjJycnk5uZSVlZGQUEBhYWFNDc3ez1nfHw8ffr04fPPPwc6biN//fXXHnlaW1s5efKk6rxBvV5PVFSUx/bvgSVCCCGEEFeLoD4HMCEhgZKSEtX0kJAQAM6ePatZRmtrK+fOnSM8PPyC9H/961+4XC769esHwJgxY6irq2Pv3r1KAMn7779Pe3u7x3zDi1k38Ife66xxTIjGT5UW3eWn6eWnjwdf1pb09y8gX9e3vNqX5PnJsT963f97lc+Jr8eote/V3n7+pvV9EqbxveHLa+IrtXMFUsuJw6ppL92Z5/fzebvmi7Wtr6+JP8/VGSQKOPgC0gF0uVzMnDmTefPmMWzYMCIjI9mzZw8rV65k+vTpSr6GhgZqampwu90cO3aMZcuWYTabGTt2LACpqanMmjWLUaNGYTKZOHDgADabjQkTJhAVFcU333zDL3/5SzIyMrBYLBw6dIhly5YxZMgQ0tLSALjllltIT08nOzubF198kZaWFhYuXMiDDz4oEcBCiGuaVudPiECSDmDwBaQDaDQaSUpKYvXq1Rw6dIiWlhYGDhxIdnY2NptNyZeXl0deXsevLrPZTGJiImVlZZhMJgDS0tKw2+3YbDYaGxuJiYlh2rRpyjEhISFUVlZit9upq6sjJiaGu+++m8LCQo9btn/6059YuHAh3/ve9+jRowcZGRn87ne/C0RTCCGEEEIEXUA6gHq9nqKiIs3I2SNHjly0HKvVqhl8ERERwXvvvXfRcnr37i0PfRZCCCGCRJaCCz5ZC1gIIYQQASW3gINP5k4LIYQQQnQzMgLoZ1pRoD00IvO0euIS7Xtp1NrQ18hcf9bhYiS69dJIe1yZFl3gAkFua+n6qyVpRfpmf1xw2ceISydLwQWffJ8KIUQ3IVHAoqtwu91+2zrLyZMnefjhh4mKiiI6OpqsrCy++eabS76+73//++h0Os3H3QWTdACFEEIIIf7Nww8/zP79+9m2bRtvv/02//3f/01OTs4lHbtmzRp0Oo3bfl2A3AIWQgghREB19SCQTz75hHfffZePPvqIUaNGAbBu3TqmTJnCs88+q/nc4IqKCn7729+yZ88eZRGKrihgI4DHjx9nwYIFxMbGotfrsVgspKWlsXPnTgDi4uLQ6XTodDpCQkKIiYkhKyuLU6dOKWU0NjZitVoZPHgwBoMBs9lMSkoKmzdvVvJkZmYq5Zzf0tPTPepy7733Ehsbi8FgoF+/fsyePZvq6urANIQQQgjRzfnzFnBTUxP19fUeW1PTlc1B3bVrF9HR0UrnD2DSpEn06NGD3bt3qx7X2NjIQw89xPPPP6+6vGxXEbARwIyMDJqbm7Hb7cTHx1NbW4vD4cDlcil5CgoKyM7Opq2tjYMHD5KTk8OiRYvYuHEjAPPnz2f37t2sW7eOhIQEXC4XTqfTowyA9PR0XnnlFeXf/75u74QJE7DZbPTr14+qqip+8YtfMGPGDJxOZye2ALRqpGn1xNXm7Wgt9ySuDe3IPA1x+XqofGe0ob1cpT/9I0x7vfTxAaqHr9SCPdSCQ7SOEZ2rqKiIX/7ylx778vPzWbFihc9l1tTUcMMNN3jsCw0NpXfv3tTU1Kget3jxYsaOHeuxyllXFZAOYF1dHTt27KC8vJyUlBQABg0axOjRoz3yRUZGKj3m/v37M2fOHDZt2qSkl5aWsnbtWqZMmQJ0jBqeX8/3286PMKpZvHix8v+DBg3i8ccf57777qOlpYWwsDDfL1QIP5POn/CnQHX+hLgYf94CtlqtLFmyxGPfvw/8nPf444/zzDPPaJb3ySef+FSP0tJS3n//fT7++GOfjg+0gC0FZzQaKSkp4a677lJ9Yb6tqqqKLVu2kJSUpOyzWCxs3bqVH/zgB0RGRqoeW15ezg033MD111/PxIkT+dWvfqUsJ/fvTp48yZ/+9CfGjh0rnT8hhBAiAPz5GBi9Xn9J/QqAn//852RmZmrmiY+Px2Kx8PXXX3vsb21t5eTJk6oDTO+//z6HDh0iOjraY39GRgbJycmUl5dfUh0DJSADDKGhoRQXF2O324mOjmbcuHHYbDYqKys98uXm5mI0GomIiGDAgAHodDpWrVqlpK9fvx6n04nJZCIxMZHFixcrcwjPS09P59VXX8XhcPDMM8/wX//1X3z/+9+nra3tgnP17NkTk8nE0aNHPeYR/jtv8wta3G2q+YUQQgjR9ZjNZm6++WbNLTw8nDFjxlBXV8fevXuVY99//33a29s9Bqa+7fHHH6eyspKKigplA1i9erXHtLSuImB3mDIyMqiurqa0tJT09HTKy8sZMWIExcXFSp6lS5dSUVFBZWUlDocDgKlTpyqdt/Hjx3P48GEcDgczZsxg//79JCcnU1hYqJTx4IMPcu+993L77bdz33338fbbb/PRRx9d0PNeunQpH3/8MWVlZYSEhPDII4+oPk+oqKiIXr16eWzb6vf7t4GEEEKIbqLd7fbb1hluueUW0tPTyc7O5sMPP2Tnzp0sXLiQBx98UIkArqqq4uabb+bDDz8EOu5S3nbbbR4b/7+9Ow+Lstz/B/4eBmHQkUV2VEA2UdM0RAQ0CJVFTS30yiwSQzR/dTxaRxE6SonmMTqZ6TlXaam4f8O03I4boqYIuBzF3JVFkUVjkU02+fz+4OvzdWJxBgZm4Pm8up6r63numffc9zDPeM+z3DcAW1tb9OnTp03q2RrteomRTCbDmDFjsHjxYiQlJSE0NBTR0dFCuZmZGZycnODs7Aw/Pz988803SEpKQmJiovCYLl26YOTIkYiIiMCRI0ewdOlSxMTEoLq6utHXdHBwgJmZGe7cuaOw3czMDC4uLhgzZgx27tyJgwcPIjk5udGMyMhIPH78WGEZYzhADe8IY4wxJj6kxv/ayrZt2+Dq6opRo0Zh7NixGDFiBNatWyeU19TU4ObNm6ioqGizOrQljY4D2L9//2ZHyJZK6y9ZfvLkSbMZtbW1qKyshJ6eXoPy7OxsFBQUNDsWT11d/URcTd023tj1BaQjRWNdzraYtu0p3+2rlPac8q13TeOXADzo0rLL7Nuz7trO5GnTO1GRlHcGZcia+R7i0QNapyXTx7GOqUePHti+fXuT5fb29i+ciaQtZypprXbpABYUFGDKlCl4//33MWjQIHTv3h3nz5/Hl19+qXCrdGlpKfLy8kBEuH//PhYuXAhzc3N4eXkBAHx9ffH2229j6NChMDU1xbVr1xAVFYXXXnsNhoaGKCsrw+eff47g4GBYWVnh7t27WLhwIZycnBAQEAAASElJwblz5zBixAiYmJjg7t27WLx4MRwdHeHp6dkebwfr4Jrq/DGm7bjzx7RFW526Zcprt7uAPTw8sGrVKty9exc1NTXo3bs3wsPDERUVJTxuyZIlWLKk/teVubk53N3dceTIEeEO3oCAAMTFxSEqKgoVFRWwsbHB+PHjhedIpVKkpaUhLi4OxcXFsLGxgb+/P2JiYoQjeF27dsXu3bsRHR2N8vJyWFtbIzAwEH//+9+VvouIMcYYYy3XlqdumXLapQOor6+PFStWYMWKFU0+JjMz84U5kZGRiIyMbLLcwMAAhw8fbjZj4MCBOH78+AtfizHGGGOss+K5gBljjDHWrvgUsOZxB5Axxhhj7YpPAWsezzTFGGMi0dS84owx8ZGQNt+jzBhjjLFOx9HsFbVl3f3jotqyxIRPATPGGGOsXfEpYM3jU8CMMcYYYyLDRwAZY4wx1q6IeP4jTWu3I4CPHj3CnDlzYGtrC319fVhZWSEgIABnzpwBUD+likQigUQigVQqhY2NDcLCwlBUVCRkVFRUIDIyEo6OjpDJZDA3N4ePjw9+/fVX4TGhoaFCzrMlMDCwQX0OHDgADw8PGBgYwMTEBJMmTWrz94AxxhhjQB1IbQtrmXY7AhgcHIzq6mrExcXBwcEB+fn5SEhIQEFBgfCYpUuXIjw8HE+fPsWtW7cwa9YszJ07F1u2bAEAfPDBB0hJScGaNWvQv39/FBQUICkpSSEDAAIDA7Fx40Zh/c8zfPz8888IDw/HF198AT8/P9TW1uL3339XqT3/sHu30e0GzXwWdVr4Oa1uYvomn7qyJp9zViJX+XXaYpYo89rGG12gq/5Xa8k0Vy25K7K5363N7VCSZl6rrImfYs19nrTJ/7u/tdHt/+7d+H7S0uc09feqauZvr+5fucGO2U2W/Xy3V4syh1Hj+3JqM/txc5/Dbs0UljfzhnzUgr9JUy/1ove9qb9/e2quXW2hsTbX/JHe7HO6mDk0uv1FdW/stVryHNZ5tUsHsLi4GL/99htOnDgBHx8fAICdnR2GDRum8Lju3bvDysoKANCzZ09Mnz4dO3bsEMr37t2L1atXY+zYsQDqjxq6ubk1eL1nRxgbU1tbi7/+9a+IjY1FWFiYsL1///6tayRjjGm55jp/jLUnHoBE89rl60Aul0Mul+OXX35BVVWVUs958OAB9u3bBw8PD2GblZUVDh48iNLS0mafe+LECVhYWKBv376YM2eOwhHCixcv4sGDB9DR0cGQIUNgbW2NoKCgZo8AVlVVoaSkRGGppadKtYMxxhhjivgUsOa1SwdQV1cXmzZtQlxcHIyNjeHt7Y2oqCikpaUpPC4iIgJyuRwGBgbo1asXJBIJvv76a6F83bp1SEpKgqmpKdzd3TF//nzhGsJnAgMDsXnzZiQkJGDlypU4efIkgoKC8PRpfYctPb3+cPtnn32Gv//979i/fz9MTEzg6+uLwsLCRuu/YsUKGBkZKSwnHl9V51vEGGOMMdZu2u2EQHBwMHJycrB3714EBgbixIkTeOWVV7Bp0ybhMQsWLMClS5eQlpaGhIQEAMC4ceOEzturr76K9PR0JCQkYPLkybh69SpGjhyJmJgYIWPq1KmYMGECBg4ciEmTJmH//v04d+4cTpw4AQCoq6u/YuXTTz9FcHAw3NzcsHHjRkgkEsTHxzda98jISDx+/Fhh8TUa0AbvEmOMMdb5EZHaFtYy7XpFiEwmw5gxY7B48WIkJSUhNDQU0dHRQrmZmRmcnJzg7OwMPz8/fPPNN0hKSkJiYqLwmC5dumDkyJGIiIjAkSNHsHTpUsTExKC6urrR13RwcICZmRnu3LkDALC2tgageM2fvr4+HBwccO/evUYz9PX1YWhoqLDoSqStfj8YY4wxMaojUtvCWkajlwT3798f5eXlTZZLpfWdrCdPnjSbUVtbi8rKykbLs7OzUVBQIHT83NzcoK+vj5s3bwqPqampQWZmJuzs7FrSDMYY6xCauzuYMSYu7TIXcEFBAaZMmYL3338fgwYNQvfu3XH+/Hn85S9/wbhx4/Djjz/C3t4eYWFhCA8PBxHh/v37WLhwIa5du4br16/D1NQUvr6+ePvttzF06FCYmpri2rVr+Pjjj9GzZ08kJCSgrKwMn3/+OYKDg2FlZYW7d+9i4cKFKC0txZUrV4ThYObNm4ddu3Zhw4YNsLOzQ2xsLPbt24cbN27AxMSkrd8OxhhjTNSsjPupLSuv+LrassSkXYaBkcvl8PDwwKpVq3D37l3U1NSgd+/eCA8PR1RUlPC4JUuWYMmSJQAAc3NzuLu748iRIzA1NQUABAQEIC4uDlFRUaioqICNjQ3Gjx8vPEcqlSItLQ1xcXEoLi6GjY0N/P39ERMTozAWYGxsLHR1dRESEoInT57Aw8MDx48f584fY4wx1g742j3Na5cjgIwxxhhjz1gauaotK//xDbVliQnPBcwYY4yxdsXj92kedwAZY4wx1q745KPmcQewhX7s1ficihXNzEmq18znvbl5bJ82UdbcPLbtebNfc7eSt3Se0JZoydws6h7MR93ve0eZuau95gJuz8+TNpA2s4839b0ANL8vNDdldkvmAm4pbZh3VhvmAm7p/LwtmUN4l/U7zT5ncu62ZstZ58IdQMYYE4nmOn+MtScev0/zuAPIGGOMsXbFp4A1r7OeOWGMMcYYY03gI4CMMcYYa1d8F7DmtdsRwEePHmHOnDmwtbWFvr4+rKysEBAQgDNnzgAA7O3tIZFIIJFIIJVKYWNjg7CwMBQVFQkZFRUViIyMhKOjI2QyGczNzeHj44Nff/1VeExoaKiQ82wJDAxUqMvFixcxZswYGBsbw9TUFLNmzUJZWVn7vBGMMcaYyBGR2hbWMu3WAQwODsZ///tfxMXF4datW9i7dy98fX1RUFAgPGbp0qXIzc3FvXv3sG3bNpw6dQpz584Vyj/44APs3r0ba9aswY0bN3Do0CFMnjxZIQMAAgMDkZubKyw7duwQynJycjB69Gg4OTkhJSUFhw4dwtWrVxEaGtrm7wFjjGkS/1PJtEUdkdoW1jLtMhNIcXExTExMcOLECfj4+DT6GHt7e8ybNw/z5s0Tti1btgw7duzA1atXAQDGxsZYvXo1pk+f3uRrhYaGori4GL/88kuj5evWrcPixYuRm5sLHZ36/u+VK1cwaNAg3L59G05OTi1rJGOMMcaUIu/aR21ZZRUZassSk3Y5AiiXyyGXy/HLL7+gqqpKqec8ePAA+/btg4eHh7DNysoKBw8eRGlpabPPPXHiBCwsLNC3b1/MmTNH4QhhVVUV9PT0hM4fABgYGAAATp8+3WheVVUVSkpKFBZl28EYY4wxRaTG/1jLtEsHUFdXF5s2bUJcXByMjY3h7e2NqKgopKWlKTwuIiICcrkcBgYG6NWrFyQSCb7++muhfN26dUhKSoKpqSnc3d0xf/584RrCZwIDA7F582YkJCRg5cqVOHnyJIKCgvD0af3QqH5+fsjLy0NsbCyqq6tRVFSERYsWAQByc3Mbrf+KFStgZGSksKxYsUKdbxFjjDEmGnwKWPPa5RTwM5WVlfjtt9+QnJyM//znP0hNTcUPP/yA0NBQ2Nvb491330VoaCiICPfv30dUVBSkUilOnToFqbR+zoaamhokJycjKSkJCQkJOHbsGD7//HMsXry40ddMT0+Ho6Mjjh07hlGjRgEAtm/fjo8//hh//PEHpFIp5s6diy1btmD+/PmIiIhokFFVVdXgiJ++vj709fXV/A4xxhhjnZ+BgZ3asp48yVJblpi0awfwz2bOnImjR48iKyur0WsAk5OT4enpiaNHj2L06NGNZixbtgxLly5FWVkZ9PT0Gn2Mubk5li1bhtmzZytsz8/PR7du3SCRSGBoaIidO3diypQpamsfY4wxxhqSyWzVllVZeU9tWWKi0XEA+/fv3+TNGgCEo35PnjxpNqO2thaVlZWNdgCzs7NRUFAAa2vrBmWWlpYAgA0bNkAmk2HMmDFK131NE/M3Nje3bEvn55Q3MQFqRTMn8MU4F3BTr9XcLxyeC1g9eC5g7VLVzBdKc3OI81zAbUudcwG3ZF7flswf3Fb42j3Na5fvzYKCAvj5+WHr1q1IS0tDRkYG4uPj8eWXX2LixInC40pLS5GXl4fc3FykpqZiwYIFMDc3h5eXFwDA19cX33//PS5cuIDMzEwcPHgQUVFReO2112BoaIiysjIsWLAAycnJyMzMREJCAiZOnAgnJycEBAQIr7N27VpcvHgRt27dwr/+9S989NFHWLFiBYyNjdvj7WCMMY1orvPHGFNUWFiId955B4aGhjA2NkZYWJhSYwafPXsWfn5+6NatGwwNDfHqq682eyBLU9rlCKBcLoeHhwdWrVqFu3fvoqamBr1790Z4eDiioqKExy1ZsgRLliwBUH/a1t3dHUeOHIGpqSkAICAgAHFxcYiKikJFRQVsbGwwfvx44TlSqRRpaWmIi4tDcXExbGxs4O/vj5iYGIXr9VJTUxEdHY2ysjK4urri+++/R0hISHu8FYwxxpjodYQBnN955x3k5ubi6NGjqKmpwYwZMzBr1ixs3769yeecPXsWgYGBiIyMxJo1a6Crq4vLly8rjDyiLdqlA6ivr48VK1Y0e+dsZmbmC3MiIyMRGRnZZLmBgQEOHz78wpzNmze/8DGMMcYYaxva3gG8fv06Dh06hHPnzmHo0KEAgDVr1mDs2LH46quvYGNj0+jz5s+fj7lz5wqjiwBA375926XOqtK+LiljjDHGmAadPXsWxsbGQucPAEaPHg0dHR2kpKQ0+pyHDx8iJSUFFhYW8PLygqWlJXx8fJocY1jTuAPIGGMiUdPc3WaMtSNS49IWkzXk5eXBwsJCYZuuri569OiBvLy8Rp+Tnl5/k81nn32G8PBwHDp0CK+88gpGjRqF27dvt6o+bYJYq1RWVlJ0dDRVVlZqbSbnaV8m52lfJudpXybnaWemtomOjm7QL4yOjm70sRERES/sU16/fp2WL19OLi4uDZ5vbm5O//73vxvNPnPmDAGgyMhIhe0DBw6kRYsWtbqd6qbRcQA7g5KSEhgZGeHx48cwNDTUykzOaz1tr6PY8toik/NaT9vrKLa8tsrUNqpM1vDo0SOF6WEb4+DggK1bt+KTTz5BUVGRsL22thYymQzx8fF44403GjwvIyMDDg4O2LJlC9599/+G93nrrbegq6uLbdsaDs2jSRodB5AxxhhjrDVUmZnL3Nwc5ubmL3ycp6cniouLceHCBbi5uQEAjh8/jrq6Onh4eDT6HHt7e9jY2ODmzZsK22/duoWgoCCl6tee+BpAxhhjjLHn9OvXD4GBgQgPD0dqairOnDmDjz76CFOnThXuAH7w4AFcXV2RmpoKAJBIJFiwYAG+/fZb7Nq1C3fu3MHixYtx48YNhIWFabI5jeIjgIwxxhhjf7Jt2zZ89NFHGDVqFHR0dBAcHIxvv/1WKK+pqcHNmzdRUVEhbJs3bx4qKysxf/58FBYW4uWXX8bRo0fh6OioiSY0izuAraSvr4/o6GilDz9rIpPztC+T87Qvk/O0L5PztDNTLHr06NHsoM/29vaNjme4aNEihXEAtRXfBMIYY4wxJjJ8DSBjjDHGmMhwB5AxxhhjTGS4A8gYY4wxJjLcAWSMMcYYExnuADLGGGOMiQwPA6NG+fn5+P7777FkyZJWZzk4OODw4cNwdnZWQ81aJi0tTenHDho0qA1r8mJ1dXXQ0Wn4e6aurg7Z2dmwtbVtcXZGRgbu3LkDa2trvPTSS62pJp4+fYo9e/bg+vXrAOoHG500aRJ0dVXfFfPy8pCSkiJMTG5lZQUPDw9YWVm1uG5SqVRYT0lJQVVVFTw9PdGlS5cWZQJAcXEx4uPjce/ePdjZ2WHKlCkwMjJSOSc9PR2nT59Gbm4udHR04ODggDFjxmjt9FY1NTXIzMyEhYVFi9r78OFD/P7773Bzc4ORkRHy8/MRFxeHuro6jBs3DgMHDlRbXcvLy3HhwgW8+uqrrcqZMWMGli9fLgyUq4rnZ1xQJ95PtHs/YRqk0ZmIO5lLly6Rjo6OSs9ZvXp1o4tUKqXIyEhhXVW1tbUUGxtL7u7uZGlpSSYmJgqLMiQSCeno6Aj/b25pifj4eJoyZQp5eHjQkCFDFBZlPX78mKZMmUIymYwsLCxo8eLFVFtbK5Tn5eWpVL85c+ZQaWkpERFVVFRQcHCwwnvw2muvCeWq+v3338nBwYG6du0qtLNbt25kb29PV65cUTqnrKyM3nnnHZJKpaSrq0sWFhZkYWFBurq6JJVK6d1336Xy8nKl83Jycsjb25ukUim9+uqrVFhYSOPGjSOJREISiYRcXFwoJydH6bw33niD4uPjhTabmZmRubk5eXh4kKWlJVlZWdG1a9dUau/kyZOF+ujo6JCVlRVJpVKSy+W0du1apbOeqa6upgULFpCjoyO5u7vTjz/+qFCu6udm5cqVVFFRQUT1+94nn3xCenp6pKOjQ7q6ujRjxgyqrq5WOi8xMZG6detGEomErKys6NKlS9SrVy9ydnamvn37kr6+Ph0+fFjpvBdR9bvr8uXLjS5dunShPXv2COuqkEgk5OjoSMuXL6cHDx6o2oQGeD9p/X7COjfuAKqgqS+9Z8v//M//qNwZkkgk1KtXL7K3t1dYJBIJ9ezZk+zt7alPnz4q13Xx4sVkbW1NX331FclkMoqJiaGwsDAyNTVVukOZmZkpLHv27CFHR0f67rvvhPZ+99135OzsTHv27FG5fqtXrya5XE4fffQR6enp0ezZs2n06NFkZGREUVFRSufMnTuXXFxcKD4+ntavX092dnY0btw4qqqqIqL6f8glEonSeTo6OpSfn09ERJGRkdSrVy86fvw4lZeX0+nTp8nR0ZEWLVqkWmP/1/Dhw+n111+nwsJCYVthYSFNmDCBPD09lc4JCwsjZ2dnOnTokEJnt7a2lg4fPkwuLi40c+ZMpfNCQkLIy8uL9u7dS2+99RZ5eXnRyJEjKTs7m7Kyssjb25s+/PBDpfNMTEzo+vXrREQUFBRE06ZNE/4e1dXVFBYWRv7+/krnzZo1i7y9venKlSt0+/Ztmjx5Mi1cuJDKy8vpxx9/pK5du9K2bduUziMiio6OJktLS4qNjaVPP/2UjIyMaNasWUJ5az43sbGxZGJiQhs2bKCrV6/S1q1bycLCglauXKl03ogRI+jDDz+k0tJSio2NpZ49eyr8Df72t7+Rl5eX0nkvomoH8Pkfh39env/BpAqJRELh4eFCJ23cuHG0Z88ehc+4Kng/af1+wjo37gCqoC2+9GbPnk2DBw9u8EtPV1eXrl692uK6Ojg40P79+4mISC6X0507d4iovuP19ttvq5zn7u5OBw4caLD9wIED9Morr6ic17dvX9q+fbtQv7t37xJRfcdVlS9RW1tbSkxMFNYfPXpEw4YNI39/f6qsrFT5SI5EIhH+IX/ppZeEOj7z66+/kouLi9J5z5PJZPT777832H7lyhWSyWRK5xgbG9OZM2eaLD99+jQZGxsrnWdtbU1nz54lIqKCggKSSCR07NgxoTwhIYEcHByUzjMwMBA+b9bW1nTx4kWF8ps3b5KRkZHSeWZmZnT+/HlhvbCwkGQymXD0Zu3atTR48GCl84iInJycaN++fcL67du3ycnJiUJDQ6murq5Vn5shQ4bQ999/r1C+detWGjBggNJ5hoaGwntYU1NDurq69N///lcov3Xrlkrv4Z/PAPx5MTQ0VKm9L7/8Mo0bN46uX78u/EjMyMggXV1dOnr0qLBNFc/ew5qaGtq1axeNHTuWpFIpWVpa0sKFC+nmzZsq5fF+0vr9hHVufBOICnr06IH169cjIyOjwZKeno79+/ernPndd99hyZIlCAgIwNq1a9VW17y8POEaIblcjsePHwMAxo8fjwMHDqicd+XKFfTp06fB9j59+uDatWsq5927dw9eXl4AAAMDA5SWlgIAQkJCsGPHDqVzHj16BDs7O2HdzMwMx44dQ2lpKcaOHaswR6OyJBIJgPr38M/XNr788su4f/++ypkA4OLigvz8/AbbHz58CCcnJ6Vz6urqoKen12S5np4e6urqlM4rKipCz549AdR/xrt27arwnjo5OSE3N1fpvEGDBuH48eMA6q+3ysrKUijPysqCgYGB0nm1tbUK1y/J5XLU1taivLwcAODv748bN24onQfUT+L+/PWcTk5OOHHiBJKSkhASEoKnT5+qlAf83+fm+c/2M15eXsjIyFA6S09PD5WVlQCA6upq1NXVCesA8OTJE5WuN6uqqsL777+PVatWNbp88sknSmcBQGpqKpycnBAcHIzCwkLY2dnB3t4eAGBjYwM7OzuFz5AqdHV1ERwcjAMHDiArKwsffvghdu3ahX79+ql0jSLvJ63fT1gnp+keaEfi7+9PMTExTZZfunRJpdNGz8vOziY/Pz8KDAyk3NzcVh8BdHFxoeTkZCIi8vb2phUrVhAR0c6dO8nc3FzlvCFDhlBISIhwioKIqKqqikJCQlS6Zu+ZPn36CL943dzc6LvvviMiosOHDyt9jSJR/ZHExo5MlpaWkqenJ7388ssqH8mZPXs2zZ8/nywsLOjIkSMK5RcuXCAzMzOl8x4/fiwsBw4coAEDBlB8fDzdv3+f7t+/T/Hx8TRw4MBG29CUadOm0ZAhQxocMSAiunjxIrm5udE777yjdJ6trS2lpKQI6xEREVRQUCCsX7p0SaU279+/n3r06EEbN26kjRs3kr29Pf3www905swZ2rBhA/Xu3ZsWLFigdN6YMWMUjgrHxsaStbW1sH7x4kWV6kdU//l7/ujNMw8ePCAXFxcaM2aMyp+b5cuX0+rVq8na2ppOnjypUH758mWVPtcTJ06k8ePH0+nTp2nWrFk0dOhQGjduHJWVlVF5eTlNnjyZAgMDlc7z8vKib775psnylly/TER08OBB6tWrF33xxRf09OnTVn1vPX8avTHHjh2jadOmKZ3H+0nr9xPWuXEHUAW7d++mLVu2NFleWFhImzZtanF+XV0dffHFF8KFu63pAEZERNDy5cuJqL7Tp6urS05OTqSnp0cREREq56WkpJCFhQWZm5vTqFGjaNSoUWRubk4WFhYKX4rKCgsLo88++4yI6k9NGBgY0OjRo8nY2Jjef/99pXP+8pe/0OTJkxstKykpIQ8PD5X+YfPx8SFfX19hWb9+vUJ5TEwM+fj4KJ335xtonr9k4M/ryiosLKTAwECSSCTUo0cPcnV1JVdXV+rRowfp6OhQUFAQFRUVKZ03YcKEZjsHa9euJT8/P6XziIh27dpFvXr1anDJhEwmo3nz5ql0XdeFCxeoR48eZGVlRba2tqSnp0c7duxQqN97772nUv3CwsKa/JxlZ2eTk5OTSn8TOzs7hWt4V61apVD+zTff0PDhw5XOu3XrFjk7O5NEIqF+/fpRdnY2TZgwgXR1dUlXV5fMzc3pwoULSuctX75c2N8ac+/ePQoNDVU673l5eXkUFBREI0eObFUH8PnT6OrA+0nr9xPWuUmIiDR9FJIpunDhAk6fPo333nsPJiYmaslMTk5GUlISnJ2d8frrr7coo7y8HNu2bRNOI/Tr1w/Tpk1Dt27dVM6qq6tDXV2dMPzJzp07hfrNnj272VM3zysqKkJOTg4GDBjQaHlpaSkuXrwIHx8flevYmPT0dOjp6aFXr15KPf7kyZNKZ6tax+vXryM5OVlheAtPT0+4urqqlPMiqamp6Nq1q8pD4Dx9+hQXL15Eeno66urqYG1tDTc3N3Tv3l3lOuTm5mL//v2oqqqCn58f+vfvr3LG87KysnDjxg0EBAQ0Wp6Tk4OjR49i+vTprXqdZ5KTk6Gvr48hQ4ao9LyCggKYmpoK6wkJCXjy5Ak8PT0VtmuDb7/9FomJiVizZo3S+8fzTp48CW9v7xYNidScGzdu4OzZs7yfMPYn3AFUg9raWlRWVkIul2t1JmOMMcYYwDOBqGTfvn3YtGmTwrbly5dDLpfD2NgY/v7+KCoq0mjmP//5zwYXE7eGuvOeSU1NxerVqxEZGYnIyEisXr0a586dU/vr5OfnY+nSpRrN+/nnn1t0M8qLZGdno6ysrMH2mpoanDp1ivNeoKCgAImJiSgsLAQA/PHHH1i5ciWWLl0qDNTdmfIa4+DggNu3b6slqy3y1JlJREhMTMT69euxf/9+1NTUcB4TN82dfe54fH19FQbTPHPmDOno6NCyZcvo559/JldXV5o/f75GMyUSCUmlUho9ejTt3LlT4aaNllB3Xn5+Po0YMYIkEgnZ2dnRsGHDaNiwYWRnZ0cSiYRGjBih1uuAWnpxuzrzJBIJGRoaUnh4uHBjTmvk5OSQu7s76ejokFQqpZCQEIXBqVUdwkRseUT117QaGRmRRCIhExMTOn/+PPXp04ecnZ3J0dGRDAwMVLrGTtvz1D3gfFsMYK/uzKCgICouLiai+mFbPDw8SCKRkLm5Oeno6JCrqys9fPiQ85hocQdQBebm5gp3lM2fP58CAgKE9QMHDpCTk5NGMyUSCW3cuJEmTpxIXbp0IVNTU/rrX/+q0kwTbZkXHBxMnp6edOPGjQZlN27cIC8vryZv6miMugfnbqvBvpcuXUpDhgwhiURCAwYMoFWrVtEff/yhUs4z7733Hnl4eNC5c+fo6NGj5ObmRkOHDhUGmFZ1EGOx5RERjR49mmbOnEklJSUUGxtLvXr1UhgUeMaMGTRp0qROk6fuAefbYgD7tqjjsx+Tc+bMof79+1N6ejoREd2/f5/c3Nzogw8+4DwmWtwBVIFMJqOsrCxh3d3dnb788kthPTMzk7p27arRzOe/BPLz82nlypXk6upKOjo65O7uTuvWraOSkhKN5cnl8kaHZXjm/PnzJJfLVaqfOgfnbqsZDp69h+fPn6c5c+aQsbEx6evr05QpUxoMNfMiNjY2CndeV1ZW0uuvv06DBw+mgoIClY+IiS2PqH5g5GeDr1dXV5OOjo7Ca1y4cIF69uzZafLUPeB8Wwxgr+7M5/e7vn370q+//qpQfuzYsRZ3KMWQxzo/7gCqwNHRkQ4dOkRE9ePM6enp0enTp4VyVceIa4vMpoZSOHXqFE2fPp26detG3bp101ieqakpnThxosnyxMREMjU1VSnvxx9/VJi27vnlwIEDKnUO1J1H1Ph7+OTJE9q8eTP5+vqSjo4O2dvbK53XrVs3unXrlsK2mpoamjRpEg0aNIjS0tJUqqPY8p5lZmRkCOvPz0ZDRJSVlaXS7CzankdUP4xV7969ac2aNcK21nTY1J2n7kyJRCKc8rSwsGgwC09mZibp6+tzHhMtvglEBVOmTMG8efOwZcsWhIeHw8rKCsOHDxfKz58/j759+2o089lsBH82cuRIbNq0CTk5OVi1apXG8t566y1Mnz4de/bsQUlJibC9pKQEe/bswYwZM/D2228rnefm5oacnBxh5oE/Lz179gSpcKO7uvOAxt9DmUyGkJAQJCYm4ubNm5g2bZrSeQ4ODkhLS1PYpquri/j4eDg4OGD8+PEq1U9seQDQu3dvpKenC+s7d+6EtbW1sJ6bmwszM7NOkwcAb7zxBs6ePYs9e/YgKChIGBalpdSd1xaZoaGhePPNN1FTU9NgJpa8vDwYGxtzHhMt7gCqYMmSJXB3d8fcuXNx6dIlbN26FVKpVCjfsWOHymPsqTvzRZ0TQ0NDhIeHayzv66+/RlBQEKZOnQoTExMYGBjAwMAAJiYmmDp1KoKCgvDVV18pnffBBx8IU1A1xtbWFhs3btRYHvDi99DJyQnLly9XOi8oKAjr1q1rsP1Zp2jw4MEq1U9seQAwdepUPHz4UFgfN26cwrRbe/fuxbBhwzpN3jM9e/bEsWPH8Oqrr2LIkCEq/5hp6zx1Zk6fPh0WFhYwMjLCxIkTG9yJ//PPP6v02RFbHuv8eBxAphElJSW4cOGCwuCsbm5uCnNZdhZZWVmwtbVt8miqqmpra1FRUdHke1VbW4sHDx4oPRer2PKUUVFRAalUCn19/U6bp+4B59tiAPu2yHymvLwcUqkUMpmM85gocQewleh/x1p68uQJvLy81PIl1RaZ6h5YWtsHqhZbewHtb7O257VFJudpXybnMVaPTwGroLi4GNOnT8fAgQMRHh6OkpISjBw5EqNHj8brr7+Ofv36NbhWqb0z1T2wdFsMft0cVQda7ujtBTpfm7U9ryPUUWx5HaGOYstjIqCJO086qrCwMHJ2dqZly5aRh4cHeXp60vDhwyk5OZlSU1PJ19eXxo8fr9FMdQ8s3RaDXzdH1YGWO3p7iTpfm7U9ryPUUWx5HaGOYstjnR93AFVgY2MjDGGSnZ1NEomEEhMThfKUlBSytLTUaKa6B5ZWd566B1rW9vYSia/N2p7XEeootryOUEex5bHOT1fTRyA7kvz8fLi4uACov1NNJpOhd+/eQrmtrS0ePXqk0czS0lKYmpoK66dPn8aUKVOE9QEDBiAnJ0djeYMHD4ZEImn0zr5n21W5WULb2wuIr83antcR6ii2vI5QR7Hlsc6PrwFUQV1dncIQLVKpVOEf7pbc5anuzJ49ewoTxZeVleHy5cvw8vISygsKCtC1a1eN5fXo0QPr169HRkZGgyU9PR379+9XOqst6qfuPEB8bdb2vI5QR7HldYQ6ii2PdX58BFBFP/zwg3A3VW1tLTZt2iQMyFpaWqrxzGcDS0dFReHgwYOtHlha3XnPD7TcmOLiYpXG/dL29gLia7O253WEOootryPUUWx5TAQ0ef65o7Gzs2swUXljiyYzKyoqKCQkhIyNjcnV1ZVOnTqlUO7r60v/+Mc/NJa3e/du2rJlS5PlhYWFtGnTJo3VT915ROJrs7bndYQ6ii2vI9RRbHms8+NxABljjDHGRIavAVTB2bNnG1yvtXnzZvTp0wcWFhaYNWsWqqqqNJ75Z0SE48eP48CBA2oZB0rdeUD9qe+ysjK1ZHWE9gLiarO257VFJue1nrbXUWx5rJNp3wOOHVtAQIDCIfS0tDTS1dWlmTNn0j//+U+ysrKi6OhojWYWFRXRe++9Ry+99BLNnDmTHj9+TN7e3iSRSEgikZClpSVdvnxZY3l79+6ljRs3KmxbtmwZ6evrk1QqpTFjxlBhYaHG6qfuPCLxtVnb8zpCHcWW1xHqKLY81vnxEUAVXL58GaNGjRLWd+7cCQ8PD6xfvx4ff/wxvv32W/z0008azfzb3/6Gs2fPYurUqbhy5QoCAwPx9OlTnD17FikpKejXrx8+/fRTjeV9/fXXKC8vF9aTkpKwZMkSLF68GD/99BPu37+PmJiYTtNeMbZZ2/M6Qh3FltcR6ii2PCYCmu6BdiT6+vp07949Yd3b25uWLVsmrGdkZJBcLtdoproHltb2gaq1vb1E4muztud1hDqKLa8j1FFseazz4w6gCmxtbenkyZNERFRVVUUGBgZ07NgxoTwtLY1MTEw0mimVSiknJ0dYNzAwoDt37gjrubm5Ks06oe48mUxGWVlZwrq7uzt9+eWXwnpmZiZ17dpVY/VTdx6R+Nqs7XkdoY5iy+sIdRRbHuv8+BSwCsaOHYtFixbht99+Q2RkJLp27YqRI0cK5WlpaXB0dNRoproHltb2gaq1vb2A+Nqs7XkdoY5iy+sIdRRbHuv8eCBoFcTExODNN9+Ej48P5HI54uLioKenJ5Rv2LAB/v7+Gs9U92DV2jxQtbrr1xZ5Ymyztud1hDqKLa8j1FFseaxz43EAW+Dx48eQy+UKv7YAoLCwEHK5XKED196Z9vb2Sv3Sy8jI0EjekydPMHv2bOzbtw9WVlZYt26dwhHP1157DYGBgYiIiNBI/dSdB4ivzdqe1xaZnNe6vLbI5LzW5bHOjzuAjDHGGGMiw9cAdjLqHlha2weq7ojtBTp3m7U9ryPUUWx5HaGOYstjIqDJO1CY+ql7YGltH6ha29tLJL42a3teR6ij2PI6Qh3Flsc6P+4AdjJWVlZ07tw5YT0qKoq8vb2F9Z9++on69eunsbywsDBydnamZcuWkYeHB3l6etLw4cMpOTmZUlNTydfXl8aPH6+x+qk7j0h8bdb2vI5QR7HldYQ6ii2PdX58F3AnU1RUBEtLS2H95MmTCAoKEtbd3d1x//59jeX95z//wfbt2+Hj44PQ0FD07t0bx48fh4eHBwBg5cqVmDBhgsbqp+48QHxt1va8jlBHseV1hDqKLY91fnwNYCdjaWkp3OVVXV2NixcvKgw5Ulpaii5dumgsLz8/Hy4uLgDqx8eTyWTo3bu3UG5ra4tHjx5prH7qzgPE12Ztz+sIdRRbXkeoo9jyWOfHHcBORt0DS2v7QNXa3l5AfG3W9ryOUEex5XWEOootj4mAps9BM/V69OgRjRw5kiQSCXXv3p12796tUO7n50dRUVEay5NIJLR8+XJavXo1rV69mmQyGS1evFhYX7ZsmUrTFWl7e4nE12Ztz+sIdRRbXkeoo9jyWOfH4wB2UuoerFpbB6pWd/3aIk+Mbe4IeR2hjmLL6wh1FFse67y4A8gYY4wxJjJ8DSBrV2IcrFSMbWaMMabduAPI2tXnn3+Oq1evCutXrlxBWFgYRo8ejUWLFmHfvn1YsWKFBmuofmJsM2OMMe3Gp4BZu7K2tsa+ffswdOhQAMCnn36KkydP4vTp0wCA+Ph4REdH49q1a5qsplqJsc2MMca0Gx8BZO1KjIOVirHNjDHGtBt3AFm7EuNgpWJsM2OMMe3GHUDWrsQ4WKkY28wYY0y78VzArF3FxMTgzTffhI+PD+RyOeLi4hTGpdqwYQP8/f01WEP1E2ObGWOMaTe+CYRphBgHKxVjmxljjGkn7gAyxhhjjIkMXwPIGGOMMSYy3AFkjDHGGBMZ7gAyxhhjjIkMdwAZY4wxxkSGO4CMMcYYYyLDHUDGGGOMMZHhDiBjjDHGmMhwB5AxxhhjTGS4A8gYY4wxJjLcAWSMMcYYExnuADLGGGOMiQx3ABljjDHGRIY7gIwxxhhjIvP/AXnW4l3HZg0tAAAAAElFTkSuQmCC;clipPath=inset(0.22% 17% 0.22% 0%);" vertex="1" parent="1">
          <mxGeometry x="80" y="175" width="640" height="575.7429718875502" as="geometry" />
        </mxCell>
        <mxCell id="VPC5jBnNboCeoQjzzpag-10" value="" style="shape=image;verticalLabelPosition=bottom;labelBackgroundColor=default;verticalAlign=top;aspect=fixed;imageAspect=0;image=data:image/png,iVBORw0KGgoAAAANSUhEUgAAAoAAAAHgCAYAAAA10dzkAAAAOXRFWHRTb2Z0d2FyZQBNYXRwbG90bGliIHZlcnNpb24zLjMuNCwgaHR0cHM6Ly9tYXRwbG90bGliLm9yZy8QVMy6AAAACXBIWXMAAA9hAAAPYQGoP6dpAACzxElEQVR4nOz9fXgU1f34/z+XJGyimxBYVpcAIXLTalRQQogEQwICSQHFqwErWiSQJoUWUWgh3a0kmGhT0XJTtKX4xmalFXunISjV0JW8y4dFFDDfvAsqNRShiYmwEBIJ5HZ/f+TH1C2ZAYZlN5DXo9dcV5k5c+bM7Gx87ZnzmmPweDwehBBCCCFEt9Ej0A0QQgghhBD+JQGgEEIIIUQ3IwGgEEIIIUQ3IwGgEEIIIUQ3IwGgEEIIIUQ3IwGgEEIIIUQ3IwGgEEIIIUQ3IwGgEEIIIUQ3IwGgEEIIIUQ3IwGgEEIIIUQ3IwGgEEIIIUQ3IwGgEEIIIUQ3IwGgEEIIIUQ3IwGgEEIIIUQ3IwGgEEIIIUQ3IwGgEEIIIbqFv//979x///1ERUVhMBgoLi6+6D5lZWWMHDkSo9HI0KFDKSoquurt9AcJAIUQQgjRLZw5c4YRI0bw0ksvXVL5f/3rX0ydOpXx48dTXl7Ok08+yfe+9z3efffdq9zSq8/g8Xg8gW6EEEIIIYQ/GQwG3nzzTR588EHVMjk5Obz99tv84x//UNY9/PDD1NXV8c477/ihlVdPl+oBPH78OAsWLCA6Ohqj0YjVaiU1NZVdu3YBEBMTg8FgwGAwEBQURFRUFJmZmZw6dUqpo7GxEZvNxpAhQwgNDcVisZCcnMyWLVuUMm+88QaTJ0/GbDZjMBgoLy/396kKIYQQwgeampqor6/3WpqamnxS9+7du5k4caLXutTUVHbv3u2T+gMpONAN+Lr09HSam5txOBwMHjyY2tpanE4nbrdbKZOfn09WVhZtbW0cOnSI7OxsFi1axKZNmwCYP38+e/bsYd26dcTGxuJ2u3G5XF51nDlzhnvvvZeHHnqIrKwsXW1tOXG40/UvjsxV3edUD32drU20d7r+pvYgjWN1vg9AT4+h0/U3qKwHUN8CPTVOq1llR73dzqEaOzao/JwJ0djnBo1tTSpt16rvnMaFOmtQ31Ht2ht1Xqg2rQ9MRaj6LUPLRepbeOx3na5fHf1d1X0WH+18nxc09lG7HiHqTaNVY5vWL2C1y6H1R7NFY5v6t1X9XtP6/LXuw4PB6mc9pE39DNQ+Ry0rB3X+eZk07ieAH+g4lq/9aqD6vabVfLXr9PIA9foAsv594X5abQD167T+IvvN72Q/vce6GtT+G6pH4Yuv8vTTT3uty8vLY8WKFVdcd01NDTfffLPXuptvvpn6+nrOnj1LWFjYFR8jULpMAFhXV8fOnTspKysjOTkZgEGDBjF69GivcuHh4VitVgD69+/PnDlz2Lx5s7K9pKSEtWvXMmXKFKCj1zAuLs6rjtmzZwNw5MiRq3U6QgjR5WgFf0Jcq2w2G0uWLPFaZzQaA9Saa0eXeQRsMpkwmUwUFxdfctdtVVUVW7duJSEhQVlntVrZtm0bDQ0NPmvb1exeFkIIIbqd9jafLUajkYiICK/FVwGg1WqltrbWa11tbS0RERHXdO8fdKEAMDg4mKKiIhwOB5GRkYwdOxa73U5FRYVXuZycHEwmE2FhYQwYMACDwcCqVauU7Rs2bMDlcmE2m4mPj2fx4sXKGEK9CgsL6dWrl9fy3Nr1V1SnEEIIIbq2MWPG4HQ6vdZt376dMWPGBKhFvtNlAkDoGANYXV1NSUkJaWlpyrt3vv7OnaVLl1JeXk5FRYXyoUydOpW2tjYAxo0bx+HDh3E6ncyYMYMDBw6QlJREQUGB7nbZbDZOnz7tteQ8Mf+KzlUIIYTotjztvlsuw1dffUV5ebmS/Pmvf/2L8vJyjh49CnT89/6xxx5Tys+fP5/Dhw+zbNkyPvnkE371q1/xxz/+kcWLF/vsUgRKlwoAAUJDQ5k0aRLLly/H5XKRkZFBXl6esr1v374MHTqUYcOGMWHCBNasWYPL5WLHjh1KmZCQEJKSksjJyaG0tJT8/HwKCgpobm7W1aar2b0shBBCdDvt7b5bLsPevXu5++67ufvuuwFYsmQJd999N7m5HQmcX3zxhRIMAtxyyy28/fbbbN++nREjRvCLX/yC//mf/yE1NdV31yJAuvyI4NjYWM03dQcFdeTWnT17VrOO1tZWzp07R8+ePX3SLrVs34X781X3WauRIdyukWWpJ0MwwqMe2wep7Kd1M+hMYNbMENZD6xeLWoaw3l85wTrarpVVbNDIpVa79nqyVEH9Mwb1DGytzGG9fyj0XEOtjF6tTFpfUztnzeuu81hqGb1ax1L7uwDQ29N5S0728NBfT4q4Br2Z6l2BVtu1ssfVXCxb3pcuL+zpoJU53l2kpKSg9frjzmb5SElJ4aOPPrqKrQqMLhMAut1uZs6cybx58xg+fDjh4eHs3buXlStXMn36dKVcQ0MDNTU1eDwejh07xrJly7BYLCQmJgIdH9SsWbMYNWoUZrOZgwcPYrfbGT9+PBEREQCcPHmSo0ePUl1dDcCnn34KdAz2PJ9hLIQQ1xtfB39C6OW5zEe3wve6TABoMplISEhg9erVVFZW0tLSwsCBA8nKysJutyvlcnNzla5ai8VCfHw8paWlmM1moOMFjQ6HA7vdTmNjI1FRUUybNk3ZBzpeFTN37lzl3w8//DDgu/cGCSGEEELDZT66Fb7XZQJAo9FIYWEhhYWFqmUu5b19NpsNm82mWSYjI4OMjIzLbKEQQgghxPWhywSAQgghhOgm5BFwwEkAKIQQQgj/am8LdAu6PQkAdVKb11cr0/cJjQzh1XHq+9XT+RfF4+OcSK3MUa2x41oZwq0q++nJDr0Ytd+TWn9mtF7mo7af1pfmrM4x9mr7aX0mejOE1Zqotz4tvk450POfDK3PS+u81LZp7aP3Gqp9zHqvn9qxjgV5MGu9cqCb0fq+drl3pP0XPd9Jrcxx0f1IACiEEN2EBH+iy5BHwAEnAaAQQggh/EuygAOuq/dyCyGEEEIIH5MeQCGEEEL4lbwIOvC6VA/g8ePHWbBgAdHR0RiNRqxWK6mpqezatQuAmJgYDAYDBoOBoKAgoqKiyMzM5NSpU0odjY2N2Gw2hgwZQmhoKBaLheTkZLZs2dLpMefPn4/BYGDNmjX+OEUhhBBCBGguYPEfXaoHMD09nebmZhwOB4MHD6a2than04nb7VbK5Ofnk5WVRVtbG4cOHSI7O5tFixaxadMmoCOg27NnD+vWrSM2Nha3243L5fKq47w333yT999/n6ioKJ+dg9YYa61M38X71DOEnxj1k07Xa+UAa835qBb1603M1RpWrpbtezWGoutpv55s2RYdx7kYteukN4NV81gq67XmPvXnL0Wte1ctC7ir/CdAT6avFr2fv9rndaqHh94+TgTRO094V9ClekAuk562X8vnK3yvywSAdXV17Ny5k7KyMpKTkwEYNGgQo0eP9ioXHh6uzNfbv39/5syZw+bNm5XtJSUlrF27lilTpgAdvYZxcXEXHK+qqorHH3+cd999l6lTp16t0xJCiC7D18GfELrJI+CA6zI/CEwmEyaTieLiYpqami5pn6qqKrZu3UpCQoKyzmq1sm3bNhoaGlT3a29vZ/bs2SxdupTbb7/9osdpamqivr7ea2n1yEsshRBCCF3a23y3CF26TAAYHBxMUVERDoeDyMhIxo4di91up6KiwqtcTk4OJpOJsLAwBgwYgMFgYNWqVcr2DRs24HK5MJvNxMfHs3jxYmUM4XnPPfccwcHBLFq06JLaVlhYSK9evbyWXacPXPlJCyGEEEIEQJcJAKFjDGB1dTUlJSWkpaVRVlbGyJEjKSoqUsosXbqU8vJyKioqcDqdAEydOpW2to5fAePGjePw4cM4nU5mzJjBgQMHSEpKoqCgAIB9+/axdu1aioqKMBgu7XGIzWbj9OnTXsvYXhfvORRCCCFEJzztvluELl1mDOB5oaGhTJo0iUmTJrF8+XK+973vkZeXR0ZGBgB9+/Zl6NChAAwbNow1a9YwZswYduzYwcSJEwEICQkhKSmJpKQkcnJyeOaZZ8jPzycnJ4edO3fy5ZdfEh0drRyzra2NH/3oR6xZs4YjR45c0Caj0YjR6D1pWJvBQFsnw7C1ptpRm9IN1BM9ANbu/Xmn61/QSCo5ZmhW3RaqEfdHejpPLdH6ioVrpHScM/h2hHiExhgmd4/OW9mmMfy+f7t6Ko3WNFFqiQqnNUbEn9O4iiEq1/AUYG3r/PPSGs6lldBxTmW9SeOj0vsn9isdPzHVplkECNK418LUdtM5nV6LxvVVm6JP6/uv51jtGm3Xmibwf9uOq277Vo+bNFpy+Y5rNMSiNYdkF6D5meioT+/3ROteU6OVLKXF2FWSdiR7N+C6XAD432JjYykuLlbdHhTU8R/ws2fPatbR2trKuXPnmD17thIonpeamsrs2bOZO3euT9p8rVIL/oQ3vX949VAL/oQ31eDvKtAKvLo6Xwd/Wrp68NdV6An+9OoywZ/oErpMAOh2u5k5cybz5s1j+PDhhIeHs3fvXlauXMn06dOVcg0NDdTU1ODxeDh27BjLli3DYrGQmJgIQEpKCrNmzWLUqFGYzWYOHjyI3W5n/PjxREREAGA2m72OHRISgtVq5Zvf/Kb/TlgIIYToruTRbcB1mQDQZDKRkJDA6tWrqayspKWlhYEDB5KVlYXdblfK5ebmkpvb8ejTYrEQHx9PaWmpEtSlpqbicDiw2+00NjYSFRXFtGnTlH2EEEIIEWDyCDjgukwAaDQaKSwspLCwULVMZ+Pz/pvNZsNms13WsS+lXiGEEEKI60WXCQCFEEII0T145F26AScBoE43qWSPag2y9WhM3qaVfqGW7ftjjenjfnO3bx95601FCPP4b4Rzf5WECa1xz1rXXeuzVHt4YdQc+H75STZa110rGSHkso90daZTi9BRqdZsFWrVXY1UGbVkH61j6Z0WzdeD8x/QSPbwdRLTTSr3/LWQvqR1e+pJidNzzno/Dz3JI1pZ6n4nYwAD7lr4jgrRpcifLXGt8mcGuxCia5MeQCGEEEL4lySBBJwEgEIIIYTwL3kEHHDyCFgIIYQQopvxWwB4/PhxFixYQHR0NEajEavVSmpqKrt27QIgJiYGg8GAwWAgKCiIqKgoMjMzOXXqlFJHY2MjNpuNIUOGEBoaisViITk5mS1btihlztfx38vzzz/vr1MVQgghhJb2Nt8tQhe/PQJOT0+nubkZh8PB4MGDqa2txel04na7lTL5+flkZWXR1tbGoUOHyM7OZtGiRWzatAmA+fPns2fPHtatW0dsbCxutxuXy+VVxxdffOF13L/+9a9kZmaSnp7u0/M5pTLvbIRHX0ytNThbbV5frUzf73+kniG8XkeGsFbGmZ7MR73JaHrmU9X683CDRtu15tO93DaAdvKIWjNCdc5jq8WfmbS+pppkfRWukxqt+0LrWHo+f61MVK36TqnNwW0As9Yk0kL4izwCDji/BIB1dXXs3LmTsrIykpOTARg0aBCjR4/2KhceHo7VagWgf//+zJkzh82bNyvbS0pKWLt2LVOmTAE6eg3j4uK86ji//3lbtmxh/PjxDB48WFmXk5PDm2++yb///W+sViuPPvooubm5hIToeXmGEEJcGyT4E0Kc55cf/SaTCZPJRHFxMU1NTZe0T1VVFVu3biUhIUFZZ7Va2bZtGw0NDZdUR21tLW+//TaZmZle68PDwykqKuLgwYOsXbuWl19+mdWrV1/6CQkhhBBCv/Z23y1CF78EgMHBwRQVFeFwOIiMjGTs2LHY7XYqKiq8yuXk5GAymQgLC2PAgAEYDAZWrVqlbN+wYQMulwuz2Ux8fDyLFy9WxhB2xuFwEB4ezre//W2v9U899RSJiYnExMRw//338+Mf/5g//vGPqvU0NTVRX1/vtbTKW8yFEEIIfTztvluELn4b9pOenk51dTUlJSWkpaVRVlbGyJEjKSoqUsosXbqU8vJyKioqcDqdAEydOpW2to5ga9y4cRw+fBin08mMGTM4cOAASUlJFBQUdHrMV155hUcffZTQ0FCv9X/4wx8YO3YsVqsVk8nEU089xdGjR1XbXlhYSK9evbwW1+mDV3hFhBBCCCECw6/jvkNDQ5k0aRLLly/H5XKRkZFBXl6esr1v374MHTqUYcOGMWHCBNasWYPL5WLHjh1KmZCQEJKSksjJyaG0tJT8/HwKCgpobvZOlNi5cyeffvop3/ve97zW7969m0cffZQpU6bw1ltv8dFHH/HTn/70gv2/zmazcfr0aa8lsVesj66KEEII0c3II+CAC+iLoGNjYykuLlbdHhTUkQN39uxZzTpaW1s5d+4cPXv2VNZv3LiRuLg4RowY4VXe5XIxaNAgfvrTnyrrPv/8c812Go1GjEaj17obCO40dU9rflYtWpF4qI44XSvTd75KhrDWPlqZvlrDyrvCzFO+zjjW+nOjOU+sxjY9Gcd6M0711Kf3vtbTDl+3XS89n79evk7NUMseruvhkUSQLqbbhi8SuAWcXwJAt9vNzJkzmTdvHsOHDyc8PJy9e/eycuVKpk+frpRraGigpqYGj8fDsWPHWLZsGRaLhcTERABSUlKYNWsWo0aNwmw2c/DgQex2O+PHjyciIkKpp76+nj/96U/84he/uKAtw4YN4+jRo7z++uvEx8fz9ttv8+abb179iyCEEAEmwZ8Q4jy/BIAmk4mEhARWr15NZWUlLS0tDBw4kKysLOx2u1IuNzeX3NyOXiiLxUJ8fDylpaWYzWYAUlNTcTgc2O12GhsbiYqKYtq0aco+573++ut4PB5mzZp1QVseeOABFi9ezMKFC2lqamLq1KksX76cFStWXL0LIIQQQgiFRxIpA84vAaDRaKSwsJDCwkLVMkeOHLloPTabDZvNdtFy2dnZZGdnq25fuXIlK1eu9Fr35JNPXrReIYQQQvhAgB8Bv/TSSzz//PPU1NQwYsQI1q1bd8G7ib9uzZo1/PrXv+bo0aP07duXGTNmUFhYeEGS6bXkWnj5vxBCCCGET/zhD39gyZIl5OXlsX//fkaMGEFqaipffvllp+Vfe+01fvKTn5CXl8fHH3/Mxo0b+cMf/uD1BPNaJAGgEEIIIfwrgO8BXLVqFVlZWcydO5fY2FjWr1/PDTfcwCuvvNJpeZfLxdixY3nkkUeIiYlh8uTJzJo1iw8++OBKr0JABTQL+Fp2g6fzwdRaF1Qrk1IryTLSozUj6OVTy/ZVyw7W2gd8n42ql9p8yv7MRNbKltYaf99TZT+t+8nX11arPt/egdo0f5WqXCe9mdla9MyZrPczUatTa45wrXmnw1T+PjUatOe/1kN6Ea5Mt71+PnwE3NTUdMEsY529vQOgubmZffv2eQ0n69GjBxMnTmT37t2d1p+YmMjvfvc7PvjgA0aPHs3hw4fZtm0bs2fP9tk5BEK3vfeEEKK78XXwJ0RX0NlkDWo5BydOnKCtrY2bb77Za/3NN99MTU1Np/s88sgj5Ofnc++99xISEsKQIUNISUmRR8BCCCGEEJfFh4+AO5us4VISRi9VWVkZP/vZz/jVr37F/v37eeONN3j77bdVZyG7VsgjYCGEEEL4lw8fAas97u1M3759CQoKora21mt9bW0tVqu1032WL1/O7NmzlZnF7rzzTs6cOUN2djY//elP6dHj2uxLuzZb7WNHjhzBYDBQXl4e6KYIIYQQ4irp2bMncXFxOJ1OZV17eztOp5MxY8Z0uk9jY+MFQd75mco8nmt3XIXfAsDjx4+zYMECoqOjMRqNWK1WUlNT2bVrFwAxMTEYDAYMBgNBQUFERUWRmZnJqVOnlDoaGxux2WwMGTKE0NBQLBYLycnJbNmyRSlzvo7/Xp5//nl/naoQQgghtAQwC3jJkiW8/PLLOBwOPv74YxYsWMCZM2eYO3cuAI899pjXI+T777+fX//617z++uv861//Yvv27Sxfvpz7779fCQSvRX57BJyenk5zczMOh4PBgwdTW1uL0+nE7XYrZfLz88nKyqKtrY1Dhw6RnZ3NokWL2LRpEwDz589nz549rFu3jtjYWNxuNy6Xy6uOL774wuu4f/3rX8nMzCQ9Pd2n56OWgKeVBdqmcxYmPdmIWhmCam3UM38wwG809lO7HFdjQio911crM1vtumt9afTM6QvqGcLtV+HHpa8zTn1N68+5P+8nf1L7TJq0vsc6jtNoAJOP7ym1+Ryu3f8sCr8I4Iugv/Od73D8+HFyc3Opqanhrrvu4p133lESQ44ePerV4/fUU09hMBh46qmnqKqqwmKxcP/99/Pss88G6hR8wi8BYF1dHTt37qSsrIzk5GQABg0adMFbt8PDw5Vn8P3792fOnDls3rxZ2V5SUsLatWuZMmUK0NFrGBcX51XHfz/D37JlC+PHj2fw4MHKug8++IDvf//7fPzxx9xxxx389Kc/9d3JCiFEF+Xr4E+Ia9XChQtZuHBhp9vKysq8/h0cHExeXh55eXl+aJn/+OURsMlkwmQyUVxcfMG7etRUVVWxdetWEhISlHVWq5Vt27bR0NBwSXXU1tby9ttvk5mZqaz76quvmDZtGrGxsezbt48VK1bw4x//WLOepqYm6uvrvZZWmcdQCCGE0Ke93XeL0MUvAWBwcDBFRUU4HA4iIyMZO3YsdrudiooKr3I5OTmYTCbCwsIYMGAABoOBVatWKds3bNiAy+XCbDYTHx/P4sWLlTGEnXE4HISHh/Ptb39bWffaa6/R3t7Oxo0buf3225k2bRpLly7VbH9n7xhy1h/QeTWEEEKIbi6AYwBFB78lgaSnp1NdXU1JSQlpaWmUlZUxcuRIioqKlDJLly6lvLyciooKJUNn6tSptLV19LaNGzeOw4cP43Q6mTFjBgcOHCApKUn1XTyvvPIKjz76qNdkzR9//DHDhw/3WqeW+XNeZ+8Yui/idr2XQgghhBAioPz6GpjQ0FAmTZrE8uXLcblcZGRkeD1T79u3L0OHDmXYsGFMmDCBNWvW4HK52LFjh1ImJCSEpKQkcnJyKC0tJT8/n4KCApqbm72OtXPnTj799FPlvT1Xwmg0EhER4bUEG2SIsxBCCKGLPAIOuIC+CDo2Npbi4mLV7efTq8+ePatZR2trK+fOnaNnz57K+o0bNxIXF8eIESO8yt92221s2rSJc+fOKb2A77///mW3XW3uVi1aGcJaWYzhOnIc9RxL69eAVqbv9zUyhDeq7Hc1vrJaGb16+PrXkdZn0hVcjUxfPddQax899fn6XtO8z3ReQ7Xscb33oNrP07MGMPr4PrzWM7BFgMij24DzSw+g2+1mwoQJ/O53v6OiooJ//etf/OlPf2LlypVMnz5dKdfQ0EBNTQ1ffPEFH3zwAUuXLsVisZCYmAhASkoKv/nNb9i3bx9Hjhxh27Zt2O12xo8fT0REhFJPfX09f/rTnzrt/XvkkUcwGAxkZWVx8OBBtm3bxgsvvHD1L4IQQgSYr4M/IcS1yy89gCaTiYSEBFavXk1lZSUtLS0MHDiQrKwsr8mUc3Nzyc3t6DGyWCzEx8dTWlqK2WwGIDU1FYfDgd1up7GxkaioKKZNm6bsc97rr7+Ox+Nh1qxZnbZl69atzJ8/n7vvvpvY2Fiee+45n78nUAghhBAq5NFtwPklADQajRQWFlJYWKha5siRIxetx2azXdIEz9nZ2WRnZ6tuv+eeey6Y9u1ans5FCCGEuKbII+CAk7mAhRBCCCG6mYAmgQghhBCiG5JHwAEnAaBOzSqpb1rZwa0a6XLBGvudM3S+McyjL/9O7VB65mAF9UxfgEyVDGGtrGItejJE9cyLrEXvfL96aJ2v3j+feuaW1vuoQE8btfZRm39HMyvfx2mqWnNO+/rz0so41mqH2rGuRhbw9cpfj8f8GQZ1qUd+EgAGXJe6H4QQQlw9EvwJIc6THkAhhBBC+JckXgacBIBCCCGE8C95BBxwPnkEfPz4cRYsWEB0dDRGoxGr1Upqaiq7du0CICYmBoPBgMFgICgoiKioKDIzMzl16pRSR2NjIzabjSFDhhAaGorFYiE5OZktW7YoZd544w0mT56M2WzGYDBc8CoXgHPnzvHDH/4Qs9mMyWQiPT2d2tpaX5ymEEIIIcR1wSc9gOnp6TQ3N+NwOBg8eDC1tbU4nU7cbrdSJj8/n6ysLNra2jh06BDZ2dksWrSITZs2ATB//nz27NnDunXriI2Nxe1243K5vOo4c+YM9957Lw899BBZWVmdtmXx4sW8/fbb/OlPf6JXr14sXLiQb3/720ow6it6Oq+1Ej18PZ2SP+vT+h2nluyhNX3cyzoTRFSTG3Q+aVAbgB+E+gB8rWuhdQ31JObo5c/p1Hw9FZxaO7QSIvzJ19fJ1+fVZICwLj5lYldxPSZndKk+N+kBDLgrDgDr6urYuXMnZWVlJCcnAzBo0CBGjx7tVS48PByr1QpA//79mTNnDps3b1a2l5SUsHbtWqZMmQJ09BrGxcV51TF79mxA/aXRp0+fZuPGjbz22mtMmDABgN/+9rfcdtttvP/++9xzzz20tbWRnZ3Ne++9R01NDdHR0fzgBz/giSeeuNJLIbqJrhJsCHG5fB38iSt3vQbQFyUvgg64K773TCYTJpOJ4uJimpqaLmmfqqoqtm7dSkJCgrLOarWybds2GhoadLdl3759tLS0MHHiRGXdrbfeSnR0NLt37wagvb2dAQMG8Kc//YmDBw+Sm5uL3W7nj3/8o+7jCiGEEEJcS644AAwODqaoqAiHw0FkZCRjx47FbrdTUVHhVS4nJweTyURYWBgDBgzAYDCwatUqZfuGDRtwuVyYzWbi4+NZvHjxZT+2rampoWfPnkRGRnqtv/nmm6mpqQEgJCSEp59+mlGjRnHLLbfw6KOPMnfuXM0AsKmpifr6eq+l1aP2RjIhhBBCaGpv990idPFJ73N6ejrV1dWUlJSQlpZGWVkZI0eOpKioSCmzdOlSysvLqaiowOl0AjB16lTa2joCqXHjxnH48GGcTiczZszgwIEDJCUlUVBQ4IsmennppZeIi4vDYrFgMpnYsGEDR48eVS1fWFhIr169vJb36g/4vF1CCCFEt+Dx+G4Ruvhs+EFoaCiTJk1i+fLluFwuMjIyyMvLU7b37duXoUOHMmzYMCZMmMCaNWtwuVzs2LFDKRMSEkJSUhI5OTmUlpaSn59PQUEBzc3Nl9QGq9VKc3MzdXV1Xutra2uV8Yevv/46P/7xj8nMzKS0tJTy8nLmzp2reQybzcbp06e9lgkRt1/G1RFCCCGEQnoAA+6qvQcwNjaW4uJi1e1BQUEAnD17VrOO1tZWzp07R8+ePS96zLi4OEJCQnA6naSnpwPw6aefcvToUcaMGQPArl27SExM5Ac/+IGyX2VlpWa9RqMRo9HotS7YEHTR9gh1Wpm+WTozhH39O1CSPcT15qwfs4DlP8tCdG1XHAC63W5mzpzJvHnzGD58OOHh4ezdu5eVK1cyffp0pVxDQwM1NTV4PB6OHTvGsmXLsFgsJCYmApCSksKsWbMYNWoUZrOZgwcPYrfbGT9+PBEREQCcPHmSo0ePUl1dDXQEd9DR82e1WunVqxeZmZksWbKEPn36EBERweOPP86YMWO45557ABg2bBivvvoq7777LrfccgubNm3iww8/5JZbbrnSSyGEEF2aZAGLLkN67gLuigNAk8lEQkICq1evprKykpaWFgYOHEhWVhZ2u10pl5ubS25uR++NxWIhPj6e0tJSzGYzAKmpqTgcDux2O42NjURFRTFt2jRlH+h4VczcuXOVfz/88MMA5OXlsWLFCgBWr15Njx49SE9Pp6mpidTUVH71q18p+3z/+9/no48+4jvf+Q4Gg4FZs2bxgx/8gL/+9a9XeimEEEIIcSnkNTABd8UBoNFopLCwkMLCQtUyau/t+zqbzYbNZtMsk5GRQUZGhmaZ0NBQXnrpJV566aVOtxuNRn7729/y29/+1mu9VvuFEEIIIa4nMhewEEIIIfzK0y7jEQJNAkAhhBBC+JeMAQw4CQB1ClX58XI1pvWJaL/8dNSuMr2QnnZcjQxhf+kq1/16pXZ99cwffD0zqvx9asf392h3vL5CXA8kABRCiG5CfqCILkOSQAJOAkAhhBBC+JeMAQw4+UEohBBCCNHNSA+gEEIIIfxLkkACzm89gMePH2fBggVER0djNBqxWq2kpqaya9cuAGJiYjAYDBgMBoKCgoiKiiIzM5NTp04pdTQ2NmKz2RgyZAihoaFYLBaSk5PZsmWLUuaNN95g8uTJmM1mDAYD5eXlXu04efIkjz/+ON/85jcJCwsjOjqaRYsWcfr0ab9cByGEEKLbk7mAA85vPYDp6ek0NzfjcDgYPHgwtbW1OJ1O3G63UiY/P5+srCza2to4dOgQ2dnZLFq0iE2bNgEwf/589uzZw7p164iNjcXtduNyubzqOHPmDPfeey8PPfQQWVlZF7Sjurqa6upqXnjhBWJjY/n888+ZP38+1dXV/PnPf77k82lQCZ3VsoNBO1tOazSEu0fne/ZvU4/fW3TMYxui0QiteXGDNPbTM0+o1rXQkyH8y5Hq+2hNjaXWRq1fTVrXXeuc1erUurb+pPeXop4/zW06j6XG1xnCWu3z9fTRWm3X2naqh/qNo+etAlrUrse1Plu6v3pH9IYvXeVvg7h2+SUArKurY+fOnZSVlZGcnAzAoEGDGD16tFe58PBwrFYrAP3792fOnDls3rxZ2V5SUsLatWuZMmUK0NFrGBcX51XH7NmzAfXZR+644w7+8pe/KP8eMmQIzz77LN/97ndpbW0lOFieigshrk++Dv6E0M0jEWyg+eVHjslkwmQyUVxcTFNT0yXtU1VVxdatW0lISFDWWa1Wtm3bRkNDg0/bd/r0aSIiIlSDv6amJurr672WVo+v+ymEEEKIbkIeAQecXwLA4OBgioqKcDgcREZGMnbsWOx2OxUVFV7lcnJyMJlMhIWFMWDAAAwGA6tWrVK2b9iwAZfLhdlsJj4+nsWLFytjCPU6ceIEBQUFZGdnq5YpLCykV69eXkvZ6QNXdFwhhBBCBMZLL71ETEwMoaGhJCQk8MEHH2iWr6ur44c//CH9+vXDaDTyjW98g23btvmptVeH35JA0tPTqa6upqSkhLS0NMrKyhg5ciRFRUVKmaVLl1JeXk5FRQVOpxOAqVOn0tbW0ds2btw4Dh8+jNPpZMaMGRw4cICkpCQKCgp0tam+vp6pU6cSGxvLihUrVMvZbDZOnz7ttaT0ul3XMYUQQohur93ju+Uy/eEPf2DJkiXk5eWxf/9+RowYQWpqKl9++WWn5Zubm5k0aRJHjhzhz3/+M59++ikvv/wy/fv3v9KrEFB+fQ9gaGgokyZNYvny5bhcLjIyMsjLy1O29+3bl6FDhzJs2DAmTJjAmjVrcLlc7NixQykTEhJCUlISOTk5lJaWkp+fT0FBAc3NzZfVloaGBtLS0ggPD+fNN98kJCREtazRaCQiIsJrCTZc60OchRBCiADxtPtuuUyrVq0iKyuLuXPnEhsby/r167nhhht45ZVXOi3/yiuvcPLkSYqLixk7diwxMTEkJyczYsSIK70KARXQjIfY2FiKi4tVtwcFdQRZZ8+e1ayjtbWVc+fO0bNnz0s6bn19PampqRiNRkpKSggNDb2sdoN6xqxWRK131GCbSl6s1u8ePZmKV2NIrlpWrEaSom5q2b6L9vt2/mC9WaV6soCvRjvULr36TyD99HzMWnkKaveNP3/Jal2nVq39NC6Gnqx9g44M9roeHnr7OBFErbprPUu1q48s8+j4GK/1z8QXmpub2bdvHzabTVnXo0cPJk6cyO7duzvdp6SkhDFjxvDDH/6QLVu2YLFYeOSRR8jJyVHilGuRXwJAt9vNzJkzmTdvHsOHDyc8PJy9e/eycuVKpk+frpRraGigpqYGj8fDsWPHWLZsGRaLhcTERABSUlKYNWsWo0aNwmw2c/DgQex2O+PHjyciIgLoeM/f0aNHqa6uBuDTTz8FOhJIrFYr9fX1TJ48mcbGRn73u98pSR0AFovlmv4whRBCi6+DPyF08+FUcE1NTRckmBqNRoxG4wVlT5w4QVtbGzfffLPX+ptvvplPPvmk0/oPHz7Me++9x6OPPsq2bdv47LPP+MEPfkBLS4vXU8xrjd+ygBMSEli9ejXjxo3jjjvuYPny5WRlZfHiiy8q5XJzc+nXrx9RUVFMmzaNG2+8kdLSUsxmMwCpqak4HA4mT57MbbfdxuOPP05qaip//OMflTpKSkq4++67mTp1KgAPP/wwd999N+vXrwdg//797Nmzh//7v/9j6NCh9OvXT1mOHTvmj8shhBBCdGue9nafLZ0lahYWFvqsre3t7dx0001s2LCBuLg4vvOd7/DTn/5UiSuuVX7pATQajRQWFmp+IGrv7fs6m83m1W3bmYyMDDIyMlS3p6Sk4JH3DwkhhBDXBZvNxpIlS7zWddb7Bx25BkFBQdTW1nqtr62tVd5D/N/69etHSEiI1xPC2267jZqaGpqbmy95+FlX49ckECGEEEIIX2YBd5aoqRYA9uzZk7i4OOVNI9DRw+d0OhkzZkyn+4wdO5bPPvuM9q+9c/DQoUP069fvmg3+QAJAIYQQQvhbALOAlyxZwssvv4zD4eDjjz9mwYIFnDlzhrlz5wLw2GOPeT1tXLBgASdPnuSJJ57g0KFDvP322/zsZz/jhz/8oc8uRyDIvGc63aDjKXLnv0c6aN3C/ds7T0zRSlfR0z4terPHrka2rxq1eX31zB+stZ/WZ2XUe51U1uvNRNTzy+5qZD3qSanSypZV48+MTb3Z3Frzaev5vLTqi1RJ9vDg+zl69Xxe4j/8Os+25AAB8J3vfIfjx4+Tm5tLTU0Nd911F++8846SGHL06FF69PjPJzNw4EDeffddFi9ezPDhw+nfvz9PPPEEOTk5gToFn5AAUAghugl5x4HoMnyYBazHwoULWbhwYafbysrKLlg3ZswY3n///avcKv+SAFAIIYQQ/iVz+AacjAEUQgghhOhmpAdQCCGEEP4V4EfAwo89gMePH2fBggVER0djNBqxWq2kpqaya9cuAGJiYjAYDBgMBoKCgoiKiiIzM5NTp04pdTQ2NmKz2RgyZAihoaFYLBaSk5PZsmWLUuaNN95g8uTJmM1mDAYD5eXlF7QlJSVFOdb5Zf78+Vf9GgghhBCCgGYBiw5+6wFMT0+nubkZh8PB4MGDqa2txel04na7lTL5+flkZWXR1tbGoUOHyM7OZtGiRWzatAmA+fPns2fPHtatW0dsbCxutxuXy+VVx5kzZ7j33nt56KGHyMrKUm1PVlYW+fn/yQC94YYbLut8mlSyqYI1ftTomZ8X4KzKRq2MU605SX2dIaqnPq2sYr2Zanr+DOjJEN6osY/e696isl4G7XtT+4xlLIs3tRnf2pGsXSFEB78EgHV1dezcuZOysjKSk5MBGDRoEKNHj/YqFx4erryJu3///syZM4fNmzcr20tKSli7di1TpkwBOnoN4+LivOqYPXs2cPGZRW644QbVt34LIcT1SII/0WXII+CA89tcwCaTieLi4gsmbFZTVVXF1q1bSUhIUNZZrVa2bdtGQ0PDFbfp97//PX379uWOO+7AZrPR2NioWrapqYn6+nqvpdWj1Z8nhBBCCDW+nAtY6OOXADA4OJiioiIcDgeRkZGMHTsWu91ORUWFV7mcnBxMJhNhYWEMGDAAg8HAqlWrlO0bNmzA5XJhNpuJj49n8eLFyhjCy/HII4/wu9/9jh07dmCz2di0aRPf/e53Vct3NtH03+oPXPZxhRBCCCG6Ar8NnUlPT6e6upqSkhLS0tIoKytj5MiRFBUVKWWWLl1KeXk5FRUVyjx9U6dOpa2to7dt3LhxHD58GKfTyYwZMzhw4ABJSUkUFBRcVluys7NJTU3lzjvv5NFHH+XVV1/lzTffpLKystPyNpuN06dPey0TI27XdyGEEEKI7s6HcwELffz6GpjQ0FAmTZrEpEmTWL58Od/73vfIy8sjIyMDgL59+zJ06FAAhg0bxpo1axgzZgw7duxg4sSJAISEhJCUlERSUhI5OTk888wz5Ofnk5OTo3tS5vOPmT/77DOGDBlywXaj0XjBxNJhBHXMq3QZtC62WhIAqI/bOWNQn/5Mi94Ocz03i1pSRLvB978+tOrTM9WaVrJHpsYUcr/RMYWcWt5LO/5NcFBLzvHnFFJa10nrHtRKLFKrs6tMjaX1GfvyAVeLwffjAH2dICa6CQncAi6g38/Y2FjOnDmjuj0oqCMH8uzZs5p1tLa2cu7cOd3tOP+qmH79+umuIxD0BH96+fqXgj9vPF8fS0/wp1dXCP6uBXqCv2uBr9vuzyQQCf6E6Nr80gPodruZOXMm8+bNY/jw4YSHh7N3715WrlzJ9OnTlXINDQ3U1NTg8Xg4duwYy5Ytw2KxkJiYCHS8v2/WrFmMGjUKs9nMwYMHsdvtjB8/noiICABOnjzJ0aNHqa6uBuDTTz8FOhJIrFYrlZWVvPbaa0yZMgWz2UxFRQWLFy9m3LhxDB8+3B+XQwghhOje5P19AeeXANBkMpGQkMDq1auprKykpaWFgQMHkpWVhd1uV8rl5uaSm9vRg2KxWIiPj6e0tBSz2QxAamoqDocDu91OY2MjUVFRTJs2TdkHOl4VM3fuXOXfDz/8MAB5eXmsWLGCnj178re//Y01a9Zw5swZBg4cSHp6Ok899ZQ/LoUQQggh5BFwwPklADQajRQWFlJYWKha5mLv7YOOZAybzaZZJiMjQxlT2JmBAwfyv//7vxc9lhBCCCHE9UrmAhZCCCGEX3mkBzDgJADU6ZxK9uANGve02pRuF3O6R+eVGjVSGFs0jqU2OFvlMID2FGd66B39oTmdmsb0V2r0TKenlejxfY0EkV+NVN9P69rroScz82pkxPp6lI9atnyrjvtdr6uRsat2r+lN2jit1kgD9PLxhyL/Gb8y3XYknASAASeJWkII0U34OvgTQly7pAdQCCGEEP4lU7gFnASAQgghhPAveQQccN3uEXBZWRkGg4G6urpAN0UIIYQQIiB8EgAeP36cBQsWEB0djdFoxGq1kpqayq5duwCIiYnBYDBgMBgICgoiKiqKzMxMTp06pdTR2NiIzWZjyJAhhIaGYrFYSE5OZsuWLUqZN954g8mTJ2M2mzEYDMoMHucdOXJEOc5/L3/60598capCCCGEuFIyF3DA+eQRcHp6Os3NzTgcDgYPHkxtbS1OpxO3262Uyc/PJysri7a2Ng4dOkR2djaLFi1i06ZNAMyfP589e/awbt06YmNjcbvduFwurzrOnDnDvffey0MPPURWVtYF7Rg4cCBffPGF17oNGzbw/PPP861vfcsXp6o4a+j8pjOozuqq3znVPLEg1X30ZIG262y6ngzWqzEFq9o5X42MY7U6tTJ9f7BfPUP4lyr76Z3uT0/bu8rjAK1TVrtv/Nl2X2fEg/o5ezS+KCp/ggBoVanR3QMi9X7RVahVdy1PLXi96kqj7jweuUEC7YoDwLq6Onbu3ElZWRnJyckADBo0iNGjR3uVCw8Px2q1AtC/f3/mzJnD5s2ble0lJSWsXbuWKVOmAB29hnFxcV51zJ49G1B/aXRQUJByjPPefPNNHnroIUwmk9f6Xbt2YbPZOHToEHfddRf/8z//wx133HGZZy+6o670R1SIy+Hr4E8Ice264h/OJpMJk8lEcXExTU1Nl7RPVVUVW7duJSEhQVlntVrZtm0bDQ0NV9okxb59+ygvLyczM/OCbUuXLuUXv/gFH374IRaLhfvvv5+WFrW3jAkhhBDCZ+QRcMBdcQAYHBxMUVERDoeDyMhIxo4di91up6KiwqtcTk4OJpOJsLAwBgwYgMFgYNWqVcr2DRs24HK5MJvNxMfHs3jxYmUMoV4bN27ktttuIzEx8YJteXl5TJo0iTvvvBOHw0FtbS1vvvlmp/U0NTVRX1/vtbR62q6obUIIIUS3JQFgwPlk6Ex6ejrV1dWUlJSQlpZGWVkZI0eOpKioSCmzdOlSysvLqaiowOl0AjB16lTa2joCqXHjxnH48GGcTiczZszgwIEDJCUlUVBQoKtNZ8+e5bXXXuu09w9gzJgxyv/v06cP3/zmN/n44487LVtYWEivXr28lr+fPqCrXUIIIYQQgeazsdOhoaFMmjSJ5cuX43K5yMjIIC8vT9net29fhg4dyrBhw5gwYQJr1qzB5XKxY8cOpUxISAhJSUnk5ORQWlpKfn4+BQUFNDc3X3Z7/vznP9PY2Mhjjz12xedms9k4ffq01zKu1+1XXK8QQgjRHXnaPT5bhD5X7UXQsbGxFBcXq24PCurIYD179qxmHa2trZw7d46ePXte1vE3btzIAw88gMVi6XT7+++/T3R0NACnTp3i0KFD3HbbbZ2WNRqNGI1Gr3URBHeauqd1QbXmAg7WuIdDdOTMan0l1LIYe2rs5Oux41fjK6s6x7GOfUB93lmtS6GVEa2W6QuwSCVD+GWNeYf1ZHqDf+du9dex9F4LLWrz8Dbp/C5o/W1Q+05qZhxrtEPtup/q4aGPJIIorsZ94y96ktG61DlJ4BZwVxwAut1uZs6cybx58xg+fDjh4eHs3buXlStXMn36dKVcQ0MDNTU1eDwejh07xrJly7BYLMr4vJSUFGbNmsWoUaMwm80cPHgQu93O+PHjiYiIAODkyZMcPXqU6upqAD799FOgI4Hk69m/n332GX//+9/Ztm2barvz8/Mxm83cfPPN/PSnP6Vv3748+OCDV3o5hBCiy5LgTwhx3hUHgCaTiYSEBFavXk1lZSUtLS0MHDiQrKws7Ha7Ui43N5fc3I7eDIvFQnx8PKWlpZjNZgBSU1NxOBzY7XYaGxuJiopi2rRpyj7Q8aqYuXPnKv9++OGHgY6EjhUrVijrX3nlFQYMGMDkyZNV2/3zn/+cJ554gn/+85/cddddbN269bJ7GYUQQgihg7xPK+CuOAA0Go0UFhZSWFioWkbtvX1fZ7PZsNlsmmUyMjLIyMi4aF0/+9nP+NnPftbptpSUFOUFlNOmTbtoXUIIIYTwLRm7F3hdakiAEEIIIYS4+q5aEogQQgghRKekBzDgJADUyahy72p1qWrNjan1QRjbOq9V61ihOr5bWm3Q+11VnXdYX3Wa9Mw9qtUO9ZmW9dGa11ct2zfrI/X5g7UyhLX4+rx8fSx/tk9Li0q+hN7HJv7MOO2tkuzhwffXVy1b+lqg+TfPT23Q+9lf84/vZAxgwF3z95AQQohL01WCayFE4EkPoBBCCCH8SpJAAk8CQCGEEEL4lzwCDjh5BCyEEEKIbuWll14iJiaG0NBQEhIS+OCDDy5pv9dffx2DwXBdTBzhtwDw+PHjLFiwgOjoaIxGI1arldTUVHbt2gVATEwMBoMBg8FAUFAQUVFRZGZmcurUKaWOxsZGbDYbQ4YMITQ0FIvFQnJyMlu2bAGgpaWFnJwc7rzzTm688UaioqJ47LHHlJlDzjt58iSPPvooERERREZGkpmZyVdffeWvSyGEEEJ0a4GcC/gPf/gDS5YsIS8vj/379zNixAhSU1P58ssvNfc7cuQIP/7xj0lKStJ72l2K3x4Bp6en09zcjMPhYPDgwdTW1uJ0OnG73UqZ/Px8srKyaGtr49ChQ2RnZ7No0SI2bdoEwPz589mzZw/r1q0jNjYWt9uNy+VS6mhsbGT//v0sX76cESNGcOrUKZ544gkeeOAB9u7dqxzn0Ucf5YsvvmD79u20tLQwd+5csrOzee211674PPVm+mntpzZ7k1bWq575b69Gj3xX6OW/Frq51a6TVqbv1cgQFte3NvyXCHItf++EHwTw4q9atYqsrCxlZrH169fz9ttv88orr/CTn/yk033a2tp49NFHefrpp9m5cyd1dXV+bPHV4ZcAsK6ujp07d1JWVkZycjIAgwYNYvTo0V7lwsPDlTl9+/fvz5w5c9i8ebOyvaSkhLVr1zJlyhSgo9cwLi5O2d6rVy+2b9/uVeeLL77I6NGjOXr0KNHR0Xz88ce88847fPjhh4waNQqAdevWMWXKFF544QWioqJ8fwGEEKILkCxg0d01Nzezb98+r5nHevTowcSJE9m9e7fqfvn5+dx0001kZmayc+dOfzT1qvPLjzSTyYTJZKK4uJimpqZL2qeqqoqtW7eSkJCgrLNarWzbto2GhoZLPvbp06cxGAxERkYCsHv3biIjI5XgD2DixIn06NGDPXv2dFpHU1MT9fX1XkuLp+2S2yCEEEKI//C0+27p7L/RarHGiRMnaGtr4+abb/Zaf/PNN1NTU9PpPv/v//0/Nm7cyMsvv+zz6xBIfgkAg4ODKSoqwuFwEBkZydixY7Hb7VRUVHiVy8nJwWQyERYWxoABAzAYDKxatUrZvmHDBlwuF2azmfj4eBYvXqyMIezMuXPnyMnJYdasWURERABQU1PDTTfddEH7+vTpo/rhFxYW0qtXL69le/0BvZdDCCGE6N7afbd09t/owsJCnzSzoaGB2bNn8/LLL9O3b1+f1NlV+G2YRnp6OtXV1ZSUlJCWlkZZWRkjR46kqKhIKbN06VLKy8upqKjA6XQCMHXqVNraOnrbxo0bx+HDh3E6ncyYMYMDBw6QlJREQUHBBcdraWnhoYcewuPx8Otf//qK2m6z2Th9+rTXMini9iuqUwghhBBXrrP/Rn/9Ee/X9e3bl6CgIGpra73W19bWKkPQvq6yspIjR45w//33ExwcTHBwMK+++iolJSUEBwdTWVl5Vc7JH/w6Tjc0NJRJkyaxfPlyXC4XGRkZ5OXlKdv79u3L0KFDGTZsGBMmTGDNmjW4XC527NihlAkJCSEpKYmcnBxKS0vJz8+noKCA5uZmpcz54O/zzz9n+/btSu8fdDxG/u9Mn9bWVk6ePNnphw9gNBqJiIjwWkIMMppGCCGE0MOXj4A7+2+00Wjs9Lg9e/YkLi5O6WQCaG9vx+l0MmbMmAvK33rrrfzf//0f5eXlyvLAAw8wfvx4ysvLGThw4FW7RldbQF8EHRsbS3Fxser2oKCOIOvs2bOadbS2tnLu3Dl69uypBH///Oc/2bFjB2az2av8mDFjqKurY9++fUoCyXvvvUd7e7vXeMOLadORmas36alVZX2Izvq6W+abP+dg1XssPe24FjKE9czPLK4ef2YBd7e/M+IyBfAGWbJkCXPmzGHUqFGMHj2aNWvWcObMGSUr+LHHHqN///4UFhYSGhrKHXfc4bX/+ZyC/15/rfFLAOh2u5k5cybz5s1j+PDhhIeHs3fvXlauXMn06dOVcg0NDdTU1ODxeDh27BjLli3DYrGQmJgIQEpKCrNmzWLUqFGYzWYOHjyI3W5n/PjxRERE0NLSwowZM9i/fz9vvfUWbW1tyri+Pn360LNnT2677TbS0tLIyspi/fr1tLS0sHDhQh5++GHJABZCXNfkuYXoKjwBDAC/853vcPz4cXJzc6mpqeGuu+7inXfeURJDjh49So8e18KLjK6MXwJAk8lEQkICq1evprKykpaWFgYOHEhWVhZ2u10pl5ubS25uR++ExWIhPj6e0tJSpRcvNTUVh8OB3W6nsbGRqKgopk2bpuxTVVVFSUkJAHfddZdXG3bs2EFKSgoAv//971m4cCH33XcfPXr0ID09nV/+8pdX+SoIIYQQoitYuHAhCxcu7HRbWVmZ5r5fz124lvklADQajRQWFmpm5Rw5cuSi9dhsNtWBndDxXkCP5+LPnPr06eOTlz4LIYQQ4vIFsgdQdAjoGEAhhBBCdD8SAAbe9f+QWwghhBBCeJEeQB/TegCtkjgMaH8Q53S0w9c/rvT+UlBrhz9/efgzEVXvfM9qbdQ7aF9PhvDVyA5Wy5bvjvTeG3q0qlz3ViDEx1+IrvAdF9cgj/xxCDQJAIUQopvwdfAnhF7yCDjw5EeaEEIIIUQ3Iz2AQgghhPArT7s8Ag40v/UAHj9+nAULFhAdHY3RaMRqtZKamsquXbuAjle4GAwGDAYDQUFBREVFkZmZyalTp5Q6GhsbsdlsDBkyhNDQUCwWC8nJyWzZsgXomAIuJyeHO++8kxtvvJGoqCgee+wxqqurvdrywAMPEB0dTWhoKP369WP27NkXlBFCCCHE1eHLqeCEPn7rAUxPT6e5uRmHw8HgwYOpra3F6XTidruVMvn5+WRlZdHW1sahQ4fIzs5m0aJFbNq0CYD58+ezZ88e1q1bR2xsLG63G5fLpdTR2NjI/v37Wb58OSNGjODUqVM88cQTPPDAA+zdu1c5zvjx47Hb7fTr14+qqip+/OMfM2PGDFwu1yWfT6jKTac16F0r2lab7g3ApDJu52pMO6ZWp9bYoRad5+wvWlPm6f3boTbFmd7P35/Ukj26yvRxWvyZSOFr/myf0Y9j/brKfS2EuDx+CQDr6urYuXMnZWVlJCcnAzBo0CBGjx7tVS48PByr1QpA//79mTNnDps3b1a2l5SUsHbtWqZMmQJ09Bqen88XoFevXmzfvt2rzhdffJHRo0dz9OhRoqOjAVi8eLGyfdCgQfzkJz/hwQcfpKWlhZAQvTPsXvu6+n9AuwqZ37brkXtXiGuLR7KAA84vP95MJhMmk4ni4mKampouaZ+qqiq2bt1KQkKCss5qtbJt2zYaGhou+dinT5/GYDAokzf/t5MnT/L73/+exMTEbh38CSGEEP4ij4ADzy8BYHBwMEVFRTgcDiIjIxk7dix2u52Kigqvcjk5OZhMJsLCwhgwYAAGg4FVq1Yp2zds2IDL5cJsNhMfH8/ixYuVMYSdOXfuHDk5OcyaNYuIiIgLjnXjjTdiNps5evSoMo6wM01NTdTX13stLZ42nVdDCCGEECKw/DZ8Iz09nerqakpKSkhLS6OsrIyRI0d6Taq8dOlSysvLqaiowOl0AjB16lTa2jqCrXHjxnH48GGcTiczZszgwIEDJCUlUVBQcMHxWlpaeOihh/B4PPz617++YPvSpUv56KOPKC0tJSgoiMcee0x1HuHCwkJ69erltbzTcMAHV0UIIYTofjztBp8tQh+/jt8NDQ1l0qRJLF++HJfLRUZGBnl5ecr2vn37MnToUIYNG8aECRNYs2YNLpeLHTt2KGVCQkJISkoiJyeH0tJS8vPzKSgooLm5WSlzPvj7/PPP2b59+wW9f+eP9Y1vfINJkybx+uuvs23bNt5///1O222z2Th9+rTXkhZ+uw+vjBBCCNF9eDy+W4Q+AX0PYGxsLMXFxarbg4I6JsI6e/asZh2tra2cO3eOnj17KsHfP//5T3bs2IHZbL5oO9rbOwYRqI1PNBqNGI1G75U9gmjppKzWBdWbtevrIQ5qSQxa045pZfpqUTuvqzFsw1+/Zq7X6c30TB/nbzLc5z9u0LgYX2l8GfyZISyE6Lr8EgC63W5mzpzJvHnzGD58OOHh4ezdu5eVK1cyffp0pVxDQwM1NTV4PB6OHTvGsmXLsFgsJCYmApCSksKsWbMYNWoUZrOZgwcPYrfbGT9+PBEREbS0tDBjxgz279/PW2+9RVtbGzU1NQD06dOHnj17smfPHj788EPuvfdeevfuTWVlJcuXL2fIkCGMGTPGH5dDCCECQoI/0VXIo9vA80sAaDKZSEhIYPXq1VRWVtLS0sLAgQPJysrCbrcr5XJzc8nN7eiFsFgsxMfHU1paqvTipaam4nA4sNvtNDY2EhUVxbRp05R9qqqqKCkpAeCuu+7yasOOHTtISUnhhhtu4I033iAvL48zZ87Qr18/0tLSeOqppy7s5RNCCCGEz0kAGHh+CQCNRiOFhYUUFhaqljly5MhF67HZbNhsNtXtMTExqokc591555289957Fz2WEEIIIcT1SuYCFkIIIYRfSfJG4EkAKIQQQgi/kkfAgSfTOAohRDfRJP/NFUL8/xk8Fxs0J4QQQgjhQ5V3pPqsriH/eNdndXUn8ghYCCGEEH4lc/gGnjwCFkIIIYToZqQHUAghhBB+1e6RAamB5rcewOPHj7NgwQKio6MxGo1YrVZSU1PZtWsX0PEOP4PBgMFgICgoiKioKDIzMzl16pRSR2NjIzabjSFDhhAaGorFYiE5OZktW7YAHXMA5+TkcOedd3LjjTcSFRXFY489RnV19QXtefvtt0lISCAsLIzevXvz4IMP+uU6CCGEEN2dx2Pw2SL08VsPYHp6Os3NzTgcDgYPHkxtbS1OpxO3262Uyc/PJysri7a2Ng4dOkR2djaLFi1i06ZNAMyfP589e/awbt06YmNjcbvduFwupY7Gxkb279/P8uXLGTFiBKdOneKJJ57ggQceYO/evcpx/vKXv5CVlcXPfvYzJkyYQGtrK//4xz8u63xWR3+30/XBGik1em9TtXk9I3SOofD10As98xhfjV8easfSynLSmv/Yl224GLU26m2f2nzPcHXmMv7Bsd91ur7lxGHVfUL6Du50/a8Gdv7dEpdOa+7uEI17Q+1z1KL389JzLF9br9F2re+yWtsvdi0620/PPv4+lrg++SUArKurY+fOnZSVlZGcnAzAoEGDGD16tFe58PBwrFYrAP3792fOnDls3rxZ2V5SUsLatWuZMmUK0NFrGBcXp2zv1asX27dv96rzxRdfZPTo0Rw9epTo6GhaW1t54okneP7558nMzFTKxcbG+vakhRCii9EK/oTwJ3kPYOD55RGwyWTCZDJRXFxMU1PTJe1TVVXF1q1bSUhIUNZZrVa2bdtGQ0PDJR/79OnTGAwGIiMjAdi/fz9VVVX06NGDu+++m379+vGtb31LswewqamJ+vp6r6XV03bJbRBCCCHEf3g8vluEPn4JAIODgykqKsLhcBAZGcnYsWOx2+1UVFR4lcvJycFkMhEWFsaAAQMwGAysWrVK2b5hwwZcLhdms5n4+HgWL16sjCHszLlz58jJyWHWrFlEREQAcPhwxyOpFStW8NRTT/HWW2/Ru3dvUlJSOHnyZKf1FBYW0qtXL6/lb/UHrvSyCCGEEEIEhN+SQNLT06murqakpIS0tDTKysoYOXIkRUVFSpmlS5dSXl5ORUUFTqcTgKlTp9LW1tHbNm7cOA4fPozT6WTGjBkcOHCApKQkCgoKLjheS0sLDz30EB6Ph1//+tfK+vb2jpEdP/3pT0lPTycuLo7f/va3GAwG/vSnP3XadpvNxunTp72WiRG3++rSCCGEEN2Kp93gs0Xo49f3AIaGhjJp0iSWL1+Oy+UiIyODvLw8ZXvfvn0ZOnQow4YNY8KECaxZswaXy8WOHTuUMiEhISQlJZGTk0NpaSn5+fkUFBTQ3NyslDkf/H3++eds375d6f0D6NevH+A95s9oNDJ48GCOHj3aabuNRiMRERFeS7DB1+kDQgghRPfQ7jH4bBH6BPRF0LGxsZw5c0Z1e1BQR5B19uxZzTpaW1s5d+4c8J/g75///Cd/+9vfMJvNXuXj4uIwGo18+umnyrqWlhaOHDnCoEGDruR0hBCiS9PKDhZCdC9+mQvY7XYzc+ZM5s2bx/DhwwkPD2fv3r08/vjjTJ06lY0bNxITE0NmZiZZWVl4PB6OHTvGsmXLOHjwIB9//DFms5mUlBRmzZrFqFGjMJvNHDx4kCVLltC/f3+cTictLS3MmDGD/fv389Zbb3HzzTcrbejTpw89e/YE4Mknn+TPf/4zr7zyCoMGDeL5559n69atfPLJJ/Tu3ftqXw4hhBCiW/u/W+73WV13/murz+rqTvwSADY1NbFixQpKS0uprKykpaWFgQMHMnPmTOx2O2FhYcTExPD5558r+1gsFuLj43n22We56667gI5kjK1bt/Lpp5/S2NhIVFQU06ZNIzc3F7PZzJEjR7jllls6bcOOHTtISUkBOnr8bDYbmzZt4uzZsyQkJLBmzRpuv13G9QkhhBBXW0WM7wLA4UckANTDLwGgEEIIIcR5EgAGnswFLIQQQgi/kuSNwAtoEogQQgghup9AzwX80ksvERMTQ2hoKAkJCXzwwQeqZV9++WWSkpLo3bs3vXv3ZuLEiZrlrxXSA6jTCypzAYforE9riqZTPTrf2Fvn+4/0zM+rNS9mV5kLWG1uFq3LpGdqLF/P96vlWnnZkJ75SvXMH/ybu3M7XS+/ZL2d1bjnjRo34sJuNhewr9sucwFfG/7whz+wZMkS1q9fr+QApKam8umnn3LTTTddUL6srIxZs2aRmJhIaGgozz33HJMnT+bAgQP0798/AGfgG/J3Uwghugmt4E8IfwrkVHCrVq0iKyuLuXPnEhsby/r167nhhht45ZVXOi3/+9//nh/84Afcdddd3HrrrfzP//wP7e3tyoQV1yrpARRCCCGEX/lyDGBTUxNNTU1e64xGI0aj8YKyzc3N7Nu3D5vNpqzr0aMHEydOZPfu3Zd0vMbGRlpaWujTp8+VNTzApAdQCCGEENeswsJCevXq5bUUFhZ2WvbEiRO0tbV5vScY4Oabb6ampuaSjpeTk0NUVBQTJ0684rYHkvQACiGEEMKv9CZvdMZms7FkyRKvdZ31/vnCz3/+c15//XXKysoIDQ29KsfwF7/1AB4/fpwFCxYQHR2N0WjEarWSmprKrl27AIiJicFgMGAwGAgKCiIqKorMzExOnTql1NHY2IjNZmPIkCGEhoZisVhITk5my5YtQMcLnnNycrjzzju58cYbiYqK4rHHHqO6utqrLfv372fSpElERkZiNpvJzs7mq6++8telEEIIIbo1X84FbDQaiYiI8FrUAsC+ffsSFBREbW2t1/ra2lqsVqtmm1944QV+/vOfU1payvDhw312LQLFbz2A6enpNDc343A4GDx4MLW1tTidTtxut1ImPz+frKws2traOHToENnZ2SxatIhNmzYBMH/+fPbs2cO6deuIjY3F7XbjcrmUOhobG9m/fz/Lly9nxIgRnDp1iieeeIIHHniAvXv3AlBdXc3EiRP5zne+w4svvkh9fT1PPvkkGRkZ/PnPf77k81EbTK2VtamWpXqxbUF0/ktJKxu1Tc+PK43BtFrjbLV+Rahm5l5Ccy73WKr76Bz4rtZGrS9Ni8a2rv7WK71Z4L6mlukL8P2P8jtdv1FjH1+3XW9GfJDGfejrOXrVDnXOADf4OBFE7Tt+rWSwX6t0/S30eSuuPT179iQuLg6n08mDDz4IoCR0LFy4UHW/lStX8uyzz/Luu+8yatQoP7X26vJLAFhXV8fOnTspKysjOTkZgEGDBjF69GivcuHh4UoE3r9/f+bMmcPmzZuV7SUlJaxdu5YpU6YAHb2GcXFxyvZevXqxfft2rzpffPFFRo8ezdGjR4mOjuatt94iJCSEl156iR49Or4O69evZ/jw4Xz22WcMHTrU9xdACCG6AF8Hf0LoFchbccmSJcyZM4dRo0YxevRo1qxZw5kzZ5g7dy4Ajz32GP3791fGET733HPk5uby2muvERMTo4wVNJlMmEymgJ3HlfLLD4LzF6m4uPiCTB01VVVVbN26lYSEBGWd1Wpl27ZtNDQ0XPKxT58+jcFgIDIyEujIFurZs6cS/AGEhYUB8P/+3//rtI6mpibq6+u9lhaPVp+dEEIIIdT48hHw5frOd77DCy+8QG5uLnfddRfl5eW88847SmLI0aNH+eKLL5Tyv/71r2lubmbGjBn069dPWV544QWfXY9A8EsAGBwcTFFREQ6Hg8jISMaOHYvdbqeiosKrXE5ODiaTibCwMAYMGIDBYGDVqlXK9g0bNuByuTCbzcTHx7N48WJlDGFnzp07R05ODrNmzSIiIgKACRMmUFNTw/PPP09zczOnTp3iJz/5CYDXB/51nWUYba8/cKWXRQghhBABsHDhQj7//HOamprYs2ePV2dTWVkZRUVFyr+PHDmCx+O5YFmxYoX/G+5DfhsSkJ6eTnV1NSUlJaSlpVFWVsbIkSO9LvLSpUspLy+noqJCecHi1KlTaWvr6G0bN24chw8fxul0MmPGDA4cOEBSUhIFBQUXHK+lpYWHHnoIj8fDr3/9a2X97bffjsPh4Be/+AU33HADVquVW265hZtvvtmrV/DrbDYbp0+f9lomRdzuw6sjhBBCdB+BngpO+HlMaGhoKJMmTWL58uW4XC4yMjLIy8tTtvft25ehQ4cybNgwJkyYwJo1a3C5XOzYsUMpExISQlJSEjk5OZSWlpKfn09BQQHNzc1KmfPB3+eff8727duV3r/zHnnkEWpqaqiqqsLtdrNixQqOHz/O4MGDO213ZxlGIQYZ4iyEEELo0e7DRegT0PcAxsbGUlxcrLo9KKgjyDp79qxmHa2trZw7d46ePXsqwd8///lPduzYgdlsVt33/PP+V155RQlOL5XeOX/VaN3EYSqjZTWjd40Rtmr7abVB72+snirt0JWljO8z3/RkdGplc7ZqnFdXybJV0xXaANrXSS3bN1MlOxjgZY0MYb3t0EPrnlf7Q6z3M1F7S0Ebvs9Gl/6XwNBzb3SV77joGvwSALrdbmbOnMm8efMYPnw44eHh7N27l5UrVzJ9+nSlXENDAzU1NXg8Ho4dO8ayZcuwWCwkJiYCkJKSwqxZsxg1ahRms5mDBw9it9sZP348ERERtLS0MGPGDPbv389bb71FW1ubkq3Tp08fevbsCXRkBicmJmIymdi+fTtLly7l5z//uZIoIoQQ1yMJ1kRX4ZG7MeD8EgCaTCYSEhJYvXo1lZWVtLS0MHDgQLKysrDb7Uq53NxccnM7fq1bLBbi4+MpLS1VevFSU1NxOBzY7XYaGxuJiopi2rRpyj5VVVWUlJQAcNddd3m1YceOHaSkpADwwQcfkJeXx1dffcWtt97Kb37zG2bPnn2Vr4IQQgghANrllUQB55cA0Gg0UlhYqDo3H3Rk2VyMzWbzmsD5v8XExODxXPyuevXVVy9aRgghhBDieiVzAQshhBDCr9rlEXDASQCoU6uOfXRfbB1d5f6cJkhzYLGPv+N6p+HypRaDeiKI3jbIFE2XRu3z10r0yNKZIOLPAfO+PpY/31Eg967QQ8YABp58d4W4TFpZwEIIIcS1QHoAhRBCCOFX8kqawJMAUAghhBB+JY+AA08eAQshhBBCdDN+CwCPHz/OggULiI6Oxmg0YrVaSU1NZdeuXUDHK1wMBgMGg4GgoCCioqLIzMzk1KlTSh2NjY3YbDaGDBlCaGgoFouF5ORktmzZopRZsWIFt956KzfeeCO9e/dm4sSJ7NmzR9l+5MgRMjMzueWWWwgLC2PIkCHk5eV5TSUnhBBCiKtHpoILPL89Ak5PT6e5uRmHw8HgwYOpra3F6XTidruVMvn5+WRlZdHW1sahQ4fIzs5m0aJFbNq0CYD58+ezZ88e1q1bR2xsLG63G5fL5VXHN77xDV588UUGDx7M2bNnWb16NZMnT+azzz7DYrHwySef0N7ezm9+8xuGDh3KP/7xD7Kysjhz5gwvvPDCJZ+PnshZ740q3bSXxl9/CPROYycC42pkCIvrg0njj8ZXXfwPbxdv3kVJ4BZ4fgkA6+rq2LlzJ2VlZSQnJwMwaNAgRo8e7VUuPDwcq9UKQP/+/ZkzZw6bN29WtpeUlLB27VqmTJkCdPQaxsXFedXxyCOPeP171apVbNy4kYqKCu677z7S0tJIS0tTtg8ePJhPP/2UX//615cVAAohhBBCXKv88iPCZDJhMpkoLi6mqanpkvapqqpi69atJCQkKOusVivbtm2joaHhkupobm5mw4YN9OrVixEjRqiWO336NH369LmkOoUQQghxZTwYfLYIffwSAAYHB1NUVITD4SAyMpKxY8dit9upqKjwKpeTk4PJZCIsLIwBAwZgMBhYtWqVsn3Dhg24XC7MZjPx8fEsXrxYGUP4dW+99RYmk4nQ0FBWr17N9u3b6du3b6dt++yzz1i3bh3f//73Vdvf1NREfX2919LiadN5NYQQQojurd3gu0Xo47dhBOnp6VRXV1NSUkJaWhplZWWMHDmSoqIipczSpUspLy+noqICp9MJwNSpU2lr6wi2xo0bx+HDh3E6ncyYMYMDBw6QlJREQUGB17HGjx9PeXk5LpeLtLQ0HnroIb788ssL2lRVVUVaWhozZ84kKytLte2FhYX06tXLaymtP+CDqyKEEEII4X9+HUcaGhrKpEmTWL58OS6Xi4yMDPLy8pTtffv2ZejQoQwbNowJEyawZs0aXC4XO3bsUMqEhISQlJRETk4OpaWl5OfnU1BQ4JXFe+ONNzJ06FDuueceNm7cSHBwMBs3bvRqS3V1NePHjycxMZENGzZotttms3H69GmvZXLE7T66KkIIIUT30o7BZ4vQJ6Avgo6NjaW4uFh1e1BQx4yWZ8+e1ayjtbWVc+fO0bNnz07LtLe3e409rKqqYvz48cTFxfHb3/6WHj2042Cj0YjRaPRumyGo0ywmrQuqN+upReX+DtE5JZna2UpWVuCofZZqn73wpvUN1rqv9WQI680O1ttGPbT+Nsg99R9dPdP3eiYzagaeXwJAt9vNzJkzmTdvHsOHDyc8PJy9e/eycuVKpk+frpRraGigpqYGj8fDsWPHWLZsGRaLhcTERABSUlKYNWsWo0aNwmw2c/DgQex2O+PHjyciIoIzZ87w7LPP8sADD9CvXz9OnDjBSy+9RFVVFTNnzgQ6gr+UlBQGDRrECy+8wPHjx5Xjn89AFkKI65EEf0KI8/wSAJpMJhISEli9ejWVlZW0tLQwcOBAsrKysNvtSrnc3Fxyczt+XVssFuLj4yktLcVsNgOQmpqKw+HAbrfT2NhIVFQU06ZNU/YJCgrik08+weFwcOLECSVZZOfOndx+e8cj2+3bt/PZZ5/x2WefMWDAAK92ejzym0QIIYS42uSJU+D5JQA0Go0UFhZSWFioWubIkSMXrcdms2Gz2VS3h4aG8sYbb2jWkZGRQUZGxkWPJYQQQoiro90g3dGBFtAxgEIIIYTofuR5W+DJEFghhBBCiG5GegB1UrtwWuMa9I55CFL5qaQVvbfqaIfeXwNq7QP/zpur9mruEI19fD0ORe9n0qRyneQXmjd/jhtSy/bVmj94o0aGsD/b3qhx4+h9e4C4OKMfr+21PobuWm//9UACQCGE6CYk+BNdhczgEXjSwSCEEEII0c1ID6AQQggh/Epm8Ag8CQCFEEII4VcyGiHw/PYI+Pjx4yxYsIDo6GiMRiNWq5XU1FR27doFQExMDAaDAYPBQFBQEFFRUWRmZnLq1CmljsbGRmw2G0OGDCE0NBSLxUJycjJbtmxRyqxYsYJbb72VG2+8kd69ezNx4kT27Nnj1ZavH+v88vOf/9w/F0IIIYQQIsD81gOYnp5Oc3MzDoeDwYMHU1tbi9PpxO12K2Xy8/PJysqira2NQ4cOkZ2dzaJFi9i0aRMA8+fPZ8+ePaxbt47Y2Fjcbjcul8urjm984xu8+OKLDB48mLNnz7J69WomT57MZ599hsViueBY54WHh1/W+bSorA/S2EfvXKCqGaIaP6H0RPa6s7I0evL9Oe+wWjO0sm99/QtIMtuurq4waFkr0zdTI0NYaw5htUx6vVn0an8b2tD+G6XrWCrru+N3Qe1vtbiQJIEEnl8CwLq6Onbu3ElZWRnJyckADBo0iNGjR3uVCw8PV+bj7d+/P3PmzGHz5s3K9pKSEtauXcuUKVOAjp68uLg4rzoeeeQRr3+vWrWKjRs3UlFRwX333dfpsYQQojvwdfAnhF7d8QdCV+OXH9QmkwmTyURxcTFNTU2XtE9VVRVbt24lISFBWWe1Wtm2bRsNDQ2XVEdzczMbNmygV69ejBgxwmvbz3/+c8xmM3fffTfPP/88ra3q/URNTU3U19d7LS0etbfOCSGEEEJ0bX4JAIODgykqKsLhcBAZGcnYsWOx2+1UVFR4lcvJycFkMhEWFsaAAQMwGAysWrVK2b5hwwZcLhdms5n4+HgWL16sjCH8urfeeguTyURoaCirV69m+/bt9O3bV9m+aNEiXn/9dXbs2MH3v/99fvazn7Fs2TLV9hcWFtKrVy+vZXv9AR9cGSGEEKL78fhwEfr4bUhNeno61dXVlJSUkJaWRllZGSNHjqSoqEgps3TpUsrLy6moqMDpdAIwdepU2to6etvGjRvH4cOHcTqdzJgxgwMHDpCUlERBQYHXscaPH095eTkul4u0tDQeeughvvzyS2X7kiVLSElJYfjw4cyfP59f/OIXrFu3TrV30mazcfr0aa9lUsTtPr5CQgghRPfQbvDdIvTx65jq0NBQJk2axPLly3G5XGRkZJCXl6ds79u3L0OHDmXYsGFMmDCBNWvW4HK52LFjh1ImJCSEpKQkcnJyKC0tJT8/n4KCApqbm5UyN954I0OHDuWee+5h48aNBAcHs3HjRtV2JSQk0NraypEjRzrdbjQaiYiI8FpCDDKaRgghhLgWvfTSS8TExBAaGkpCQgIffPCBZvk//elP3HrrrYSGhnLnnXeybds2P7X06gnoewBjY2MpLi5W3R4U1BFknT17VrOO1tZWzp07R8+ePTst097erjn2sLy8nB49enDTTTddWsPRN5haa9CrVje2XzN6fawrtENr+it/zlWsRc/c0npdy1mbvs6W1aLnOmll+mrNIfwblf30/kJX6xVpB27w8Qd9Ldw3ousJ5H3zhz/8gSVLlrB+/XoSEhJYs2YNqampfPrpp53GAS6Xi1mzZlFYWMi0adN47bXXePDBB9m/fz933HFHAM7AN/wSALrdbmbOnMm8efMYPnw44eHh7N27l5UrVzJ9+nSlXENDAzU1NXg8Ho4dO8ayZcuwWCwkJiYCkJKSwqxZsxg1ahRms5mDBw9it9sZP348ERERnDlzhmeffZYHHniAfv36ceLECV566SWqqqqYOXMmALt372bPnj2MHz+e8PBwdu/ezeLFi/nud79L7969/XE5hBAiIHwd/AmhVyBvxVWrVpGVlcXcuXMBWL9+PW+//TavvPIKP/nJTy4ov3btWtLS0li6dCkABQUFbN++nRdffJH169f7te2+5JcA0GQykZCQwOrVq6msrKSlpYWBAweSlZWF3W5XyuXm5pKb2/FL2GKxEB8fT2lpKWazGYDU1FQcDgd2u53GxkaioqKYNm2ask9QUBCffPIJDoeDEydOKMkiO3fu5PbbO8bsGY1GXn/9dVasWEFTUxO33HILixcvZsmSJf64FEIIIYQIkObmZvbt24fNZlPW9ejRg4kTJ7J79+5O99m9e/cFMUJqaqrmE8xrgV8CQKPRSGFhIYWFhapl1MbffZ3NZvP60P5baGgob7zxhmYdI0eO5P3337/osYQQQghxdXh8OGyjqanpgmFeRqMRo9F4QdkTJ07Q1tbGzTff7LX+5ptv5pNPPum0/pqamk7L19TUXGHLA6srvFhfCCGEEN1Iuw+Xzl7VptXhJDoENAlECCGEEOJK2Gy2Cx7Rdtb7Bx1vGwkKCqK2ttZrfW1trersYFar9bLKXyskANRJbc5HrYxTvS+sbFE5llHnsdR63rW6g7W2ac21q6c+X1O7fqCvHXqvhdZnorbf1bhO13IegNpnqfWHTO/56tlPLUsZ1DN9Ab6vkiGslVWsRe1+qu8BYT5+c67adeqOj5e64znr5cu/Q2qPezvTs2dP4uLicDqdPPjggx1taW/H6XSycOHCTvcZM2YMTqeTJ598Ulm3fft2xowZc6VNDygJAIUQopvwdfAnhF6BvBWXLFnCnDlzGDVqFKNHj2bNmjWcOXNGyQp+7LHH6N+/v/IY+YknniA5OZlf/OIXTJ06lddff529e/eyYcOGAJ7FlZMAUAghhBDdxne+8x2OHz9Obm4uNTU13HXXXbzzzjtKosfRo0fp0eM//bmJiYm89tprPPXUU9jtdoYNG0ZxcfE1/Q5AkABQCCGEEH4W6CncFi5cqPrIt6ys7IJ1M2fOVN4nfL3w25CF48ePs2DBAqKjozEajVitVlJTU9m1axcAMTExGAwGDAYDQUFBREVFkZmZyalTp5Q6GhsbsdlsDBkyhNDQUCwWC8nJyWzZskUps2LFCm699VZuvPFGevfuzcSJE9mzZ49XWw4dOsT06dPp27cvERER3HvvvV7TzQkhhBDi6vFlFrDQx289gOnp6TQ3N+NwOBg8eDC1tbU4nU7cbrdSJj8/n6ysLNra2jh06BDZ2dksWrSITZs2ATB//nz27NnDunXriI2Nxe1243K5vOr4xje+wYsvvsjgwYM5e/Ysq1evZvLkyXz22WdYLBYApk2bxrBhw3jvvfcICwtjzZo1TJs2jcrKykvO6lFLwNC6GbV+8GgOYtcxWELvTMVqSSxqSS+g/SuiK0zd5Wtan7FmEpDGOetJpBH/0UrXGICvdV9rtU8t2UNr+jitBBGtv0++vk5d4bp3FRKMiGuJXwLAuro6du7cSVlZGcnJyQAMGjSI0aNHe5ULDw9XArD+/fszZ84cNm/erGwvKSlh7dq1TJkyBejoNYyLi/Oq45FHHvH696pVq9i4cSMVFRXcd999nDhxgn/+859s3LiR4cOHA/Dzn/+cX/3qV/zjH/+45tO6r4RW8CJEVyZByKWR6yS6CgmWA88vfw9MJhMmk4ni4uIL3tatpqqqiq1bt5KQkKCss1qtbNu2jYaGhkuqo7m5mQ0bNtCrVy9GjBgBgNls5pvf/CavvvoqZ86cobW1ld/85jfcdNNNFwSTQgghhPA9jw8XoY9fAsDg4GCKiopwOBxERkYyduxY7HY7FRUVXuVycnIwmUyEhYUxYMAADAYDq1atUrZv2LABl8ulzPG7ePFiZQzh17311luYTCZCQ0NZvXo127dvp2/fvgAYDAb+9re/8dFHHxEeHk5oaCirVq3inXfeoXfv3p22v6mpifr6eq+lxdPmwyskhBBCCOE/fnsikJ6eTnV1NSUlJaSlpVFWVsbIkSMpKipSyixdupTy8nIqKipwOp0ATJ06lba2jmBr3LhxHD58GKfTyYwZMzhw4ABJSUkUFBR4HWv8+PGUl5fjcrlIS0vjoYce4ssvvwTA4/Hwwx/+kJtuuomdO3fywQcf8OCDD3L//ffzxRdfdNr2zqaZKa0/cBWukhBCCHH9azf4bhH6+HVISGhoKJMmTWL58uW4XC4yMjLIy8tTtvft25ehQ4cybNgwJkyYwJo1a3C5XF4ZuiEhISQlJZGTk0NpaSn5+fkUFBTQ3NyslLnxxhsZOnQo99xzDxs3biQ4OJiNGzcC8N577/HWW2/x+uuvM3bsWEaOHMmvfvUrwsLCcDgcnbbbZrNx+vRpr2VyxO1X6SoJIYQQ1zfJAg68gL4HMDY2luLiYtXtQUEduaxnz57VrKO1tZVz587Rs2fPTsu0t7crYw8bGxsBvF7yeP7f7e2d30qdTTNzA0GdDj7QypbVonUTa00vpac+Nb6eMg2uTravGrU2GjSunz/bp9UOzRTxLuAG+SsbEFqZvloZwutV9mtD/xsChBDXF78EgG63m5kzZzJv3jyGDx9OeHg4e/fuZeXKlUyfPl0p19DQQE1NDR6Ph2PHjrFs2TIsFguJiYkApKSkMGvWLEaNGoXZbObgwYPY7XbGjx9PREQEZ86c4dlnn+WBBx6gX79+nDhxgpdeeomqqirlBY5jxoyhd+/ezJkzh9zcXMLCwnj55Zf517/+xdSpU/1xOYQQIiAk+BNdhSRvBJ5fAkCTyURCQgKrV6+msrKSlpYWBg4cSFZWFna7XSmXm5tLbm7HL1eLxUJ8fDylpaWYzWYAUlNTcTgc2O12GhsbiYqKYtq0aco+QUFBfPLJJzgcDk6cOKEki+zcuZPbb+94ZNu3b1/eeecdfvrTnzJhwgRaWlq4/fbb2bJli5IpLIQQQoirp11CwIDzSwBoNBopLCxUJlbuzJEjRy5aj81mw2azqW4PDQ3ljTfeuGg9o0aN4t13371oOSGEEEKI65HMBSyEEEIIv5JhxYEnAaAQQggh/EoeAAeeBIA6HQzufPbW3h71YdZav3i0smz/t+14p+sf6HGT6j6nNFJO1VoYpjVZrQatgeW+/pWnNscpwKkenW/UakOkxkuk9Lxf6rTGB9mq8SdPbUvvq/CSq1aVKrWu7Vc608C1MsvVnNXYR62JWm339bzYjRrXQuUWBLTvJ7W5oLXOSy3TF2C+RobwiyPV99ND7d4wXeNdPHpueT2nrPcy+fNY4vokAaAQQnQTvg7+hNBLgtHAkwBQCCGEEH4lM3gEnl9nAhFCCCGEEIEnPYBCCCGE8Ct5D2Dg+a0H8Pjx4yxYsIDo6GiMRiNWq5XU1FR27doFQExMDAaDAYPBQFBQEFFRUWRmZnLq1CmljsbGRmw2G0OGDCE0NBSLxUJycjJbtmzp9Jjz58/HYDCwZs0ar/XPPvssiYmJ3HDDDURGRl6tUxZCCCFEJzw+XIQ+fusBTE9Pp7m5GYfDweDBg6mtrcXpdOJ2u5Uy+fn5ZGVl0dbWxqFDh8jOzmbRokVs2rQJ6Ajo9uzZw7p164iNjcXtduNyubzqOO/NN9/k/fffJyoq6oJtzc3NzJw5kzFjxrBx40Zd5zOkrfNLF6ZxNzbqHPPwLZVsX7UsRQCzRkavnqxIrV8KWoN51bZdjV8eESqDSrQuu1Y79MzB3Etr3mGNlqhtuRrXSXNOYhVa2ahatO5RPcdSux5XY0C5WgaznnMCCNVopJ5saS1ayR4L96tnCOtxLc8TrfVZ6vnu+WsfvfvpvXfF9ckvAWBdXR07d+6krKyM5ORkAAYNGsTo0aO9yoWHh2O1WgHo378/c+bMYfPmzcr2kpIS1q5dy5QpU4COXsO4uLgLjldVVcXjjz/Ou+++2+n8vk8//TQARUVFPjk/IYS4Fvg6+BNCr2v4d8N1wy+PgE0mEyaTieLiYpqami5pn6qqKrZu3UpCQoKyzmq1sm3bNhoaGlT3a29vZ/bs2SxdulSZ//dKNTU1UV9f77W0eNp8UrcQQgjR3bTj8dki9PFLABgcHExRUREOh4PIyEjGjh2L3W6noqLCq1xOTg4mk4mwsDAGDBiAwWBg1apVyvYNGzbgcrkwm83Ex8ezePFiZQzhec899xzBwcEsWrTIZ+0vLCykV69eXsv2+gM+q18IIYQQwp/8lgSSnp5OdXU1JSUlpKWlUVZWxsiRI70ewy5dupTy8nIqKipwOp0ATJ06lba2jt62cePGcfjwYZxOJzNmzODAgQMkJSVRUFAAwL59+1i7di1FRUUYDL4bVGOz2Th9+rTXMinCN72LQgghRHcjSSCB59f3AIaGhjJp0iSWL1+Oy+UiIyODvLw8ZXvfvn0ZOnQow4YNY8KECaxZswaXy8WOHTuUMiEhISQlJZGTk0NpaSn5+fkUFBTQ3NzMzp07+fLLL4mOjiY4OJjg4GA+//xzfvSjHxETE6O73UajkYiICK8lxKB3gikhhBCie2v34SL0CeiLoGNjYzlz5ozq9qCgjiDr7NmzmnW0trZy7tw5Zs+eTUVFBeXl5coSFRXF0qVLeffdd33efiGEuJbIVHBCiPP8kgXsdruZOXMm8+bNY/jw4YSHh7N3715WrlzJ9OnTlXINDQ3U1NTg8Xg4duwYy5Ytw2KxkJiYCEBKSgqzZs1i1KhRmM1mDh48iN1uZ/z48URERABgNpu9jh0SEoLVauWb3/ymsu7o0aOcPHmSo0eP0tbWRnl5OQBDhw7FZDJd0jktPPa7K7kkQnQLP9DxPZHv1rXlWv68sv7t27brud/17KN3v+/7+HyvhCRvBJ5fAkCTyURCQgKrV6+msrKSlpYWBg4cSFZWFna7XSmXm5tLbm7HL1SLxUJ8fDylpaVKUJeamorD4cBut9PY2EhUVBTTpk1T9rlUubm5OBwO5d933303ADt27CAlJeUKz1YIIYQQWiT8CzyDx+ORz0EIIYQQfrM45mGf1bX6yOs+q6s7kbmAhRBCCOFXkrwReBIACiGEEMKvPPIQOOACmgUshBBCCCH8T3oAhRBCCOFX8gg48CQAFEIIIYRfyWtgAk8eAQshhBBCdDPSAyiEEEIIv5L+v8DzWw/g8ePHWbBgAdHR0RiNRqxWK6mpqezatQuAmJgYDAYDBoOBoKAgoqKiyMzM5NSpU0odjY2N2Gw2hgwZQmhoKBaLheTkZLZs2dLpMefPn4/BYGDNmjWdbm9qauKuu+7CYDAos4EIIYQQ4upqx+OzRejjtx7A9PR0mpubcTgcDB48mNraWpxOJ263WymTn59PVlYWbW1tHDp0iOzsbBYtWsSmTZuAjoBuz549rFu3jtjYWNxuNy6Xy6uO8958803ef/99oqKiVNu0bNkyoqKi+P/+v//vss9n5aDvdrreqPNe7KGx3/Ggzjfe1GbQdzC1Nmhsa9PYpqcVWsfS2qY1cFitje0aDQzR8XlptUGrOq12qNHTvotRa/+V/BpUm5bqVwM7/57o3UftM9a6tP4c56L33vX1Z/KVxo43aDREz7RuLScOd7r+5bu1Z2jSOwWaL2nda1r03Ltq++nZx9/H6q5OnjzJ448/ztatW+nRowfp6emsXbtWdcrYkydPkpeXR2lpKUePHsVisfDggw9SUFBAr169/Nz6i/NLAFhXV8fOnTspKysjOTkZgEGDBjF69GivcuHh4VitVgD69+/PnDlz2Lx5s7K9pKSEtWvXMmXKFKCj1zAuLu6C41VVVfH444/z7rvvMnXq1E7b9Ne//pXS0lL+8pe/8Ne//tUn5ymEEF2ZVvAnhD9dC7fio48+yhdffMH27dtpaWlh7ty5ZGdn89prr3Vavrq6murqal544QViY2P5/PPPmT9/PtXV1fz5z3/2c+svzm9zAZtMJoqLi7nnnnswGo0X3aeqqoqtW7eSkJCgrLNarWzbto1vf/vbhIeHd7pfe3s7s2fPZunSpdx+++2dlqmtrSUrK4vi4mJuuOGGi7alqamJpqYmr3WtnjaCDUEX3VcIIYQQ3rr6i6A//vhj3nnnHT788ENGjRoFwLp165gyZQovvPBCp08X77jjDv7yl78o/x4yZAjPPvss3/3ud2ltbSU4uGulXfjl6UhwcDBFRUU4HA4iIyMZO3YsdrudiooKr3I5OTmYTCbCwsIYMGAABoOBVatWKds3bNiAy+XCbDYTHx/P4sWLlTGE5z333HMEBwezaNGiTtvi8XjIyMhg/vz5yod6MYWFhfTq1ctr2XH6wGVeBSGEEEJcC3bv3k1kZKRXnDBx4kR69OjBnj17Lrme06dPExER0eWCP/Dj8Jj09HSqq6spKSkhLS2NsrIyRo4cSVFRkVJm6dKllJeXU1FRgdPpBGDq1Km0tXWM/Bk3bhyHDx/G6XQyY8YMDhw4QFJSEgUFBQDs27ePtWvXUlRUhMHQ+aigdevW0dDQgM1mu+S222w2Tp8+7bWM79V576IQQgghtLX7cGlqaqK+vt5r+e+ndperpqaGm266yWtdcHAwffr0oaam5pLqOHHiBAUFBWRnZ19RW64Wv74HMDQ0lEmTJrF8+XJcLhcZGRnk5eUp2/v27cvQoUMZNmwYEyZMYM2aNbhcLnbs2KGUCQkJISkpiZycHEpLS8nPz6egoIDm5mZ27tzJl19+SXR0NMHBwQQHB/P555/zox/9iJiYGADee+89du/ejdFoJDg4mKFDhwIwatQo5syZ02m7jUYjERERXos8/hVCCCH08fjwf509pSssLOz0uD/5yU+UN46oLZ988skVn199fT1Tp04lNjaWFStWXHF9V0NA+yRjY2MpLi5W3R4U1BFknT17VrOO1tZWzp07x+zZs5k4caLX9tTUVGbPns3cuXMB+OUvf8kzzzyjbK+uriY1NZU//OEPXuMNL8bkxxGsFpVsX39G7/4Md/VeWrU2qiRR66b3uvuzHVrX8Fp++3tX/9ml99719Wfiz79Patm+WR/l+68Roluz2WwsWbLEa51arsGPfvQjMjIyNOsbPHgwVquVL7/80mt9a2srJ0+eVJJV1TQ0NJCWlkZ4eDhvvvkmISEhFz+JAPBLAOh2u5k5cybz5s1j+PDhhIeHs3fvXlauXMn06dOVcg0NDdTU1ODxeDh27BjLli3DYrGQmJgIQEpKCrNmzWLUqFGYzWYOHjyI3W5n/PjxREREAGA2m72OHRISgtVq5Zvf/CYA0dHRXtvPp3MPGTKEAQMGXLVrIIQQQogOvvyNYjQaLym5FMBisWCxWC5absyYMdTV1bFv3z7lbSPvvfce7e3tmp1F9fX1pKamYjQaKSkpITQ09NJOIgD8lgWckJDA6tWrqayspKWlhYEDB5KVlYXdblfK5ebmkpvb8WvSYrEQHx9PaWmpEtSlpqbicDiw2+00NjYSFRXFtGnTlH2EEEII0fW1e7p2FvBtt91GWloaWVlZrF+/npaWFhYuXMjDDz+sZABXVVVx33338eqrrzJ69Gjq6+uZPHkyjY2N/O53v1PGI0JHTHP+qWZX4ZcA0Gg0UlhYqPpMHuDIkSMXrcdms11W8sal1BsTE4Oni9+IQgghhPCv3//+9yxcuJD77rtPeRH0L3/5S2V7S0sLn376KY2NjQDs379fyRA+n19w3r/+9S8lF6Gr6Hp5yUIIIYS4rl0L3S59+vRRfekzXNiBlJKSck11KEkAKIQQQgi/kjl8A8/guZbCVSGEEEJc82YNetBndW3+vNhndXUn1/IbIYQQQgghhA7yCFgIIYQQfuXHV1UKFRIACiGEEMKvZAxg4PntEfDx48dZsGAB0dHRGI1GrFYrqamp7Nq1C+jIpjk/DUtQUBBRUVFkZmZy6tQppY7GxkZsNhtDhgwhNDQUi8VCcnIyW7Zs6fSY8+fPx2AwsGbNGmVdWVmZ6vQvH3744VW9BkIIIYQQXYHfegDT09Npbm7G4XAwePBgamtrcTqduN1upUx+fj5ZWVm0tbVx6NAhsrOzWbRoEZs2bQI6Aro9e/awbt06YmNjcbvduFwurzrOe/PNN3n//feVFzael5iYyBdffOG1bvny5TidTkaNGnUVzlwIIYQQX+eRHsCA80sAWFdXx86dOykrKyM5ORmAQYMGMXr0aK9y4eHhyhx7/fv3Z86cOWzevFnZXlJSwtq1a5kyZQrQ0Wt4foqWr6uqquLxxx/n3XffZerUqV7bevbs6TWPX0tLC1u2bOHxxx/HYOh8zl0hhBBC+I6MAQw8vzwCNplMmEwmiouLaWpquqR9qqqq2Lp1q9ece1arlW3bttHQ0KC6X3t7O7Nnz2bp0qXcfvvtFz1OSUkJbrebuXPnXlK7hBBCCCGudX4JAIODgykqKsLhcBAZGcnYsWOx2+1UVFR4lcvJycFkMhEWFsaAAQMwGAysWrVK2b5hwwZcLhdms5n4+HgWL16sjCE877nnniM4OJhFixZdUts2btxIamoqAwYMUC3T1NSkzOl3frnUQFYIIYQQ3jwej88WoY/fkkDS09Oprq6mpKSEtLQ0ysrKGDlyJEVFRUqZpUuXUl5eTkVFBU6nE4CpU6fS1tYGwLhx4zh8+DBOp5MZM2Zw4MABkpKSKCgoAGDfvn2sXbuWoqKiS3qc++9//5t3332XzMxMzXKFhYX06tXLa9Ga11gIIYQQ6trx+GwR+gR0JpDvfe97bN++nc8//5yYmBiefPJJnnzySWX7+++/z5gxY9i+fTsTJ07stI5nnnmG/Px8vvrqK371q1+xZMkSevT4T1zb1tZGjx49GDhwIEeOHPHat6CggHXr1lFVVUVISIhqO5uami7o8TMajRiNxss/aSGEEKKbmx49zWd1bTn6ls/q6k4C+h7A2NhYiouLVbcHBQUBcPbsWc06WltbOXfuHLNnz74gUExNTWX27NkXjPHzeDz89re/5bHHHtMM/kCCPSGEEMKXJAkk8PwSALrdbmbOnMm8efMYPnw44eHh7N27l5UrVzJ9+nSlXENDAzU1NXg8Ho4dO8ayZcuwWCwkJiYCkJKSwqxZsxg1ahRms5mDBw9it9sZP348ERERAJjNZq9jh4SEYLVa+eY3v+m1/r333uNf//oX3/ve967y2QshhBDi6+Q1MIHnlwDQZDKRkJDA6tWrqayspKWlhYEDB5KVlYXdblfK5ebmkpubC4DFYiE+Pp7S0lIlqEtNTcXhcGC322lsbCQqKopp06Yp+1yOjRs3kpiYyK233uqbkxRCCCGEuEYEdAygEEIIIbqfKdFTfFbXtqPbfFZXdyJzAQshhBDCr6TvKfD89hoYIYQQQgjRNUgPoBBCCCH8SrKAA08CQCGEEEL4lWQBB548AhZCCCGE6GakB1AIIYQQfiVTuAWeBIBCCCGE8CvJAg48vz0CPn78OAsWLCA6Ohqj0YjVaiU1NZVdu3YBEBMTg8FgwGAwEBQURFRUFJmZmZw6dUqpo7GxEZvNxpAhQwgNDcVisZCcnMyWLVuUMhkZGUo955e0tDSvtpw8eZJHH32UiIgIIiMjyczM5KuvvvLPhRBCCCGECDC/9QCmp6fT3NyMw+Fg8ODB1NbW4nQ6cbvdSpn8/HyysrJoa2vj0KFDZGdns2jRIjZt2gTA/Pnz2bNnD+vWrSM2Nha3243L5fKqAyAtLY3f/va3yr//ex7fRx99lC+++ILt27fT0tLC3Llzyc7O5rXXXruKV0AIIYQQII+AuwK/BIB1dXXs3LmTsrIykpOTARg0aBCjR4/2KhceHo7VagWgf//+zJkzh82bNyvbS0pKWLt2LVOmdLxBPCYmhri4uAuOd76HsTMff/wx77zzDh9++CGjRo0CYN26dUyZMoUXXniBqKioKz9hIYQQQqiSLODA88sjYJPJhMlkori4mKampkvap6qqiq1bt5KQkKCss1qtbNu2jYaGBs19y8rKuOmmm/jmN7/JggULvHoId+/eTWRkpBL8AUycOJEePXqwZ8+eTutramqivr7ea7nU8xBCCCGE6Gr8EgAGBwdTVFSEw+EgMjKSsWPHYrfbqaio8CqXk5ODyWQiLCyMAQMGYDAYWLVqlbJ9w4YNuFwuzGYz8fHxLF68WBlDeF5aWhqvvvoqTqeT5557jv/93//lW9/6Fm1tbQDU1NRw0003XdC+Pn36UFNT02n7CwsL6dWrl9dSWFjoi0sjhBBCdDvtHo/PFqGP35JA0tPTqa6upqSkhLS0NMrKyhg5ciRFRUVKmaVLl1JeXk5FRQVOpxOAqVOnKsHbuHHjOHz4ME6nkxkzZnDgwAGSkpIoKChQ6nj44Yd54IEHuPPOO3nwwQd56623+PDDDykrK9PddpvNxunTp70Wm82muz4hhBCiO/P4cBH6+PVF0KGhoUyaNInly5fjcrnIyMggLy9P2d63b1+GDh3KsGHDmDBhAmvWrMHlcrFjxw6lTEhICElJSeTk5FBaWkp+fj4FBQU0Nzd3eszBgwfTt29fPvvsM6DjMfKXX37pVaa1tZWTJ0+qjhs0Go1ERER4Lf+dWCKEEEIIca0I6HsAY2NjKS4uVt0eFBQEwNmzZzXraG1t5dy5c/Ts2fOC7f/+979xu93069cPgDFjxlBXV8e+ffuUBJL33nuP9vZ2r/GGF/Orgd/tdL1R4+fIWYP6Nq1IXG2bzKV4/VD7LLW+oF3p8//Bsd91un69yvcEYL7KPmrfravBpHERv7pO50kK0fgblfXvzj8TLXo/L7V7xp9aThxW3fby3bmq29TafrFr0dl+evbx97GuBskCDjy/BIBut5uZM2cyb948hg8fTnh4OHv37mXlypVMnz5dKdfQ0EBNTQ0ej4djx46xbNkyLBYLiYmJAKSkpDBr1ixGjRqF2Wzm4MGD2O12xo8fT0REBF999RVPP/006enpWK1WKisrWbZsGUOHDiU1NRWA2267jbS0NLKysli/fj0tLS0sXLiQhx9+WDKAhRDXNa3gTwh/kgAw8PwSAJpMJhISEli9ejWVlZW0tLQwcOBAsrKysNvtSrnc3Fxyczt+dVksFuLj4yktLcVsNgOQmpqKw+HAbrfT2NhIVFQU06ZNU/YJCgqioqICh8NBXV0dUVFRTJ48mYKCAq9Htr///e9ZuHAh9913Hz169CA9PZ1f/vKX/rgUQgghhBAB55cA0Gg0UlhYqJk5e+TIkYvWY7PZNJMvwsLCePfddy9aT58+feSlz0IIIUSAyFRwgSdzAQshhBDCr+QRcOBdp8OchRBCCCGEGukB1EktebBVYx+90XaLyvognfX5kz8zmK/lbOlrue1aunr7r9dMX7XTajNIIsjXaWX6Zn2U78eWdD8yFVzgXad//oQQQvw3Cf5EV+HxeHy2XC0nT57k0UcfJSIigsjISDIzM/nqq68u+fy+9a1vYTAYNF93F0gSAAohhBBC/JdHH32UAwcOsH37dt566y3+/ve/k52dfUn7rlmzBoNB4+W/XYA8AhZCCCGEX3X1JJCPP/6Yd955hw8//JBRo0YBsG7dOqZMmcILL7yg+d7g8vJyfvGLX7B3715lEoquyG89gMePH2fBggVER0djNBqxWq2kpqaya9cuAGJiYjAYDBgMBoKCgoiKiiIzM5NTp04pdTQ2NmKz2RgyZAihoaFYLBaSk5PZsmWLUiYjI0Op5/ySlpbm1ZYHHniA6OhoQkND6devH7Nnz6a6uto/F0IIIYTo5nz5CLipqYn6+nqvpamp6Yrat3v3biIjI5XgD2DixIn06NGDPXv2qO7X2NjII488wksvvaQ6vWxX4bcAMD09nY8++giHw8GhQ4coKSkhJSUFt9utlMnPz+eLL77g6NGj/P73v+fvf/87ixYtUrbPnz+fN954g3Xr1vHJJ5/wzjvvMGPGDK86ANLS0vjiiy+UZfPmzV7bx48fzx//+Ec+/fRT/vKXv1BZWcmMGTOu7gUQQogAa+naT6SE0KWwsJBevXp5LVrvHb4UNTU13HTTTV7rgoOD6dOnDzU1Nar7LV68mMTERK9Zzroqg8cPb2Osq6ujd+/elJWVkZyc3GmZmJgYnnzySZ588kll3TPPPMPmzZs5cOAAAJGRkaxdu5Y5c+aoHisjI4O6urrLGnRZUlLCgw8+SFNTEyEhIZe8nxBCCCEu3whros/q+uDzHRf0+BmNRq8ZwM77yU9+wnPPPadZ38cff8wbb7yBw+Hg008/9dp200038fTTT7NgwYIL9ispKeFHP/oRH330ESaTCQCDwcCbb77Jgw8+eJlndfX5bSo4k8lEcXEx99xzT6cfyn+rqqpi69atJCQkKOusVivbtm3j29/+NuHh4ar7lpWVcdNNN9G7d28mTJjAM888o0wn999OnjzJ73//exITEyX4E0IIIfzAl6+BUQv2OvOjH/2IjIwMzTKDBw/GarXy5Zdfeq1vbW3l5MmTqo9233vvPSorK4mMjPRan56eTlJSEmVlZZfURn/xSw8gwF/+8heysrI4e/YsI0eOJDk5mYcffpjhw4cDHT2AX3zxBSEhIbS1tXHu3DkSEhJ45513lIv597//nUcffZTa2lpGjBjBvffey4wZMxg7dqxynNdff50bbriBW265hcrKSux2OyaTid27dxMU9J835+Xk5PDiiy/S2NjIPffcw1tvvaUaJDY1NV3yrwshhBBCaBtuHeOzuipqdvusrvM+/vhjYmNj2bt3L3FxcQCUlpaSlpbGv//9706TQGpqajhx4oTXujvvvJO1a9dy//33c8stt/i8nVfCbwEgwLlz59i5cyfvv/8+f/3rX/nggw/4n//5HzIyMoiJieG73/0uGRkZeDwejh07ht1uJygoiL///e9K8NbS0sL777+Py+XC6XTyt7/9jaeffprly5d3eszDhw8zZMgQ/va3v3Hfffcp60+cOMHJkyf5/PPPefrpp+nVqxdvvfVWp2nbK1as4Omnn/Zal5eXx4oVK3x3cYQQQohu4o6b7/FZXf+ofd9ndX3dt771LWpra1m/fj0tLS3MnTuXUaNG8dprrwEdTyrvu+8+Xn31VUaPHt1pHV35EbBfA8D/9r3vfY/t27fz+eefdzoG8P3332fMmDFs376diRMndlrHM888Q35+Pl999RU9e/bstIzFYuGZZ57h+9//fqfb//3vfzNw4EBcLhdjxlz4q0R6AIUQQgjfuf3mhIsXukQHatWzcq/EyZMnWbhwIVu3bqVHjx6kp6fzy1/+Uhnfd+TIEW655RZ27NhBSkpKp3V05QAwoO8BjI2N1UzWON/rd/bsWc06WltbOXfuXKcB4L///W/cbrfmu3ja2zsmrFJLG+8s2Ht5wHc7LXs1suzUptOSt3iLruIHx37X6fpfDez8e6J3n67AqPGTuUnn99/XUwFq7af1d0PtM9Gi9/PScyxf83XbW04c1twvpO/gy26D3u9JZ/vpPVZ31adPH6W3rzMxMTEXnYkkgH1sF+WXANDtdjNz5kzmzZvH8OHDCQ8PZ+/evaxcudIrVbqhoYGamhrlEfCyZcuwWCwkJnZkC6WkpDBr1ixGjRqF2Wzm4MGD2O12xo8fT0REBF999RVPP/006enpWK1WKisrWbZsGUOHDiU1NRWAPXv28OGHH3LvvffSu3dvKisrWb58OUOGDOm0908IIa4X8qNRdBXtXTgw6i78lgWckJDA6tWrqayspKWlhYEDB5KVlYXdblfK5ebmkpvbMTm3xWIhPj6e0tJSJTkjNTUVh8OB3W6nsbGRqKgopk2bpuwTFBRERUUFDoeDuro6oqKimDx5MgUFBUoP3g033MAbb7xBXl4eZ86coV+/fqSlpfHUU0/JI10hhBDCD3yZBSz08UsAaDQaKSws1Hwx45EjRy5aj81mw2azqW4PCwvj3Xff1azjzjvv5L333rvosYQQQgghrlcyF7AQQggh/EoeAQeeBIBCCCGE8Ct5BBx4MiZYCCG6Cb1ZxUKI609A3wMohBBCiO5nSN+RPqur8sR+n9XVncgjYCGEEEL4lTwCDjx5BCyEEEII0c1ID6AQQggh/MrjkRGpgea3HsDjx4+zYMECoqOjMRqNWK1WUlNT2bVrF9AxpYrBYMBgMBAUFERUVBSZmZmcOnVKqaOxsRGbzcaQIUMIDQ3FYrGQnJzMli1blDIZGRlKPeeXtLS0C9rz9ttvk5CQQFhYGL179+6S8/QJIYQQ16N2PD5bhD5+6wFMT0+nubkZh8PB4MGDqa2txel04na7lTL5+flkZWXR1tbGoUOHyM7OZtGiRWzatAmA+fPns2fPHtatW0dsbCxutxuXy+VVB0BaWhq//e1vlX//9wwff/nLX8jKyuJnP/sZEyZMoLW1lX/84x+XdT7+nK9UbX7hEJ33vT/nFu4Kx9Li63b4+jfttTJGozvNBXwtkLmAL42v265nrl098wcDrL/IsebLXMDiIvwSANbV1bFz507KyspITk4GYNCgQYwePdqrXHh4OFarFYD+/fszZ84cNm/erGwvKSlh7dq1TJkyBejoNYyLi7vgeOd7GDvT2trKE088wfPPP09mZqayPjY29v/X3r2HRVXuewD/LmbkohMXkasIyE3MNA0JgRRSRAjTCn0yi8QQzae2R2ubQkctge022pnpOU9pqXhJT1iWt60pom6Ui+JWzLtxUeSigchNEOR3/uCwjhOgMzAwM6zfp2c9PWutmS/vu5yBd9as9Xs710nGGNNx+vKBgvV8XIBE+7rl94FCoYBCocDPP/+M+vp6lZ5z69Yt7NmzBz4+PuI2W1tb7N+/H1VVVY997tGjR2FtbY1BgwZh7ty5SmcIz5w5g1u3bsHAwAAjRoyAnZ0dQkNDH3sGsL6+HpWVlUpLAz1UqR+MMcYYU8ZfAWtftwwA5XI5Nm3ahKSkJJibm8Pf3x+xsbHIyclRetyiRYugUChgYmICBwcHCIKAL774Qty/bt06nDx5EpaWlvD29saCBQvEawhbhISEYPPmzUhJScHKlStx7NgxhIaG4uHD5gFbbm7z6fZPPvkE//mf/4m9e/fCwsICgYGBKC8vb7P9K1asgJmZmdLya+UFTR4ixhhjjLFu023fCISHh6OoqAi7d+9GSEgIjh49iueeew6bNm0SH7Nw4UKcPXsWOTk5SElJAQCEhYWJg7cxY8YgNzcXKSkpmDJlCi5cuIDRo0cjLi5OzJg2bRomTZqEoUOH4pVXXsHevXtx6tQpHD16FADQ1NR8dczHH3+M8PBweHl5YePGjRAEAcnJyW22PSYmBvfu3VNagk2HdMFRYowxxno+ItLYwjqmWy8JMTY2xvjx47FkyRKcPHkSkZGRWLZsmbi/X79+cHNzg7u7O8aOHYsvv/wSJ0+eRGpqqviYXr16YfTo0Vi0aBF+/fVXLF++HHFxcXjw4EGbP9PFxQX9+vXD9evXAQB2dnYAlK/5MzIygouLC27cuNFmhpGREUxNTZWWXoKs08eDMcYYk6ImIo0trGO0ek3w008/jZqamnb3y2TNg6z79+8/NqOxsRF1dXVt7i8sLERZWZk48PPy8oKRkRGuXLkiPqahoQH5+flwcnLqSDcYY0wvcOU1xliLbpkLuKysDFOnTsU777yDYcOG4amnnsLp06fxl7/8BWFhYfjuu+/g7OyMqKgoREdHg4hw8+ZNfPTRR7h48SIuXboES0tLBAYG4o033sDIkSNhaWmJixcv4oMPPkD//v2RkpKC6upqfPrppwgPD4etrS1+//13fPTRR6iqqsL58+fFcjDz58/Hzp07sWHDBjg5OSExMRF79uzB5cuXYWFh0dWHgzHGGJM0W/PBGssqqbiksSwp6ZYyMAqFAj4+Pli1ahV+//13NDQ0YMCAAYiOjkZsbKz4uKVLl2Lp0qUAACsrK3h7e+PXX3+FpaUlAGDChAlISkpCbGwsamtrYW9vj4kTJ4rPkclkyMnJQVJSEioqKmBvb4/g4GDExcUp1QJMTEyEXC5HREQE7t+/Dx8fHxw5coQHf4wxxlg34Gv3tK9bzgAyxhhjjLWwMfPUWFbpvcsay5ISnguYMcYYY92K6/dpHw8AGWOMMdat+MtH7eMBYAe1Nw/j4+6y6+j8nO3N+dveHMFSJWvnONFjjpOu3BXZnXMmd4Xumgu4vePR0X/HjhxfXXnNPA7PBawaXZgLuCNz+gIdm0OY5wJmj+IBIGOMSYS+fKBgPR/X79M+HgAyxhhjrFvxV8Daxx8IGWOMMcYkhs8AMsYYY6xb8V3A2tdtZwDv3LmDuXPnwtHREUZGRrC1tcWECRNw4sQJAICzszMEQYAgCJDJZLC3t0dUVBTu3r0rZtTW1iImJgaurq4wNjaGlZUVAgIC8Msvv4iPiYyMFHNalpCQEKW2nDlzBuPHj4e5uTksLS0xe/ZsVFdXd8+BYIwxxiSOiDS2sI7ptgFgeHg4/v3vfyMpKQlXr17F7t27ERgYiLKyMvExy5cvR3FxMW7cuIFt27bh+PHjmDdvnrj/3XffxU8//YQ1a9bg8uXLOHDgAKZMmaKUAQAhISEoLi4Wl+3bt4v7ioqKEBQUBDc3N2RmZuLAgQO4cOECIiMju/wYMMaYNunDHcxMGpqINLawjumWmUAqKipgYWGBo0ePIiAgoM3HODs7Y/78+Zg/f764LT4+Htu3b8eFCxcAAObm5li9ejVmzJjR7s+KjIxERUUFfv755zb3r1u3DkuWLEFxcTEMDJrHv+fPn8ewYcNw7do1uLm5dayTjDHGGFOJovdAjWVV1+ZpLEtKuuUMoEKhgEKhwM8//4z6+nqVnnPr1i3s2bMHPj4+4jZbW1vs378fVVVVj33u0aNHYW1tjUGDBmHu3LlKZwjr6+thaGgoDv4AwMTEBACQlpbWZl59fT0qKyuVFlX7wRhjjDFlpMH/WMd0ywBQLpdj06ZNSEpKgrm5Ofz9/REbG4ucnBylxy1atAgKhQImJiZwcHCAIAj44osvxP3r1q3DyZMnYWlpCW9vbyxYsEC8hrBFSEgINm/ejJSUFKxcuRLHjh1DaGgoHj58CAAYO3YsSkpKkJiYiAcPHuDu3btYvHgxAKC4uLjN9q9YsQJmZmZKy4oVKzR5iBhjjDHJ4K+Ata9bvgJuUVdXh3/961/IyMjAP//5T2RlZeHbb79FZGQknJ2d8dZbbyEyMhJEhJs3byI2NhYymQzHjx+HTCYDADQ0NCAjIwMnT55ESkoKDh8+jE8//RRLlixp82fm5ubC1dUVhw8fxrhx4wAA33//PT744AP88ccfkMlkmDdvHrZs2YIFCxZg0aJFrTLq6+tbnfEzMjKCkZGRho8QY4wx1vOZmDhpLOv+/QKNZUlJtw4A/2zWrFk4dOgQCgoK2rwGMCMjA76+vjh06BCCgoLazIiPj8fy5ctRXV0NQ0PDNh9jZWWF+Ph4zJkzR2l7aWkp+vTpA0EQYGpqih07dmDq1Kka6x9jjDHGWjM2dtRYVl3dDY1lSYlW6wA+/fTT7d6sAUA863f//v3HZjQ2NqKurq7NAWBhYSHKyspgZ2fXap+NjQ0AYMOGDTA2Nsb48eNVbnt7cyq2N28vANQ/Zk7ax30Xb9RO5uPydIWm527tiPbmCAaAh914DDs6P6s+0Ne5gHuqxx2Px/2OmlPIcwGrQpNzAXd0ft6OPK8j8wd3Fb52T/u65e9OWVkZxo4di61btyInJwd5eXlITk7GZ599hsmTJ4uPq6qqQklJCYqLi5GVlYWFCxfCysoKfn5+AIDAwEB88803yM7ORn5+Pvbv34/Y2Fi8+OKLMDU1RXV1NRYuXIiMjAzk5+cjJSUFkydPhpubGyZMmCD+nLVr1+LMmTO4evUq/uu//gvvv/8+VqxYAXNz8+44HIwxphWPG/wxxpSVl5fjzTffhKmpKczNzREVFaVSzeD09HSMHTsWffr0gampKcaMGfPYE1na0i1nABUKBXx8fLBq1Sr8/vvvaGhowIABAxAdHY3Y2FjxcUuXLsXSpUsBNH9t6+3tjV9//RWWlpYAgAkTJiApKQmxsbGora2Fvb09Jk6cKD5HJpMhJycHSUlJqKiogL29PYKDgxEXF6d0vV5WVhaWLVuG6upqeHp64ptvvkFERER3HArGGGNM8vShgPObb76J4uJiHDp0CA0NDZg5cyZmz56N77//vt3npKenIyQkBDExMVizZg3kcjnOnTunVHlEV3TLANDIyAgrVqx47J2z+fn5T8yJiYlBTExMu/tNTExw8ODBJ+Zs3rz5iY9hjDHGWNfQ9QHgpUuXcODAAZw6dQojR44EAKxZswYvvfQSPv/8c9jb27f5vAULFmDevHlidREAGDRoULe0WV26NyRljDHGGNOi9PR0mJubi4M/AAgKCoKBgQEyMzPbfM7t27eRmZkJa2tr+Pn5wcbGBgEBAe3WGNY2HgAyxphENOjBjWNMGkiDS1dM1lBSUgJra2ulbXK5HH379kVJSUmbz8nNbb7J5pNPPkF0dDQOHDiA5557DuPGjcO1a9c61Z4uQaxT6urqaNmyZVRXV6ezmZyne5mcp3uZnKd7mZynm5m6ZtmyZa3GhcuWLWvzsYsWLXrimPLSpUuUkJBAHh4erZ5vZWVF//3f/91m9okTJwgAxcTEKG0fOnQoLV68uNP91DSt1gHsCSorK2FmZoZ79+7B1NRUJzM5r/N0vY1Sy+uKTM7rPF1vo9TyuipT16gzWcOdO3eUpodti4uLC7Zu3YoPP/wQd+/eFbc3NjbC2NgYycnJePXVV1s9Ly8vDy4uLtiyZQveeuv/y/S8/vrrkMvl2LZtm7pd61JarQPIGGOMMdYZ6szMZWVlBSsrqyc+ztfXFxUVFcjOzoaXlxcA4MiRI2hqaoKPj0+bz3F2doa9vT2uXLmitP3q1asIDQ1VqX3dia8BZIwxxhh7xODBgxESEoLo6GhkZWXhxIkTeP/99zFt2jTxDuBbt27B09MTWVlZAABBELBw4UJ89dVX2LlzJ65fv44lS5bg8uXLiIqK0mZ32sRnABljjDHG/mTbtm14//33MW7cOBgYGCA8PBxfffWVuL+hoQFXrlxBbW2tuG3+/Pmoq6vDggULUF5ejmeffRaHDh2Cq6urNrrwWDwA7CQjIyMsW7ZM5dPP2sjkPN3L5Dzdy+Q83cvkPN3MlIq+ffs+tuizs7Nzm/UMFy9erFQHUFfxTSCMMcYYYxLD1wAyxhhjjEkMDwAZY4wxxiSGB4CMMcYYYxLDA0DGGGOMMYnhASBjjDHGmMRwGRgNKi0txTfffIOlS5d2OsvFxQUHDx6Eu7u7BlrWMTk5OSo/dtiwYV3YkidramqCgUHrzzNNTU0oLCyEo6Njh7Pz8vJw/fp12NnZ4ZlnnulMM/Hw4UPs2rULly5dAtBcbPSVV16BXK7+W7GkpASZmZnixOS2trbw8fGBra1th9smk8nE9czMTNTX18PX1xe9evXqUCYAVFRUIDk5GTdu3ICTkxOmTp0KMzMztXNyc3ORlpaG4uJiGBgYwMXFBePHj9fZ6a0aGhqQn58Pa2vrDvX39u3b+O233+Dl5QUzMzOUlpYiKSkJTU1NCAsLw9ChQzXW1pqaGmRnZ2PMmDGdypk5cyYSEhLEQrnqeHTGBU3i94luv0+YFml1JuIe5uzZs2RgYKDWc1avXt3mIpPJKCYmRlxXV2NjIyUmJpK3tzfZ2NiQhYWF0qIKQRDIwMBA/P/jlo5ITk6mqVOnko+PD40YMUJpUdW9e/do6tSpZGxsTNbW1rRkyRJqbGwU95eUlKjVvrlz51JVVRUREdXW1lJ4eLjSMXjxxRfF/er67bffyMXFhXr37i32s0+fPuTs7Eznz59XOae6uprefPNNkslkJJfLydramqytrUkul5NMJqO33nqLampqVM4rKioif39/kslkNGbMGCovL6ewsDASBIEEQSAPDw8qKipSOe/VV1+l5ORksc/9+vUjKysr8vHxIRsbG7K1taWLFy+q1d8pU6aI7TEwMCBbW1uSyWSkUCho7dq1Kme1ePDgAS1cuJBcXV3J29ubvvvuO6X96r5uVq5cSbW1tUTU/N778MMPydDQkAwMDEgul9PMmTPpwYMHKuelpqZSnz59SBAEsrW1pbNnz5KDgwO5u7vToEGDyMjIiA4ePKhy3pOo+7vr3LlzbS69evWiXbt2ievqEASBXF1dKSEhgW7duqVuF1rh90nn3yesZ+MBoBra+6XXsvzP//yP2oMhQRDIwcGBnJ2dlRZBEKh///7k7OxMAwcOVLutS5YsITs7O/r888/J2NiY4uLiKCoqiiwtLVUeUObn54vLrl27yNXVlb7++muxv19//TW5u7vTrl271G7f6tWrSaFQ0Pvvv0+GhoY0Z84cCgoKIjMzM4qNjVU5Z968eeTh4UHJycm0fv16cnJyorCwMKqvryei5j/kgiConGdgYEClpaVERBQTE0MODg505MgRqqmpobS0NHJ1daXFixer19n/M2rUKHr55ZepvLxc3FZeXk6TJk0iX19flXOioqLI3d2dDhw4oDTYbWxspIMHD5KHhwfNmjVL5byIiAjy8/Oj3bt30+uvv05+fn40evRoKiwspIKCAvL396f33ntP5TwLCwu6dOkSERGFhobS9OnTxX+PBw8eUFRUFAUHB6ucN3v2bPL396fz58/TtWvXaMqUKfTRRx9RTU0Nfffdd9S7d2/atm2bynlERMuWLSMbGxtKTEykjz/+mMzMzGj27Nni/s68bhITE8nCwoI2bNhAFy5coK1bt5K1tTWtXLlS5bwXXniB3nvvPaqqqqLExETq37+/0r/BX//6V/Lz81M570nUHQA++uHwz8ujH5jUIQgCRUdHi4O0sLAw2rVrl9JrXB38Pun8+4T1bDwAVENX/NKbM2cODR8+vNUnPblcThcuXOhwW11cXGjv3r1ERKRQKOj69etE1DzweuONN9TO8/b2pn379rXavm/fPnruuefUzhs0aBB9//33Yvt+//13ImoeuKrzS9TR0ZFSU1PF9Tt37tDzzz9PwcHBVFdXp/aZHEEQxD/kzzzzjNjGFr/88gt5eHionPcoY2Nj+u2331ptP3/+PBkbG6ucY25uTidOnGh3f1paGpmbm6ucZ2dnR+np6UREVFZWRoIg0OHDh8X9KSkp5OLionKeiYmJ+Hqzs7OjM2fOKO2/cuUKmZmZqZzXr18/On36tLheXl5OxsbG4tmbtWvX0vDhw1XOIyJyc3OjPXv2iOvXrl0jNzc3ioyMpKampk69bkaMGEHffPON0v6tW7fSkCFDVM4zNTUVj2FDQwPJ5XL697//Le6/evWqWsfwz98A/HkxNTVVq7/PPvsshYWF0aVLl8QPiXl5eSSXy+nQoUPiNnW0HMOGhgbauXMnvfTSSySTycjGxoY++ugjunLlilp5/D7p/PuE9Wx8E4ga+vbti/Xr1yMvL6/Vkpubi71796qd+fXXX2Pp0qWYMGEC1q5dq7G2lpSUiNcIKRQK3Lt3DwAwceJE7Nu3T+288+fPY+DAga22Dxw4EBcvXlQ778aNG/Dz8wMAmJiYoKqqCgAQERGB7du3q5xz584dODk5iev9+vXD4cOHUVVVhZdeeklpjkZVCYIAoPkY/vnaxmeffRY3b95UOxMAPDw8UFpa2mr77du34ebmpnJOU1MTDA0N291vaGiIpqYmlfPu3r2L/v37A2h+jffu3VvpmLq5uaG4uFjlvGHDhuHIkSMAmq+3KigoUNpfUFAAExMTlfMaGxuVrl9SKBRobGxETU0NACA4OBiXL19WOQ9onsT90es53dzccPToUZw8eRIRERF4+PChWnnA/79uHn1tt/Dz80NeXp7KWYaGhqirqwMAPHjwAE1NTeI6ANy/f1+t683q6+vxzjvvYNWqVW0uH374ocpZAJCVlQU3NzeEh4ejvLwcTk5OcHZ2BgDY29vDyclJ6TWkDrlcjvDwcOzbtw8FBQV47733sHPnTgwePFitaxT5fdL59wnr4bQ9AtUnwcHBFBcX1+7+s2fPqvW10aMKCwtp7NixFBISQsXFxZ0+A+jh4UEZGRlEROTv708rVqwgIqIdO3aQlZWV2nkjRoygiIgI8SsKIqL6+nqKiIhQ65q9FgMHDhQ/8Xp5edHXX39NREQHDx5U+RpFouYziW2dmayqqiJfX1969tln1T6TM2fOHFqwYAFZW1vTr7/+qrQ/Ozub+vXrp3LevXv3xGXfvn00ZMgQSk5Opps3b9LNmzcpOTmZhg4d2mYf2jN9+nQaMWJEqzMGRERnzpwhLy8vevPNN1XOc3R0pMzMTHF90aJFVFZWJq6fPXtWrT7v3buX+vbtSxs3bqSNGzeSs7Mzffvtt3TixAnasGEDDRgwgBYuXKhy3vjx45XOCicmJpKdnZ24fubMGbXaR9T8+nv07E2LW7dukYeHB40fP17t101CQgKtXr2a7Ozs6NixY0r7z507p9brevLkyTRx4kRKS0uj2bNn08iRIyksLIyqq6uppqaGpkyZQiEhISrn+fn50Zdfftnu/o5cv0xEtH//fnJwcKC//e1v9PDhw0793nr0a/S2HD58mKZPn65yHr9POv8+YT0bDwDV8NNPP9GWLVva3V9eXk6bNm3qcH5TUxP97W9/Ey/c7cwAcNGiRZSQkEBEzYM+uVxObm5uZGhoSIsWLVI7LzMzk6ytrcnKyorGjRtH48aNIysrK7K2tlb6paiqqKgo+uSTT4io+asJExMTCgoKInNzc3rnnXdUzvnLX/5CU6ZMaXNfZWUl+fj4qPWHLSAggAIDA8Vl/fr1Svvj4uIoICBA5bw/30Dz6CUDf15XVXl5OYWEhJAgCNS3b1/y9PQkT09P6tu3LxkYGFBoaCjdvXtX5bxJkyY9dnCwdu1aGjt2rMp5REQ7d+4kBweHVpdMGBsb0/z589W6ris7O5v69u1Ltra25OjoSIaGhrR9+3al9r399ttqtS8qKqrd11lhYSG5ubmp9W/i5OSkdA3vqlWrlPZ/+eWXNGrUKJXzrl69Su7u7iQIAg0ePJgKCwtp0qRJJJfLSS6Xk5WVFWVnZ6ucl5CQIL7f2nLjxg2KjIxUOe9RJSUlFBoaSqNHj+7UAPDRr9E1gd8nnX+fsJ5NICLS9llIpiw7OxtpaWl4++23YWFhoZHMjIwMnDx5Eu7u7nj55Zc7lFFTU4Nt27aJXyMMHjwY06dPR58+fdTOampqQlNTk1j+ZMeOHWL75syZ89ivbh519+5dFBUVYciQIW3ur6qqwpkzZxAQEKB2G9uSm5sLQ0NDODg4qPT4Y8eOqZytbhsvXbqEjIwMpfIWvr6+8PT0VCvnSbKystC7d2+1S+A8fPgQZ86cQW5uLpqammBnZwcvLy889dRTarehuLgYe/fuRX19PcaOHYunn35a7YxHFRQU4PLly5gwYUKb+4uKinDo0CHMmDGjUz+nRUZGBoyMjDBixAi1nldWVgZLS0txPSUlBffv34evr6/Sdl3w1VdfITU1FWvWrFH5/fGoY8eOwd/fv0MlkR7n8uXLSE9P5/cJY3/CA0ANaGxsRF1dHRQKhU5nMsYYY4wBPBOIWvbs2YNNmzYpbUtISIBCoYC5uTmCg4Nx9+5drWb+4x//aHUxcWdoOq9FVlYWVq9ejZiYGMTExGD16tU4deqUxn9OaWkpli9frtW8H3/8sUM3ozxJYWEhqqurW21vaGjA8ePHOe8JysrKkJqaivLycgDAH3/8gZUrV2L58uVioe6elNcWFxcXXLt2TSNZXZGnyUwiQmpqKtavX4+9e/eioaGB85i0ae/bZ/0TGBioVEzzxIkTZGBgQPHx8fTjjz+Sp6cnLViwQKuZgiCQTCajoKAg2rFjh9JNGx2h6bzS0lJ64YUXSBAEcnJyoueff56ef/55cnJyIkEQ6IUXXtDodUAdvbhdk3mCIJCpqSlFR0eLN+Z0RlFREXl7e5OBgQHJZDKKiIhQKk6tbgkTqeURNV/TamZmRoIgkIWFBZ0+fZoGDhxI7u7u5OrqSiYmJmpdY6freZouON8VBew1nRkaGkoVFRVE1Fy2xcfHhwRBICsrKzIwMCBPT0+6ffs25zHJ4gGgGqysrJTuKFuwYAFNmDBBXN+3bx+5ublpNVMQBNq4cSNNnjyZevXqRZaWlvQf//Efas000ZV54eHh5OvrS5cvX2617/Lly+Tn59fuTR1t0XRx7q4q9r18+XIaMWIECYJAQ4YMoVWrVtEff/yhVk6Lt99+m3x8fOjUqVN06NAh8vLyopEjR4oFptUtYiy1PCKioKAgmjVrFlVWVlJiYiI5ODgoFQWeOXMmvfLKKz0mT9MF57uigH1XtLHlw+TcuXPp6aefptzcXCIiunnzJnl5edG7777LeUyyeACoBmNjYyooKBDXvb296bPPPhPX8/PzqXfv3lrNfPSXQGlpKa1cuZI8PT3JwMCAvL29ad26dVRZWam1PIVC0WZZhhanT58mhUKhVvs0WZy7q2Y4aDmGp0+fprlz55K5uTkZGRnR1KlTW5WaeRJ7e3ulO6/r6uro5ZdfpuHDh1NZWZnaZ8SklkfUXBi5pfj6gwcPyMDAQOlnZGdnU//+/XtMnqYLzndFAXtNZz76vhs0aBD98ssvSvsPHz7c4QGlFPJYz8cDQDW4urrSgQMHiKi5zpyhoSGlpaWJ+9WtEdcVme2VUjh+/DjNmDGD+vTpQ3369NFanqWlJR09erTd/ampqWRpaalW3nfffac0bd2jy759+9QaHGg6j6jtY3j//n3avHkzBQYGkoGBATk7O6uc16dPH7p69arStoaGBnrllVdo2LBhlJOTo1YbpZbXkpmXlyeuPzobDRFRQUGBWrOz6HoeUXMZqwEDBtCaNWvEbZ0ZsGk6T9OZgiCIX3laW1u3moUnPz+fjIyMOI9JFt8EooapU6di/vz52LJlC6Kjo2Fra4tRo0aJ+0+fPo1BgwZpNbNlNoI/Gz16NDZt2oSioiKsWrVKa3mvv/46ZsyYgV27dqGyslLcXllZiV27dmHmzJl44403VM7z8vJCUVGROPPAn5f+/fuD1LjRXdN5QNvH0NjYGBEREUhNTcWVK1cwffp0lfNcXFyQk5OjtE0ulyM5ORkuLi6YOHGiWu2TWh4ADBgwALm5ueL6jh07YGdnJ64XFxejX79+PSYPAF599VWkp6dj165dCA0NFcuidJSm87oiMzIyEq+99hoaGhpazcRSUlICc3NzzmOSxQNANSxduhTe3t6YN28ezp49i61bt0Imk4n7t2/frnaNPU1nPmlwYmpqiujoaK3lffHFFwgNDcW0adNgYWEBExMTmJiYwMLCAtOmTUNoaCg+//xzlfPeffddcQqqtjg6OmLjxo1aywOefAzd3NyQkJCgcl5oaCjWrVvXanvLoGj48OFqtU9qeQAwbdo03L59W1wPCwtTmnZr9+7deP7553tMXov+/fvj8OHDGDNmDEaMGKH2h5muztNk5owZM2BtbQ0zMzNMnjy51Z34P/74o1qvHanlsZ6P6wAyraisrER2drZScVYvLy+luSx7ioKCAjg6OrZ7NlVdjY2NqK2tbfdYNTY24tatWyrPxSq1PFXU1tZCJpPByMiox+ZpuuB8VxSw74rMFjU1NZDJZDA2NuY8Jkk8AOwk+r9aS/fv34efn59Gfkl1RaamC0vreqFqqfUX0P0+63peV2Rynu5lch5jzfgrYDVUVFRgxowZGDp0KKKjo1FZWYnRo0cjKCgIL7/8MgYPHtzqWqXuztR0YemuKH79OOoWWtb3/gI9r8+6nqcPbZRanj60UWp5TAK0ceeJvoqKiiJ3d3eKj48nHx8f8vX1pVGjRlFGRgZlZWVRYGAgTZw4UauZmi4s3RXFrx9H3ULL+t5fop7XZ13P04c2Si1PH9ootTzW8/EAUA329vZiCZPCwkISBIFSU1PF/ZmZmWRjY6PVTE0XltZ0nqYLLet6f4mk12ddz9OHNkotTx/aKLU81vPJtX0GUp+UlpbCw8MDQPOdasbGxhgwYIC439HREXfu3NFqZlVVFSwtLcX1tLQ0TJ06VVwfMmQIioqKtJY3fPhwCILQ5p19LdvVuVlC1/sLSK/Pup6nD22UWp4+tFFqeazn42sA1dDU1KRUokUmkyn94e7IXZ6azuzfv784UXx1dTXOnTsHPz8/cX9ZWRl69+6ttby+ffti/fr1yMvLa7Xk5uZi7969Kmd1Rfs0nQdIr8+6nqcPbZRanj60UWp5rOfjM4Bq+vbbb8W7qRobG7Fp0yaxIGtVVZXWM1sKS8fGxmL//v2dLiyt6bxHCy23paKiQq26X7reX0B6fdb1PH1oo9Ty9KGNUstjEqDN75/1jZOTU6uJyttatJlZW1tLERERZG5uTp6ennT8+HGl/YGBgfT3v/9da3k//fQTbdmypd395eXltGnTJq21T9N5RNLrs67n6UMbpZanD22UWh7r+bgOIGOMMcaYxPA1gGpIT09vdb3W5s2bMXDgQFhbW2P27Nmor6/XeuafERGOHDmCffv2aaQOlKbzgOavvqurqzWSpQ/9BaTVZ13P64pMzus8XW+j1PJYD9O9Jxz124QJE5ROoefk5JBcLqdZs2bRP/7xD7K1taVly5ZpNfPu3bv09ttv0zPPPEOzZs2ie/fukb+/PwmCQIIgkI2NDZ07d05rebt376aNGzcqbYuPjycjIyOSyWQ0fvx4Ki8v11r7NJ1HJL0+63qePrRRann60Eap5bGej88AquHcuXMYN26cuL5jxw74+Phg/fr1+OCDD/DVV1/hhx9+0GrmX//6V6Snp2PatGk4f/48QkJC8PDhQ6SnpyMzMxODBw/Gxx9/rLW8L774AjU1NeL6yZMnsXTpUixZsgQ//PADbt68ibi4uB7TXyn2Wdfz9KGNUsvThzZKLY9JgLZHoPrEyMiIbty4Ia77+/tTfHy8uJ6Xl0cKhUKrmZouLK3rhap1vb9E0uuzrufpQxullqcPbZRaHuv5eACoBkdHRzp27BgREdXX15OJiQkdPnxY3J+Tk0MWFhZazZTJZFRUVCSum5iY0PXr18X14uJitWad0HSesbExFRQUiOve3t702Wefiev5+fnUu3dvrbVP03lE0uuzrufpQxullqcPbZRaHuv5+CtgNbz00ktYvHgx/vWvfyEmJga9e/fG6NGjxf05OTlwdXXVaqamC0vreqFqXe8vIL0+63qePrRRann60Eap5bGejwtBqyEuLg6vvfYaAgICoFAokJSUBENDQ3H/hg0bEBwcrPVMTRer1uVC1ZpuX1fkSbHPup6nD22UWp4+tFFqeaxn4zqAHXDv3j0oFAqlT1sAUF5eDoVCoTSA6+5MZ2dnlT7p5eXlaSXv/v37mDNnDvbs2QNbW1usW7dO6Yzniy++iJCQECxatEgr7dN0HiC9Put6Xldkcl7n8roik/M6l8d6Ph4AMsYYY4xJDF8D2MNourC0rheq1sf+Aj27z7qepw9tlFqePrRRanlMArR5BwrTPE0Xltb1QtW63l8i6fVZ1/P0oY1Sy9OHNkotj/V8PADsYWxtbenUqVPiemxsLPn7+4vrP/zwAw0ePFhreVFRUeTu7k7x8fHk4+NDvr6+NGrUKMrIyKCsrCwKDAykiRMnaq19ms4jkl6fdT1PH9ootTx9aKPU8ljPx3cB9zB3796FjY2NuH7s2DGEhoaK697e3rh586bW8v75z3/i+++/R0BAACIjIzFgwAAcOXIEPj4+AICVK1di0qRJWmufpvMA6fVZ1/P0oY1Sy9OHNkotj/V8fA1gD2NjYyPe5fXgwQOcOXNGqeRIVVUVevXqpbW80tJSeHh4AGiuj2dsbIwBAwaI+x0dHXHnzh2ttU/TeYD0+qzrefrQRqnl6UMbpZbHej4eAPYwmi4sreuFqnW9v4D0+qzrefrQRqnl6UMbpZbHJEDb30Ezzbpz5w6NHj2aBEGgp556in766Sel/WPHjqXY2Fit5QmCQAkJCbR69WpavXo1GRsb05IlS8T1+Ph4taYr0vX+Ekmvz7qepw9tlFqePrRRanms5+M6gD2UpotV62qhak23ryvypNhnfcjThzZKLU8f2ii1PNZz8QCQMcYYY0xi+BpA1q2kWKxUin1mjDGm23gAyLrVp59+igsXLojr58+fR1RUFIKCgrB48WLs2bMHK1as0GILNU+KfWaMMabb+Ctg1q3s7OywZ88ejBw5EgDw8ccf49ixY0hLSwMAJCcnY9myZbh48aI2m6lRUuwzY4wx3cZnAFm3kmKxUin2mTHGmG7jASDrVlIsVirFPjPGGNNtPABk3UqKxUql2GfGGGO6jecCZt0qLi4Or732GgICAqBQKJCUlKRUl2rDhg0IDg7WYgs1T4p9Zowxptv4JhCmFVIsVirFPjPGGNNNPABkjDHGGJMYvgaQMcYYY0xieADIGGOMMSYxPABkjDHGGJMYHgAyxhhjjEkMDwAZY4wxxiSGB4CMMcYYYxLDA0DGGGOMMYnhASBjjDHGmMTwAJAxxhhjTGJ4AMgYY4wxJjE8AGSMMcYYkxgeADLGGGOMSQwPABljjDHGJOZ/AWvuHdEm8B8XAAAAAElFTkSuQmCC;clipPath=inset(0% 17% 0% 0.33%);" vertex="1" parent="1">
          <mxGeometry x="740" y="171.71" width="630" height="571.57" as="geometry" />
        </mxCell>
        <mxCell id="VPC5jBnNboCeoQjzzpag-11" value="" style="shape=image;verticalLabelPosition=bottom;labelBackgroundColor=default;verticalAlign=top;aspect=fixed;imageAspect=0;image=data:image/png,iVBORw0KGgoAAAANSUhEUgAAAoAAAAHgCAYAAAA10dzkAAAAOXRFWHRTb2Z0d2FyZQBNYXRwbG90bGliIHZlcnNpb24zLjMuNCwgaHR0cHM6Ly9tYXRwbG90bGliLm9yZy8QVMy6AAAACXBIWXMAAA9hAAAPYQGoP6dpAADOeElEQVR4nOzdf1xUVf4/8NfAwAw6/NBhchwECXErKn8BkhoCpsJHLPssalmroiystmaru8jOlODCtpS1iGu/1j62TG5ZW5uI5RbuJJ8P6xilxrKrpakpBoE48ksHmGFmvn/w9W6T9xxlHGcw3s8e9/HIe86999w79w5n7j3v+5Y4HA4HCCGEEELIoOHj7QYQQgghhBDPog4gIYQQQsggQx1AQgghhJBBhjqAhBBCCCGDDHUACSGEEEIGGeoAEkIIIYQMMtQBJIQQQggZZKgDSAghhBAyyFAHkBBCCCFkkKEOICGEEELIIEMdQEIIIYSQQYY6gIQQQgghgwx1AAkhhBBCBhnqABJCCCGEDDLUASSEEEIIGWSoA0gIIYSQQeH//u//cP/990Oj0UAikaC8vPyqy1RVVWHSpEmQyWSIjo5GWVnZDW+nJ1AHkBBCCCGDwqVLlzB+/Hi8+OKL11T/66+/Rnp6OlJSUlBbW4tf/OIX+OlPf4qPPvroBrf0xpM4HA6HtxtBCCGEEOJJEokEO3fuxIMPPsisk5eXhw8++AD//ve/hXkPP/ww2tra8OGHH3qglTfOgLoD2NLSgpUrVyIiIgIymQxqtRqpqanYv38/ACAyMhISiQQSiQS+vr7QaDTIyspCa2ursA6z2QytVosxY8ZALpdDpVIhKSkJu3btEuq89957mD17NpRKJSQSCWpraz29q4QQQghxg56eHnR0dDhNPT09bln3gQMHMHPmTKd5qampOHDggFvW701SbzfguzIyMmCxWKDX6xEVFYXm5mYYDAaYTCahTmFhIbKzs2Gz2XD8+HHk5ORg9erV2L59OwBgxYoVqKmpwZYtWxATEwOTyQSj0ei0jkuXLuHee+/FwoULkZ2d7VJbredPic6fP2k1c5lEhDDL3rSeZpad6GgUnZ+vnMpc5qhPN7PMAfGbvlbOzeAAiS+zbDjnNJJCIjrfzyE+HwCUdnZZs6+dWfZX8wnR+Rr/EOYycVIls4x1ND7rPc9cJlYayiyzM9cIZHT3is7/l5+cuUxoL3t9J/zZx/CcRHxbsRb25/hPfxuzDAA2nt4hOr9w9KPMZfLPvCE6/7HIhcxlDlvOic5P8wtjLvONhP2H4A47+/iqGLvcwPnWbJWwj5M/41oAACnjemBfdcCoXvb64vzbmWUV9iBm2ZOMz4TnDc1PROc3+PGXW3fmz/3elru9EC7edgBo4nzX/Pb0m6LzV0c+xN3eH06/fcW8pyIf4S7D2tYuNX+5eU1XLse7HgH2NXkjsP6GuqL4hdfxm9/8xmleQUEBNmzYcN3rbmpqwogRI5zmjRgxAh0dHejq6kJAQMB1b8NbBkwHsK2tDdXV1aiqqkJSUhIAYPTo0Zg8ebJTvcDAQKjVagBAWFgYli5dih07/vPHp6KiAps3b8acOXMA9N01jI2NdVrH4sWLAQCnT5++UbtDCCEDDq/zR8jNSqvVYu3atU7zZDKZl1pz8xgwj4AVCgUUCgXKy8uv+dZtQ0MDdu/ejYSEBGGeWq3Gnj170NnZ6ba23cjby4QQQsigY7e5bZLJZAgKCnKa3NUBVKvVaG5udprX3NyMoKCgm/ruHzCAOoBSqRRlZWXQ6/UICQnBtGnToNPpUFdX51QvLy8PCoUCAQEBGDVqFCQSCUpKSoTyrVu3wmg0QqlUIj4+HmvWrBHGELqquLgYwcHBTtOzm1+5rnUSQgghZGCbMmUKDAaD07y9e/diypQpXmqR+wyYDiDQNwawsbERFRUVSEtLE96989137uTm5qK2thZ1dXXCh5Keng6brW/szfTp03Hq1CkYDAbMnz8fR44cQWJiIoqKilxul1arRXt7u9OU98SK69pXQgghZNBy2N039cPFixdRW1srBH9+/fXXqK2tRX19PYC+v/dLliwR6q9YsQKnTp3CunXr8OWXX+Kll17CX/7yF6xZs8Zth8JbBlQHEADkcjlmzZqF9evXw2g0IjMzEwUFBUJ5aGgooqOjMXbsWMyYMQOlpaUwGo3Yt2+fUMfPzw+JiYnIy8tDZWUlCgsLUVRUBIvF4lKbbuTtZUIIIWTQsdvdN/XDwYMHMXHiREycOBEAsHbtWkycOBH5+fkAgG+//VboDALArbfeig8++AB79+7F+PHj8fvf/x7/8z//g9TUVPcdCy8ZMEEgLDExMdw3dfv69sXJdXV1cdfR29uL7u5u+Pv7u6VdrGjfdw//gbnMb+KeYpblSkYzy86ERorO7+JElf7IwY5uZPHjvBGSFwPqy1nugo/4xRnJiWDkvZjSLmH/ZlkwZKzo/Keq2L/UnkvaxCzTMNpo92NH+gY52O3j7DL+Jhdfzp8Tmd3GifTl/bLT2MUv+6P+7C/SW+y8eFQ2XuQrS5SdfY2qGdG+QzhR5beC/WPNwmne3b7i44iPSIYwlxnmYB+nXs6ZbZaIl91pYX+SZzgX7MsOxtgkiRURDvd8B152itGOYZxo/oHCxmmixtb/+yMR9quEPotQu7AdADgm6/9yvOtksEhOTgbv9cdiWT6Sk5Px+eef38BWeceA6QCaTCYsWLAAy5cvx7hx4xAYGIiDBw9i48aNmDdvnlCvs7MTTU1NcDgcOHv2LNatWweVSoWpU/teiZKcnIxFixYhLi4OSqUSR48ehU6nQ0pKCoKC+iLgLly4gPr6ejQ29r1e5dixYwD6BntejjAmhJAfGnd3/ghxlaOfj26J+w2YDqBCoUBCQgI2bdqEkydPwmq1Ijw8HNnZ2dDpdEK9/Px84VatSqVCfHw8KisroVT2vc8tNTUVer0eOp0OZrMZGo0Gc+fOFZYB+l4Vs2zZMuHfDz/8MAD3vTeIEEIIIRz9fHRL3G/AdABlMhmKi4tRXFzMrHMt7+3TarXQarXcOpmZmcjMzOxnCwkhhBBCfhgGTAeQEEIIIYMEPQL2OuoAEkIIIcSz7Pz0kuTGow6gi1h5fXmRvgUHf8ssez42n1l2ViL++pqpFvaA7jZO0CYr/okXv8aOsQasnMCy4XbxSDVe9F0HJ7gtgBMi7MMoe4YT6XsH581AjYwDMowT6Tuxm/2lxrvY/iUTLw3i/EgO4JR1cD5/1vGN6mXv10UXXxilEU87zDWE8xlfZJw3S287y1zmzWPhzLIeznn4MQJF5z/Qzc6z/Yk/+8Cn9LKvogs28Wu5jhEdDgBBnCjbb33Fy76RWDGxt/+RqjwhjHZorAP/Dk8o5/xsdyHwXcZ7hYGbKVw4vIED/yMhHkQdQEIIGSTc3fkjxGX0CNjrqANICCGEEM+iKGCvG3CZQAghhBBCyI1FdwAJIYQQ4lH0ImjvG1B3AFtaWrBy5UpERERAJpNBrVYjNTUV+/fvBwBERkZCIpFAIpHA19cXGo0GWVlZaG1tFdZhNpuh1WoxZswYyOVyqFQqJCUlYdeuXaLbXLFiBSQSCUpLSz2xi4QQQgjxUi5g8h8D6g5gRkYGLBYL9Ho9oqKi0NzcDIPBAJPJJNQpLCxEdnY2bDYbjh8/jpycHKxevRrbt28H0Nehq6mpwZYtWxATEwOTyQSj0ei0jst27tyJTz75BBqNpt9tfdN6WnQ+L6cvL9L3V4cKmWV779SJzj/GTnGKEE6EPSuFKC9LJC8VLC/yrcuF1JO89Sl72YUjGfkdfTg5WE/7sXdsfE+P6Hwb53fT5zL2IHteLmAbo43+EvZCHZyrN4QXPcw4HK2cn4MKF6MbW90cSalg5DJ9nRPpq+ZEevIi2Fltr5KxLzzecaqRsnMIWxmfJe8XOi+CmXU+HZRa8CNOrmVXsPIpN/gNqPsLopo415ArUbauhNioOd9pPK58t/LevkAGnwHTAWxra0N1dTWqqqqQlJQEABg9ejQmT57sVC8wMFDI1xsWFoalS5dix44dQnlFRQU2b96MOXPmAOi7axgbG3vF9hoaGvD444/jo48+Qnp6+o3aLUIIGTDc3fkjxGX0CNjrBsxPNIVCAYVCgfLycvQw7rx8X0NDA3bv3o2EhARhnlqtxp49e9DZ2clczm63Y/HixcjNzcWdd9551e309PSgo6PDabLTyUsIIYS4xm5z30RcMmA6gFKpFGVlZdDr9QgJCcG0adOg0+lQV1fnVC8vLw8KhQIBAQEYNWoUJBIJSkpKhPKtW7fCaDRCqVQiPj4ea9asEcYQXvbss89CKpVi9erV19S24uJiBAcHO03NF7+5/p0mhBBCCPGCAdMBBPrGADY2NqKiogJpaWmoqqrCpEmTUFZWJtTJzc1FbW0t6urqYDAYAADp6emw2fp+BUyfPh2nTp2CwWDA/PnzceTIESQmJqKoqAgAcOjQIWzevBllZWWQcMZXfZdWq0V7e7vTNEIxyr07TwghhAwWDrv7JuKSATMG8DK5XI5Zs2Zh1qxZWL9+PX7605+ioKAAmZmZAIDQ0FBER0cDAMaOHYvS0lJMmTIF+/btw8yZMwEAfn5+SExMRGJiIvLy8vDb3/4WhYWFyMvLQ3V1Nc6dO4eIiAhhmzabDb/85S9RWlqK06dPX9EmmUwG2fcGfp/qbBJt/5nQSOa+sVK6AexADwCYdeR3ovONnLRzX/pYmWW8y8WPEQrCGlQOAP/dxR7pf9pf/BSzStiDmHm/Sur92J325fENovNf/4zdWQ/iPD34xpc92P++KPFtfV4fxlxGyhnr/Y2PeKTCt75AjE18aPnXnM/4Lgd7OPotjEHnZh/2sR1pdSGnG4AhLnw3D7GzD9S8u9l33nf9SzwQJNzOHlJynjNsv17KPh6sFIJDOI+jWqTs6+SWXvHj2+DH/ormDeh/t/WfzLJfB8ezF3QBK5DGKmEHnA0UlyS83JL9j5hw7SoBznK+11hcTTvHuv49jqJ3vW7AdQC/LyYmBuXl5cxyX9++L9WuLnaezZiYGPT29qK7uxuLFy8WOoqXpaamYvHixVi2bJlb2nyzYnX+bgRXItgGClbn70Zgdf6IM1bn70bg5Y8e6Nzd+eMZ6J2/gcKVzp+rBkznjwwIA6YDaDKZsGDBAixfvhzjxo1DYGAgDh48iI0bN2LevHlCvc7OTjQ1NcHhcODs2bNYt24dVCoVpk6dCgBITk7GokWLEBcXB6VSiaNHj0Kn0yElJQVBQUEAAKVS6bRtPz8/qNVq3HbbbZ7bYUIIIWSwoke3XjdgOoAKhQIJCQnYtGkTTp48CavVivDwcGRnZ0On+8/j0fz8fOTn971PT6VSIT4+HpWVlUKnLjU1FXq9HjqdDmazGRqNBnPnzhWWIYQQQoiX0SNgrxswHUCZTIbi4mIUFxcz64iNz/s+rVYLrVbbr21fy3oJIYQQQn4oBkwHkBBCCCGDg8NB7+/zNuoAuihfOVV0fhcnWnaqhf0Wfl5aN1a0b8HB3zKXeWWi5x5589qeJOkQnf95bxBzmYucMOChnHaUMaJ9zZxIv8zZzcyyv+xVi85//3QYMwIz2sp+rBHI+cIzy8UvRV46qrUhrcyyva23MMvafcUbL+Ns6xQjmvtq5t12tt/LtDLaBwD6I+LBHj6cc+YLKfsE7eYsN4xxPCaPFH8DAAD8o0n8nAGA8F521HYAIwr8Kx/2cZdzPq8XhsSJF1gdaOFEN7tiBCP0Vc5IzTiQjOCEUvPSBLK4ssc/feCCC0uxUzrynHfzZ39daAyg1w2o9wAScjOgfJrkZuXuzh8h5OZFdwAJIYQQ4lkUBOJ11AEkhBBCiGfRI2Cvo0fAhBBCCCGDjMc6gC0tLVi5ciUiIiIgk8mgVquRmpqK/fv3AwAiIyMhkUggkUjg6+sLjUaDrKwstLb+Z6C72WyGVqvFmDFjIJfLoVKpkJSUhF27dgl1Lq/j+9Nzzz3nqV0lhBBCCI/d5r6JuMRjj4AzMjJgsVig1+sRFRWF5uZmGAwGmEwmoU5hYSGys7Nhs9lw/Phx5OTkYPXq1di+fTsAYMWKFaipqcGWLVsQExMDk8kEo9HotI5vv/3Wabt/+9vfkJWVhYyMDLfuz1GfbtH5P3LImcu0sVOBIoRzDrPy+vIifVd8Xsgsc3ScF5/fy8lxJWH/Vtg64yVm2T6IR/uO40REnpWy059pGDlTAeBfMvHT2YeT4u71v7OjNi2cn0esoq/92Qv5cH5vBTMi+lo558zudnakLyeQlhmpyFvG1S+Kt4+zU7Q9zpgfxomkPsE4vry8qP6csqGc5K12xvF49zz7nPHnfF4WCfu8bvPtf8o/C+fzOsZ84YADY9mXnks6GPt8yTHwA05Uve59DHm7pf8HV79rOLd81Qvi811Jp8lLfexx9AjY6zzSAWxra0N1dTWqqqqQlJQEABg9ejQmT57sVC8wMBBqdd+Xa1hYGJYuXYodO3YI5RUVFdi8eTPmzJkDoO+uYWxsrNM6Li9/2a5du5CSkoKoqChhXl5eHnbu3IlvvvkGarUajz76KPLz8+HnR3lXydXRuAlys3J3548QcvPyyN8yhUIBhUKB8vJy9PT0XNMyDQ0N2L17NxISEoR5arUae/bsQWdn5zWto7m5GR988AGysrKc5gcGBqKsrAxHjx7F5s2b8eqrr2LTpk3XvkOEEEIIcZ3d7r6JuMQjHUCpVIqysjLo9XqEhIRg2rRp0Ol0qKurc6qXl5cHhUKBgIAAjBo1ChKJBCUlJUL51q1bYTQaoVQqER8fjzVr1ghjCMXo9XoEBgbixz/+sdP8p556ClOnTkVkZCTuv/9+/OpXv8Jf/vIX5np6enrQ0dHhNNnoLeaEEEKIaxx2903EJR57mpWRkYHGxkZUVFQgLS0NVVVVmDRpEsrKyoQ6ubm5qK2tRV1dHQwGAwAgPT0dNltfZ2v69Ok4deoUDAYD5s+fjyNHjiAxMRFFRUWi23zttdfw6KOPQi53Hpf39ttvY9q0aVCr1VAoFHjqqadQX1/PbHtxcTGCg4Odprr2Y9d5RAghhBBCvMOjw5nkcjlmzZqF9evXw2g0IjMzEwUFBUJ5aGgooqOjMXbsWMyYMQOlpaUwGo3Yt2+fUMfPzw+JiYnIy8tDZWUlCgsLUVRUBIvFOYChuroax44dw09/+lOn+QcOHMCjjz6KOXPm4P3338fnn3+OJ5988orlv0ur1aK9vd1pGhd8m5uOCiGEEDLI0CNgr/Pqi6BjYmJQXl7OLPf17Qsv6+rq4q6jt7cX3d3d8Pf/T+jbtm3bEBsbi/HjxzvVNxqNGD16NJ588klh3pkzZ7jtlMlkkMmc84n6SHzg6GfmR15tP06hK6c3K9IXACRBoeIFl9pc2BI7WpLHxonM5eXg7PDhhFkyuDsWkfd58CJOuet0oZE+nG250gzer0FPxg74cR/piLeSNyBjiN21D6VH4t4zR8FpRxsjBJv3mfDOGdZVcsoPiPLQhzmQAk5ZOnzZRzjE1v9vXofbv21427rJUcfN6zzSATSZTFiwYAGWL1+OcePGITAwEAcPHsTGjRsxb948oV5nZyeamprgcDhw9uxZrFu3DiqVClOnTgUAJCcnY9GiRYiLi4NSqcTRo0eh0+mQkpKCoKD/vG6ko6MD77zzDn7/+99f0ZaxY8eivr4eb731FuLj4/HBBx9g586dN/4gEEKIl3mq80cIGfg80gFUKBRISEjApk2bcPLkSVitVoSHhyM7Oxs6nU6ol5+fj/z8vnfbqVQqxMfHo7KyEkqlEgCQmpoKvV4PnU4Hs9kMjUaDuXPnCstc9tZbb8HhcGDRokVXtOWBBx7AmjVrsGrVKvT09CA9PR3r16/Hhg0bbtwBIIQQQojAQYGUXueRDqBMJkNxcTGKi4uZdU6fPn3V9Wi1Wmi12qvWy8nJQU5ODrN848aN2Lhxo9O8X/ziF1ddLyGEEELcwMuPgF988UU899xzaGpqwvjx47Fly5Yr3k38XaWlpXj55ZdRX1+P0NBQzJ8/H8XFxVcEmd5M6J22hBBCCBk03n77baxduxYFBQU4fPgwxo8fj9TUVJw7d060/ptvvolf//rXKCgowBdffIFt27bh7bffdnqCeTOiDiAhhBBCPMuL7wEsKSlBdnY2li1bhpiYGLzyyisYMmQIXnvtNdH6RqMR06ZNwyOPPILIyEjMnj0bixYtwqeffnq9R8GrvBoFfDOzOsRjsHjRvLxEc7zYMT8XIsu4eX0Z0b6SoSHMRWzfHO13GwD2L4xhUnZGGJOdHekbxEn8LWWczryRJnLO58XLtcrCi8zkRe2yytS97IUa/dgbG8L5TmRFWfPaJ2MXuZ2Vk3falShrsw/vOLFXyDqEvC9N3inDivQFACmjGbzzifdnr4uR9PWIP5DURWOvrsVIRr53Hk8+1HQlcemASs/sxkfAPT09V2QZE3t7BwBYLBYcOnTIaTiZj48PZs6ciQMHDoiuf+rUqfjzn/+MTz/9FJMnT8apU6ewZ88eLF682G374A10B5AQQgYJ6vyRHyKxZA2smIPz58/DZrNhxIgRTvNHjBiBpqYm0WUeeeQRFBYW4t5774Wfnx/GjBmD5ORkegRMCCGEENIvbnwELJas4VoCRq9VVVUVfve73+Gll17C4cOH8d577+GDDz5gZiG7WdAjYEIIIYR4lhsfAbMe94oJDQ2Fr68vmpubneY3NzdDrVaLLrN+/XosXrxYyCx2991349KlS8jJycGTTz4JH5+b817azdlqNzt9+jQkEglqa2u93RRCCCGE3CD+/v6IjY2FwWAQ5tntdhgMBkyZMkV0GbPZfEUn73KmMgcjHuBm4LEOYEtLC1auXImIiAjIZDKo1WqkpqZi//79AIDIyEhIJBJIJBL4+vpCo9EgKysLra2twjrMZjO0Wi3GjBkDuVwOlUqFpKQk7Nq1S6hzeR3fn5577jlP7SohhBBCeLwYBbx27Vq8+uqr0Ov1+OKLL7By5UpcunQJy5YtAwAsWbLE6RHy/fffj5dffhlvvfUWvv76a+zduxfr16/H/fffL3QEb0YeewSckZEBi8UCvV6PqKgoNDc3w2AwwGQyCXUKCwuRnZ0Nm82G48ePIycnB6tXr8b27dsBACtWrEBNTQ22bNmCmJgYmEwmGI1Gp3V8++23Ttv929/+hqysLGRkZLh1fwIk4h86b4g1O6MxwAl8hc2VrI+cSErmdjiRvr6jYphlvOhRVhRjgy2AucxFKTtUTcEJi+xlzOd9Jt2u5ODt/yJXxdqtJs6x4B133n6xino5y/DyM7ubhZODlxWZHcA5FsM4OV0vcR7dsFbJOs8A/rkxzMZu5FlGRHcQ529bD+czUTjEW3JI7oNwN6eDY52HQ26CGyMyzt2begf7OyqBMd/fg3HArnyMjOBw7/Dii6AfeughtLS0ID8/H01NTZgwYQI+/PBDITCkvr7e6Y7fU089BYlEgqeeegoNDQ1QqVS4//778fTTT3trF9zCIx3AtrY2VFdXo6qqCklJSQCA0aNHX/HW7cDAQOEZfFhYGJYuXYodO3YI5RUVFdi8eTPmzJkDoO+uYWxsrNM6vv8Mf9euXUhJSUFUVJQw79NPP8XPfvYzfPHFF7jrrrvw5JNPum9nCSFkgHJ354+Qm9WqVauwatUq0bKqqiqnf0ulUhQUFKCgoMADLfMcjzwCVigUUCgUKC8vv+JdPSwNDQ3YvXs3EhL+81tLrVZjz5496OzsvKZ1NDc344MPPkBWVpYw7+LFi5g7dy5iYmJw6NAhbNiwAb/61a+46+np6UFHR4fTZKM8hoQQQohr7Hb3TcQlHukASqVSlJWVQa/XIyQkBNOmTYNOp0NdXZ1Tvby8PCgUCgQEBGDUqFGQSCQoKSkRyrdu3Qqj0QilUon4+HisWbNGGEMoRq/XIzAwED/+8Y+FeW+++Sbsdju2bduGO++8E3PnzkVubi63/WLvGKpt/9LFo0EIIYQMcl4cA0j6eCwIJCMjA42NjaioqEBaWhqqqqowadIklJWVCXVyc3NRW1uLuro6IUInPT0dNlvf3bbp06fj1KlTMBgMmD9/Po4cOYLExETmu3hee+01PProo07Jmr/44guMGzfOaR4r8ucysXcMTQi+3dVDQQghhBDiVR59DYxcLsesWbOwfv16GI1GZGZmOj1TDw0NRXR0NMaOHYsZM2agtLQURqMR+/btE+r4+fkhMTEReXl5qKysRGFhIYqKimCxOKc+q66uxrFjx4T39lwPmUyGoKAgp8mXEQRCCCGEkKugR8Be59UXQcfExKC8vJxZfjm8uquLHT8bExOD3t5edHd3w9/fX5i/bds2xMbGYvz48U7177jjDmzfvh3d3d3CXcBPPvmk320fzjh0vpwoK14kpYyz3H93iXc2j3Hee7l1xkvMMl5+URZexOmKzwuZZS9Myhedf9LftXyvJk7IfQjje+Ai52cOL58m67MM4HzfdHB+F/CibFlNdOWzAoBgzhDVEEZULO8zUfNCXzlc+ZnUzIl8HsFoh5wTzdnox94vXiQtKz8vL5CSdz51c6KbWaeUnHOuRdjYER0H5eItqfcDxlrcGwrKOkd5bz0YKKycz8SVNwR8+Z2/QWJmiMxz9S6MK9eWbSDlAqZHt17nkTuAJpMJM2bMwJ///GfU1dXh66+/xjvvvIONGzdi3rx5Qr3Ozk40NTXh22+/xaefforc3FyoVCpMnToVAJCcnIw//vGPOHToEE6fPo09e/ZAp9MhJSUFQUFBwno6OjrwzjvviN79e+SRRyCRSJCdnY2jR49iz549eP7552/8QSCEEC9zd+ePEHLz8sgdQIVCgYSEBGzatAknT56E1WpFeHg4srOznZIp5+fnIz+/746RSqVCfHw8KisroVQqAQCpqanQ6/XQ6XQwm83QaDSYO3eusMxlb731FhwOBxYtWiTalt27d2PFihWYOHEiYmJi8Oyzz7r9PYGEEEIIYaBHt17nkQ6gTCZDcXExiouLmXVOnz591fVotdprSvCck5ODnJwcZvk999xzRdq3mzmdCyGEEHJToUfAXke5gAkhhBBCBhmvBoEQQgghZBCiR8BeRx1AF0kZGVUv+LBP6uF29g3XLk501ml/8Y8pSdLBXGYfgphlLLzbwbxoVFakLwCsOiweIfz6BPYyvKhdXhRbCyMsrl3C/kwmcMJAWxjRqLzou1BOtGyQnR2a+79y8fkTLOytuZqf9xtGVKymlz0M4qKPaxuLsvQ/fJi3X03Mbyz2QiM5TejkfJisazLawj6fLnJyCw/h/MEbzdjpM4wcwQDQ7suOOWZFbXf6SHDBzW+wCmccD5N04D9gauc00ZUIfFe6NEEuJpXiRbCzqDjXuMdRB9DrBv4VSgghxC3c3fkjhNy86A4gIYQQQjyLAi+9jjqAhBBCCPEsegTsdW55BNzS0oKVK1ciIiICMpkMarUaqamp2L9/PwAgMjISEokEEokEvr6+0Gg0yMrKQmtrq7AOs9kMrVaLMWPGQC6XQ6VSISkpCbt27RLqvPfee5g9ezaUSiUkEskVr3IBgO7ubvz85z+HUqmEQqFARkYGmpub3bGbhBBCCCE/CG65A5iRkQGLxQK9Xo+oqCg0NzfDYDDAZDIJdQoLC5GdnQ2bzYbjx48jJycHq1evxvbt2wEAK1asQE1NDbZs2YKYmBiYTCYYjUandVy6dAn33nsvFi5ciOzsbNG2rFmzBh988AHeeecdBAcHY9WqVfjxj38sdEbdxc8hPgI3kpPvy9U0PB2MbvrnvexAj3G97DRRNsaA+WHSHuYyDbYAZhkvhRgr2GNJLTt9XG/5C8yyivXsznwTY3xTVC+7fa2cK+BWC3t09pcy8Y3xUqZZOYEKEy3ibVRwfiWf5aQ4C+A8XWGdhx2cQA+Li+fuV4wAJgBIY8z/7+Hsz/jdCyNE5/OaxzuGZk7Qxmir+HK89GFtnDF2rb7sbY1kDM7nBeac46TMO+3HPncX9ro3SZuNcTx4wVwDRRenjQ8pm/q9Pld3mXfesKT6tV690vcEcwLRPI7uAHrddXcA29raUF1djaqqKiQlJQEARo8ejcmTJzvVCwwMhFqtBgCEhYVh6dKl2LFjh1BeUVGBzZs3Y86cOQD67hrGxsY6rWPx4sUA2C+Nbm9vx7Zt2/Dmm29ixoy+rIt/+tOfcMcdd+CTTz7BPffcA5vNhpycHHz88cdoampCREQEHnvsMTzxxBPXeyjIIMHq/BEy0Lm780eunyudvx8EehG01133bzSFQgGFQoHy8nL09LDvIH1XQ0MDdu/ejYSEBGGeWq3Gnj170NnZ6XJbDh06BKvVipkzZwrzbr/9dkRERODAgQMAALvdjlGjRuGdd97B0aNHkZ+fD51Oh7/85S8ub5cQQggh5GZy3R1AqVSKsrIy6PV6hISEYNq0adDpdKirq3Oql5eXB4VCgYCAAIwaNQoSiQQlJSVC+datW2E0GqFUKhEfH481a9b0+7FtU1MT/P39ERIS4jR/xIgRaGrqu53v5+eH3/zmN4iLi8Ott96KRx99FMuWLeN2AHt6etDR0eE09ToG0K10Qggh5GZit7tvIi5xyyiNjIwMNDY2oqKiAmlpaaiqqsKkSZNQVlYm1MnNzUVtbS3q6upgMBgAAOnp6bDZ+jpS06dPx6lTp2AwGDB//nwcOXIEiYmJKCoqckcTnbz44ouIjY2FSqWCQqHA1q1bUV9fz6xfXFyM4OBgp+kf7Ufc3i5CCCFkUHA43DcRl7htmK5cLsesWbOwfv16GI1GZGZmoqCgQCgPDQ1FdHQ0xo4dixkzZqC0tBRGoxH79u0T6vj5+SExMRF5eXmorKxEYWEhioqKYLFYrqkNarUaFosFbW1tTvObm5uF8YdvvfUWfvWrXyErKwuVlZWora3FsmXLuNvQarVob293mu4NvrMfR4cQQgghAroD6HU37D2AMTExKC8vZ5b7+vaNfO3qYg9KjomJQW9vL7q7u+Hv73/VbcbGxsLPzw8GgwEZGRkAgGPHjqG+vh5TpkwBAOzfvx9Tp07FY489Jix38uRJ7nplMhlkMpnTvBEOKSDyw4P3W4QVzQsAMs6CrMV4UXZnpew0UaxUWyY7ezTyRU7EoT+n7aw28iJ9pQ+uYpaNeDKPWdZql4nO50Vfs2OlgTP+4seDF2F7nnNF2Tm/t4YwvsOkjGhzgH+u8dKp+TAW5P0aZJ9NfK4EDzc2s6Pb/RgN4f0JqOdESw/hRkuLt97EuRZc9S1jnWpOFDBvn0cyruVqHwXutV3qT9OuqsNXvO1+N8GNmWGckTwS1oXC4cnAZ6l//4chfe1Hr/4l/3HdZ4PJZMKCBQuwfPlyjBs3DoGBgTh48CA2btyIefPmCfU6OzvR1NQEh8OBs2fPYt26dVCpVJg6dSoAIDk5GYsWLUJcXByUSiWOHj0KnU6HlJQUBAX1/UG4cOEC6uvr0djYCKCvcwf03flTq9UIDg5GVlYW1q5di+HDhyMoKAiPP/44pkyZgnvuuQcAMHbsWLz++uv46KOPcOutt2L79u347LPPcOutt17voSCEkAHN3Z0/QlxGd+687ro7gAqFAgkJCdi0aRNOnjwJq9WK8PBwZGdnQ6fTCfXy8/ORn9/3TjiVSoX4+HhUVlZCqVQCAFJTU6HX66HT6WA2m6HRaDB37lxhGaDvVTHLli0T/v3www8DAAoKCrBhwwYAwKZNm+Dj44OMjAz09PQgNTUVL730krDMz372M3z++ed46KGHIJFIsGjRIjz22GP429/+dr2HghBCCCHXgl4D43XX3QGUyWQoLi5GcXExsw7rvX3fpdVqodVquXUyMzORmZnJrSOXy/Hiiy/ixRdfFC2XyWT405/+hD/96U9O83ntJ4QQQgj5IaEBAYQQQgjxKIf9Jhgk+gNHHUBCCCGEeBaNAfQ66gC6qNlX/OS1S1zLz6rkRPvV+4lH2Q1lrw6aXnZS2g4f8QjBIE6eSIWdHflo8mVHD7MicHk5fXmRvtOOPMss+3q8eN7hC5xUS0M5n0kPo+2jLewvrmapa3GAZsZiqaHnmMt8aBLPiwsAIxl5bAHAhxE/fNqPfaDkLv5Yd+Vo1ErZeadZgZm8KGVeNKqZE9DbxYjM5Ua3ctbHuYSYUeBNnIhjqQvn7v/6DkU05/yNZ6+SiRVxHnQT/H0fbWV/T15oYX/DRjDm+3rwplblxVBu+Y9E5vHeDkAGH+oAEkLIIMHr/BHiURQE4nXUASSEEEKIZ9EYQK/z5HsrCSGEEELIAEB3AAkhhBDiWRQE4nUeuwPY0tKClStXIiIiAjKZDGq1Gqmpqdi/fz8AIDIyEhKJBBKJBL6+vtBoNMjKykJra6uwDrPZDK1WizFjxkAul0OlUiEpKQm7du0S6rz33nuYPXs2lEolJBIJamtrndpx4cIFPP7447jtttsQEBCAiIgIrF69Gu3t7R45DoQQQsigR7mAvc5jdwAzMjJgsVig1+sRFRWF5uZmGAwGmEwmoU5hYSGys7Nhs9lw/Phx5OTkYPXq1di+fTsAYMWKFaipqcGWLVsQExMDk8kEo9HotI5Lly7h3nvvxcKFC5GdnX1FOxobG9HY2Ijnn38eMTExOHPmDFasWIHGxka8++6717w/fzWfEJ2/YMhY5jK81JIjHezC5fENovPLPhvFXOZfsv5/tFLO6cCOlQNCONdfCyOwtIkTmcvK6QuwI30B4Cf/LBSd/3TseuYyQZzQTFbRONV55jI7OlTMMp7zEvEI7J0X2JG+vIjTJk40crRVPANyr4T9oShsro3XceWrmRXBCgDZj4rnDn/lDXbksIKzLc5piC5GO9o5F/L0nh5m2X6ZnFlmZjSEl2ebF9HZLBG/YhvkQKiDvdcPslfJdInRDvtNMMCoQcr+zvvCwc5JPYExX9nb/zOel6uch3eduHtb5IfJIx3AtrY2VFdXo6qqCklJSQCA0aNHY/LkyU71AgMDoVarAQBhYWFYunQpduzYIZRXVFRg8+bNmDNnDoC+u4axsbFO61i8eDEAdvaRu+66C3/961+Ff48ZMwZPP/00fvKTn6C3txdSzhcCIYTczHidP0I8inPTg3iGR36jKRQKKBQKlJeXo4fzC/m7GhoasHv3biQkJAjz1Go19uzZg87OTre2r729HUFBQczOX09PDzo6OpwmO4WwE0IIIa6hR8Be55EOoFQqRVlZGfR6PUJCQjBt2jTodDrU1dU51cvLy4NCoUBAQABGjRoFiUSCkpISoXzr1q0wGo1QKpWIj4/HmjVrhDGErjp//jyKioqQk5PDrFNcXIzg4GCnyWT+9rq2SwghhBDvePHFFxEZGQm5XI6EhAR8+umn3PptbW34+c9/jpEjR0Imk+FHP/oR9uzZ46HW3hgeG6WRkZGBxsZGVFRUIC0tDVVVVZg0aRLKysqEOrm5uaitrUVdXR0MBgMAID09HTZb3/io6dOn49SpUzAYDJg/fz6OHDmCxMREFBUVudSmjo4OpKenIyYmBhs2bGDW02q1aG9vd5qUQ0a6tE1CCCFk0LM73Df109tvv421a9eioKAAhw8fxvjx45Gamopz58QzL1ksFsyaNQunT5/Gu+++i2PHjuHVV19FWFjY9R4Fr/LoMF25XI5Zs2Zh/fr1MBqNyMzMREFBgVAeGhqK6OhojB07FjNmzEBpaSmMRiP27dsn1PHz80NiYiLy8vJQWVmJwsJCFBUVwWKx9KstnZ2dSEtLQ2BgIHbu3Ak/P3YyKZlMhqCgIKfJh5PyjRBCCCEcDrv7pn4qKSlBdnY2li1bhpiYGLzyyisYMmQIXnvtNdH6r732Gi5cuIDy8nJMmzYNkZGRSEpKwvjx46/3KHiVVyMeYmJiUF5eziz3/f85Zru6xCP/Lq+jt7cX3d3d8Pf3v6btdnR0IDU1FTKZDBUVFZDL2dF5LBr/ENH5T1WtYS7zTNImZhkrPysAvM6I9jVL2Mv4cEJEWSXsTMD8soucvnC7RPzijOplL8SLVOPl9WVF+z55iH2H+PlYdlTxWIv48f1jp5K5DC/ilHcMhzMG51/kfMZSzmfcwzlOn/uI/9jhbcvOyUnLw8pxzMPLtVvypvi1OoSzvoucpvNCIu6xdIvO/0jOjlKv8Wd/l/AOBevYh/WyG3+Wkwy4kxG33ynpRYSD3X5XsL+HBn7IKe/7hBeBzXJC1v8TXu7iEDZX8vry3uYwWFgsFhw6dAharVaY5+Pjg5kzZ+LAgQOiy1RUVGDKlCn4+c9/jl27dkGlUuGRRx5BXl6e0E+5GXmkA2gymbBgwQIsX74c48aNQ2BgIA4ePIiNGzdi3rx5Qr3Ozk40NTXB4XDg7NmzWLduHVQqFaZOnQoASE5OxqJFixAXFwelUomjR49Cp9MhJSUFQUF9IfsXLlxAfX09GhsbAQDHjh0D0BdAolar0dHRgdmzZ8NsNuPPf/6zENQBACqV6qb+MAkhhMfdnT9CXObGVHA9PT1XBJjKZDLIZFee7+fPn4fNZsOIEc6v2BoxYgS+/PJL0fWfOnUKH3/8MR599FHs2bMHJ06cwGOPPQar1er0FPNm47Eo4ISEBGzatAnTp0/HXXfdhfXr1yM7OxsvvPCCUC8/Px8jR46ERqPB3LlzMXToUFRWVkKp7LvjkpqaCr1ej9mzZ+OOO+7A448/jtTUVPzlL38R1lFRUYGJEyciPT0dAPDwww9j4sSJeOWVVwAAhw8fRk1NDf71r38hOjoaI0eOFKazZ8964nAQQgghg5rDbnfbJBaoWVxc7La22u123HLLLdi6dStiY2Px0EMP4cknnxT6FTcrj9wBlMlkKC4u5n4grPf2fZdWq3W6bSsmMzMTmZmZzPLk5GQ46P1DhBBCyA+CVqvF2rVrneaJ3f0D+mINfH190dzc7DS/ublZeA/x940cORJ+fn5OTwjvuOMONDU1wWKxXPPws4GGIhkIIYQQ4llujAIWC9RkdQD9/f0RGxsrvGkE6LvDZzAYMGXKFNFlpk2bhhMnTsD+nXcOHj9+HCNHjrxpO38AdQAJIYQQ4mlejAJeu3YtXn31Vej1enzxxRdYuXIlLl26hGXLlgEAlixZ4vS0ceXKlbhw4QKeeOIJHD9+HB988AF+97vf4ec//7nbDoc3UN4zF8VJxSNBn+NE+t7BeVPNaT928EkQI3w0c3azeAGA1/8ufiubR855Mt7NiThjv0AHmMBIWNnKOfPEM9X2GcppIyuvLy/S91eHxPMHA8BLk8SX+1Ev+7OK9e1glgUFiUeVAsAbjBzC0ZyDkRjeyCwrb9SwF2QYxsmLPDXgQr/XBwBLb/2m38sEcD7jMEaIOC8S/Z5eM7PsU192/PBhP/GI3uUh7Ovus+ZbmGX+nKEnY4e2i87fax/GXEbJ+bxkEnY0cigvHN0FGsZnEm4d+DGn7v4DqHTh2M7lXMc8Q12IHr7VQlkzAOChhx5CS0sL8vPz0dTUhAkTJuDDDz8UAkPq6+vh4/OfL5Xw8HB89NFHWLNmDcaNG4ewsDA88cQTyMvL89YuuAV1AAkhZJBwd+ePEJe5MQrYFatWrcKqVatEy6qqqq6YN2XKFHzyySc3uFWeRR1AQgghhHgW5fD1OhoDSAghhBAyyNAdQEIIIYR4lpcfARMP3gFsaWnBypUrERERAZlMBrVajdTUVOzfvx8AEBkZCYlEAolEAl9fX2g0GmRlZaG1tVVYh9lshlarxZgxYyCXy6FSqZCUlIRdu3YJdd577z3Mnj0bSqUSEokEtbW1V7QlOTlZ2NblacWKFTf8GBBCCCEEXo0CJn08dgcwIyMDFosFer0eUVFRaG5uhsFggMlkEuoUFhYiOzsbNpsNx48fR05ODlavXo3t27cDAFasWIGamhps2bIFMTExMJlMMBqNTuu4dOkS7r33XixcuBDZ2dnM9mRnZ6Ow8D8RoEOG8LKJXon120XDyd3ZyAmXHf+9NDbf9Y2v+PuM/rKXHelrcaFrb3Exdacv54dcCyOH7K0W9mj0M/7sKFtGUDEAgBUUycrpC7AjfQHgscPiEcJvjGcvc8gWxCyztrHLJjGOR6CEHUm5kxPpm6o4zyzbfSlUdP5oK/szqewZziwDgDsY8985KZ7HGgDEh18Dt/Sy2/GFTPzc8OGcg//2YV/bvMSPXYzzaeeFEeIFADckXuZgn7wnrOLRvryIaF4O2XOMPMH1UiCc8x3lCtb1P/BjgIFITlTsRZ/+f4m2uvC9e/hrzvkEIIwxP9CFfk+LlEZ9kf/wSAewra0N1dXVqKqqQlJSEgBg9OjRmDx5slO9wMBA4U3cYWFhWLp0KXbs2CGUV1RUYPPmzZgzZw6AvruGsbGxTutYvHgxgKtnFhkyZAjzrd+EEPJD5O7OHyEuo0fAXuexXMAKhQLl5eVXJGxmaWhowO7du5GQkCDMU6vV2LNnDzo7O6+7TW+88QZCQ0Nx1113QavVwmxmvyusp6cHHR0dTlOvg96nQAghhLjCnbmAiWs80gGUSqUoKyuDXq9HSEgIpk2bBp1Oh7q6Oqd6eXl5UCgUCAgIwKhRoyCRSFBSUiKUb926FUajEUqlEvHx8VizZo0whrA/HnnkEfz5z3/Gvn37oNVqsX37dvzkJz9h1hdLNF3TfrTf2yWEEEIIGQg8NiAgIyMDjY2NqKioQFpaGqqqqjBp0iSUlZUJdXJzc1FbW4u6ujohT196ejpstr67bdOnT8epU6dgMBgwf/58HDlyBImJiSgqKupXW3JycpCamoq7774bjz76KF5//XXs3LkTJ0+eFK2v1WrR3t7uNCUEx7h2IAghhJDBzo25gIlrPPoaGLlcjlmzZmHWrFlYv349fvrTn6KgoACZmZkAgNDQUERHRwMAxo4di9LSUkyZMgX79u3DzJkzAQB+fn5ITExEYmIi8vLy8Nvf/haFhYXIy8tzOSnz5cfMJ06cwJgxY64ol8lkVySW/tzWekU9APhMAsRKxQfZD3Ow+9s2Tl/8vqgGZtmuM+JDhHk9e1dvmLPWGcBZIWuQvUnqixZGIW/g+2jOoO1xKnbgwx87xVP38dK68YI9Hv0nO4Vc2QTx5XjH/f8CWCVS3GLnhSqIq+4UPwcBYHIvOyXdfpl4CjFeiisz52RjZAnjknOi+u61sPMpHpKKH0SzBJg7XDx9219b2QPweUedFYw0jHOc2vv/MeKiBPBjXA9mzvpYaf0u+vDT5rmildGOVl8pZAP8b/M5TlCEK8dpQWgTs+yd8+wx5+ek/T85WMcd4J+HowdKij7quHmdV0OCYmJicOnSJWa5r2/fGd7V1cVdR29vL7q72X/Urubyq2JGjhzp8jouY3X+bgRW5+9GcPeJwur83Qiszp+rXOn8ucqVzp+rWJ2/qxkyAIbgsDp/ALvz5ypeJLq7sTp/rnJ3549noHf+PI3VOXSl83c1rM7hgOn8kQHBI3cATSYTFixYgOXLl2PcuHEIDAzEwYMHsXHjRsybN0+o19nZiaamJjgcDpw9exbr1q2DSqXC1KlTAfS9v2/RokWIi4uDUqnE0aNHodPpkJKSgqCgvldsXLhwAfX19Whs7EuwfezYMQB9ASRqtRonT57Em2++iTlz5kCpVKKurg5r1qzB9OnTMW7cOE8cDkIIIWRwo/f3eZ1HOoAKhQIJCQnYtGkTTp48CavVivDwcGRnZ0On0wn18vPzkZ/fdwdFpVIhPj4elZWVUCr77uCkpqZCr9dDp9PBbDZDo9Fg7ty5wjJA36tili1bJvz74YcfBgAUFBRgw4YN8Pf3x9///neUlpbi0qVLCA8PR0ZGBp566ilPHApCCCGE0CNgr/NIB1Amk6G4uBjFxcXMOld7bx/QF4yh1Wq5dTIzM4UxhWLCw8Pxv//7v1fdFiGEEELIDxXlAiaEEEKIRznoDqDXUQfQRaxgjyBOpO/EbnZo1ucydg6pz+vFgz2irewxFF/7s9vhz7juWKnUrqaDM4Y5lDHmWM0Zi3yec1Y2c6L2dnSoROcr2KtDrG8Hs4yV1u31CfnMiN7MWnaACKzsl6D/cfLTovOHcobJdHEG9Afb2F+uh/3Fgz1UvEjfG5AmkOXOMeeYZa83iF8LGs75VNcsfl4AgJJz7rYxyuK7rcxljvmzr+PbetgfJuswtfqyP2Te9XqOs18xnHa4k7sDWG4EK+cYutL+j5v52aWWicxzNTDHlcW+8uf/yU9zrSmuoQ6g11FiQEL6iYYuk5uVpzp/hJCBj+4AEkIIIcSzKIWb11EHkBBCCCGeRY+AvW7QPQKuqqqCRCJBW1ubt5tCCCGEEOIVbukAtrS0YOXKlYiIiIBMJoNarUZqair2798PAIiMjIREIoFEIoGvry80Gg2ysrLQ2vqfdGpmsxlarRZjxoyBXC6HSqVCUlISdu3aJdR57733MHv2bCiVSkgkEiGDx2WnT58WtvP96Z133nHHrhJCCCHkelEuYK9zyyPgjIwMWCwW6PV6REVFobm5GQaDASaTSahTWFiI7Oxs2Gw2HD9+HDk5OVi9ejW2b98OAFixYgVqamqwZcsWxMTEwGQywWg0Oq3j0qVLuPfee7Fw4UJkZ2df0Y7w8HB8++23TvO2bt2K5557Dv/1X//ljl0V2Blxe72cqDLeweYuxzi/Ax3ssE0fF/r2Pi5eR7y2B9nF22gFeyG7m29Mc4JbERTETiFobROPAgY4gSCcSF/4yZhFrJy5vEhP3lHqkfQ/bPdGjMhxJZKy5xL7SmGtjvcZ+3EyDtgl/T/XgqTsfMQAOwr4og97W2E28fOmDexzhndsWd9P/5ZJcBuv+W50Mzxe4rWRd06xuPImBVe/d11ZjvUGCG9wOAZQYwap6+4AtrW1obq6GlVVVUhKSgIAjB49GpMnT3aqFxgYCLW6L0Q+LCwMS5cuxY4dO4TyiooKbN68GXPmzAHQd9cwNjbWaR2LFy8GwH5ptK+vr7CNy3bu3ImFCxdCoXB+Gcj+/fuh1Wpx/PhxTJgwAf/zP/+Du+66q597TwYjGrpMblae6vwRQga+6/6RplAooFAoUF5ejp4ezt2P72hoaMDu3buRkJAgzFOr1dizZw86Ozuvt0mCQ4cOoba2FllZWVeU5ebm4ve//z0+++wzqFQq3H///bBa2e/3IoQQQoib0CNgr7vuDqBUKkVZWRn0ej1CQkIwbdo06HQ61NXVOdXLy8uDQqFAQEAARo0aBYlEgpKSEqF869atMBqNUCqViI+Px5o1a4QxhK7atm0b7rjjDkydOvWKsoKCAsyaNQt333039Ho9mpubsXPnTtH19PT0oKOjw2nq5Tx+JYQQQggHdQC9zi3DNDIyMtDY2IiKigqkpaWhqqoKkyZNQllZmVAnNzcXtbW1qKurg8FgAACkp6fDZuvrSE2fPh2nTp2CwWDA/PnzceTIESQmJqKoqMilNnV1deHNN98UvfsHAFOmTBH+f/jw4bjtttvwxRdfiNYtLi5GcHCw0/RZu3hdQgghhJCBzm3jdOVyOWbNmoX169fDaDQiMzMTBQUFQnloaCiio6MxduxYzJgxA6WlpTAajdi3b59Qx8/PD4mJicjLy0NlZSUKCwtRVFQEi6X/A1feffddmM1mLFmy5Lr3TavVor293WmKD77jutdLCCGEDEYOu8NtE3HNDXsRdExMDMrLy5nlvr59ySq7urq46+jt7UV3dzf8/f37tf1t27bhgQcegEolngf0k08+QUREBACgtbUVx48fxx13iHfqZDIZZDLnaLyHehwArkxA+jc5u0/9Lxn7cNuY8Y3ANz7iiU7Ncvb6gnkRgoxINV5UmavRqP8rnnYWEy3spYZwoizMnI2dl4g/lh/uYCdGfYORPxgAJlnE1/d/Aew2sHL6AuxIXwB47LB4DuHnY/PZC3HwAlW6GO1okrKXUttd+614zoVkwFXnRzDLWvzErwWJlH0tNHHKejjX3UjGB/aOH+OkBhDMiWy0ciKz/8nI0XoXZ1iywsb+vL6Uike3f+kPPB9lEi1zVadEfJ8VnEj/gYI36vuW3v6fu67kzOakbeZyJeKYl/vY46jj5nXX3QE0mUxYsGABli9fjnHjxiEwMBAHDx7Exo0bMW/ePKFeZ2cnmpqa4HA4cPbsWaxbtw4qlUoYn5ecnIxFixYhLi4OSqUSR48ehU6nQ0pKCoKC+l7HceHCBdTX16OxsREAcOzYMQB9ASTfjf49ceIE/u///g979uxhtruwsBBKpRIjRozAk08+idDQUDz44IPXezgIIWTAcnfnjxBy87ruDqBCoUBCQgI2bdqEkydPwmq1Ijw8HNnZ2dDpdEK9/Px85Of33c1QqVSIj49HZWUllEolACA1NRV6vR46nQ5msxkajQZz584VlgH6XhWzbNky4d8PP/wwgL6Ajg0bNgjzX3vtNYwaNQqzZ89mtvuZZ57BE088ga+++goTJkzA7t27+32XkRBCCCEuoPdped11dwBlMhmKi4tRXFzMrMN6b993abVaaLVabp3MzExkZmZedV2/+93v8Lvf/U60LDk5WXgB5dy5c6+6LkIIIYS4F43d876b4WXthBBCCCHEjW5YEAghhBBCiCi6A+h11AF00b8YkYD+nCjAIM6YB39OhOAwRn5RBWd9rS6Elqk5UW9NUk7uXk5k2QSLeEMUdnbjpQ72ClNDzzHLdl4Qjx69yIhSBIBoThhgoEQ84vQWOzs/61DOZ8I7Tqxo318dEo8OBoCqO9lDJm4LP88s23lupOj81avY0a2v/8G1HGLjevr/JX+R81xCYxf/yuKd7qxc2gCwZNS3zLJ3GzSi86d1sz/Ib/3YZRNtZmbZCQwRnX+e8w3Nyy0cw1jfa6eGIMnCfvMCO/6ajfUZ83KEDxRDOOdGSsw3/V6fJ/c5pqf/masGVJeLxgB6HT0CJoSQQYLX+SOEDC50B5AQQgghHkVBIN5HHUBCCCGEeBY9AvY6egRMCCGEkEHlxRdfRGRkJORyORISEvDpp59e03JvvfUWJBLJDyJxhMc6gC0tLVi5ciUiIiIgk8mgVquRmpqK/fv3AwAiIyMhkUggkUjg6+sLjUaDrKwstLa2Cuswm83QarUYM2YM5HI5VCoVkpKSsGvXLgCA1WpFXl4e7r77bgwdOhQajQZLliwRModcduHCBTz66KMICgpCSEgIsrKycPHiRU8dCkIIIWRQ82Yu4Lfffhtr165FQUEBDh8+jPHjxyM1NRXnzrGDDIG+dxr/6le/QmJioqu7PaB47BFwRkYGLBYL9Ho9oqKi0NzcDIPBAJPpP6mJCgsLkZ2dDZvNhuPHjyMnJwerV6/G9u3bAQArVqxATU0NtmzZgpiYGJhMJhiNRmEdZrMZhw8fxvr16zF+/Hi0trbiiSeewAMPPICDBw8K23n00Ufx7bffYu/evbBarVi2bBlycnLw5ptvXvP+hDIiZtv82WFgAZxb3h2cT+JrH/For7UhraLzAWB3+y3MMlbO30ZOBCMvTzAPK/fkWT/2bw/epj40ceIUGduScnKSJoY3Mst2NopHgfJ0cX5SufJrixfpm3yE/fL11ydwcggzGvJBSQ9zETsnCpxnxsOd/V4m2IXodt7TJF709a5v2J8x6/My+3Ai4jnt+NxXPDIXYOe/Fo9D7zOMs7Fwq3geaxP80S1x7+9+1tEItbsWOe5JPZxz4+3j4cyyxxnzXTmyYVbXnoV+6S/+dojLZonMczXv8A3hxUfAJSUlyM7OFjKLvfLKK/jggw/w2muv4de//rXoMjabDY8++ih+85vfoLq6Gm1tbR5s8Y3hkQ5gW1sbqqurUVVVhaSkJADA6NGjMXnyZKd6gYGBQk7fsLAwLF26FDt27BDKKyoqsHnzZsyZMwdA313D2NhYoTw4OBh79+51WucLL7yAyZMno76+HhEREfjiiy/w4Ycf4rPPPkNcXBwAYMuWLZgzZw6ef/55aDT9/6NPCCE3A3d3/gi52VgsFhw6dMgp85iPjw9mzpyJAwcOMJcrLCzELbfcgqysLFRXV3uiqTecR74NFAoFFAoFysvL0dPDvsvwXQ0NDdi9ezcSEhKEeWq1Gnv27EFn57XfVWhvb4dEIkFISAgA4MCBAwgJCRE6fwAwc+ZM+Pj4oKamRnQdPT096OjocJqsDvFf2IQQQgjhc9jdN4n9jWb1Nc6fPw+bzYYRI5yfJo0YMQJNTU2iy/zjH//Atm3b8Oqrr7r9OHiTRzqAUqkUZWVl0Ov1CAkJwbRp06DT6VBXV+dULy8vDwqFAgEBARg1ahQkEglKSkqE8q1bt8JoNEKpVCI+Ph5r1qwRxhCK6e7uRl5eHhYtWoSgoCAAQFNTE265xfnxqFQqxfDhw5kffnFxMYKDg52mnRePuHo4CCGEkMHN7r5J7G90cTF7iEx/dHZ2YvHixXj11VcRGhrqlnUOFB57HpCRkYHGxkZUVFQgLS0NVVVVmDRpEsrKyoQ6ubm5qK2tRV1dHQwGAwAgPT0dNlvf3bbp06fj1KlTMBgMmD9/Po4cOYLExEQUFRVdsT2r1YqFCxfC4XDg5Zdfvq62a7VatLe3O03/rbjzutZJCCGEkOsn9jf6u494vys0NBS+vr5obm52mt/c3CwMQfuukydP4vTp07j//vshlUohlUrx+uuvo6KiAlKpFCdPnrwh++QJHh0QIpfLMWvWLKxfvx5GoxGZmZkoKCgQykNDQxEdHY2xY8dixowZKC0thdFoxL59+4Q6fn5+SExMRF5eHiorK1FYWIiioiJYLP8ZcHy583fmzBns3btXuPsH9D1G/n6kT29vLy5cuCD64QOATCZDUFCQ0+QnGVDDaQkhhJCbhjsfAYv9jZbJxFN2+vv7IzY2VrjJBAB2ux0GgwFTpky5ov7tt9+Of/3rX6itrRWmBx54ACkpKaitrUV4ODtYaKDz6ougY2JiUF5eziz39e3rZHV1sdMXxcTEoLe3F93d3fD39xc6f1999RX27dsHpVLpVH/KlCloa2vDoUOHhACSjz/+GHa73Wm84dWcYET78nrUHZw+YwgnIuouh3i0195WdqSvLye6jRVly4pEBABO+lMEuzAcMoAT6suKHAaAkZyIuSap+NHv4Rz3ck6kb6pCPJ9udSf7MUCwjb1jPZx8z6y94uX05UX6Lqll5xB+aRInQpjB1RGvb70bzCzLLu3/+ljHyY9zPvGiynnnGivy3dWIeBnn+pIxXmWh4JwzvHzfDVJ24X/LLrAXdMG9sQ2i848cYn8/DRS883r+aPH9crcGzhsReHjR8iwDKgTIi1HAa9euxdKlSxEXF4fJkyejtLQUly5dEqKClyxZgrCwMBQXF0Mul+Ouu+5yWv5yTMH3599sPNIBNJlMWLBgAZYvX45x48YhMDAQBw8exMaNGzFv3jyhXmdnJ5qamuBwOHD27FmsW7cOKpUKU6dOBQAkJydj0aJFiIuLg1KpxNGjR6HT6ZCSkoKgoCBYrVbMnz8fhw8fxvvvvw+bzSaM6xs+fDj8/f1xxx13IC0tDdnZ2XjllVdgtVqxatUqPPzwwxQBTAj5QXN3548QVzm82AF86KGH0NLSgvz8fDQ1NWHChAn48MMPhcCQ+vp6+PgMqO7yDeGRDqBCoUBCQgI2bdqEkydPwmq1Ijw8HNnZ2dDpdEK9/Px85Of33Z1QqVSIj49HZWWlcBcvNTUVer0eOp0OZrMZGo0Gc+fOFZZpaGhARUUFAGDChAlObdi3bx+Sk5MBAG+88QZWrVqF++67Dz4+PsjIyMAf/vCHG3wUCCGEEDIQrFq1CqtWrRItq6qq4i773diFm5lHOoAymQzFxcXcqJzTp09fdT1arZY5sBPoey+gw3H15zPDhw/v10ufCSGEEOI+3rwDSPp4dQwgIYQQQgYf6gB63w//ITchhBBCCHFCdwBddE4inqVTY2cf0g5Od5sXFXsLI+9wOyfU15VARV5EJC8TbIiN/VPuG0aEm82F6EsA8OHsWbRVPGfy5z78nJksuy+JR/tO7u1mLnPYX+7StroYx2PnuZHshTjnEy/S97HD4hHCf5zY/+jgq+FFj7Pw8rPe1SP+GZ/yY3/GE+xmZtmnnPy8rBzCZzk5swM5dzV4eaI7GNeygrO+IE4IayjjMjlkHY4LnOjh29lFTDvqxF+D4XeVvy7TXdiWu0Vw3irwl/owZtkTjPlqa/+/eV2NsOdFgbPw3vTgcQ7X8osT96EOICGEDBK8zh8hnkSPgL2PHgETQgghhAwydAeQEEIIIR7lYI2xIB7jsTuALS0tWLlyJSIiIiCTyaBWq5Gamor9+/cD6HuFi0QigUQiga+vLzQaDbKystDa2iqsw2w2Q6vVYsyYMZDL5VCpVEhKSsKuXbsA9KWAy8vLw913342hQ4dCo9FgyZIlaGxsdGrLAw88gIiICMjlcowcORKLFy++og4hhBBCbgx3poIjrvHYHcCMjAxYLBbo9XpERUWhubkZBoMBJpNJqFNYWIjs7GzYbDYcP34cOTk5WL16NbZv3w4AWLFiBWpqarBlyxbExMTAZDLBaDQK6zCbzTh8+DDWr1+P8ePHo7W1FU888QQeeOABHDx4UNhOSkoKdDodRo4ciYaGBvzqV7/C/PnzYTQar3l/Yi3ih+6oP/tsjOpl97dbOV1xs4/4LyVeaileKjher58VgNHLWd9Jf/YaNYwAlg7GPgH89p32Yw9i6mXkZ74oYQ/MHsb5FTraKj48uw1+OCIT35aKM6Kb9z3VJBUvXb2KHVTyQUkPZ41srGCPn33OTh9Xxkk7x+NKuioz5wQ4KmMHe7A2ZfRhB3r8bO1QZtmrJZdE59/byw4q+SdnW/cNNTHLvm4VT5l3TMb+ilaKx6EBAE5ycuPd4uY7LyMY1/hFzjU+UFg4qfZ46QVZGjkBQu420dL/658XiEgGH490ANva2lBdXY2qqiokJSUBAEaPHo3Jkyc71QsMDIRarQYAhIWFYenSpdixY4dQXlFRgc2bN2POnDkA+u4aXs7nCwDBwcHYu3ev0zpfeOEFTJ48GfX19YiIiAAArFmzRigfPXo0fv3rX+PBBx+E1WqFHyea8IfO1Ryngw2r80e8h24CXBt3d/4IcZWDooC9ziO/BxQKBRQKBcrLy9HTc22/WhoaGrB7924kJCQI89RqNfbs2YPOzs5r3nZ7ezskEomQvPn7Lly4gDfeeANTp04d1J0/QgghxFPoEbD3eaQDKJVKUVZWBr1ej5CQEEybNg06nQ51dXVO9fLy8qBQKBAQEIBRo0ZBIpGgpKREKN+6dSuMRiOUSiXi4+OxZs0aYQyhmO7ubuTl5WHRokUICgq6YltDhw6FUqlEfX29MI5QTE9PDzo6Opwmq8PVtzcRQgghhHiXx0YEZGRkoLGxERUVFUhLS0NVVRUmTZrklFQ5NzcXtbW1qKurg8FgAACkp6fDZuvrbE2fPh2nTp2CwWDA/PnzceTIESQmJqKoqOiK7VmtVixcuBAOhwMvv/zyFeW5ubn4/PPPUVlZCV9fXyxZsoSZR7i4uBjBwcFOU8XFI244KoQQQsjg47BL3DYR13h0SKhcLsesWbOwfv16GI1GZGZmoqCgQCgPDQ1FdHQ0xo4dixkzZqC0tBRGoxH79u0T6vj5+SExMRF5eXmorKxEYWEhioqKYLFYhDqXO39nzpzB3r17r7j7d3lbP/rRjzBr1iy89dZb2LNnDz755BPRdmu1WrS3tztNDyjudOORIYQQQgYPh8N9E3GNV98DGBMTg/Lycma5r2/fYPuuri7uOnp7e9Hd3Q1/f3+h8/fVV19h3759UCqVV22H3d43iIA1PlEmk0EmkznNOyoDxJL43GJnBwhc5HS3FZyTeKRVPNzvlD/74+N9sOLJtAAZYz7ATxOn5kQjsiIBLZz18UZiyjnHSWETL7RL2RubGnCBWVbZM1x0foCDnVLJ7OKPUbVd/OR4/Q8W0fkAf79cGaDAi/TNrGVHCPPcO/xcv5fhpasaaxW/Rv8pY5+9Y3vYJ+h7G8UjfQHAh3EpH+Skj5toZacJ3HuJ/V3k8BefP4zzQfJSy7G+hUw+Dmh4If0uaGKch1McF926nRuhmXMNuRIFzEpVyDPcxdFEdX68b2zxVHsy6iyR7/BIB9BkMmHBggVYvnw5xo0bh8DAQBw8eBAbN27EvHnzhHqdnZ1oamqCw+HA2bNnsW7dOqhUKkydOhUAkJycjEWLFiEuLg5KpRJHjx6FTqdDSkoKgoKCYLVaMX/+fBw+fBjvv/8+bDYbmpqaAADDhw+Hv78/ampq8Nlnn+Hee+/FsGHDcPLkSaxfvx5jxozBlClTPHE4yE1uQOXTJKQf3N35I8RV9OjW+zzSAVQoFEhISMCmTZtw8uRJWK1WhIeHIzs7GzqdTqiXn5+P/Py+uxAqlQrx8fGorKwU7uKlpqZCr9dDp9PBbDZDo9Fg7ty5wjINDQ2oqKgAAEyYMMGpDfv27UNycjKGDBmC9957DwUFBbh06RJGjhyJtLQ0PPXUU1fc5SOEEEKI+1EH0Ps80gGUyWQoLi5GcXExs87p06evuh6tVgutVsssj4yMZAZyXHb33Xfj448/vuq2CCGEEEJ+qCgXMCGEEEI8ioI3vI86gIQQQgjxKHoE7H2UGZAQQgaJRinddiGE9JE4rjZojhBCCCHEjU7eleq2dY3590duW9dgQo+ACSGEEOJRlMPX++gRMCGEEELIIEN3AAkhhBDiUXYHBYF4m8fuALa0tGDlypWIiIiATCaDWq1Gamoq9u/fD6DvHX4SiQQSiQS+vr7QaDTIyspCa2ursA6z2QytVosxY8ZALpdDpVIhKSkJu3btAtCXAzgvLw933303hg4dCo1GgyVLlqCxsfGK9nzwwQdISEhAQEAAhg0bhgcffNAjx4EQQggZ7BwOidsm4hqP3QHMyMiAxWKBXq9HVFQUmpubYTAYYDKZhDqFhYXIzs6GzWbD8ePHkZOTg9WrV2P79u0AgBUrVqCmpgZbtmxBTEwMTCYTjEajsA6z2YzDhw9j/fr1GD9+PFpbW/HEE0/ggQcewMGDB4Xt/PWvf0V2djZ+97vfYcaMGejt7cW///3vfu1P4ehHRef7g30yajg5c1vZKYSZqcfm3XaWuczbx8PZK3QzTtMRZRHf6a84eYx5lzPvFwtrSImZs9DSW79hlr1zcpTofBungb6ckCpebtFzjAXH9bAXmvFwJ7PsrXeDmWXdjPYHc8bkXC2nb9S/KkXnW8+fYi7jFxolOv/tkeLXFgB0+Io3nvcZ+7g5zG0s45wGgHZWAuGrYL0Rw8zIpX01XZzFNFb2B/3jpjf7va13GJ/XxGHnuctFH/X+wP0t4T9hlvFykq84+2fR+WVh7PUBQGbDlcsdHZPOXSbm5Aei83ltB4DHRdr40lWWeYyxX+SHySMdwLa2NlRXV6OqqgpJSUkAgNGjR2Py5MlO9QIDA6FWqwEAYWFhWLp0KXbs2CGUV1RUYPPmzZgzZw6AvruGsbGxQnlwcDD27t3rtM4XXngBkydPRn19PSIiItDb24snnngCzz33HLKysoR6MTEx7t1pQggZYHidP0I8id4D6H0eeQSsUCigUChQXl6Onp6ea1qmoaEBu3fvRkJCgjBPrVZjz5496Oxk3/n4vvb2dkgkEoSEhAAADh8+jIaGBvj4+GDixIkYOXIk/uu//ot7B7CnpwcdHR1OU6/Dds1tIIQQQsh/OBzum4hrPNIBlEqlKCsrg16vR0hICKZNmwadToe6ujqnenl5eVAoFAgICMCoUaMgkUhQUlIilG/duhVGoxFKpRLx8fFYs2aNMIZQTHd3N/Ly8rBo0SIEBQUBAE6d6nsktWHDBjz11FN4//33MWzYMCQnJ+PChQui6ykuLkZwcLDTVN1+5HoPCyGEEEKIV3gsCCQjIwONjY2oqKhAWloaqqqqMGnSJJSVlQl1cnNzUVtbi7q6OhgMBgBAeno6bLa+u23Tp0/HqVOnYDAYMH/+fBw5cgSJiYkoKiq6YntWqxULFy6Ew+HAyy+/LMy32/segTz55JPIyMhAbGws/vSnP0EikeCdd94RbbtWq0V7e7vTlBh8p7sODSGEEDKoOOwSt03ENR59D6BcLsesWbOwfv16GI1GZGZmoqCgQCgPDQ1FdHQ0xo4dixkzZqC0tBRGoxH79u0T6vj5+SExMRF5eXmorKxEYWEhioqKYLFYhDqXO39nzpzB3r17hbt/ADBy5EgAzmP+ZDIZoqKiUF9fL9pumUyGoKAgp0kqcW2wNyGEEDLY2R0St03ENV59EXRMTAwuXbrELPf17etkdXV1cdfR29uL7u5uAP/p/H311Vf4+9//DqVS6VQ/NjYWMpkMx44dE+ZZrVacPn0ao0ePvp7dIYSQAa3Rj979Twjp45FcwCaTCQsWLMDy5csxbtw4BAYG4uDBg3j88ceRnp6Obdu2ITIyEllZWcjOzobD4cDZs2exbt06HD16FF988QWUSiWSk5OxaNEixMXFQalU4ujRo1i7di3CwsJgMBhgtVoxf/58HD58GO+//z5GjBghtGH48OHw9/cHAPziF7/Au+++i9deew2jR4/Gc889h927d+PLL7/EsGHDbvThIIQQQga1f916v9vWdffXu922rsHEIx3Anp4ebNiwAZWVlTh58iSsVivCw8OxYMEC6HQ6BAQEIDIyEmfOnBGWUalUiI+Px9NPP40JEyYA6AvG2L17N44dOwaz2QyNRoO5c+ciPz8fSqUSp0+fxq233irahn379iE5ORlA3x0/rVaL7du3o6urCwkJCSgtLcWdd9K4PkIIIeRGq4t0Xwdw3GnqALrCIx1AQgghhJDLqAPofZQLmBBCCCEeRcEb3kcjggkhhBDiUd7OBfziiy8iMjIScrkcCQkJ+PTTT5l1X331VSQmJmLYsGEYNmwYZs6cya1/s6A7gC56LHKh6Pwouz9zmSGch+0yTtkQu3hhKyMvKgCEcVI++TnEy6wS9u8Bi4S9rWYpu8zKKPrv4c3MZRqbg5hltdIAZlkPY1u8HLwBnLJbesWzvcgZxw8A7hzDzpnbc4l9uVWdHyE6/yLnJxovdy8P6zjx8umy8lFflv2NeA5RXl7fh759Q3Q+L3/wS5PyRefzrp97fDqYZf+ws881Vto0XiQtrx132thvM6hjnNcjOdfxBV92Oxql7IaEcpJZ/4zxOfJsjhDPL8s7FgA7n64n8fLpDuMke/pJo3jb3+Wc7wAwX+ScdyWnLwD8WcNfTqyNe0Y8zF1mTvNb3PIfirfffhtr167FK6+8IsQApKam4tixY7jllluuqF9VVYVFixZh6tSpkMvlePbZZzF79mwcOXIEYWFhXtgD96A7gIQQMkjwOn+EeJI3U8GVlJQgOzsby5YtQ0xMDF555RUMGTIEr732mmj9N954A4899hgmTJiA22+/Hf/zP/8Du90uJKy4WdEdQEIIIYR4lDvHAPb09KCnp8dpnkwmg0wmu6KuxWLBoUOHoNVqhXk+Pj6YOXMmDhw4cE3bM5vNsFqtGD58+PU13MvoDiAhhBBCblrFxcUIDg52moqLi0Xrnj9/Hjabzek9wQAwYsQINDU1XdP28vLyoNFoMHPmzOtuuzfRHUBCCCGEeJSrwRtitFot1q5d6zRP7O6fOzzzzDN46623UFVVBblcfkO24SkeuwPY0tKClStXIiIiAjKZDGq1Gqmpqdi/fz8AIDIyEhKJBBKJBL6+vtBoNMjKykJra6uwDrPZDK1WizFjxkAul0OlUiEpKQm7du0C0PeC57y8PNx9990YOnQoNBoNlixZgsbGRqe2HD58GLNmzUJISAiUSiVycnJw8eJFTx0KQgghZFBzZy5gmUyGoKAgp4nVAQwNDYWvry+am50DEZubm6FWq7ltfv755/HMM8+gsrIS48aNc9ux8BaP3QHMyMiAxWKBXq9HVFQUmpubYTAYYDKZhDqFhYXIzs6GzWbD8ePHkZOTg9WrV2P79u0AgBUrVqCmpgZbtmxBTEwMTCYTjEajsA6z2YzDhw9j/fr1GD9+PFpbW/HEE0/ggQcewMGDBwEAjY2NmDlzJh566CG88MIL6OjowC9+8QtkZmbi3Xffveb9OWwRj/ZU+7Ejgi5yfvAoOL+G5t39jeh8/ZFw5jIn/Hl9e/Eyf85gWgun7SN62WVNjDPs3QviUa8A4OfHXp8Pp43Zj4pHWZa8yf6VFsYZFP+FzFd0/r0WC3OZ1xvYnz9vrHKLn/hB1NjZl2irePMAALyg3bt6rKLzj8rYB36stYdZxtPBiVRnYUX6AsBjhwtF5/+Bs0yNjR3pa+VcJl8zrqFuCfuT/C87+4fkx36B7HYwDpOdE3HMixA3ScRDWE1S4BaHe7/2xc8m16PUPSmcE2V91oW8yd2ctyWwRFo54cYcLS58jN/60UM/f39/xMbGwmAw4MEHHwQAIaBj1apVzOU2btyIp59+Gh999BHi4uI81NobyyNnQ1tbG6qrq1FVVYWkpCQAwOjRozF58mSneoGBgUIPPCwsDEuXLsWOHTuE8oqKCmzevBlz5swB0HfXMDY2VigPDg7G3r17ndb5wgsvYPLkyaivr0dERATef/99+Pn54cUXX4SPT98F/sorr2DcuHE4ceIEoqOj3X8ACCFkAHB3548QV3kzBdnatWuxdOlSxMXFYfLkySgtLcWlS5ewbNkyAMCSJUsQFhYmjCN89tlnkZ+fjzfffBORkZHCWEGFQgGFQuG1/bheHnkEfPkglZeXXxGpw9LQ0IDdu3cjISFBmKdWq7Fnzx50dnZe87bb29shkUgQEhICoC9ayN/fX+j8AUBAQN87uP7xj3+IrqOnpwcdHR1Ok53zLjhCCCGEsLnzEXB/PfTQQ3j++eeRn5+PCRMmoLa2Fh9++KEQGFJfX49vv/1WqP/yyy/DYrFg/vz5GDlypDA9//zzbjse3uCRDqBUKkVZWRn0ej1CQkIwbdo06HQ61NXVOdXLy8uDQqFAQEAARo0aBYlEgpKSEqF869atMBqNUCqViI+Px5o1a4QxhGK6u7uRl5eHRYsWISio7zHQjBkz0NTUhOeeew4WiwWtra349a9/DQBOH/h3iUUYNV6sv97DQgghhBAvWLVqFc6cOYOenh7U1NQ43WyqqqpCWVmZ8O/Tp0/D4XBcMW3YsMHzDXcjjwWBZGRkoLGxERUVFUhLS0NVVRUmTZrkdJBzc3NRW1uLuro64QWL6enpsNn6xkhMnz4dp06dgsFgwPz583HkyBEkJiaiqKjoiu1ZrVYsXLgQDocDL7/8sjD/zjvvhF6vx+9//3sMGTIEarUat956K0aMGOF0V/C7tFot2tvbnSaNIsKNR4cQQggZPLydCo54+D2Acrkcs2bNwvr162E0GpGZmYmCggKhPDQ0FNHR0Rg7dixmzJiB0tJSGI1G7Nu3T6jj5+eHxMRE5OXlobKyEoWFhSgqKoLlOwPzL3f+zpw5g7179wp3/y575JFH0NTUhIaGBphMJmzYsAEtLS2IiooSbbdYhJEPJ20aIYQQQtjsbpyIa7w6IjgmJgbl5eXMcl/fvjDHri52Ds2YmBj09vaiu7sb/v7+Qufvq6++wr59+6BUKpnLXn7e/9prrwmd02uVxoj2HcL5NbL0trPMstePsSN6d/1LvIxxwxIAPw+nKzFnvJy5cm4uHvHjwfvNxrugOQHCeOUN8XyqQzjL8CIpWRHHhzj5iDWciGjecZdIxS9FTqAv/zhxPpJTjDBr3vr+eZV3aiUz5vPyC7Pwzl1WtO9qRnQwwI8q5n0mrGMf1ss+e/f7sCN9s+LFo/kB4M+fjhKdH8xpYBCnzOon3nobHAiyu/eOCWttrMjmgcQkZZ+grhwmV5Y5w/isrsaVWxBdN8FnQjzHIx1Ak8mEBQsWYPny5Rg3bhwCAwNx8OBBbNy4EfPmzRPqdXZ2oqmpCQ6HA2fPnsW6deugUqkwdepUAEBycjIWLVqEuLg4KJVKHD16FDqdDikpKQgKCoLVasX8+fNx+PBhvP/++7DZbEK0zvDhw+Hv7w+gLzJ46tSpUCgU2Lt3L3Jzc/HMM88IgSKEEPJD5O7OHyGucnBvAxBP8EgHUKFQICEhAZs2bcLJkydhtVoRHh6O7Oxs6HQ6oV5+fj7y8/t+ratUKsTHx6OyslK4i5eamgq9Xg+dTgez2QyNRoO5c+cKyzQ0NKCiogIAMGHCBKc27Nu3D8nJyQCATz/9FAUFBbh48SJuv/12/PGPf8TixYtv8FEghBBCCADYvfkeGALAQx1AmUyG4uJiZm4+oC/K5mq0Wq1TAufvi4yMhIP7OLLP66+/ftU6hBBCCCE/VPRWUEIIIYR4lJ0eAXsddQBd9I1E/IXWt4I9WP5NTqCHmhM8EG4X39YXUva2eGndhjDuvZt92BfkMBs7RKCRkzJpJGO/FHb2+uo56+MFN7Dex85LwXdPr5lZ9m8fdvjIDGWz6Py6ZhVzGT/Oy8ObGEEgUs7+8oZz8e6DT7CL77ORs79jezgnKAcvdR/LPT4dzDJWWjdX0scBwCsT2cuxjm8Q51qQOtjn7ocH2GkCJ9i7RefX+rHTGHJiUeDL+ON6yYd/DbmCFSDWfRP8ffd187HgpWdk4QU98bhybT16DzsQydNoDKD30btMCOknVuePkIHO3Z0/QsjNi+4AEkIIIcSj6P193kcdQEIIIYR4FD0C9j56BEwIIYQQMsh4rAPY0tKClStXIiIiAjKZDGq1Gqmpqdi/fz+Avle4SCQSSCQS+Pr6QqPRICsrC62trcI6zGYztFotxowZA7lcDpVKhaSkJOzatUuos2HDBtx+++0YOnQohg0bhpkzZ6KmpkYoP336NLKysnDrrbciICAAY8aMQUFBgVMqOUIIIYTcOJQKzvs89gg4IyMDFosFer0eUVFRaG5uhsFggMlkEuoUFhYiOzsbNpsNx48fR05ODlavXo3t27cDAFasWIGamhps2bIFMTExMJlMMBqNTuv40Y9+hBdeeAFRUVHo6urCpk2bMHv2bJw4cQIqlQpffvkl7HY7/vjHPyI6Ohr//ve/kZ2djUuXLuH555+/5v25wy4enWfh3NXu4ZTx0iadZyRA6+Z034e6ELTJig4GgEucvHO8/epkRMWZOesbwhmobuZGPvZvPgB86suOfGUt97cLI5jtUHI2Zufkj+5hxO0uGfUtc5ld32iYZbzzibXPP1s7lLnMexsvsVfoZv+wi0f6AoCVcQh5Kd14kb4rPmdHCL/AiCyO1ZxjLvPvBnYUeJDEyiyL0LSJzv9ni5q5zBDOX75WVvi4BLjF5t5Hb6xjfzMkHeF9d/GOL4srUcWuBubw0mKyvHtAPOXgZdmuNcUl1HHzPo90ANva2lBdXY2qqiokJSUBAEaPHo3Jkyc71QsMDIRa3feFFxYWhqVLl2LHjh1CeUVFBTZv3ow5c+YA6LtrGBsb67SORx55xOnfJSUl2LZtG+rq6nDfffchLS0NaWlpQnlUVBSOHTuGl19+uV8dQDJ48TqhhAxk7u78EUJuXh55BKxQKKBQKFBeXo6eHvF32n1fQ0MDdu/ejYSEBGGeWq3Gnj170NnZeU3rsFgs2Lp1K4KDgzF+/Hhmvfb2dgwfPvya1kkIIYSQ6+OAxG0TcY1HOoBSqRRlZWXQ6/UICQnBtGnToNPpUFdX51QvLy8PCoUCAQEBGDVqFCQSCUpKSoTyrVu3wmg0QqlUIj4+HmvWrBHGEH7X+++/D4VCAblcjk2bNmHv3r0IDQ0VbduJEyewZcsW/OxnP2O2v6enBx0dHU5Tr4P30IkQQgghLHaJ+ybiGo8FgWRkZKCxsREVFRVIS0tDVVUVJk2ahLKyMqFObm4uamtrUVdXB4PBAABIT0+HzdbX2Zo+fTpOnToFg8GA+fPn48iRI0hMTERRUZHTtlJSUlBbWwuj0Yi0tDQsXLgQ585dOW6noaEBaWlpWLBgAbKz2aMfiouLERwc7DQZOo644agQQgghhHieR18DI5fLMWvWLKxfvx5GoxGZmZkoKCgQykNDQxEdHY2xY8dixowZKC0thdFoxL59+4Q6fn5+SExMRF5eHiorK1FYWIiioiKnKN6hQ4ciOjoa99xzD7Zt2wapVIpt27Y5taWxsREpKSmYOnUqtm7dym23VqtFe3u703Rf0J1uOiqEEELI4GKHxG0TcY1XXwQdExOD8vJyZrmvb19IZVdXF3cdvb296O7uhr+/v2gdu93uNPawoaEBKSkpiI2NxZ/+9Cf4cCJSAUAmk0Emc867O9IuHu55ty97fOLHCGSW8XJI1kvFT/BhnDAq3m3xHol4IS8qixeoxstX28Vox2gre2s2RvsAoItxLHjbuscinmcVAA5zcq2y1seLKm5zIRcoAIxkDM5/t4Ed6cs7a3l5Qlnnxqsl7EhfHxf3yxUazrnxtb/4XvOax7sWWJG+ALCKkUP4tQnsZaziX0F9ZRJ2Kw+eF4/25V3j7ZydZn3+530cCHa49w8m6/i6kqvW08yci4j3vcbiyi5fdPE2DDumnLPMAOor3QSnxw+eRzqAJpMJCxYswPLlyzFu3DgEBgbi4MGD2LhxI+bNmyfU6+zsRFNTExwOB86ePYt169ZBpVJh6tSpAIDk5GQsWrQIcXFxUCqVOHr0KHQ6HVJSUhAUFIRLly7h6aefxgMPPICRI0fi/PnzePHFF9HQ0IAFCxYA6Ov8JScnY/To0Xj++efR0tIibP9yBDIhhPwQubvzRwi5eXmkA6hQKJCQkIBNmzbh5MmTsFqtCA8PR3Z2NnQ6nVAvPz8f+fl9v65VKhXi4+NRWVkJpVIJAEhNTYVer4dOp4PZbIZGo8HcuXOFZXx9ffHll19Cr9fj/PnzQrBIdXU17ryz75Ht3r17ceLECZw4cQKjRjm/E8nhoN8khBBCyI1G7wH0Po90AGUyGYqLi1FcXMysc/r06auuR6vVQqvVMsvlcjnee+897joyMzORmZl51W0RQggh5Mawc4b6EM/w6hhAQgghhAw+9LzN+zwaBUwIIYQQQryP7gC6qIFx5I5I2LllH+hmR6NWfS/K+LvusIjPnzyyibnMu4yoQh7eycBLLcz7JRdtER/pYeXc/jdxIn15eTPbGWGHH8nZx3Z5SDOzbOeFEaLzeflD47vZsXlBUsYHCeAdRjTytG72xsw+7DJeBOZZP/Hl7u01M5c5yMmZzDPW0v+k1I1+7N+l3RLxHQvrZR+LIBt7tBEvry8r2nd5LTt/8K671zPLfDhjjNOrxF9E/9LsV5nL8F5F3y4RL22XALc43Pu1H8eIsv8XJ8J+oOAdQ1deMMzLBc9yl+XasmO5Q9AAyl9AYwC9jzqAhBAySLi780eIqyiDh/fRI2BCCCGEkEGGfg4SQgghxKMog4f3UQeQEEIIIR5FUcDe57FHwC0tLVi5ciUiIiIgk8mgVquRmpqK/fv3AwAiIyMhkUggkUjg6+sLjUaDrKwstLa2Cuswm83QarUYM2YM5HI5VCoVkpKSsGvXLqHOhg0bcPvtt2Po0KEYNmwYZs6ciZqaGqe2fHdbl6dnnnnGMweCEEIIIcTLPHYHMCMjAxaLBXq9HlFRUWhubobBYIDJZBLqFBYWIjs7GzabDcePH0dOTg5Wr16N7du3AwBWrFiBmpoabNmyBTExMTCZTDAajU7r+NGPfoQXXngBUVFR6OrqwqZNmzB79mycOHECKpXqim1dFhjIztMrppURZTfMwU7Q+Yk/u0zB+Tk0xC6+rX80sSN9OZti4t2Q5/1S8OOUXWTkWXY1Zy6vkdN7xKPpavzZ0YifNd/CXiFjx4ZxIumO+fOOBrssmBEh+i0jYhdwPYoukLHgP33Ykb4TrewIdp52F5IIyzjXwn/ZL4rO3+/Dvn6lDvbZ++8GFbOMldeXF+k7719FzLJtE9k5hHenbBWdH8CJiOfFV4/gBHvwjq8r/i0Vv75uhihPOedYuPLHMcCFYzvpgXYXtsTPf80SzPhb4g0UBOJ9HukAtrW1obq6GlVVVUhKSgIAjB49GpMnT3aqFxgYKOTjDQsLw9KlS7Fjxw6hvKKiAps3b8acOXMA9N3Ji42NdVrHI4884vTvkpISbNu2DXV1dbjvvvtEt0UIIYOBuzt/hLjqZviB8EPnkUfACoUCCoUC5eXl6GHcpfm+hoYG7N69GwkJCcI8tVqNPXv2oLOz85rWYbFYsHXrVgQHB2P8+PFOZc888wyUSiUmTpyI5557Dr297N/TPT096OjocJp6HQPnlxQhhBBCSH94pAMolUpRVlYGvV6PkJAQTJs2DTqdDnV1dU718vLyoFAoEBAQgFGjRkEikaCkpEQo37p1K4xGI5RKJeLj47FmzRphDOF3vf/++1AoFJDL5di0aRP27t2L0NBQoXz16tV46623sG/fPvzsZz/D7373O6xbt47Z/uLiYgQHBztNNe1H3XBkCCGEkMHH4caJuMZjQSAZGRlobGxERUUF0tLSUFVVhUmTJqGsrEyok5ubi9raWtTV1cFgMAAA0tPTYbP13W2bPn06Tp06BYPBgPnz5+PIkSNITExEUZHzuJuUlBTU1tbCaDQiLS0NCxcuxLlz/3nj/9q1a5GcnIxx48ZhxYoV+P3vf48tW7Yw705qtVq0t7c7TQnBMW4+QoQQQsjgYJe4byKu8eiLoOVyOWbNmoX169fDaDQiMzMTBQUFQnloaCiio6MxduxYzJgxA6WlpTAajdi3b59Qx8/PD4mJicjLy0NlZSUKCwtRVFQEi+U/abaGDh2K6Oho3HPPPdi2bRukUim2bdvGbFdCQgJ6e3tx+vRp0XKZTIagoCCnSSpxNYqBEEIIId704osvIjIyEnK5HAkJCfj000+59d955x3cfvvtkMvluPvuu7Fnzx4PtfTG8ep7AGNiYlBeXs4s9/Xt62R1dXVx19Hb24vu7m74+4uH7dntdu7Yw9raWvj4+OCWWzgRod/jzwhH7eXckE7pZe9HjZQdgdkiFe9shvey885aJOyIU4VdvI1tvuyfUsNs7P3q5uT1HWIXH+rb6uvabw/er739MvFoRN6W/Dn5WWUO8Y21c/r+t/WwhzazIqIBdm7kiTZ2ft7POfl5ZZwR1l2MZtw31CReAGDvJSV7hQCmcUv7504b+zr52E882jcr/hvmMh8eCGOWBUnY15CV8SOPl9OXF+mb9Tk7h/DrjLzDPLyAjguM7yGLBBjm5lsmNsbqboZB/rzvhv5nsebnKmc58WEAt3wSY74rx/e038C5ceHN8+Ptt9/G2rVr8corryAhIQGlpaVITU3FsWPHRPsBRqMRixYtQnFxMebOnYs333wTDz74IA4fPoy77rrLC3vgHh7pAJpMJixYsADLly/HuHHjEBgYiIMHD2Ljxo2YN2+eUK+zsxNNTU1wOBw4e/Ys1q1bB5VKhalTpwIAkpOTsWjRIsTFxUGpVOLo0aPQ6XRISUlBUFAQLl26hKeffhoPPPAARo4cifPnz+PFF19EQ0MDFixYAAA4cOAAampqkJKSgsDAQBw4cABr1qzBT37yEwwbNswTh4MQQrzC3Z0/QlzlzQ5gSUkJsrOzsWzZMgDAK6+8gg8++ACvvfYafv3rX19Rf/PmzUhLS0Nubi4AoKioCHv37sULL7yAV155xaNtdyePdAAVCgUSEhKwadMmnDx5ElarFeHh4cjOzoZOpxPq5efnIz+/75ewSqVCfHw8KisroVT23X1ITU2FXq+HTqeD2WyGRqPB3LlzhWV8fX3x5ZdfQq/X4/z580KwSHV1Ne68804AfY9z33rrLWzYsAE9PT249dZbsWbNGqxdu9YTh4IQQgghXmKxWHDo0CFotVphno+PD2bOnIkDBw6ILnPgwIEr+gipqancJ5g3A490AGUyGYqLi1FcXMyswxp/911ardbpQ/s+uVyO9957j7uOSZMm4ZNPPrnqtgghhBByYzBG2Likp6fnimFeMpkMMpnsirrnz5+HzWbDiBEjnOaPGDECX375pej6m5qaROs3NTVdZ8u9y6NBIIQQQgghdjdOYq9q491wIn28GgRCCCGEEHI9tFrtFY9oxe7+AX1vG/H19UVzc7PT/ObmZmZ2MLVa3a/6NwvqALpIyrh/bZaww8Au2BjJRQFYOZ/ELYwsJQE+7Di1Nl92FDAr2lfKiWA762JO2tFW8eVG9rI39i0n/+kQzsbMjAC3i5zPZOxQdh7OE9b+BwXxggDDbOxI9H/6i58AJ8CO9OUdCxkj0hsAOhif/9etwcxlHOxTl8uVmIM6KTsqknE64c+fjmIuM8HOzmMcoWljlh08L/7lnl71M+YyrJy+AD/Sd0mteITwK5yo4kuc5zcXJeInx0VfYDgnX7krxjPyRB/2Y+fgHii6OOenK4/HOlxY6KteBbecFQXMuhZ4oiwDJ4OVO4NAWI97xfj7+yM2NhYGgwEPPvhgX1vsdhgMBqxatUp0mSlTpsBgMOAXv/iFMG/v3r2YMmXK9Tbdq6gDSAghg4S7O3+EuMqbGTzWrl2LpUuXIi4uDpMnT0ZpaSkuXbokRAUvWbIEYWFhwmPkJ554AklJSfj973+P9PR0vPXWWzh48CC2bmX/4LsZUAeQEEIIIYPGQw89hJaWFuTn56OpqQkTJkzAhx9+KAR61NfXw+c7722dOnUq3nzzTTz11FPQ6XQYO3YsysvLb+p3AALUASSEEEKIh3n7lZSrVq1iPvKtqqq6Yt6CBQuE9wn/UHgsCrilpQUrV65EREQEZDIZ1Go1UlNTsX//fgBAZGQkJBIJJBIJfH19odFokJWVhdbWVmEdZrMZWq0WY8aMgVwuh0qlQlJSEnbt2iXU2bBhA26//XYMHToUw4YNw8yZM1FTU+PUluPHj2PevHkIDQ1FUFAQ7r33Xqd0c4QQQgi5cdwZBUxc47E7gBkZGbBYLNDr9YiKikJzczMMBgNMpv+knyosLER2djZsNhuOHz+OnJwcrF69Gtu3bwcArFixAjU1NdiyZQtiYmJgMplgNBqd1vGjH/0IL7zwAqKiotDV1YVNmzZh9uzZOHHiBFQqFQBg7ty5GDt2LD7++GMEBASgtLQUc+fOxcmTJ685qoc1kuZOC7tPXSdnl/F64g1+4h/TVz6ufXysbfF+kQVxrjI5p+wMI3hEwwkCUXPKmjgBIv6MxcJ62cvstbMDPQJYzXAAPYxV8lLctYE9SPkuRkay85yPmJeqSsFJz6dgfF7HZOyNDXNx7LjZp/8/80da2SeU3Y99fIMZbazlBCP8s4V9vQ9jNOOl2a8ylwngnJ88rGCPFZz0cX+YxA4Qie1hHScHM+2gq/7JOL7jreygp4GCeY2DH2TFkiptc6kdJhfOG9Z1zPPNAEoFR7zPIx3AtrY2VFdXo6qqCklJSQCA0aNHY/LkyU71AgMDhQ5YWFgYli5dih07dgjlFRUV2Lx5M+bMmQOg765hbGys0zoeeeQRp3+XlJRg27ZtqKurw3333Yfz58/jq6++wrZt2zBu3DgAwDPPPIOXXnoJ//73v2/6sG5y47E6f8R7WJ0/4szdnT9y/Vzp/P0Q0J077/PII2CFQgGFQoHy8vIr3tbN0tDQgN27dyMhIUGYp1arsWfPHnR2dl7TOiwWC7Zu3Yrg4GCMHz8eAKBUKnHbbbfh9ddfx6VLl9Db24s//vGPuOWWW67oTBJCCCHE/RxunIhrPNIBlEqlKCsrg16vR0hICKZNmwadToe6ujqnenl5eVAoFAgICMCoUaMgkUhQUlIilG/duhVGo1HI8btmzRphDOF3vf/++1AoFJDL5di0aRP27t2L0NBQAIBEIsHf//53fP755wgMDIRcLkdJSQk+/PBDDBsm/jiwp6cHHR0dTlOvg245EEIIIeTm5LEgkIyMDDQ2NqKiogJpaWmoqqrCpEmTUFZWJtTJzc1FbW0t6urqYDAYAADp6emw2fo6W9OnT8epU6dgMBgwf/58HDlyBImJiSgqKnLaVkpKCmpra2E0GpGWloaFCxfi3LlzAACHw4Gf//znuOWWW1BdXY1PP/0UDz74IO6//358++23om0XSzPzf+1HbsBRIoQQQn747BL3TcQ1Hs0FLJfLMWvWLKxfvx5GoxGZmZkoKCgQykNDQxEdHY2xY8dixowZKC0thdFodIrQ9fPzQ2JiIvLy8lBZWYnCwkIUFRXBYrEIdYYOHYro6Gjcc8892LZtG6RSKbZt2wYA+Pjjj/H+++/jrbfewrRp0zBp0iS89NJLCAgIgF6vF223VqtFe3u70zQ9+M4bdJQIIYSQHzaKAvY+r74HMCYmBuXl5cxyX9++iKWuri7uOnp7e9Hd3Q1/f/F8VXa7XRh7aDabAcDpJY+X/223i59KYmlmIm3ih+6MH3tEQhDnpwovsMDGKONF31o462M1g3ch8doXYWOEsAJoZ6SkO8cZ+MxrBy9dHSs10lnOQkrOZ8I6vkMAnGcE0/F+jXJODShsjNRdPuzfaKwoVQBo5QT7BTFGLyg5YcVdHvypeIETSX2RUcTaJwDgBIFzIz3bGceQN/iDF5kt43z+rLRuvEjf1YfZEcIbY9czShx4wKeD3RAXsL4bLoCdjnKgmNDL/ttSy0lJyPIPawi3XOy1wa4OJhpm6//oN9bfEjI4eaQDaDKZsGDBAixfvhzjxo1DYGAgDh48iI0bN2LevHlCvc7OTjQ1NcHhcODs2bNYt24dVCoVpk6dCgBITk7GokWLEBcXB6VSiaNHj0Kn0yElJQVBQUG4dOkSnn76aTzwwAMYOXIkzp8/jxdffBENDQ3CCxynTJmCYcOGYenSpcjPz0dAQABeffVVfP3110hPT/fE4SA3OVbnj5CBzt2dP0JcRcEb3ueRDqBCoUBCQgI2bdqEkydPwmq1Ijw8HNnZ2dDpdEK9/Px85Of3/eJVqVSIj49HZWUllEolACA1NRV6vR46nQ5msxkajQZz584VlvH19cWXX34JvV6P8+fPC8Ei1dXVuPPOvke2oaGh+PDDD/Hkk09ixowZsFqtuPPOO7Fr1y4hUpgQQgghN46duoBe55EOoEwmQ3FxsZBYWczp06evuh6tVgutVsssl8vleO+99666nri4OHz00UdXrUcIIYQQ8kNEuYAJIYQQ4lEUvOF91AEkhBBCiEfRA2Dvow6gi+L820Xnv+xgR45968sOwbJxLod3W/8pOv+FIXHMZY6JB0QDYOcx7pKw26BwsCMzD8rZ0X5qRljkaT927NtIOzvKgheN3CwR31gnJzZTJmHniT3HiR4exgj3PccJEOGNeflS2i06PwZDmMuEW9nHsEHKbkgooxknOWHKrsa9dLkQddjIOe4mifg+Wzk5Tn3BbkQrZ1s+jKJ2RhsAYISD/ZV6gfP5X5SI3w9h5/TlRfoC6w4VMcuejHuSvU5mCRvrmmzk5G0eKI74sr+vzS6cu1EWXhy4OLmLPaGjnO94FleuR/LDRR1AQvqJ1fkjZKDjdf4I8SR6BOx91AEkhBBCiEfR72jvG/j36AkhhBBCiFvRHUBCCCGEeBS9B9D7PHYHsKWlBStXrkRERARkMhnUajVSU1Oxf/9+AEBkZCQkEgkkEgl8fX2h0WiQlZWF1tZWYR1msxlarRZjxoyBXC6HSqVCUlISdu3aJbrNFStWQCKRoLS01Gn+008/jalTp2LIkCEICQm5UbtMCCGEEBEON07ENR67A5iRkQGLxQK9Xo+oqCg0NzfDYDDAZDIJdQoLC5GdnQ2bzYbjx48jJycHq1evxvbt2wH0dehqamqwZcsWxMTEwGQywWg0Oq3jsp07d+KTTz6BRqO5osxisWDBggWYMmUKtm3b5tL+VNiDROdHcCIOVZykjx2crvivg+NF57dwzvyx1v5fFqE2dgPPcfKzyhzsbZ3xEz8eCzk5OB0O9jFssLGj9npk4pGgwzgxrKGcz8TB+CybOFdNTA97aLNVwt6vn95+5TkMACe/5BwLTgTzf8suMMv22oeLzr+FMyhH5uKIbY21/wuGchKW+vqKH/yhLubF5u0zK7e0jPO1ycv3O5RzXvv7iJ+jrDYAwAM+4m8iAPjBHk8ffJq9UhewgsfvtopHtg8kvNy4j+WKf8fzfO3X/z+p3S6OhZtrv9jvZXjnJxl8PNIBbGtrQ3V1NaqqqpCUlAQAGD16NCZPnuxULzAwEGq1GgAQFhaGpUuXYseOHUJ5RUUFNm/ejDlz5gDou2sYGxt7xfYaGhrw+OOP46OPPhLN7/ub3/wGAFBWVuaW/SOEkJuBuzt/hLiKooC9zyOPgBUKBRQKBcrLy9HT03NNyzQ0NGD37t1ISEgQ5qnVauzZswednZ3M5ex2OxYvXozc3Fwh/+/16unpQUdHh9PU6+DcOiKEEEIIkx0Ot03ENR7pAEqlUpSVlUGv1yMkJATTpk2DTqdDXV2dU728vDwoFAoEBARg1KhRkEgkKCkpEcq3bt0Ko9EIpVKJ+Ph4rFmzRhhDeNmzzz4LqVSK1atXu639xcXFCA4Odpr+t/2I29ZPCCGEEOJJHgsCycjIQGNjIyoqKpCWloaqqipMmjTJ6TFsbm4uamtrUVdXB4PBAABIT0+H7f+PTZs+fTpOnToFg8GA+fPn48iRI0hMTERRUd9b7w8dOoTNmzejrKwMEs54q/7SarVob293mpKC3XN3kRBCCBlsKAjE+zz6HkC5XI5Zs2Zh/fr1MBqNyMzMREFBgVAeGhqK6OhojB07FjNmzEBpaSmMRiP27dsn1PHz80NiYiLy8vJQWVmJwsJCFBUVwWKxoLq6GufOnUNERASkUimkUinOnDmDX/7yl4iMjHS53TKZDEFBQU6TVOJqcixCCCFkcLO7cSKu8eqLoGNiYnDp0iVmua9vXyerq4sdMRoTE4Pe3l50d3dj8eLFqKurQ21trTBpNBrk5ubio48+cnv7CSHkZkKp4Aghl3kkCthkMmHBggVYvnw5xo0bh8DAQBw8eBAbN27EvHnzhHqdnZ1oamqCw+HA2bNnsW7dOqhUKkydOhUAkJycjEWLFiEuLg5KpRJHjx6FTqdDSkoKgoL6QvaVSqXTtv38/KBWq3HbbbcJ8+rr63HhwgXU19fDZrOhtrYWABAdHQ2FQnFN+/TkmTeu55AQF4m/EKfPg55qhAeNuAHrvP0GrJPlx01v9nuZn33z5xvQksFlowe39cv6m/fzWnHWvW135dx93MU2TDor/v5bnlVu3t/rQcEb3ueRDqBCoUBCQgI2bdqEkydPwmq1Ijw8HNnZ2dDpdEK9/Px85OfnAwBUKhXi4+NRWVkpdOpSU1Oh1+uh0+lgNpuh0Wgwd+5cYZlrlZ+fD71eL/x74sSJAIB9+/YhOTn5OveWEEIIITzU/fM+icPBeYsvIYQQQoibrYl82G3r2nT6LbetazChXMCEEEII8SgK3vA+6gASQgghxKMc9BDY67waBUwIIYQQQjyP7gASQgghxKPoEbD3UQeQEEIIIR5Fr4HxPnoETAghhBAyyNAdQEIIIYR4FN3/8z6P3QFsaWnBypUrERERAZlMBrVajdTUVOzfvx8AEBkZCYlEAolEAl9fX2g0GmRlZaG1tVVYh9lshlarxZgxYyCXy6FSqZCUlIRdu8TfiL5ixQpIJBKUlpaKlvf09GDChAmQSCRCNhBCCCGE3Fh2ONw2Edd47A5gRkYGLBYL9Ho9oqKi0NzcDIPBAJPJJNQpLCxEdnY2bDYbjh8/jpycHKxevRrbt28H0Nehq6mpwZYtWxATEwOTyQSj0ei0jst27tyJTz75BBqNhtmmdevWQaPR4J///Ge/9+cNzU9E55/yY5+MIXYJs8zCLoKVUTail71Mhy+7zBU+nGuMs1sIt4gP9bVJ2At1+LLLWMcCAC4xyswSduM1NvYKfRmLtbr52AJAJ6ON43rYbeccCtwb28As21EXLjp/RC97W01S3tbY6azeGfkoc5kF34qnU9wcIX5tAYCVMZ/XugDOuWvjLMc6r+Ms3cxl/i2Vs7fFaeR4q/g6/+nHXl8PZ328Ms5XlEtp3aznT4nOf3UiP0PTYwMgLdkmzrnGuzvyBOM4bQlnrw8Qv05euMoyrPRt20bxl8sSSUvnSvsGswsXLuDxxx/H7t274ePjg4yMDGzevJmZMvbChQsoKChAZWUl6uvroVKp8OCDD6KoqAjBwcEebv3VeaQD2NbWhurqalRVVSEpKQkAMHr0aEyePNmpXmBgINRqNQAgLCwMS5cuxY4dO4TyiooKbN68GXPmzAHQd9cwNjb2iu01NDTg8ccfx0cffYT09HTRNv3tb39DZWUl/vrXv+Jvf/ubW/aTEEIGMl7njxBPuhmigB999FF8++232Lt3L6xWK5YtW4acnBy8+aZ4jvPGxkY0Njbi+eefR0xMDM6cOYMVK1agsbER7777rodbf3UeywWsUChQXl6Oe+65BzKZ7KrLNDQ0YPfu3UhISBDmqdVq7NmzBz/+8Y8RGBgoupzdbsfixYuRm5uLO++8U7ROc3MzsrOzUV5ejiFDhly1LT09Pejp6XGaZ3XY4Ce5AbeCCCGEkB+4gf4i6C+++AIffvghPvvsM8TFxQEAtmzZgjlz5uD5558Xfbp411134a9//avw7zFjxuDpp5/GT37yE/T29kIqHVhhFx4ZAyiVSlFWVga9Xo+QkBBMmzYNOp0OdXV1TvXy8vKgUCgQEBCAUaNGQSKRoKSkRCjfunUrjEYjlEol4uPjsWbNGmEM4WXPPvsspFIpVq9eLdoWh8OBzMxMrFixQvhQr6a4uBjBwcFOU8XFI/08CoQQQgi5GRw4cAAhISFO/YSZM2fCx8cHNTU117ye9vZ2BAUFDbjOH+DBIJCMjAw0NjaioqICaWlpqKqqwqRJk1BWVibUyc3NRW1tLerq6mAwGAAA6enpsNn6RupMnz4dp06dgsFgwPz583HkyBEkJiaiqKgIAHDo0CFs3rwZZWVlkDDGmG3ZsgWdnZ3QarXX3HatVov29nan6QGF+N1FQgghhPDZ3Tj19PSgo6PDafr+U7v+ampqwi233OI0TyqVYvjw4WhqarqmdZw/fx5FRUXIycm5rrbcKB59D6BcLsesWbOwfv16GI1GZGZmoqCgQCgPDQ1FdHQ0xo4dixkzZqC0tBRGoxH79u0T6vj5+SExMRF5eXmorKxEYWEhioqKYLFYUF1djXPnziEiIgJSqRRSqRRnzpzBL3/5S0RGRgIAPv74Yxw4cAAymQxSqRTR0dEAgLi4OCxdulS03TKZDEFBQU4TPf4lhBBCXONw439iT+mKi4tFt/vrX/9aeOMIa/ryyy+ve/86OjqQnp6OmJgYbNiw4brXdyN49Z5kTEwMysvLmeW+vn2drK6uLu46ent70d3djcWLF2PmzJlO5ampqVi8eDGWLVsGAPjDH/6A3/72t0J5Y2MjUlNT8fbbbzuNN7yaBj/x+cM4IbEaK3vYa4Nf//vicgd7DMUlB7sdroy8GMJZiP3pACap+H5d5Owub6B6EGfksJ25TvaxCLeyQ6lZJWYf9mXDazvvE1Yw2tjLieYMtVuYZUcO3cIs82M0/6IPe2NTHBfZDeGYOOx8v5eRcY5hMOPz50WHd3PKeBHsrMj3f3Eic3kD23llhxnrHG9l38W4AMaXEIBGzvfJ3YyIY1exon2zPy9063ZuhMyEb5hlB/5P3e/1RVl4ceXihroYDcE75wcbrVaLtWvXOs1jxRr88pe/RGZmJnd9UVFRUKvVOHfunNP83t5eXLhwQQhWZens7ERaWhoCAwOxc+dO+Pmxr1Vv8kgH0GQyYcGCBVi+fDnGjRuHwMBAHDx4EBs3bsS8efOEep2dnWhqaoLD4cDZs2exbt06qFQqTJ06FQCQnJyMRYsWIS4uDkqlEkePHoVOp0NKSgqCgoIAAEql0mnbfn5+UKvVuO222wAAERERTuWXw7nHjBmDUaNG3bBjQAgh3ubuzh8hrnJnFLBMJrum4FIAUKlUUKlUV603ZcoUtLW14dChQ8LbRj7++GPY7XbuzaKOjg6kpqZCJpOhoqICcjn7B6O3eSwKOCEhAZs2bcLJkydhtVoRHh6O7Oxs6HQ6oV5+fj7y8/t+TapUKsTHx6OyslLo1KWmpkKv10On08FsNkOj0WDu3LnCMoQQQggZ+OycJ1gDwR133IG0tDRkZ2fjlVdegdVqxapVq/Dwww8LEcANDQ2477778Prrr2Py5Mno6OjA7NmzYTab8ec//1kYjwj09WkuP9UcKDzSAZTJZCguLmY+kweA06dPX3U9Wq22X8Eb17LeyMhIOAb4iUgIIYQQz3rjjTewatUq3HfffcKLoP/whz8I5VarFceOHYPZbAYAHD58WIgQvhxfcNnXX38txCIMFAMvLpkQQgghP2g3w22X4cOHM1/6DFx5Ayk5OfmmuqHk0ShgQggh3sMLYCHEkygXsPdJHDdTd5UQQgghN71Fox9027p2nCl327oGE7oDSAghhBAyyNAYQEIIIYR4lDtfA0NcQx1AQgghhHgUjd3zPo89Am5pacHKlSsREREBmUwGtVqN1NRU7N+/H0BfNM3lNCy+vr7QaDTIyspCa2ursA6z2QytVosxY8ZALpdDpVIhKSkJu3btEt3mihUrIJFIUFpaKsyrqqpipn/57LPPbugxIIQQQggZCDx2BzAjIwMWiwV6vR5RUVFobm6GwWCAyWQS6hQWFiI7Oxs2mw3Hjx9HTk4OVq9eje3btwPo69DV1NRgy5YtiImJgclkgtFodFrHZTt37sQnn3wivLDxsqlTp+Lbb791mrd+/XoYDAbExcXdgD0nhBBCyHc56A6g13mkA9jW1obq6mpUVVUhKSkJADB69GhMnjzZqV5gYKCQYy8sLAxLly7Fjh07hPKKigps3rwZc+bMAdB31/ByipbvamhowOOPP46PPvoI6enpTmX+/v5OefysVit27dqFxx9/HBIJJVckhBBCbjQaA+h9HnkErFAooFAoUF5ejp4ednLz72poaMDu3budcu6p1Wrs2bMHnZ2dzOXsdjsWL16M3Nxc3HnnnVfdTkVFBUwmE5YtW3ZN7SKEEEIIudl5pAMolUpRVlYGvV6PkJAQTJs2DTqdDnV1dU718vLyoFAoEBAQgFGjRkEikaCkpEQo37p1K4xGI5RKJeLj47FmzRphDOFlzz77LKRSKVavXn1Nbdu2bRtSU1MxatQoZp2enh4hp9/l6Vo7soQQQghx5nA43DYR13gsCCQjIwONjY2oqKhAWloaqqqqMGnSJJSVlQl1cnNzUVtbi7q6OhgMBgBAeno6bDYbAGD69Ok4deoUDAYD5s+fjyNHjiAxMRFFRUUAgEOHDmHz5s0oKyu7pse533zzDT766CNkZWVx6xUXFyM4ONhp4uU1JoQQQggbZQLxPq9mAvnpT3+KvXv34syZM4iMjMQvfvEL/OIXvxDKP/nkE0yZMgV79+7FzJkzRdfx29/+FoWFhbh48SJeeuklrF27Fj4+/+nX2mw2+Pj4IDw8HKdPn3ZatqioCFu2bEFDQwP8/PyY7ezp6bnijp9MJoNMJuv/ThNCCCGD3LyIuW5b16769922rsHEq+8BjImJQXl5ObPc19cXANDV1cVdR29vL7q7u7F48eIrOoqpqalYvHjxFWP8HA4H/vSnP2HJkiXczh9AnT1CCCHEnSgIxPs80gE0mUxYsGABli9fjnHjxiEwMBAHDx7Exo0bMW/ePKFeZ2cnmpqa4HA4cPbsWaxbtw4qlQpTp04FACQnJ2PRokWIi4uDUqnE0aNHodPpkJKSgqCgIACAUql02rafnx/UajVuu+02p/kff/wxvv76a/z0pz+9wXtPCCGEkO+i18B4n0c6gAqFAgkJCdi0aRNOnjwJq9WK8PBwZGdnQ6fTCfXy8/ORn58P/L/27jysqSv/H/g7BFk0sgoGVEDAtdXWIiJYC66AWusUfWq1ViziMuM4Oh0X6KhVcPxaO7VUZ55W2you1amt1nXcULTK4lbFulZRFFm0LAKyw+f3Bz/uGMm9JhiSQD6vPvfpk3ty3znnJsGTu5wDwMnJCb6+vjh8+LDQqQsODkZ8fDyio6NRWloKV1dXjBo1SthGG9988w0CAgLQvXt33TSSMcYYY6yZMOg1gIwxxhgzPSPcRugs68C9AzrLMiU8FzBjjDHG9IqPPRme3oaBYYwxxhhjxoGPADLGGGNMr/guYMPjDiBjjDHG9IrvAjY8PgXMGGOMMWZi+AggY4wxxvSKp3AzPO4AMsYYY0yv+C5gw9PbKeBHjx5h5syZcHNzg6WlJZRKJYKDg3H69GkAgIeHB2QyGWQyGeRyOVxdXREREYGCggIho7S0FFFRUfDy8oKVlRWcnJwQGBiI3bt3C88JDw8XcuqXkJAQlbrk5+dj4sSJsLGxgZ2dHSIiIlBSUqKfHcEYY4wxZmB6OwIYFhaGyspKxMfHw9PTE7m5uUhISEBeXp7wnGXLliEyMhI1NTW4efMmpk2bhtmzZ2Pz5s0AgBkzZiA1NRVr1qxBz549kZeXh6SkJJUMAAgJCcGGDRuEx8/O4ztx4kRkZ2fjyJEjqKqqwpQpUzBt2jR89913TbgHGGOMMQbwKWBjoJcOYGFhIX7++WckJiYiMDAQAODu7o5+/fqpPK9t27ZQKpUAgA4dOmDy5MnYtm2bUL5nzx7ExcVhxIi6EcQ9PDzg4+PT4PXqjzCqc+3aNRw8eBBnz55F3759AQBr1qzBiBEj8Omnn8LV1fXFG8wYY4wxUXwXsOHp5RSwQqGAQqHATz/9hIqKCo22efDgAfbu3Qs/Pz9hnVKpxIEDB1BcXCy5bWJiIpydndGtWzfMnDlT5QhhcnIy7OzshM4fAAwdOhRmZmZITU1Vm1dRUYGioiKVRdN2MMYYY4wZG710AM3NzbFx40bEx8fDzs4OAwYMQHR0NNLS0lSet2DBAigUClhbW6Njx46QyWT47LPPhPJ169YhKSkJjo6O8PX1xdy5c4VrCOuFhIRg06ZNSEhIwMqVK3HixAmEhoaipqYGAJCTkwNnZ+cG9XNwcEBOTo7a+q9YsQK2trYqy4oVK3SxaxhjjDGTU0uks4U1jt5uAgkLC0NWVhb27NmDkJAQJCYm4rXXXsPGjRuF58ybNw8XL15EWloaEhISAAAjR44UOm9vvPEG0tPTkZCQgLFjx+LKlSsYOHAgYmJihIzx48dj9OjR6NWrF8aMGYN9+/bh7NmzSExMbHTdo6Ki8PjxY5UlKiqq0XmMMcaYKSMdLqxx9DoQtJWVFYYNG4ZFixYhKSkJ4eHhWLJkiVDerl07eHt7o0uXLhg8eDA+//xzJCUl4fjx48JzWrVqhYEDB2LBggU4fPgwli1bhpiYGFRWVqp9TU9PT7Rr1w63bt0CUHca+eHDhyrPqa6uRn5+vuh1g5aWlrCxsVFZnr2xhDHGGGOsuTDoOIA9e/bETz/9JFoul8sBAGVlZZIZ1dXVKC8vh4WFRYPyzMxM5OXlwcXFBQDg7++PwsJCnD9/XriB5NixY6itrVW53vB51nZ6T+36Gpn4Nu2qxctyJN6JJzL1v3HaS7yYU7X4TItFcu37/ZYSh9mrZOL1eCzyUmUSVbCvES9zrxLfiQ/M1e/EfLl4ntQXwKNS/T58aC5e+SqJ919qr1eJrG8t8fO2QuK1JHYh3KrUt6tS4n3MNZd4MQCz7m9Ru36NyPcEAP7ciG06idQ9T+I9kTdyH5aKRErtWyuJ15J6/8tE6mEtkfdqtfjfxStya9Eyqb9RM0TeEymr3dS/X+F+mZLb2e9I1Pq1dK3q93TRsi2vLBYtm/JA/X76t8RnFwD+qGb/Sn3eAfHvSZzIfq/3l3u6e62mwHcBG55eOoB5eXkYN24cPvjgA/Tu3Rtt27bFuXPn8Mknn+Ctt94SnldcXIycnBwQEe7fv4/58+fDyckJAQEBAICgoCC8++676Nu3LxwdHXH16lVER0dj0KBBsLGxQUlJCZYuXYqwsDAolUrcvn0b8+fPh7e3N4KDgwEAPXr0QEhICCIjI/Hll1+iqqoKs2bNwvjx4/kOYMZYiybV+WNMn7gDaHh66QAqFAr4+flh9erVuH37NqqqqtCpUydERkYiOjpaeN7ixYuxeHHdry4nJyf4+vri8OHDcHR0BAAEBwcjPj4e0dHRKC0thaurK0aNGiVsI5fLkZaWhvj4eBQWFsLV1RXDhw9HTEyMyinbrVu3YtasWRgyZAjMzMwQFhaGL774Qh+7gjHGGGPM4PTSAbS0tMSKFSsk75y9e/fuc3OioqIkb76wtrbGoUOHnpvj4ODAgz4zxhhjBsJTwRkezwXMGGOMMb3iU8CGp9e7gBljjDHGmOHxEcBGypGrvxvRtUa8T/1Y4m5UhfhNu4CZ+iu3pe44lWJXo/7FXMzKRbe5R+J3FZZL1KNWpOwdR/WDbgOAzEz8l2H+ozaiZdfIRu16i0b+0CwxU/9elkj8bGol8VpSd486V6vfcFBP8Tsp/3Ozk2jZWPcHomXf3+ugdr1U3aXKpLRqxDZSd4Hfb6V+54t9zp6ntcT3zlykzVKvJfUHVWIQANFf4lL1u2gu/p0slajjH+ep/540lljdk0+qH1ar3gid1qJxpO70fe/SMq3zLBvxPZH4Z0HSKJtHWm9jTPcA8VRwhsdHABljzETouvPHWGMRkc6WppKfn4+JEyfCxsYGdnZ2iIiIQElJicbtCw0NhUwmkxzuzpC4A8gYY4wx9oyJEyfiypUrOHLkCPbt24eTJ09i2rRpGm37+eefQyYxtqox4FPAjDHGGNMrY78J5Nq1azh48CDOnj2Lvn37AgDWrFmDESNG4NNPP5UcN/jixYv45z//iXPnzgmTUBgjvR0BfPToEWbOnAk3NzdYWlpCqVQiODgYp0+fBgB4eHhAJpNBJpNBLpfD1dUVERERKCgoEDJKS0sRFRUFLy8vWFlZwcnJCYGBgdi9e7fwnPDwcCGnfgkJCVGpy+jRo+Hm5gYrKyu4uLhg0qRJyMrK0s+OYIwxxkycLk8BV1RUoKioSGWpqKh4ofolJyfDzs5O6PwBwNChQ2FmZobU1FTR7UpLSzFhwgT861//Ep1e1ljorQMYFhaGX375BfHx8bh58yb27NmDoKAg5OXlCc9ZtmwZsrOzce/ePWzduhUnT57E7NmzhfIZM2Zg586dWLNmDa5fv46DBw9i7NixKhkAEBISguzsbGHZtm2bSvmgQYPw/fff48aNG/jxxx9x+/ZtjB07tml3AGOMGdi/VxUZugqM6dyKFStga2urskiNO6yJnJwcODs7q6wzNzeHg4MDcnLEb2KcO3cuAgICVGY5M1Yy0sNojIWFhbC3t0diYiICAwPVPsfDwwNz5szBnDlzhHWxsbHYtm0brly5AgCws7NDXFwcJk+eLPpa4eHhKCws1Oqiyz179mDMmDGoqKhAq1aNuW+RMcYYY5p6RRmgs6wzGccbHPGztLRUmQGs3sKFC7Fy5UrJvGvXrmHnzp2Ij4/HjRs3VMqcnZ2xdOlSzJw5s8F2e/bswYcffohffvkFCoUCACCTybBr1y6MGTNGy1Y1Pb1NBadQKPDTTz+hf//+at+UZz148AB79+6Fn5+fsE6pVOLAgQN4++230bZtW9FtExMT4ezsDHt7ewwePBixsbHCdHLPys/Px9atWxEQEMCdP8YYY0wPdDkMjFhnT50PP/wQ4eHhks/x9PSEUqnEw4cPVdZXV1cjPz9f9NTusWPHcPv2bdjZ2amsDwsLw8CBA5GYmKhRHfVFL0cAAeDHH39EZGQkysrK8NprryEwMBDjx49H7969AdQdAczOzkarVq1QU1OD8vJy+Pn54eDBg8LOPHnyJCZOnIjc3Fy88soreP311zF27FgMGDBAeJ3t27ejdevW6Ny5M27fvo3o6GgoFAokJydDLv/fiEsLFizA2rVrUVpaiv79+2Pfvn2incSKigqNf10wxhhjTFpvpb/OstJyknWWVe/atWvo2bMnzp07Bx8fHwDA4cOHERISgszMTLU3geTk5OD3339XWderVy/ExcXhzTffROfOnXVezxehtw4gAJSXl+Pnn39GSkoK/vvf/+LMmTP4+uuvER4eDg8PD7z33nsIDw8HEeH+/fuIjo6GXC7HyZMnhc5bVVUVUlJSkJSUhISEBBw9ehRLly7FokWL1L5meno6vLy8cPToUQwZMkRY//vvvyM/Px8ZGRlYunQpbG1tsW/fPrW3bX/88cdYunSpyrolS5bg448/1t3OYYwxxkzEy+376yzr19wUnWU9LTQ0FLm5ufjyyy9RVVWFKVOmoG/fvvjuu+8A1J2pHDJkCDZt2oR+/fqpzTDmU8B67QA+a+rUqThy5AgyMjLUXgOYkpICf39/HDlyBEOHDlWbERsbi2XLlqGkpAQWFhZqn+Pk5ITY2FhMnz5dbXlmZiY6deqEpKQk+Ps3/FXCRwAZY4wx3Xmpvd/zn6ShK7nid+W+iPz8fMyaNQt79+6FmZkZwsLC8MUXXwjX9929exedO3fG8ePHERQUpDbDmDuABh0HsGfPnpI3a9Qf9SsrK5PMqK6uRnl5udoOYGZmJvLy8iTH4qmtrZtvSey2cXWdvdke76h9rlut+HWEUtMESV19KDaFlFTPvXtllWgZiUwIJDUbnYVE6XWRjrdUptTt51JlcolGO1arf7VbluKJjhLTjhVIVGRcO/V3gR3LFb/tX2oKMbGpu6oltmnsLfzKKvU7MauV+Iu9XCH+eQKAYbn/Ubt+Y4f3RLcJf7BF7fofXCaKblMuMrCq1L4tkJhrS+rzJFZUKfFa1o2cTq9I5M0MNi8U3eZUlZ1omWel+MRzd1qJ/9mfnqn+PZGyppP699izUmryQ2Bk7jbJcn34t0jdAem/1xEi+6nq93TJ12vVzrPBurUSdQCAWffVv1acm/R2f7nXcLv1HaW3iWzE+9+SOTg4CEf71PHw8HjuTCQGPMb2XHrpAObl5WHcuHH44IMP0Lt3b7Rt2xbnzp3DJ598onKrdHFxMXJycoRTwPPnz4eTkxMCAuruFgoKCsK7776Lvn37wtHREVevXkV0dDQGDRoEGxsblJSUYOnSpQgLC4NSqcTt27cxf/58eHt7Izg4GACQmpqKs2fP4vXXX4e9vT1u376NRYsWwcvLS+3RP8aeJdb5Y8zYSXX+GNOnWiPuGJkKvd0F7Ofnh9WrV+P27duoqqpCp06dEBkZiejoaOF5ixcvxuLFdZNzOzk5wdfXF4cPHxZuzggODkZ8fDyio6NRWloKV1dXjBo1SthGLpcjLS0N8fHxKCwshKurK4YPH46YmBjhCF7r1q2xc+dOLFmyBE+ePIGLiwtCQkLw97//nU/pMsYYY3qgy7uAWePopQNoaWmJFStWSA7MePfu3efmREVFISoqSrTc2toahw4dkszo1asXjh079tzXYowxxhhrqfh8AGOMMcb0ik8BGx53ABljjDGmV3wK2PD0NhcwY4wxw+pcJX53MGPMtBh0HEDGGGOMmR6vdq/pLOv27xd0lmVK+BQwY4wxxvSKTwEbHp8CZowxxhgzMXwEkDHGGGN6RSQ19xTTB70dAXz06BFmzpwJNzc3WFpaQqlUIjg4GKdPnwZQN6WKTCaDTCaDXC6Hq6srIiIiUFBQIGSUlpYiKioKXl5esLKygpOTEwIDA7F7927hOeHh4UJO/RISEtKgPvv374efnx+sra1hb29vlPP0McYYYy1RLUhnC2scvR0BDAsLQ2VlJeLj4+Hp6Ync3FwkJCQgLy9PeM6yZcsQGRmJmpoa3Lx5E9OmTcPs2bOxefNmAMCMGTOQmpqKNWvWoGfPnsjLy0NSUpJKBgCEhIRgw4YNwuNnZ/j48ccfERkZiX/84x8YPHgwqqur8euvv2rVnr97TFC7XlnTuD61slr8Q3xfZI7WqaPzRbeJ3+3QqHo0hlSLbUSmAy2UmJ+1sWpE5mi1kvihOapTlmjZhTvt1a5/aC5e+RKJnWEm8XeqMbujQ5V4wx60Eq+I9Ayt6jk8Z6OJWernEL3qNVJ0m56396tdLza3LAB4VKmvSEYr8T0oOQe3RJnYe/lypfo5wwHgtdGPRctuHbQWLfutWqF2fZ65+MTDUm+JlUS7yiXmMv6zyLyzUsTmsm3znAM8U0TmgtYnqc+a1HfyjyL7qTHz+jZm/uDGvtY2V/F5tgHg3aytkuWsZdFLB7CwsBA///wzEhMTERgYCABwd3dHv379VJ7Xtm1bKJVKAECHDh0wefJkbNv2vwnD9+zZg7i4OIwYMQJA3VFDHx+fBq9Xf4RRnerqavzlL3/BqlWrEBERIazv2bPnizWSMcaMnFTnjzF94gFIDE8vp4AVCgUUCgV++uknVFSI/3p+2oMHD7B37174+fkJ65RKJQ4cOIDi4mLJbRMTE+Hs7Ixu3bph5syZKkcIL1y4gAcPHsDMzAx9+vSBi4sLQkNDJY8AVlRUoKioSGWppsYcR2GMMcYYnwI2PL10AM3NzbFx40bEx8fDzs4OAwYMQHR0NNLS0lSet2DBAigUClhbW6Njx46QyWT47LPPhPJ169YhKSkJjo6O8PX1xdy5c4VrCOuFhIRg06ZNSEhIwMqVK3HixAmEhoaipqauw5aeXne4/eOPP8bf//537Nu3D/b29ggKCkJ+vvpTqitWrICtra3KkvT4qi53EWOMMcaY3ujtJpCwsDBkZWVhz549CAkJQWJiIl577TVs3LhReM68efNw8eJFpKWlISEhAQAwcuRIofP2xhtvID09HQkJCRg7diyuXLmCgQMHIiYmRsgYP348Ro8ejV69emHMmDHYt28fzp49i8TERABAbW3dhSkfffQRwsLC4OPjgw0bNkAmk2HHjh1q6x4VFYXHjx+rLAG2fMqYMcYYawwi0tnCGkev4wBaWVlh2LBhWLRoEZKSkhAeHo4lS5YI5e3atYO3tze6dOmCwYMH4/PPP0dSUhKOHz8uPKdVq1YYOHAgFixYgMOHD2PZsmWIiYlBZWWl2tf09PREu3btcOvWLQCAi4sLANVr/iwtLeHp6Yl79+6pzbC0tISNjY3KYi5rgrsYGGOMMRNQS6SzhTWOQQeC7tmzJ548eSJaLpfXdbLKysokM6qrq1FeXq62PDMzE3l5eULHz8fHB5aWlrhx44bwnKqqKty9exfu7u6NaQZjjDULUncHM8ZMi17mAs7Ly8O4cePwwQcfoHfv3mjbti3OnTuHP//5zxg5ciS++eYbeHh4ICIiApGRkSAi3L9/H/Pnz8fVq1dx7do1ODo6IigoCO+++y769u0LR0dHXL16FX/961/RoUMHJCQkoKSkBEuXLkVYWBiUSiVu376N+fPno7i4GJcvXxaGg5kzZw5++OEHfPvtt3B3d8eqVauwd+9eXL9+Hfb29k29OxhjjDGTprTrobOsnMJrOssyJXoZBkahUMDPzw+rV6/G7du3UVVVhU6dOiEyMhLR0dHC8xYvXozFixcDAJycnODr64vDhw/D0dERABAcHIz4+HhER0ejtLQUrq6uGDVqlLCNXC5HWloa4uPjUVhYCFdXVwwfPhwxMTEqYwGuWrUK5ubmmDRpEsrKyuDn54djx45x548xxhjTA752z/D0cgSQMcYYY6xee9vuOsvKfXxdZ1mmhOcCZowxxphe8fh9hscdQMYYY4zpFZ98NDzuADbSbqX6uYBvWIrfWK2QmBuzTGKKJrG5TK0lvj9SeWKbtRLfBFUSZVID4lSI1CO4VYHoNuYW4rOsHC5pp/VrVUnsC6n5StuKlBVINFjqtnqpuYBrRerYs0J8z1+3EH/HbCXaJVb/PhJz3Ka1shQtA9TPOwpIz7UqNu/sFlfxbR6J/MVq7H5v7GdejNR3QWpqXLHPqNTfDPsa8YZdtRDfblRtiWjZa/d3i28o4puO6t8vqe8dAMxoxLzDuhbnJv5ZG2XzSLTM69dDWucBwF/uNWxzY+b0BRo3h7DU9xFo3FzQrPniDiBjjJkIqc4fY/rE4/cZHncAGWOMMaZXfArY8Aw6EDRjjDHGGNM/PgLIGGOMMb3iu4ANT29HAB89eoSZM2fCzc0NlpaWUCqVCA4OxunTpwEAHh4ekMlkkMlkkMvlcHV1RUREBAoK/nezQGlpKaKiouDl5QUrKys4OTkhMDAQu3f/78Ll8PBwIad+CQkJUanLhQsXMGzYMNjZ2cHR0RHTpk1DSQlfG8MYY4zpAxHpbGGNo7cOYFhYGH755RfEx8fj5s2b2LNnD4KCgpCXlyc8Z9myZcjOzsa9e/ewdetWnDx5ErNnzxbKZ8yYgZ07d2LNmjW4fv06Dh48iLFjx6pkAEBISAiys7OFZdu2bUJZVlYWhg4dCm9vb6SmpuLgwYO4cuUKwsPDm3wfsJbBXvwmZcaM2j4zhaGrwBiAuptAdLWwxtHLTCCFhYWwt7dHYmIiAgMD1T7Hw8MDc+bMwZw5c4R1sbGx2LZtG65cuQIAsLOzQ1xcHCZPniz6WuHh4SgsLMRPP/2ktnzdunVYtGgRsrOzYWZW1/+9fPkyevfujd9++w3e3t6NayRjjDHGNKJo3VlnWSWld3SWZUr0cgRQoVBAoVDgp59+QkWF+FhjT3vw4AH27t0LPz8/YZ1SqcSBAwdQXFwsuW1iYiKcnZ3RrVs3zJw5U+UIYUVFBSwsLITOHwBYW1sDAE6dOqU2r6KiAkVFRSqLpu1gjDHGmCrS4X+scfTSATQ3N8fGjRsRHx8POzs7DBgwANHR0UhLS1N53oIFC6BQKGBtbY2OHTtCJpPhs88+E8rXrVuHpKQkODo6wtfXF3PnzhWuIawXEhKCTZs2ISEhAStXrsSJEycQGhqKmpq683aDBw9GTk4OVq1ahcrKShQUFGDhwoUAgOzsbLX1X7FiBWxtbVWWFStW6HIXMcYYYyaDTwEbnl5OAdcrLy/Hzz//jJSUFPz3v//FmTNn8PXXXyM8PBweHh547733EB4eDiLC/fv3ER0dDblcjpMnT0Iurxtjv6qqCikpKUhKSkJCQgKOHj2KpUuXYtGiRWpfMz09HV5eXjh69CiGDBkCAPjuu+/w17/+Fb///jvkcjlmz56NzZs3Y+7cuViwYEGDjIqKigZH/CwtLWFpKT07AmOMMcYasrZ211lWWVmGzrJMiV47gM+aOnUqjhw5goyMDLXXAKakpMDf3x9HjhzB0KFD1WbExsZi2bJlKCkpgYWF+vmPnJycEBsbi+nTp6usz83NRZs2bSCTyWBjY4Pt27dj3LhxOmsfY4wxxhqysnLTWVZ5+T2dZZkSg44D2LNnT9GbNQAIR/3KysokM6qrq1FeXq62A5iZmYm8vDy4uLg0KGvfvj0A4Ntvv4WVlRWGDRumcd2XuU9Uu741iU+AKTa3LADUSMyb6Vytvo/+u7n4RrJGdOslqi6ZJ1V3J5G629aK30p7p5X4x1JqflGxelSLb4LOleJvyiNz9VdIuFeJJ/5mIV53C4l9KNYuqbdRat5ZqWs7Wos0uUhiI7H5qOtFZqqfQ/TfEnOP/lFk3tED7ceLbpMt8tmQmvt6Yv9M0bIfkjuKlom9JzYSd4FLfa7vthJ/xzwr1W+XKbGN1PeuMXOLA+Lzzkp53vyyYoxh3lmpuktNZSy2n9aLzItcT933ZJur+n9L6r2btVXt+sbM69uY+YObCl+7Z3h6uQYwLy8PgwcPxpYtW5CWloY7d+5gx44d+OSTT/DWW28JzysuLkZOTg6ys7Nx5swZzJs3D05OTggICAAABAUF4auvvsL58+dx9+5dHDhwANHR0Rg0aBBsbGxQUlKCefPmISUlBXfv3kVCQgLeeusteHt7Izg4WHidtWvX4sKFC7h58yb+9a9/YdasWVixYgXs7Oz0sTsYY8wgnteRZ4z9T35+PiZOnAgbGxvY2dkhIiJCozGDk5OTMXjwYLRp0wY2NjZ44403JA9kGYpejgAqFAr4+flh9erVuH37NqqqqtCpUydERkYiOjpaeN7ixYuxePFiAHWnbX19fXH48GE4OjoCAIKDgxEfH4/o6GiUlpbC1dUVo0aNEraRy+VIS0tDfHw8CgsL4erqiuHDhyMmJkbler0zZ85gyZIlKCkpQffu3fHVV19h0qRJ+tgVjDHGmMlrDgM4T5w4EdnZ2Thy5AiqqqowZcoUTJs2Dd99953oNsnJyQgJCUFUVBTWrFkDc3NzXLp0SWXkEWOhlw6gpaUlVqxYIXnn7N27d5+bExUVhaioKNFya2trHDp06Lk5mzZteu5zGGOMMdY0jL0DeO3aNRw8eBBnz55F3759AQBr1qzBiBEj8Omnn8LV1VXtdnPnzsXs2bOF0UUAoFu3bnqps7aMr0vKGGOMMWZAycnJsLOzEzp/ADB06FCYmZkhNTVV7TYPHz5EamoqnJ2dERAQgPbt2yMwMFB0jGFD4w4gY4yZiAqpOxsY0yPS4dIUkzXk5OTA2dlZZZ25uTkcHByQk5Ojdpv09LqbbD7++GNERkbi4MGDeO211zBkyBD89ttvL1SfJkHshZSXl9OSJUuovLzcaDM5z/gyOc/4MjnP+DI5zzgzjc2SJUsa9AuXLFmi9rkLFix4bp/y2rVrtHz5curatWuD7Z2cnOjf//632uzTp08TAIqKilJZ36tXL1q4cOELt1PXDDoOYEtQVFQEW1tbPH78GDY2NkaZyXkvztjraGp5TZHJeS/O2OtoanlNlWlstJms4dGjRyrTw6rj6emJLVu24MMPP0RBQYGwvrq6GlZWVtixYwf+8Ic/NNjuzp078PT0xObNm/Hee/8bpuedd96Bubk5tm5VP6SPoRh0HEDGGGOMsRehzcxcTk5OcHJyeu7z/P39UVhYiPPnz8PHxwcAcOzYMdTW1sLPz0/tNh4eHnB1dcWNGzdU1t+8eROhoaEa1U+f+BpAxhhjjLGn9OjRAyEhIYiMjMSZM2dw+vRpzJo1C+PHjxfuAH7w4AG6d++OM2fOAABkMhnmzZuHL774Aj/88ANu3bqFRYsW4fr164iIiDBkc9TiI4CMMcYYY8/YunUrZs2ahSFDhsDMzAxhYWH44osvhPKqqircuHEDpaWlwro5c+agvLwcc+fORX5+Pl555RUcOXIEXl5ehmiCJO4AviBLS0ssWbJE48PPhsjkPOPL5Dzjy+Q848vkPOPMNBUODg6Sgz57eHioHc9w4cKFKuMAGiu+CYQxxhhjzMTwNYCMMcYYYyaGO4CMMcYYYyaGO4CMMcYYYyaGO4CMMcYYYyaGO4CMMcYYYyaGh4HRodzcXHz11VdYvHjxC2d5enri0KFD6NKliw5q1jhpaWkaP7d3795NWJPnq62thZlZw98ztbW1yMzMhJubW6Oz79y5g1u3bsHFxQUvv/zyi1QTNTU12LVrF65duwagbrDRMWPGwNxc+69iTk4OUlNThYnJlUol/Pz8oFQqG103uVwuPE5NTUVFRQX8/f3RqlWrRmUCQGFhIXbs2IF79+7B3d0d48aNg62trdY56enpOHXqFLKzs2FmZgZPT08MGzbMaKe3qqqqwt27d+Hs7Nyo9j58+BC//vorfHx8YGtri9zcXMTHx6O2thYjR45Er169dFbXJ0+e4Pz583jjjTdeKGfKlClYvny5MFCuNp6ecUGX+Hti3N8TZkAGnYm4hbl48SKZmZlptU1cXJzaRS6XU1RUlPBYW9XV1bRq1Sry9fWl9u3bk729vcqiCZlMRmZmZsL/pZbG2LFjB40bN478/PyoT58+KoumHj9+TOPGjSMrKytydnamRYsWUXV1tVCek5OjVf1mzpxJxcXFRERUWlpKYWFhKvtg0KBBQrm2fv31V/L09KTWrVsL7WzTpg15eHjQ5cuXNc4pKSmhiRMnklwuJ3Nzc3J2diZnZ2cyNzcnuVxO7733Hj158kTjvKysLBowYADJ5XJ64403KD8/n0aOHEkymYxkMhl17dqVsrKyNM77wx/+QDt27BDa3K5dO3JyciI/Pz9q3749KZVKunr1qlbtHTt2rFAfMzMzUiqVJJfLSaFQ0Nq1azXOqldZWUnz5s0jLy8v8vX1pW+++UalXNvPzcqVK6m0tJSI6r57H374IVlYWJCZmRmZm5vTlClTqLKyUuO848ePU5s2bUgmk5FSqaSLFy9Sx44dqUuXLtStWzeytLSkQ4cOaZz3PNr+7bp06ZLapVWrVrRr1y7hsTZkMhl5eXnR8uXL6cGDB9o2oQH+nrz494S1bNwB1ILYH7365T//+Y/WnSGZTEYdO3YkDw8PlUUmk1GHDh3Iw8ODOnfurHVdFy1aRC4uLvTpp5+SlZUVxcTEUEREBDk6Omrcobx7966w7Nq1i7y8vOjLL78U2vvll19Sly5daNeuXVrXLy4ujhQKBc2aNYssLCxo+vTpNHToULK1taXo6GiNc2bPnk1du3alHTt20Pr168nd3Z1GjhxJFRUVRFT3D7lMJtM4z8zMjHJzc4mIKCoqijp27EjHjh2jJ0+e0KlTp8jLy4sWLlyoXWP/v/79+9Obb75J+fn5wrr8/HwaPXo0+fv7a5wTERFBXbp0oYMHD6p0dqurq+nQoUPUtWtXmjp1qsZ5kyZNooCAANqzZw+98847FBAQQAMHDqTMzEzKyMigAQMG0J/+9CeN8+zt7enatWtERBQaGkoTJkwQ3o/KykqKiIig4cOHa5w3bdo0GjBgAF2+fJl+++03Gjt2LM2fP5+ePHlC33zzDbVu3Zq2bt2qcR4R0ZIlS6h9+/a0atUq+uijj8jW1pamTZsmlL/I52bVqlVkb29P3377LV25coW2bNlCzs7OtHLlSo3zXn/9dfrTn/5ExcXFtGrVKurQoYPKe/C3v/2NAgICNM57Hm07gE//OHx2efoHkzZkMhlFRkYKnbSRI0fSrl27VD7j2uDvyYt/T1jLxh1ALTTFH73p06fTq6++2uCXnrm5OV25cqXRdfX09KR9+/YREZFCoaBbt24RUV3H691339U6z9fXl/bv399g/f79++m1117TOq9bt2703XffCfW7ffs2EdV1XLX5I+rm5kbHjx8XHj969Ij69etHw4cPp/Lycq2P5MhkMuEf8pdfflmoY73du3dT165dNc57mpWVFf36668N1l++fJmsrKw0zrGzs6PTp0+Llp86dYrs7Ow0znNxcaHk5GQiIsrLyyOZTEZHjx4VyhMSEsjT01PjPGtra+Hz5uLiQhcuXFApv3HjBtna2mqc165dOzp37pzwOD8/n6ysrISjN2vXrqVXX31V4zwiIm9vb9q7d6/w+LfffiNvb28KDw+n2traF/rc9OnTh7766iuV8i1bttBLL72kcZ6NjY2wD6uqqsjc3Jx++eUXofzmzZta7cNnzwA8u9jY2GjV3ldeeYVGjhxJ165dE34k3rlzh8zNzenIkSPCOm3U78Oqqir64YcfaMSIESSXy6l9+/Y0f/58unHjhlZ5/D158e8Ja9n4JhAtODg4YP369bhz506DJT09Hfv27dM688svv8TixYsRHByMtWvX6qyuOTk5wjVCCoUCjx8/BgCMGjUK+/fv1zrv8uXL6Ny5c4P1nTt3xtWrV7XOu3fvHgICAgAA1tbWKC4uBgBMmjQJ27Zt0zjn0aNHcHd3Fx63a9cOR48eRXFxMUaMGKEyR6OmZDIZgLp9+Oy1ja+88gru37+vdSYAdO3aFbm5uQ3WP3z4EN7e3hrn1NbWwsLCQrTcwsICtbW1GucVFBSgQ4cOAOo+461bt1bZp97e3sjOztY4r3fv3jh27BiAuuutMjIyVMozMjJgbW2tcV51dbXK9UsKhQLV1dV48uQJAGD48OG4fv26xnlA3STuT1/P6e3tjcTERCQlJWHSpEmoqanRKg/43+fm6c92vYCAANy5c0fjLAsLC5SXlwMAKisrUVtbKzwGgLKyMq2uN6uoqMAHH3yA1atXq10+/PBDjbMA4MyZM/D29kZYWBjy8/Ph7u4ODw8PAICrqyvc3d1VPkPaMDc3R1hYGPbv34+MjAz86U9/wg8//IAePXpodY0if09e/HvCWjhD90Cbk+HDh1NMTIxo+cWLF7U6bfS0zMxMGjx4MIWEhFB2dvYLHwHs2rUrpaSkEBHRgAEDaMWKFUREtH37dnJyctI6r0+fPjRp0iThFAURUUVFBU2aNEmra/bqde7cWfjF6+PjQ19++SURER06dEjjaxSJ6o4kqjsyWVxcTP7+/vTKK69ofSRn+vTpNHfuXHJ2dqbDhw+rlJ8/f57atWuncd7jx4+FZf/+/fTSSy/Rjh076P79+3T//n3asWMH9erVS20bxEyYMIH69OnT4IgBEdGFCxfIx8eHJk6cqHGem5sbpaamCo8XLFhAeXl5wuOLFy9q1eZ9+/aRg4MDbdiwgTZs2EAeHh709ddf0+nTp+nbb7+lTp060bx58zTOGzZsmMpR4VWrVpGLi4vw+MKFC1rVj6ju8/f00Zt6Dx48oK5du9KwYcO0/twsX76c4uLiyMXFhU6cOKFSfunSJa0+12+99RaNGjWKTp06RdOmTaO+ffvSyJEjqaSkhJ48eUJjx46lkJAQjfMCAgLo888/Fy1vzPXLREQHDhygjh070j/+8Q+qqal5ob9bT59GV+fo0aM0YcIEjfP4e/Li3xPWsnEHUAs7d+6kzZs3i5bn5+fTxo0bG51fW1tL//jHP4QLd1+kA7hgwQJavnw5EdV1+szNzcnb25ssLCxowYIFWuelpqaSs7MzOTk50ZAhQ2jIkCHk5OREzs7OKn8UNRUREUEff/wxEdWdmrC2tqahQ4eSnZ0dffDBBxrn/PnPf6axY8eqLSsqKiI/Pz+t/mELDAykoKAgYVm/fr1KeUxMDAUGBmqc9+wNNE9fMvDsY03l5+dTSEgIyWQycnBwoO7du1P37t3JwcGBzMzMKDQ0lAoKCjTOGz16tGTnYO3atTR48GCN84iIfvjhB+rYsWODSyasrKxozpw5Wl3Xdf78eXJwcCClUklubm5kYWFB27ZtU6nf+++/r1X9IiIiRD9nmZmZ5O3trdV74u7urnIN7+rVq1XKP//8c+rfv7/GeTdv3qQuXbqQTCajHj16UGZmJo0ePZrMzc3J3NycnJyc6Pz58xrnLV++XPi+qXPv3j0KDw/XOO9pOTk5FBoaSgMHDnyhDuDTp9F1gb8nL/49YS2bjIjI0Echmarz58/j1KlTeP/992Fvb6+TzJSUFCQlJaFLly548803G5Xx5MkTbN26VTiN0KNHD0yYMAFt2rTROqu2tha1tbXC8Cfbt28X6jd9+nTJUzdPKygoQFZWFl566SW15cXFxbhw4QICAwO1rqM66enpsLCwQMeOHTV6/okTJzTO1raO165dQ0pKisrwFv7+/ujevbtWOc9z5swZtG7dWushcGpqanDhwgWkp6ejtrYWLi4u8PHxQdu2bbWuQ3Z2Nvbt24eKigoMHjwYPXv21DrjaRkZGbh+/TqCg4PVlmdlZeHIkSOYPHnyC71OvZSUFFhaWqJPnz5abZeXlwdHR0fhcUJCAsrKyuDv76+y3hh88cUXOH78ONasWaPx9+NpJ06cwIABAxo1JJKU69evIzk5mb8njD2DO4A6UF1djfLycigUCqPOZIwxxhgDeCYQrezduxcbN25UWbd8+XIoFArY2dlh+PDhKCgoMGjmP//5zwYXE78IXefVO3PmDOLi4hAVFYWoqCjExcXh7NmzOn+d3NxcLFu2zKB5P/74Y6NuRnmezMxMlJSUNFhfVVWFkydPct5z5OXl4fjx48jPzwcA/P7771i5ciWWLVsmDNTdkvLU8fT0xG+//aaTrKbI02UmEeH48eNYv3499u3bh6qqKs5jps1wZ5+bn6CgIJXBNE+fPk1mZmYUGxtLP/74I3Xv3p3mzp1r0EyZTEZyuZyGDh1K27dvV7lpozF0nZebm0uvv/46yWQycnd3p379+lG/fv3I3d2dZDIZvf766zq9DqixF7frMk8mk5GNjQ1FRkYKN+a8iKysLPL19SUzMzOSy+U0adIklcGptR3CxNTyiOquabW1tSWZTEb29vZ07tw56ty5M3Xp0oW8vLzI2tpaq2vsjD1P1wPON8UA9rrODA0NpcLCQiKqG7bFz8+PZDIZOTk5kZmZGXXv3p0ePnzIecxkcQdQC05OTip3lM2dO5eCg4OFx/v37ydvb2+DZspkMtqwYQO99dZb1KpVK3J0dKS//OUvWs000ZR5YWFh5O/vT9evX29Qdv36dQoICBC9qUMdXQ/O3VSDfS9btoz69OlDMpmMXnrpJVq9ejX9/vvvWuXUe//998nPz4/Onj1LR44cIR8fH+rbt68wwLS2gxibWh4R0dChQ2nq1KlUVFREq1atoo4dO6oMCjxlyhQaM2ZMi8nT9YDzTTGAfVPUsf7H5MyZM6lnz56Unp5ORET3798nHx8fmjFjBucxk8UdQC1YWVlRRkaG8NjX15c++eQT4fHdu3epdevWBs18+o9Abm4urVy5krp3705mZmbk6+tL69ato6KiIoPlKRQKtcMy1Dt37hwpFAqt6qfLwbmbaoaD+n147tw5mjlzJtnZ2ZGlpSWNGzeuwVAzz+Pq6qpy53V5eTm9+eab9Oqrr1JeXp7WR8RMLY+obmDk+sHXKysryczMTOU1zp8/Tx06dGgxeboecL4pBrDXdebT37tu3brR7t27VcqPHj3a6A6lKeSxlo87gFrw8vKigwcPElHdOHMWFhZ06tQpoVzbMeKaIlNsKIWTJ0/S5MmTqU2bNtSmTRuD5Tk6OlJiYqJo+fHjx8nR0VGrvG+++UZl2rqnl/3792vVOdB1HpH6fVhWVkabNm2ioKAgMjMzIw8PD43z2rRpQzdv3lRZV1VVRWPGjKHevXtTWlqaVnU0tbz6zDt37giPn56NhogoIyNDq9lZjD2PqG4Yq06dOtGaNWuEdS/SYdN1nq4zZTKZcMrT2dm5wSw8d+/eJUtLS85jJotvAtHCuHHjMGfOHGzevBmRkZFQKpXo37+/UH7u3Dl069bNoJn1sxE8a+DAgdi4cSOysrKwevVqg+W98847mDx5Mnbt2oWioiJhfVFREXbt2oUpU6bg3Xff1TjPx8cHWVlZwswDzy4dOnQAaXGju67zAPX70MrKCpMmTcLx48dx48YNTJgwQeM8T09PpKWlqawzNzfHjh074OnpiVGjRmlVP1PLA4BOnTohPT1deLx9+3a4uLgIj7Ozs9GuXbsWkwcAf/jDH5CcnIxdu3YhNDRUGBalsXSd1xSZ4eHhePvtt1FVVdVgJpacnBzY2dlxHjNZ3AHUwuLFi+Hr64vZs2fj4sWL2LJlC+RyuVC+bds2rcfY03Xm8zonNjY2iIyMNFjeZ599htDQUIwfPx729vawtraGtbU17O3tMX78eISGhuLTTz/VOG/GjBnCFFTquLm5YcOGDQbLA56/D729vbF8+XKN80JDQ7Fu3boG6+s7Ra+++qpW9TO1PAAYP348Hj58KDweOXKkyrRbe/bsQb9+/VpMXr0OHTrg6NGjeOONN9CnTx+tf8w0dZ4uMydPngxnZ2fY2trirbfeanAn/o8//qjVZ8fU8ljLx+MAMoMoKirC+fPnVQZn9fHxUZnLsqXIyMiAm5ub6NFUbVVXV6O0tFR0X1VXV+PBgwcaz8VqanmaKC0thVwuh6WlZYvN0/WA800xgH1TZNZ78uQJ5HI5rKysOI+ZJO4AviD6/2MtlZWVISAgQCd/pJoiU9cDSxv7QNWm1l7A+Nts7HlNkcl5xpfJeYzV4VPAWigsLMTkyZPRq1cvREZGoqioCAMHDsTQoUPx5ptvokePHg2uVdJ3pq4Hlm6Kwa+laDvQcnNvL9Dy2mzsec2hjqaW1xzqaGp5zAQY4s6T5ioiIoK6dOlCsbGx5OfnR/7+/tS/f39KSUmhM2fOUFBQEI0aNcqgmboeWLopBr+Wou1Ay829vUQtr83Gntcc6mhqec2hjqaWx1o+7gBqwdXVVRjCJDMzk2QyGR0/flwoT01Npfbt2xs0U9cDS+s6T9cDLRt7e4lMr83Gntcc6mhqec2hjqaWx1o+c0MfgWxOcnNz0bVrVwB1d6pZWVmhU6dOQrmbmxsePXpk0Mzi4mI4OjoKj0+dOoVx48YJj1966SVkZWUZLO/VV1+FTCZTe2df/XptbpYw9vYCptdmY89rDnU0tbzmUEdTy2MtH18DqIXa2lqVIVrkcrnKP9yNuctT15kdOnQQJoovKSnBpUuXEBAQIJTn5eWhdevWBstzcHDA+vXrcefOnQZLeno69u3bp3FWU9RP13mA6bXZ2POaQx1NLa851NHU8ljLx0cAtfT1118Ld1NVV1dj48aNwoCsxcXFBs+sH1g6OjoaBw4ceOGBpXWd9/RAy+oUFhZqNe6XsbcXML02G3tec6ijqeU1hzqaWh4zAYY8/9zcuLu7N5ioXN1iyMzS0lKaNGkS2dnZUffu3enkyZMq5UFBQfR///d/BsvbuXMnbd68WbQ8Pz+fNm7caLD66TqPyPTabOx5zaGOppbXHOpoanms5eNxABljjDHGTAxfA6iF5OTkBtdrbdq0CZ07d4azszOmTZuGiooKg2c+i4hw7Ngx7N+/XyfjQOk6D6g79V1SUqKTrObQXsC02mzseU2RyXkvztjraGp5rIXR7wHH5i04OFjlEHpaWhqZm5vT1KlT6Z///CcplUpasmSJQTMLCgro/fffp5dffpmmTp1Kjx8/pgEDBpBMJiOZTEbt27enS5cuGSxvz549tGHDBpV1sbGxZGlpSXK5nIYNG0b5+fkGq5+u84hMr83Gntcc6mhqec2hjqaWx1o+PgKohUuXLmHIkCHC4+3bt8PPzw/r16/HX//6V3zxxRf4/vvvDZr5t7/9DcnJyRg/fjwuX76MkJAQ1NTUIDk5GampqejRowc++ugjg+V99tlnePLkifA4KSkJixcvxqJFi/D999/j/v37iImJaTHtNcU2G3tec6ijqeU1hzqaWh4zAYbugTYnlpaWdO/ePeHxgAEDKDY2Vnh8584dUigUBs3U9cDSxj5QtbG3l8j02mzsec2hjqaW1xzqaGp5rOXjDqAW3Nzc6MSJE0REVFFRQdbW1nT06FGhPC0tjezt7Q2aKZfLKSsrS3hsbW1Nt27dEh5nZ2drNeuErvOsrKwoIyNDeOzr60uffPKJ8Pju3bvUunVrg9VP13lEptdmY89rDnU0tbzmUEdTy2MtH58C1sKIESOwcOFC/Pzzz4iKikLr1q0xcOBAoTwtLQ1eXl4GzdT1wNLGPlC1sbcXML02G3tec6ijqeU1hzqaWh5r+XggaC3ExMTg7bffRmBgIBQKBeLj42FhYSGUf/vttxg+fLjBM3U9WLUxD1St6/o1RZ4pttnY85pDHU0trznU0dTyWMvG4wA2wuPHj6FQKFR+bQFAfn4+FAqFSgdO35keHh4a/dK7c+eOQfLKysowffp07N27F0qlEuvWrVM54jlo0CCEhIRgwYIFBqmfrvMA02uzsec1RSbnvVheU2Ry3ovlsZaPO4CMMcYYYyaGrwFsYXQ9sLSxD1TdHNsLtOw2G3tec6ijqeU1hzqaWh4zAYa8A4Xpnq4Hljb2gaqNvb1EptdmY89rDnU0tbzmUEdTy2MtH3cAWxilUklnz54VHkdHR9OAAQOEx99//z316NHDYHkRERHUpUsXio2NJT8/P/L396f+/ftTSkoKnTlzhoKCgmjUqFEGq5+u84hMr83Gntcc6mhqec2hjqaWx1o+vgu4hSkoKED79u2FxydOnEBoaKjw2NfXF/fv3zdY3n//+1989913CAwMRHh4ODp16oRjx47Bz88PALBy5UqMHj3aYPXTdR5gem029rzmUEdTy2sOdTS1PNby8TWALUz79u2Fu7wqKytx4cIFlSFHiouL0apVK4Pl5ebmomvXrgDqxsezsrJCp06dhHI3Nzc8evTIYPXTdR5gem029rzmUEdTy2sOdTS1PNbycQewhdH1wNLGPlC1sbcXML02G3tec6ijqeU1hzqaWh4zAYY+B81069GjRzRw4ECSyWTUtm1b2rlzp0r54MGDKTo62mB5MpmMli9fTnFxcRQXF0dWVla0aNEi4XFsbKxW0xUZe3uJTK/Nxp7XHOpoannNoY6mlsdaPh4HsIXS9WDVxjpQta7r1xR5ptjm5pDXHOpoannNoY6mlsdaLu4AMsYYY4yZGL4GkOmVKQ5WaoptZowxZty4A8j0aunSpbhy5Yrw+PLly4iIiMDQoUOxcOFC7N27FytWrDBgDXXPFNvMGGPMuPEpYKZXLi4u2Lt3L/r27QsA+Oijj3DixAmcOnUKALBjxw4sWbIEV69eNWQ1dcoU28wYY8y48RFAplemOFipKbaZMcaYceMOINMrUxys1BTbzBhjzLhxB5DplSkOVmqKbWaMMWbceC5gplcxMTF4++23ERgYCIVCgfj4eJVxqb799lsMHz7cgDXUPVNsM2OMMePGN4EwgzDFwUpNsc2MMcaME3cAGWOMMcZMDF8DyBhjjDFmYrgDyBhjjDFmYrgDyBhjjDFmYrgDyBhjjDFmYrgDyBhjjDFmYrgDyBhjjDFmYrgDyBhjjDFmYrgDyBhjjDFmYrgDyBhjjDFmYrgDyBhjjDFmYrgDyBhjjDFmYrgDyBhjjDFmYrgDyBhjjDFmYv4fBL6QXQcaiZAAAAAASUVORK5CYII=;" vertex="1" parent="1">
          <mxGeometry x="1390" y="175" width="753.33" height="565" as="geometry" />
        </mxCell>
        <mxCell id="VPC5jBnNboCeoQjzzpag-12" value="&lt;b&gt;&lt;font style=&quot;font-size: 24px;&quot;&gt;Real correlations&lt;/font&gt;&lt;/b&gt;" style="text;html=1;strokeColor=none;fillColor=none;align=center;verticalAlign=middle;whiteSpace=wrap;rounded=0;" vertex="1" parent="1">
          <mxGeometry x="220" y="129" width="410" height="30" as="geometry" />
        </mxCell>
        <mxCell id="VPC5jBnNboCeoQjzzpag-13" value="&lt;b&gt;&lt;font style=&quot;font-size: 24px;&quot;&gt;SynSigGen correlations&lt;/font&gt;&lt;/b&gt;" style="text;html=1;strokeColor=none;fillColor=none;align=center;verticalAlign=middle;whiteSpace=wrap;rounded=0;" vertex="1" parent="1">
          <mxGeometry x="870" y="129" width="410" height="30" as="geometry" />
        </mxCell>
        <mxCell id="VPC5jBnNboCeoQjzzpag-14" value="&lt;b&gt;&lt;font style=&quot;font-size: 24px;&quot;&gt;SigNet Generator correlations&lt;/font&gt;&lt;/b&gt;" style="text;html=1;strokeColor=none;fillColor=none;align=center;verticalAlign=middle;whiteSpace=wrap;rounded=0;" vertex="1" parent="1">
          <mxGeometry x="1561.6599999999999" y="129" width="410" height="30" as="geometry" />
        </mxCell>
      </root>
    </mxGraphModel>
  </diagram>
</mxfile>
